<svg xmlns="http://www.w3.org/2000/svg" viewBox="0 0 122.8 117.66"><defs><style>.cls-1{isolation:isolate;}.cls-2{fill:#ffb83b;}.cls-3,.cls-5{fill:#ff9d27;}.cls-4{fill:#ffe375;}.cls-12,.cls-14,.cls-5{opacity:0.5;}.cls-6{fill:#47353f;}.cls-7{fill:#56414e;}.cls-8{fill:#3a2832;}.cls-9{fill:#664f5e;}.cls-10{fill:#2f5bc1;}.cls-11{fill:#3973d4;}.cls-12{fill:#60a4f4;}.cls-13{mix-blend-mode:lighten;opacity:0.3;}.cls-14{fill:#7dbeff;}</style></defs><g class="cls-1"><g id="Layer_2" data-name="Layer 2"><g id="Layer_1-2" data-name="Layer 1"><path class="cls-2" d="M67.86,91.29v6.78c.34,0,.67,0,1-.1V91.29Z"/><path class="cls-2" d="M66.49,91.29v6.79h.86v-6.8Z"/><path class="cls-2" d="M58.94,91.29v1.93a3.31,3.31,0,0,0,.6,1.84V91.29Z"/><path class="cls-2" d="M69.37,91.29v6.6c.34-.06.67-.13,1-.22V91.29Z"/><path class="cls-2" d="M70.87,91.29v6.24l.74-.26v-6Z"/><path class="cls-2" d="M61.3,91.29v5.36A7.19,7.19,0,0,0,62,97V91.29Z"/><path class="cls-2" d="M65.12,91.29V98l.86.1V91.29Z"/><path class="cls-2" d="M62.54,91.29v6l.73.26V91.29Z"/><path class="cls-2" d="M63.78,91.29v6.38c.27.08.55.14.83.2V91.29Z"/><path class="cls-2" d="M60.05,91.29v4.38a5.87,5.87,0,0,0,.74.64v-5Z"/><path class="cls-2" d="M75.2,91.29h-.6v3.77a3.23,3.23,0,0,0,.6-1.84Z"/><path class="cls-2" d="M73.36,91.29v5a6.55,6.55,0,0,0,.73-.64V91.29Z"/><path class="cls-2" d="M72.12,91.29V97c.25-.12.5-.25.73-.39V91.29Z"/><path class="cls-3" d="M59.54,91.29v3.77a5.69,5.69,0,0,0,.51.61V91.29Z"/><path class="cls-3" d="M60.79,91.29v5c.16.12.33.23.51.34V91.29Z"/><path class="cls-3" d="M62,91.29V97l.51.23v-6Z"/><path class="cls-3" d="M63.27,91.29v6.24l.51.14V91.29Z"/><path class="cls-3" d="M64.61,91.29v6.58l.51.08V91.29Z"/><path class="cls-3" d="M66,91.29v6.76l.51,0V91.29Z"/><path class="cls-3" d="M67.35,91.29v6.8l.51,0V91.29Z"/><path class="cls-3" d="M68.86,91.29V98l.51-.08v-6.6Z"/><path class="cls-3" d="M74.09,91.29v4.38a4.71,4.71,0,0,0,.51-.61V91.29Z"/><path class="cls-3" d="M72.85,91.29v5.36c.18-.11.35-.22.51-.34v-5Z"/><path class="cls-3" d="M71.61,91.29v6l.51-.23V91.29Z"/><path class="cls-3" d="M70.36,91.29v6.38l.51-.14V91.29Z"/><path class="cls-4" d="M67.07,86.41c-4.49,0-8.13,2.18-8.13,4.88s3.64,4.88,8.13,4.88S75.2,94,75.2,91.29,71.56,86.41,67.07,86.41Z"/><path class="cls-3" d="M67.07,87.38c3.78,0,6.86,1.78,7.07,4a1.94,1.94,0,0,0,0-.24c0-2.35-3.17-4.26-7.09-4.26S60,88.8,60,91.15a1.94,1.94,0,0,0,0,.24C60.21,89.16,63.29,87.38,67.07,87.38Z"/><path class="cls-5" d="M67.07,95.4c3.78,0,6.86-1.77,7.07-4-.21-2.23-3.29-4-7.07-4s-6.86,1.78-7.07,4C60.21,93.63,63.29,95.4,67.07,95.4Z"/><path class="cls-3" d="M71.43,91.14c.61,1.71-1,2.21-2.06,2.34a9.73,9.73,0,0,1-4.87-.84c-1.23-.66-2-1.55-1.59-2.43s2.35-1.33,3.73-1.37c.5,0,.18-.46,0-.46-2.21,0-3.73.46-4.34,1.55s.21,2.48,1.84,3.34c2.44,1.29,5.63,1.24,7.1.12a1.73,1.73,0,0,0,.66-2.3C71.82,90.9,71.37,91,71.43,91.14Z"/><path class="cls-3" d="M69.6,90.75c-.9.53-3.66,2-5.36,3.13-.39.25.08.48.46.26C66,93.39,68.41,92.08,70,91,70.21,90.87,69.81,90.63,69.6,90.75Z"/><path class="cls-3" d="M68.07,89.92c-.9.52-3.66,2-5.36,3.12-.39.25.08.48.46.26,1.27-.74,3.71-2.06,5.32-3.14C68.68,90,68.28,89.8,68.07,89.92Z"/><path class="cls-2" d="M43.11,93.83v6.78q.51,0,1-.09V93.83Z"/><path class="cls-2" d="M41.74,93.83v6.79l.58,0h.28v-6.8Z"/><path class="cls-2" d="M34.19,93.83v1.93a3.31,3.31,0,0,0,.6,1.84V93.83Z"/><path class="cls-2" d="M44.61,93.83v6.61c.35-.06.68-.14,1-.22V93.83Z"/><path class="cls-2" d="M46.12,93.83v6.24l.73-.26v-6Z"/><path class="cls-2" d="M36.54,93.83v5.36a7.37,7.37,0,0,0,.74.39V93.83Z"/><path class="cls-2" d="M40.37,93.83v6.66l.86.1V93.83Z"/><path class="cls-2" d="M37.79,93.83v6l.73.26V93.83Z"/><path class="cls-2" d="M39,93.83v6.39l.83.19V93.83Z"/><path class="cls-2" d="M35.3,93.83v4.38a5.67,5.67,0,0,0,.73.64v-5Z"/><path class="cls-2" d="M50.45,93.83h-.6V97.6a3.31,3.31,0,0,0,.6-1.84Z"/><path class="cls-2" d="M48.61,93.83v5a5.67,5.67,0,0,0,.73-.64V93.83Z"/><path class="cls-2" d="M47.36,93.83v5.75a7.37,7.37,0,0,0,.74-.39V93.83Z"/><path class="cls-3" d="M34.79,93.83V97.6a4.85,4.85,0,0,0,.51.61V93.83Z"/><path class="cls-3" d="M36,93.83v5l.51.34V93.83Z"/><path class="cls-3" d="M37.28,93.83v5.75c.16.08.33.16.51.23v-6Z"/><path class="cls-3" d="M38.52,93.83v6.24l.51.15V93.83Z"/><path class="cls-3" d="M39.86,93.83v6.58l.51.08V93.83Z"/><path class="cls-3" d="M41.23,93.83v6.76l.51,0V93.83Z"/><path class="cls-3" d="M42.6,93.83v6.8l.51,0V93.83Z"/><path class="cls-3" d="M44.1,93.83v6.69l.51-.08V93.83Z"/><path class="cls-3" d="M49.34,93.83v4.38a4.85,4.85,0,0,0,.51-.61V93.83Z"/><path class="cls-3" d="M48.1,93.83v5.36l.51-.34v-5Z"/><path class="cls-3" d="M46.85,93.83v6c.18-.07.35-.15.51-.23V93.83Z"/><path class="cls-3" d="M45.61,93.83v6.39l.51-.15V93.83Z"/><path class="cls-4" d="M42.32,89c-4.49,0-8.13,2.19-8.13,4.88s3.64,4.88,8.13,4.88,8.13-2.18,8.13-4.88S46.81,89,42.32,89Z"/><path class="cls-3" d="M42.32,89.93c3.78,0,6.86,1.77,7.07,4a1.94,1.94,0,0,0,0-.24c0-2.35-3.17-4.26-7.09-4.26s-7.09,1.91-7.09,4.26a1.94,1.94,0,0,0,0,.24C35.46,91.7,38.54,89.93,42.32,89.93Z"/><path class="cls-5" d="M42.32,97.94c3.78,0,6.86-1.77,7.07-4-.21-2.23-3.29-4-7.07-4s-6.86,1.77-7.07,4C35.46,96.17,38.54,97.94,42.32,97.94Z"/><path class="cls-3" d="M46.88,96.24a6.81,6.81,0,0,0-.81-.8,1.58,1.58,0,0,0,.14-1.5c-.37-1-1.55-1.07-2.43-1a5.45,5.45,0,0,0-1.21.27c-.85-.47-1.66-1.06-2.53-1.49a4.54,4.54,0,0,1,1.74-.28.12.12,0,0,0,0-.23,3.13,3.13,0,0,0-2.32.26,4.51,4.51,0,0,0-1.16-.31s-.07.08,0,.1l.79.47a1.28,1.28,0,0,0,0,2.24c1,.69,2.22.23,3.23-.09l.27-.09c.86.49,1.66,1.12,2.49,1.69a3.59,3.59,0,0,1-1.43.57,4.6,4.6,0,0,1-1.92,0,.14.14,0,0,0-.14.23c.77.73,2.64.54,3.77-.19l.28-.21a10.35,10.35,0,0,0,1,.57A.13.13,0,0,0,46.88,96.24ZM40,93.73c-1-.17-1.19-1-.59-1.58a.63.63,0,0,1,.13-.11L42,93.43l-.38.13A6.16,6.16,0,0,1,40,93.73Zm4-.19c.7,0,2.09,0,1.56,1.48h0a20.87,20.87,0,0,0-2.25-1.38A4.1,4.1,0,0,1,44,93.54Z"/><path class="cls-2" d="M57.84,98.7v6.78q.51,0,1-.09V98.7Z"/><path class="cls-2" d="M56.47,98.7v6.79l.58,0h.28V98.7Z"/><path class="cls-2" d="M48.92,98.7v1.93a3.23,3.23,0,0,0,.6,1.84V98.7Z"/><path class="cls-2" d="M59.34,98.7v6.61c.35-.06.68-.14,1-.22V98.7Z"/><path class="cls-2" d="M60.85,98.7v6.24l.73-.26v-6Z"/><path class="cls-2" d="M51.27,98.7v5.36a7.37,7.37,0,0,0,.74.39V98.7Z"/><path class="cls-2" d="M55.1,98.7v6.66l.86.1V98.7Z"/><path class="cls-2" d="M52.52,98.7v6l.73.26V98.7Z"/><path class="cls-2" d="M53.76,98.7v6.39l.83.19V98.7Z"/><path class="cls-2" d="M50,98.7v4.38a5.67,5.67,0,0,0,.73.64v-5Z"/><path class="cls-2" d="M65.18,98.7h-.6v3.77a3.31,3.31,0,0,0,.6-1.84Z"/><path class="cls-2" d="M63.33,98.7v5a5.16,5.16,0,0,0,.74-.64V98.7Z"/><path class="cls-2" d="M62.09,98.7v5.75a7.19,7.19,0,0,0,.73-.39V98.7Z"/><path class="cls-3" d="M49.52,98.7v3.77a4.85,4.85,0,0,0,.51.61V98.7Z"/><path class="cls-3" d="M50.76,98.7v5c.16.12.33.23.51.34V98.7Z"/><path class="cls-3" d="M52,98.7v5.75c.16.08.33.16.51.23v-6Z"/><path class="cls-3" d="M53.25,98.7v6.24l.51.15V98.7Z"/><path class="cls-3" d="M54.59,98.7v6.58l.51.08V98.7Z"/><path class="cls-3" d="M56,98.7v6.76l.51,0V98.7Z"/><path class="cls-3" d="M57.33,98.7v6.8l.51,0V98.7Z"/><path class="cls-3" d="M58.83,98.7v6.69l.51-.08V98.7Z"/><path class="cls-3" d="M64.07,98.7v4.38a4.85,4.85,0,0,0,.51-.61V98.7Z"/><path class="cls-3" d="M62.82,98.7v5.36c.18-.11.35-.22.51-.34v-5Z"/><path class="cls-3" d="M61.58,98.7v6c.18-.07.35-.15.51-.23V98.7Z"/><path class="cls-3" d="M60.34,98.7v6.39l.51-.15V98.7Z"/><path class="cls-4" d="M57.05,93.82c-4.49,0-8.13,2.19-8.13,4.88s3.64,4.88,8.13,4.88,8.13-2.19,8.13-4.88S61.54,93.82,57.05,93.82Z"/><path class="cls-3" d="M57.05,94.8c3.78,0,6.86,1.77,7.07,4a1.94,1.94,0,0,0,0-.24c0-2.35-3.17-4.26-7.09-4.26S50,96.21,50,98.56a1.94,1.94,0,0,0,0,.24C50.19,96.57,53.27,94.8,57.05,94.8Z"/><path class="cls-5" d="M57.05,102.81c3.78,0,6.86-1.77,7.07-4-.21-2.23-3.29-4-7.07-4s-6.86,1.77-7.07,4C50.19,101,53.27,102.81,57.05,102.81Z"/><path class="cls-3" d="M61.41,98.55c.6,1.71-1,2.21-2.07,2.34a9.69,9.69,0,0,1-4.86-.84c-1.23-.66-2-1.55-1.6-2.43s2.36-1.33,3.74-1.37c.49,0,.18-.46,0-.46-2.22,0-3.74.46-4.34,1.55s.21,2.48,1.84,3.34c2.44,1.3,5.63,1.24,7.1.12a1.72,1.72,0,0,0,.66-2.3C61.8,98.32,61.34,98.36,61.41,98.55Z"/><path class="cls-3" d="M59.58,98.17c-.9.52-3.66,2-5.36,3.12-.39.25.08.48.45.26,1.28-.74,3.71-2.06,5.33-3.14C60.19,98.29,59.78,98.05,59.58,98.17Z"/><path class="cls-3" d="M58.05,97.33c-.91.53-3.66,2-5.37,3.13-.39.25.09.47.46.25,1.28-.74,3.71-2.06,5.33-3.13C58.65,97.45,58.25,97.21,58.05,97.33Z"/><path class="cls-2" d="M55.44,110.85v6.78c.33,0,.67,0,1-.09v-6.69Z"/><path class="cls-2" d="M54.07,110.85v6.79l.58,0h.28v-6.8Z"/><path class="cls-2" d="M46.52,110.85v1.93a3.23,3.23,0,0,0,.6,1.84v-3.77Z"/><path class="cls-2" d="M56.94,110.85v6.61c.34-.06.68-.14,1-.22v-6.39Z"/><path class="cls-2" d="M58.45,110.85v6.24l.73-.26v-6Z"/><path class="cls-2" d="M48.87,110.85v5.36c.23.14.48.27.73.39v-5.75Z"/><path class="cls-2" d="M52.69,110.85v6.66l.87.1v-6.76Z"/><path class="cls-2" d="M50.11,110.85v6c.24.09.48.18.74.26v-6.24Z"/><path class="cls-2" d="M51.36,110.85v6.39l.82.19v-6.58Z"/><path class="cls-2" d="M47.63,110.85v4.38a5.67,5.67,0,0,0,.73.64v-5Z"/><path class="cls-2" d="M62.78,110.85h-.6v3.77a3.31,3.31,0,0,0,.6-1.84Z"/><path class="cls-2" d="M60.93,110.85v5a5.16,5.16,0,0,0,.74-.64v-4.38Z"/><path class="cls-2" d="M59.69,110.85v5.75a7.19,7.19,0,0,0,.73-.39v-5.36Z"/><path class="cls-3" d="M47.12,110.85v3.77a4.13,4.13,0,0,0,.51.61v-4.38Z"/><path class="cls-3" d="M48.36,110.85v5c.16.12.33.23.51.34v-5.36Z"/><path class="cls-3" d="M49.6,110.85v5.75l.51.23v-6Z"/><path class="cls-3" d="M50.85,110.85v6.24l.51.15v-6.39Z"/><path class="cls-3" d="M52.18,110.85v6.58l.51.08v-6.66Z"/><path class="cls-3" d="M53.56,110.85v6.76l.51,0v-6.79Z"/><path class="cls-3" d="M54.93,110.85v6.8l.51,0v-6.78Z"/><path class="cls-3" d="M56.43,110.85v6.69l.51-.08v-6.61Z"/><path class="cls-3" d="M61.67,110.85v4.38a4.85,4.85,0,0,0,.51-.61v-3.77Z"/><path class="cls-3" d="M60.42,110.85v5.36c.18-.11.35-.22.51-.34v-5Z"/><path class="cls-3" d="M59.18,110.85v6c.18-.07.34-.15.51-.23v-5.75Z"/><path class="cls-3" d="M57.94,110.85v6.39l.51-.15v-6.24Z"/><path class="cls-4" d="M54.65,106c-4.49,0-8.13,2.19-8.13,4.88s3.64,4.88,8.13,4.88,8.13-2.19,8.13-4.88S59.14,106,54.65,106Z"/><path class="cls-3" d="M54.65,107c3.77,0,6.85,1.77,7.07,4a1.94,1.94,0,0,0,0-.24c0-2.35-3.18-4.26-7.09-4.26s-7.09,1.91-7.09,4.26a1.94,1.94,0,0,0,0,.24C47.79,108.72,50.87,107,54.65,107Z"/><path class="cls-5" d="M54.65,115c3.77,0,6.85-1.77,7.07-4-.22-2.23-3.3-4-7.07-4s-6.86,1.77-7.07,4C47.79,113.19,50.87,115,54.65,115Z"/><path class="cls-3" d="M54,108.64c-.13-.3-.2-.64-.35-1s-.63-.16-.57.08a7.86,7.86,0,0,0,.28.86,17.75,17.75,0,0,0,.67,1.74c-1.56-.12-3.07-.23-4.64-.3-.39,0-.45.45,0,.49,1.64.17,3.29.24,5,.4,1.13.69,2.78,1.54,4.06,2.23.28.15.78-.12.5-.28-.79-.44-4.06-2.31-4.07-2.33C54.5,110,54.22,109.25,54,108.64Z"/><path class="cls-3" d="M57.77,109.32c-.9.53-3.65,2-5.36,3.13-.39.25.08.48.46.26,1.28-.75,3.71-2.06,5.32-3.14C58.38,109.45,58,109.2,57.77,109.32Z"/><path class="cls-3" d="M59,110.11c-.9.53-3.66,2-5.36,3.13-.39.25.08.48.46.26,1.27-.75,3.71-2.06,5.32-3.14C59.56,110.23,59.16,110,59,110.11Z"/><path class="cls-2" d="M53.58,87.55v6.78c.34,0,.67,0,1-.09V87.55Z"/><path class="cls-2" d="M52.21,87.55v6.79l.58,0h.28v-6.8Z"/><path class="cls-2" d="M44.66,87.55v1.93a3.31,3.31,0,0,0,.6,1.84V87.55Z"/><path class="cls-2" d="M55.09,87.55v6.61c.34-.06.67-.14,1-.22V87.55Z"/><path class="cls-2" d="M56.59,87.55v6.24l.74-.26v-6Z"/><path class="cls-2" d="M47,87.55v5.36a7.19,7.19,0,0,0,.73.39V87.55Z"/><path class="cls-2" d="M50.84,87.55v6.66c.28,0,.57.08.86.1V87.55Z"/><path class="cls-2" d="M48.26,87.55v6l.73.26V87.55Z"/><path class="cls-2" d="M49.5,87.55v6.39c.27.07.55.14.83.19V87.55Z"/><path class="cls-2" d="M45.77,87.55v4.38a5.16,5.16,0,0,0,.74.64v-5Z"/><path class="cls-2" d="M60.92,87.55h-.6v3.77a3.23,3.23,0,0,0,.6-1.84Z"/><path class="cls-2" d="M59.08,87.55v5a5.67,5.67,0,0,0,.73-.64V87.55Z"/><path class="cls-2" d="M57.84,87.55V93.3c.25-.12.5-.25.73-.39V87.55Z"/><path class="cls-3" d="M45.26,87.55v3.77a4.85,4.85,0,0,0,.51.61V87.55Z"/><path class="cls-3" d="M46.51,87.55v5c.16.12.33.23.51.34V87.55Z"/><path class="cls-3" d="M47.75,87.55V93.3c.17.08.33.16.51.23v-6Z"/><path class="cls-3" d="M49,87.55v6.24l.51.15V87.55Z"/><path class="cls-3" d="M50.33,87.55v6.58l.51.08V87.55Z"/><path class="cls-3" d="M51.7,87.55v6.76l.51,0V87.55Z"/><path class="cls-3" d="M53.07,87.55v6.8l.51,0V87.55Z"/><path class="cls-3" d="M54.58,87.55v6.69l.51-.08V87.55Z"/><path class="cls-3" d="M59.81,87.55v4.38a4.13,4.13,0,0,0,.51-.61V87.55Z"/><path class="cls-3" d="M58.57,87.55v5.36c.18-.11.35-.22.51-.34v-5Z"/><path class="cls-3" d="M57.33,87.55v6l.51-.23V87.55Z"/><path class="cls-3" d="M56.08,87.55v6.39l.51-.15V87.55Z"/><path class="cls-4" d="M52.79,82.67c-4.49,0-8.13,2.19-8.13,4.88s3.64,4.88,8.13,4.88,8.13-2.18,8.13-4.88S57.28,82.67,52.79,82.67Z"/><path class="cls-3" d="M52.79,83.65c3.78,0,6.86,1.77,7.07,4a2.29,2.29,0,0,0,0-.25c0-2.35-3.17-4.25-7.09-4.25s-7.09,1.9-7.09,4.25a2.29,2.29,0,0,0,0,.25C45.93,85.42,49,83.65,52.79,83.65Z"/><path class="cls-5" d="M52.79,91.66c3.78,0,6.86-1.77,7.07-4-.21-2.24-3.29-4-7.07-4s-6.86,1.77-7.07,4C45.93,89.89,49,91.66,52.79,91.66Z"/><path class="cls-3" d="M52.12,85.34c-.12-.3-.2-.64-.34-1s-.63-.16-.58.08a7.89,7.89,0,0,0,.29.86,15.53,15.53,0,0,0,.67,1.74c-1.57-.12-3.08-.23-4.64-.29-.4,0-.45.44-.05.48,1.64.17,3.3.24,5,.41,1.12.68,2.77,1.53,4.06,2.22.28.15.78-.12.5-.28-.79-.44-4.07-2.31-4.08-2.33C52.64,86.67,52.37,86,52.12,85.34Z"/><path class="cls-3" d="M55.92,86c-.9.52-3.66,2-5.36,3.12-.39.25.08.48.45.26,1.28-.74,3.72-2.06,5.33-3.14C56.53,86.15,56.12,85.91,55.92,86Z"/><path class="cls-3" d="M57.1,86.81c-.91.53-3.66,2-5.37,3.13-.39.25.09.48.46.26,1.28-.75,3.71-2.06,5.33-3.14C57.7,86.94,57.3,86.69,57.1,86.81Z"/><path class="cls-2" d="M73.85,104.29v6.78c.34,0,.67,0,1-.1v-6.68Z"/><path class="cls-2" d="M72.48,104.29v6.79l.58,0h.28v-6.8Z"/><path class="cls-2" d="M64.93,104.29v1.93a3.31,3.31,0,0,0,.6,1.84v-3.77Z"/><path class="cls-2" d="M75.36,104.29v6.61c.34-.06.67-.14,1-.22v-6.39Z"/><path class="cls-2" d="M76.86,104.29v6.24c.26-.08.5-.17.74-.26v-6Z"/><path class="cls-2" d="M67.29,104.29v5.36A7.19,7.19,0,0,0,68,110v-5.75Z"/><path class="cls-2" d="M71.11,104.29V111l.86.1v-6.76Z"/><path class="cls-2" d="M68.53,104.29v6l.73.26v-6.24Z"/><path class="cls-2" d="M69.77,104.29v6.39l.83.19v-6.58Z"/><path class="cls-2" d="M66,104.29v4.38a5.16,5.16,0,0,0,.74.64v-5Z"/><path class="cls-2" d="M81.19,104.29h-.6v3.77a3.23,3.23,0,0,0,.6-1.84Z"/><path class="cls-2" d="M79.35,104.29v5a5.67,5.67,0,0,0,.73-.64v-4.38Z"/><path class="cls-2" d="M78.11,104.29V110c.25-.12.5-.25.73-.39v-5.36Z"/><path class="cls-3" d="M65.53,104.29v3.77a5.69,5.69,0,0,0,.51.61v-4.38Z"/><path class="cls-3" d="M66.78,104.29v5c.16.12.33.23.51.34v-5.36Z"/><path class="cls-3" d="M68,104.29V110c.17.08.33.16.51.23v-6Z"/><path class="cls-3" d="M69.26,104.29v6.24l.51.15v-6.39Z"/><path class="cls-3" d="M70.6,104.29v6.58l.51.08v-6.66Z"/><path class="cls-3" d="M72,104.29v6.76l.51,0v-6.79Z"/><path class="cls-3" d="M73.34,104.29v6.8l.51,0v-6.78Z"/><path class="cls-3" d="M74.85,104.29V111l.51-.07v-6.61Z"/><path class="cls-3" d="M80.08,104.29v4.38a4.71,4.71,0,0,0,.51-.61v-3.77Z"/><path class="cls-3" d="M78.84,104.29v5.36c.18-.11.35-.22.51-.34v-5Z"/><path class="cls-3" d="M77.6,104.29v6l.51-.23v-5.75Z"/><path class="cls-3" d="M76.35,104.29v6.39l.51-.15v-6.24Z"/><path class="cls-4" d="M73.06,99.41c-4.49,0-8.13,2.19-8.13,4.88s3.64,4.88,8.13,4.88,8.13-2.19,8.13-4.88S77.55,99.41,73.06,99.41Z"/><path class="cls-3" d="M73.06,100.38c3.78,0,6.86,1.78,7.07,4a1.94,1.94,0,0,0,0-.24c0-2.35-3.17-4.26-7.09-4.26S66,101.8,66,104.15a1.94,1.94,0,0,0,0,.24C66.21,102.16,69.29,100.38,73.06,100.38Z"/><path class="cls-5" d="M73.06,108.4c3.78,0,6.86-1.77,7.07-4-.21-2.23-3.29-4-7.07-4s-6.85,1.78-7.07,4C66.21,106.63,69.29,108.4,73.06,108.4Z"/><path class="cls-3" d="M77.62,106.7a6.13,6.13,0,0,0-.81-.8,1.58,1.58,0,0,0,.15-1.5c-.37-1-1.56-1.07-2.44-1a6.09,6.09,0,0,0-1.21.28c-.84-.47-1.66-1.06-2.53-1.5a4.75,4.75,0,0,1,1.74-.27.12.12,0,0,0,0-.23,3.14,3.14,0,0,0-2.32.26,4.55,4.55,0,0,0-1.15-.31c-.06,0-.07.07,0,.1l.79.46a1.29,1.29,0,0,0,0,2.25c1,.69,2.22.23,3.23-.1l.27-.08c.86.49,1.67,1.12,2.49,1.69a3.76,3.76,0,0,1-1.42.57,4.49,4.49,0,0,1-1.93,0,.14.14,0,0,0-.13.24c.76.73,2.63.54,3.76-.19l.28-.21a8.7,8.7,0,0,0,1,.56A.13.13,0,0,0,77.62,106.7Zm-6.85-2.52c-1-.16-1.19-1-.58-1.58l.13-.11,2.39,1.4-.38.13A5.67,5.67,0,0,1,70.77,104.18Zm4-.18c.69,0,2.08,0,1.55,1.48h0A20.87,20.87,0,0,0,74,104.1,4.07,4.07,0,0,1,74.74,104Z"/><path class="cls-2" d="M75.14,100.93v6.78c.34,0,.67-.06,1-.1v-6.68Z"/><path class="cls-2" d="M73.77,100.93v6.78l.58,0h.28v-6.79Z"/><path class="cls-2" d="M66.22,100.93v1.92a3.26,3.26,0,0,0,.6,1.84v-3.76Z"/><path class="cls-2" d="M76.64,100.93v6.6a9.78,9.78,0,0,0,1-.22v-6.38Z"/><path class="cls-2" d="M78.15,100.93v6.24c.25-.08.5-.17.73-.27v-6Z"/><path class="cls-2" d="M68.57,100.93v5.36c.23.14.48.26.74.39v-5.75Z"/><path class="cls-2" d="M72.4,100.93v6.65a8.08,8.08,0,0,0,.86.1v-6.75Z"/><path class="cls-2" d="M69.82,100.93v6c.23.1.48.19.73.27v-6.24Z"/><path class="cls-2" d="M71.06,100.93v6.38c.27.07.54.14.83.19v-6.57Z"/><path class="cls-2" d="M67.33,100.93v4.38a6.55,6.55,0,0,0,.73.64v-5Z"/><path class="cls-2" d="M82.48,100.93h-.6v3.76a3.26,3.26,0,0,0,.6-1.84Z"/><path class="cls-2" d="M80.64,100.93v5a6.55,6.55,0,0,0,.73-.64v-4.38Z"/><path class="cls-2" d="M79.39,100.93v5.75c.26-.13.51-.25.74-.39v-5.36Z"/><path class="cls-3" d="M66.82,100.93v3.76a4.94,4.94,0,0,0,.51.62v-4.38Z"/><path class="cls-3" d="M68.06,100.93v5l.51.34v-5.36Z"/><path class="cls-3" d="M69.31,100.93v5.75c.16.08.33.15.51.22v-6Z"/><path class="cls-3" d="M70.55,100.93v6.24l.51.14v-6.38Z"/><path class="cls-3" d="M71.89,100.93v6.57l.51.08v-6.65Z"/><path class="cls-3" d="M73.26,100.93v6.75a4.36,4.36,0,0,0,.51,0v-6.78Z"/><path class="cls-3" d="M74.63,100.93v6.79h.51v-6.78Z"/><path class="cls-3" d="M76.13,100.93v6.68l.51-.08v-6.6Z"/><path class="cls-3" d="M81.37,100.93v4.38a4.94,4.94,0,0,0,.51-.62v-3.76Z"/><path class="cls-3" d="M80.13,100.93v5.36l.51-.34v-5Z"/><path class="cls-3" d="M78.88,100.93v6c.18-.07.35-.14.51-.22v-5.75Z"/><path class="cls-3" d="M77.64,100.93v6.38l.51-.14v-6.24Z"/><path class="cls-4" d="M74.35,96.05c-4.49,0-8.13,2.18-8.13,4.88s3.64,4.87,8.13,4.87,8.13-2.18,8.13-4.87S78.84,96.05,74.35,96.05Z"/><path class="cls-3" d="M74.35,97c3.78,0,6.86,1.77,7.07,4a2,2,0,0,0,0-.25c0-2.35-3.17-4.25-7.09-4.25s-7.09,1.9-7.09,4.25a2,2,0,0,0,0,.25C67.49,98.79,70.57,97,74.35,97Z"/><path class="cls-5" d="M74.35,105c3.78,0,6.86-1.78,7.07-4-.21-2.24-3.29-4-7.07-4s-6.86,1.77-7.07,4C67.49,103.26,70.57,105,74.35,105Z"/><path class="cls-3" d="M78.91,103.34a6.81,6.81,0,0,0-.81-.8,1.6,1.6,0,0,0,.14-1.51c-.37-1-1.55-1.06-2.43-1a6.07,6.07,0,0,0-1.21.27c-.85-.47-1.66-1.06-2.53-1.49a5,5,0,0,1,1.74-.28.11.11,0,0,0,0-.22,3.13,3.13,0,0,0-2.32.25,5.5,5.5,0,0,0-1.16-.31s-.07.08,0,.11l.79.46a1.28,1.28,0,0,0,0,2.24c1,.69,2.22.23,3.23-.09l.27-.08c.86.49,1.66,1.12,2.49,1.69a3.74,3.74,0,0,1-1.43.57,4.44,4.44,0,0,1-1.92,0,.14.14,0,0,0-.14.23c.76.74,2.64.55,3.77-.19a1.86,1.86,0,0,0,.28-.21,8.66,8.66,0,0,0,1,.57A.13.13,0,0,0,78.91,103.34Zm-6.85-2.52c-1-.17-1.19-1-.59-1.58l.13-.11,2.4,1.4-.38.12A6.16,6.16,0,0,1,72.06,100.82Zm4-.18c.7,0,2.09,0,1.56,1.48h0a19.39,19.39,0,0,0-2.25-1.38A2.74,2.74,0,0,1,76,100.64Z"/><path class="cls-2" d="M52.71,93.28v6.79c.34,0,.67-.06,1-.1V93.28Z"/><path class="cls-2" d="M51.34,93.28v6.79l.58,0h.28v-6.8Z"/><path class="cls-2" d="M43.79,93.28v1.93a3.23,3.23,0,0,0,.6,1.84V93.28Z"/><path class="cls-2" d="M54.21,93.28v6.61c.34-.06.68-.13,1-.22V93.28Z"/><path class="cls-2" d="M55.72,93.28v6.24c.25-.08.5-.16.73-.26v-6Z"/><path class="cls-2" d="M46.14,93.28v5.36a7.37,7.37,0,0,0,.74.39V93.28Z"/><path class="cls-2" d="M50,93.28v6.66c.28,0,.56.08.86.1V93.28Z"/><path class="cls-2" d="M47.39,93.28v6c.23.1.48.18.73.26V93.28Z"/><path class="cls-2" d="M48.63,93.28v6.39c.27.07.54.14.83.19V93.28Z"/><path class="cls-2" d="M44.9,93.28v4.39a6.55,6.55,0,0,0,.73.64v-5Z"/><path class="cls-2" d="M60.05,93.28h-.6v3.77a3.31,3.31,0,0,0,.6-1.84Z"/><path class="cls-2" d="M58.2,93.28v5a5.87,5.87,0,0,0,.74-.64V93.28Z"/><path class="cls-2" d="M57,93.28V99a7.19,7.19,0,0,0,.73-.39V93.28Z"/><path class="cls-3" d="M44.39,93.28v3.77a4.78,4.78,0,0,0,.51.62V93.28Z"/><path class="cls-3" d="M45.63,93.28v5c.16.11.33.23.51.33V93.28Z"/><path class="cls-3" d="M46.88,93.28V99c.16.08.33.16.51.23v-6Z"/><path class="cls-3" d="M48.12,93.28v6.24c.16.06.34.1.51.15V93.28Z"/><path class="cls-3" d="M49.46,93.28v6.58l.51.08V93.28Z"/><path class="cls-3" d="M50.83,93.28V100a4.36,4.36,0,0,0,.51,0V93.28Z"/><path class="cls-3" d="M52.2,93.28v6.8h.51V93.28Z"/><path class="cls-3" d="M53.7,93.28V100l.51-.08V93.28Z"/><path class="cls-3" d="M58.94,93.28v4.39a5.77,5.77,0,0,0,.51-.62V93.28Z"/><path class="cls-3" d="M57.69,93.28v5.36c.18-.1.35-.22.51-.33v-5Z"/><path class="cls-3" d="M56.45,93.28v6c.18-.07.35-.15.51-.23V93.28Z"/><path class="cls-3" d="M55.21,93.28v6.39c.17,0,.34-.09.51-.15V93.28Z"/><path class="cls-4" d="M51.92,88.41c-4.49,0-8.13,2.18-8.13,4.87s3.64,4.88,8.13,4.88,8.13-2.18,8.13-4.88S56.41,88.41,51.92,88.41Z"/><path class="cls-3" d="M51.92,89.38c3.78,0,6.86,1.77,7.07,4a2.11,2.11,0,0,0,0-.25c0-2.35-3.18-4.25-7.09-4.25s-7.09,1.9-7.09,4.25a2.11,2.11,0,0,0,0,.25C45.06,91.15,48.14,89.38,51.92,89.38Z"/><path class="cls-5" d="M51.92,97.4c3.78,0,6.86-1.78,7.07-4-.21-2.24-3.29-4-7.07-4s-6.86,1.77-7.07,4C45.06,95.62,48.14,97.4,51.92,97.4Z"/><path class="cls-3" d="M51.25,91.08c-.12-.31-.2-.65-.35-1s-.62-.16-.57.09a7.69,7.69,0,0,0,.28.85,16,16,0,0,0,.67,1.74c-1.56-.12-3.07-.22-4.63-.29-.4,0-.45.45,0,.49,1.64.16,3.3.23,5,.4,1.13.68,2.78,1.53,4.06,2.22.28.16.78-.12.5-.27C55.36,94.9,52.08,93,52.07,93,51.77,92.4,51.49,91.68,51.25,91.08Z"/><path class="cls-3" d="M55.05,91.76c-.91.53-3.66,2-5.37,3.13-.39.25.08.47.46.25,1.28-.74,3.71-2.06,5.33-3.14C55.65,91.88,55.25,91.64,55.05,91.76Z"/><path class="cls-3" d="M56.22,92.55c-.9.52-3.65,2-5.36,3.12-.39.25.08.48.46.26,1.28-.74,3.71-2.06,5.32-3.14C56.83,92.67,56.43,92.43,56.22,92.55Z"/><path class="cls-2" d="M61.71,90.5v6.78c.34,0,.67,0,1-.09V90.5Z"/><path class="cls-2" d="M60.34,90.5v6.79l.58,0h.28V90.5Z"/><path class="cls-2" d="M52.79,90.5v1.93a3.31,3.31,0,0,0,.6,1.84V90.5Z"/><path class="cls-2" d="M63.22,90.5v6.61c.34-.06.67-.14,1-.22V90.5Z"/><path class="cls-2" d="M64.72,90.5v6.24c.26-.08.5-.17.74-.26v-6Z"/><path class="cls-2" d="M55.15,90.5v5.36a7.19,7.19,0,0,0,.73.39V90.5Z"/><path class="cls-2" d="M59,90.5v6.66c.28,0,.57.08.86.1V90.5Z"/><path class="cls-2" d="M56.39,90.5v6l.73.26V90.5Z"/><path class="cls-2" d="M57.63,90.5v6.39c.27.07.55.14.83.19V90.5Z"/><path class="cls-2" d="M53.9,90.5v4.38a5.16,5.16,0,0,0,.74.64v-5Z"/><path class="cls-2" d="M69.05,90.5h-.6v3.77a3.23,3.23,0,0,0,.6-1.84Z"/><path class="cls-2" d="M67.21,90.5v5a5.67,5.67,0,0,0,.73-.64V90.5Z"/><path class="cls-2" d="M66,90.5v5.75c.25-.12.5-.25.73-.39V90.5Z"/><path class="cls-3" d="M53.39,90.5v3.77a4.85,4.85,0,0,0,.51.61V90.5Z"/><path class="cls-3" d="M54.64,90.5v5c.16.12.33.23.51.34V90.5Z"/><path class="cls-3" d="M55.88,90.5v5.75c.17.08.33.16.51.23v-6Z"/><path class="cls-3" d="M57.12,90.5v6.24l.51.15V90.5Z"/><path class="cls-3" d="M58.46,90.5v6.58l.51.08V90.5Z"/><path class="cls-3" d="M59.83,90.5v6.76l.51,0V90.5Z"/><path class="cls-3" d="M61.2,90.5v6.8l.51,0V90.5Z"/><path class="cls-3" d="M62.71,90.5v6.69l.51-.08V90.5Z"/><path class="cls-3" d="M67.94,90.5v4.38a4.13,4.13,0,0,0,.51-.61V90.5Z"/><path class="cls-3" d="M66.7,90.5v5.36c.18-.11.35-.22.51-.34v-5Z"/><path class="cls-3" d="M65.46,90.5v6l.51-.23V90.5Z"/><path class="cls-3" d="M64.21,90.5v6.39l.51-.15V90.5Z"/><path class="cls-4" d="M60.92,85.62c-4.49,0-8.13,2.19-8.13,4.88s3.64,4.88,8.13,4.88,8.13-2.18,8.13-4.88S65.41,85.62,60.92,85.62Z"/><path class="cls-3" d="M60.92,86.6c3.78,0,6.86,1.77,7.07,4a2.29,2.29,0,0,0,0-.25c0-2.35-3.17-4.25-7.09-4.25s-7.09,1.9-7.09,4.25a2.29,2.29,0,0,0,0,.25C54.07,88.37,57.14,86.6,60.92,86.6Z"/><path class="cls-5" d="M60.92,94.61c3.78,0,6.86-1.77,7.07-4-.21-2.24-3.29-4-7.07-4s-6.85,1.77-7.07,4C54.07,92.84,57.14,94.61,60.92,94.61Z"/><path class="cls-3" d="M65.28,90.35c.61,1.71-1,2.22-2.06,2.34a9.62,9.62,0,0,1-4.87-.84c-1.23-.65-2-1.55-1.59-2.43s2.35-1.32,3.73-1.37c.5,0,.18-.46,0-.46-2.21,0-3.73.46-4.34,1.55s.21,2.48,1.84,3.34c2.44,1.3,5.63,1.24,7.1.12a1.72,1.72,0,0,0,.66-2.3C65.67,90.12,65.22,90.17,65.28,90.35Z"/><path class="cls-3" d="M63.45,90c-.9.52-3.65,2-5.36,3.12-.39.25.08.48.46.26,1.28-.74,3.71-2.06,5.32-3.14C64.06,90.09,63.66,89.85,63.45,90Z"/><path class="cls-3" d="M61.92,89.13c-.9.53-3.66,2-5.36,3.13-.39.25.08.48.46.26,1.27-.75,3.71-2.06,5.32-3.14C62.53,89.25,62.13,89,61.92,89.13Z"/><path class="cls-6" d="M57.5,87.47a10.08,10.08,0,0,0,1-4.92A36.48,36.48,0,0,0,57.6,78c-.21-1-.51-2.24,0-2.8s.85-.49,1.13-.09c.84,1.19,1.25,4.75,1.55,5.78.08.3.17.6.24.91.52-3.26,2.8-6.82,6-7.07q.26-.43.48-.87c.09-.19.19-.36.28-.55,2.23-4.72.16-10,2.21-14.67H66.85c-2,4.3.09,9.89-2.95,13.48-.38.44-.71.87-1,1.28A22.17,22.17,0,0,0,60,78.59a24.39,24.39,0,0,0-1.36-5.28l-.79-2.17a7.84,7.84,0,0,1,1.22-1.94,7.69,7.69,0,0,0,1.54-2.6c.86-2.67.44-5.64.51-8.37,0-.18-.29-.17-.31,0-.24,2.07-.48,4.18-.83,6.24s-1.37,3.35-2.67,5.09a14.28,14.28,0,0,0-3.52-3.94c-1.82-1.53-1.81-4.14-2-6.38a5.66,5.66,0,0,0-.3-1.72H47.62a25.69,25.69,0,0,0,1.08,6.94A11.88,11.88,0,0,0,49.77,67a13.53,13.53,0,0,1-5-4.57c-1.49-2.53-1.73-5.35-2.58-8,0,0-.11,0-.11,0a16.18,16.18,0,0,0,2.17,8.73,8.94,8.94,0,0,0,.66.95A8.08,8.08,0,0,1,40.25,63a13.79,13.79,0,0,1-4.09-3.34.13.13,0,0,0-.22.12c.44,1.71,2.1,3.1,3.79,4,1.47.77,4.8,1.7,6.22,1.47C47.49,67,49,67.68,51.2,68.83c.25.25.52.5.83.78,2.76,2.4,2.68,5.56,2.86,8.66-1.42-1.69-3.44-2.36-6.22-3.28a18.18,18.18,0,0,1-7.29-3.91C38.91,68.79,33.2,61.7,33,57.67c0-.35-.62-.35-.63,0-.07,3.26,1.43,6,3.38,8.68l.64.87c-1.2-.68-2.45-1.35-3.69-2.14C29,62.69,27,59.19,24.94,55.7c-.1-.18-.46-.06-.38.14a21.51,21.51,0,0,0,5.61,8.4c2.44,2.16,5.49,3.39,8,5.27a23,23,0,0,0,4.16,4c2.86,2,6.1,2.79,9.14,4.39,2.27,1.2,3.29,2.26,3.69,4.18,0,1.24.49,3.36-.16,4.4-.81,1.3-1.95,2.65-1.7,4,0,.23.45.52,1.09.8a10.59,10.59,0,0,0,1.94.62A11.41,11.41,0,0,1,57.5,87.47Z"/><path class="cls-6" d="M95.58,59.6c-2.24,3.62-4.35,8.08-9.79,8.11a11.87,11.87,0,0,0-3.56.37c1.45-2.92,1.62-6.69,3.5-9.26.06-.09-.09-.19-.16-.11a13.39,13.39,0,0,0-2.86,5.11c-.91,2.75-1.69,4.81-4,6.61.92-3.85.18-8.16.89-12A30.71,30.71,0,0,1,81.91,55c0-.05,0-.13-.11-.09a9,9,0,0,0-3.55,3.66c-2.33,3.94-.67,8.86-2.69,13a5.93,5.93,0,0,0-.07-.83c-.38-2.23-1.22-4.34-1.46-6.61s-.09-4.62-.16-6.94a.1.1,0,0,0-.18,0,17.67,17.67,0,0,0-.5,8.75c.22,1.44.66,2.82,1,4.24a4.51,4.51,0,0,1-.57,3.82c-.14.12-.3.24-.45.35-2.48,1.94-6,3.3-8.12,5.38,0,.2-.06,1.55-.1,1.75a29.78,29.78,0,0,1,3.8-3.24,15.82,15.82,0,0,1,7.49-3c.28-.32.54-.64.79-1l.21-.33a10.4,10.4,0,0,0,1-2.09,6.84,6.84,0,0,0,3.4-2.73c2.64-1.15,6.46.17,9.1-1.6s4.55-4.87,5.72-7.51C96.7,59.48,95.84,59.18,95.58,59.6Z"/><path class="cls-7" d="M65,81.39c0-.2.08-1.55.1-1.75a12.17,12.17,0,0,1,.55-3.42c.3-.48.57-1,.84-1.45-3.16.25-5.44,3.81-6,7.07-.07-.31-.16-.61-.24-.91-.3-1-.71-4.59-1.55-5.78-.28-.4-.7-.4-1.13.09s-.18,1.76,0,2.8a36.48,36.48,0,0,1,.92,4.51,10.08,10.08,0,0,1-1,4.92,11.41,11.41,0,0,0-1.12,4.4A17.27,17.27,0,0,0,67,91c.51-.75-.08-2.32-.37-3.06a16,16,0,0,0-1-1.64c1.38-5.07,7.17-7.08,10.67-11.08a15.82,15.82,0,0,0-7.49,3A29.78,29.78,0,0,0,65,81.39Z"/><path class="cls-8" d="M66.93,73.9c.09-.19.19-.36.28-.55,2.23-4.72.16-10,2.21-14.67H66.85c-2,4.3.09,9.89-2.95,13.48-.38.44-.71.87-1,1.28A9,9,0,0,0,66.93,73.9Z"/><path class="cls-8" d="M81.68,69.05c2.64-1.15,6.46.17,9.1-1.6s4.55-4.87,5.72-7.51c.2-.46-.66-.76-.92-.34-2.24,3.62-4.35,8.08-9.79,8.11a11.87,11.87,0,0,0-3.56.37c1.45-2.92,1.62-6.69,3.5-9.26.06-.09-.09-.19-.16-.11a13.39,13.39,0,0,0-2.86,5.11c-.91,2.75-1.69,4.81-4,6.61.92-3.85.18-8.16.89-12A30.71,30.71,0,0,1,81.91,55c0-.05,0-.13-.11-.09a9,9,0,0,0-3.55,3.66c-2.33,3.94-.67,8.86-2.69,13a5.93,5.93,0,0,0-.07-.83c-.38-2.23-1.22-4.34-1.46-6.61s-.09-4.62-.16-6.94a.1.1,0,0,0-.18,0,17.67,17.67,0,0,0-.5,8.75c.22,1.44.66,2.82,1,4.24a4.51,4.51,0,0,1-.57,3.82c-.14.12-.3.24-.45.35a21.55,21.55,0,0,0,3-.22l1-.17a10.4,10.4,0,0,0,1-2.09A6.84,6.84,0,0,0,81.68,69.05Z"/><path class="cls-8" d="M56.53,88a9.46,9.46,0,0,0,.74-6c-.38-2.85-2.48-6.68.95-8.44l.46-.24-.79-2.17a7.84,7.84,0,0,1,1.22-1.94,7.69,7.69,0,0,0,1.54-2.6c.86-2.67.44-5.64.51-8.37,0-.18-.29-.17-.31,0-.24,2.07-.48,4.18-.83,6.24s-1.37,3.35-2.67,5.09a14.28,14.28,0,0,0-3.52-3.94c-1.82-1.53-1.81-4.14-2-6.38a5.66,5.66,0,0,0-.3-1.72H47.62a25.69,25.69,0,0,0,1.08,6.94A11.88,11.88,0,0,0,49.77,67a13.53,13.53,0,0,1-5-4.57c-1.49-2.53-1.73-5.35-2.58-8,0,0-.11,0-.11,0a16.18,16.18,0,0,0,2.17,8.73,8.94,8.94,0,0,0,.66.95A8.08,8.08,0,0,1,40.25,63a13.79,13.79,0,0,1-4.09-3.34.13.13,0,0,0-.22.12c.44,1.71,2.1,3.1,3.79,4,1.47.77,4.8,1.7,6.22,1.47C47.49,67,49,67.68,51.2,68.83c.25.25.52.5.83.78,2.76,2.4,2.68,5.56,2.86,8.66-1.42-1.69-3.44-2.36-6.22-3.28a18.18,18.18,0,0,1-7.29-3.91C38.91,68.79,33.2,61.7,33,57.67c0-.35-.62-.35-.63,0-.07,3.26,1.43,6,3.38,8.68l.64.87c-1.2-.68-2.45-1.35-3.69-2.14C29,62.69,27,59.19,24.94,55.7c-.1-.18-.46-.06-.38.14a21.51,21.51,0,0,0,5.61,8.4c2.44,2.16,5.49,3.39,8,5.27a23,23,0,0,0,4.16,4c2.86,2,6.1,2.79,9.14,4.39,2.27,1.2,3.29,2.26,3.69,4.18,0,1.24.49,3.36-.16,4.4-.81,1.3-1.95,2.65-1.7,4,0,.23.45.52,1.09.8,0-.08.07-.17.12-.26C55.1,89.9,56,89,56.53,88Z"/><path class="cls-9" d="M58.61,77.24c-.59.19-.09,1.76.32,3.27A18.48,18.48,0,0,1,59.52,86c-.18,1.23-1,1.87-1.18,3.06s1.19,1,1.23,0,1-3.38.91-4.75-.59-3.38-.91-5S59.11,77.09,58.61,77.24Z"/><path class="cls-8" d="M61.2,82.79a12.35,12.35,0,0,1,0,3.84,13.24,13.24,0,0,0-.71,3.29,18.13,18.13,0,0,0,0,2.39l1.44-.07a23.27,23.27,0,0,1-.19-3.85c.13-1.52.52-3.83.22-5.11S61.12,82.06,61.2,82.79Z"/><path class="cls-8" d="M64.67,86.56a15.15,15.15,0,0,1,1,2.59c.26,1.16.47,2.16.47,2.16L67,91s.59-.56-.14-2.48a7.82,7.82,0,0,0-1.28-2.22c-.27-.4-.37-2.5-.75-2.28S64.39,85.85,64.67,86.56Z"/><path class="cls-9" d="M63.13,81.86a15.43,15.43,0,0,0-.46,3.21c0,1.19-.15,2.88,0,4s0,2.3.78,2.2,1.27-.65,1-1.33a23.14,23.14,0,0,1-.62-3.57,9.23,9.23,0,0,1-.23-3.19A28.44,28.44,0,0,0,64.29,80c.23-2,1.09-3.12.41-3s-1.1,1.27-1.19,2A22.16,22.16,0,0,1,63.13,81.86Z"/><path class="cls-10" d="M29.27,21.51a1.63,1.63,0,0,0,.63-1.85c-.63-2.59-7-2.62-9-2.52-2.45.13-8.06.9-9.38,3.43-.61,1.19,0,2.11,1.09,2.77a5.11,5.11,0,0,0-2.82,1,1.1,1.1,0,0,0-.09,1.8,18.4,18.4,0,0,0-5.52,1.57c-1.81.87-4.4,2.52-4.17,4.85.26,2.56,2.67,3.79,5.4,4.24a4.45,4.45,0,0,0-.82,4.73c1.52,3.72,7,3.74,10.31,3.79,4,.07,9.13-.17,12.2-3.11a6.22,6.22,0,0,0,1.69-6.49,12.34,12.34,0,0,0,4.69-7.08C34,25.94,31.94,22.66,29.27,21.51Z"/><path class="cls-11" d="M119.44,43.12c-.21-.16-.43-.29-.64-.44a5.68,5.68,0,0,0,2.13-3.84,5.59,5.59,0,0,0-1.45-4.21,11.69,11.69,0,0,0-5.7-3.41c1.48-1.74,2.06-3.93.26-6.07-2.42-2.89-7.51-4-11.7-3.68a2.65,2.65,0,0,0-.15-2.16,3.29,3.29,0,0,0-3.57-1.37,4.24,4.24,0,0,0-1.11-3.4C95,11.76,90,11.48,85.76,12.06c.51-1.34-.45-3.35-1.69-4.17a11.7,11.7,0,0,0-8-1.51A3.32,3.32,0,0,0,74.8,3.8a6.6,6.6,0,0,0-5.86-.43,2.14,2.14,0,0,0-.32-1.45C67.46.39,65.22.84,63.5,1.44v0A2.8,2.8,0,0,0,60,.21a3.08,3.08,0,0,0-1.78,2.44A13.65,13.65,0,0,0,54.7,2c-.47,0-1-.07-1.52-.07a4.66,4.66,0,0,0-2.56.58,2.22,2.22,0,0,0-.8,2.15A14,14,0,0,0,40.56,6.1c-1.53,1-1.1,1.92-.13,2.64-2.47-.52-5.61-.52-7,1.18a2.16,2.16,0,0,0,0,3c-2.67,0-5.74.64-6.42,3-.39,1.35.36,2.59,1.53,3.55a59,59,0,0,0-7.16.74c-1.92.32-4,1.05-4.93,2.91-1.09,2.17-.16,3.85,1.46,5.05a4.31,4.31,0,0,0-3.2,2.56,3.3,3.3,0,0,0,.62,3.09C13,34,10.4,35.16,10.14,37.18A2.92,2.92,0,0,0,11,39.63C5.84,40.77.32,43.78.18,49.31c-.11,4.74,4.69,6.45,9.4,6.77,0,2.36,2.65,5,4.9,5.65,3.44,1,8.79,1.18,12.4-.77,3.3,1.61,8,1.49,11,.75a9.11,9.11,0,0,0,3.92-2.27,11,11,0,0,0,8.44-2.3c1.48,1.2,4,1.65,5.55,1.83A10,10,0,0,0,60,58.61c.59,1.9,3.48,3.19,5.34,3.57a13.93,13.93,0,0,0,9.24-1.29c2.56,1.62,6.23,1.33,9,.37a15.91,15.91,0,0,0,5.13-2.59,19.38,19.38,0,0,0,11.72-.43,6,6,0,0,0,3.1-2.78,26.52,26.52,0,0,0,8,.1c3.43-.44,8.49-1.5,10.53-4.71C124,47.91,121.84,45,119.44,43.12Z"/><path class="cls-12" d="M113.78,31.22c1.48-1.74,2.06-3.93.26-6.07a8.42,8.42,0,0,0-2.29-1.86,17.08,17.08,0,0,0-9.41-1.82,2.65,2.65,0,0,0-.15-2.16,3.29,3.29,0,0,0-3.57-1.37,4.24,4.24,0,0,0-1.11-3.4C95,11.76,90,11.48,85.76,12.06c.51-1.34-.45-3.35-1.69-4.17a11.7,11.7,0,0,0-8-1.51A3.32,3.32,0,0,0,74.8,3.8a4,4,0,0,0-.45-.26,6.85,6.85,0,0,0-5.41-.17,2.14,2.14,0,0,0-.32-1.45C67.46.39,65.22.84,63.5,1.44v0A2.8,2.8,0,0,0,60,.21a3.08,3.08,0,0,0-1.78,2.44A13.65,13.65,0,0,0,54.7,2c-.47,0-1-.07-1.52-.07a3.19,3.19,0,0,0-.75,1.84,3.31,3.31,0,0,0,.69,2,2.87,2.87,0,0,0-.61.27,2.15,2.15,0,0,0-1.09,2.05s0,.07,0,.12c-2.85-1.12-7,.37-8.81,2.64-.93,1.2-.46,2.11.56,2.75a5.23,5.23,0,0,0-1.69.92,1.71,1.71,0,0,0-.72,1.61c-3,.12-6.21,1.4-7.14,3.93C33,21.83,34,23,35.44,23.77a1.83,1.83,0,0,0-1.2,1.4c-.05.72.54,1.19,1.07,1.55a5.51,5.51,0,0,0,1.32.68c-3.53.85-6.87,3.78-4.43,7.55,1.31,2,4.06,2.61,6.24,3.06.88.18,1.75.32,2.61.41C40.7,40,42.59,42.1,43.92,42.7a9.16,9.16,0,0,0,7.95-.26c1.9,2.22,6.57,2.61,9,2.56a15.33,15.33,0,0,0,6.71-1.62,9.93,9.93,0,0,0,9.75,0c2.78,2.06,8.79,1.76,11.21,1.33a8.57,8.57,0,0,0,5.21-2.54,15.66,15.66,0,0,0,7.78-.54,8.29,8.29,0,0,0,3.55-3,18.47,18.47,0,0,0,14.43-4.07A11.69,11.69,0,0,0,113.78,31.22Z"/><path class="cls-12" d="M72,4.83a1.08,1.08,0,0,0-.92,1,9.79,9.79,0,0,0-3.68.06,4.4,4.4,0,0,0-2.77,1.66,1.66,1.66,0,0,0-.31-.23,1,1,0,0,0-1.53.55,2,2,0,0,0-.05.28c-3.32-1.62-8.51.75-8.2,4.64l-.17,0a2.07,2.07,0,0,0-1.76.55A2.36,2.36,0,0,0,52,14.81a1.5,1.5,0,0,0-.69.53,1.21,1.21,0,0,0-.19,1A4.48,4.48,0,0,0,47.2,20c-.3,2.36,1.7,3.86,3.8,4.34a2.75,2.75,0,0,0-.3,3.55A6.29,6.29,0,0,0,54.29,30a8.45,8.45,0,0,0,2.26.48,4.12,4.12,0,0,0,.1.92A5.38,5.38,0,0,0,60.41,35a18.4,18.4,0,0,0,8.13.95c.68,1.08,2.52,1.5,3.69,1.39a4.53,4.53,0,0,0,2.92-1.43c.26.16.54.3.8.43a8.64,8.64,0,0,0,6.42.17,8,8,0,0,0,2.75-1.79,4.09,4.09,0,0,0,3.64.43,4.15,4.15,0,0,0,1.4-1c.45.67,1.12,1.1,1.77.72a1.14,1.14,0,0,0,.58-.86,10.8,10.8,0,0,0,6.07,0,5.16,5.16,0,0,0,2.06-1.56,2.22,2.22,0,0,0,1.92-.31,2.07,2.07,0,0,0,.78-2,11,11,0,0,0,8.41-6.88,17.08,17.08,0,0,0-9.41-1.82,2.65,2.65,0,0,0-.15-2.16,3.29,3.29,0,0,0-3.57-1.37,4.24,4.24,0,0,0-1.11-3.4C95,11.76,90,11.48,85.76,12.06c.51-1.34-.45-3.35-1.69-4.17a11.7,11.7,0,0,0-8-1.51A3.32,3.32,0,0,0,74.8,3.8a4,4,0,0,0-.45-.26A8.79,8.79,0,0,0,73,5.2,1.33,1.33,0,0,0,72,4.83Z"/><path class="cls-12" d="M92.53,19.48A7.41,7.41,0,0,0,88.34,19a4.31,4.31,0,0,0-2.3-2.8,6.67,6.67,0,0,0-5.88.5c-2.48-1.9-4.85-1.78-6.79-.44a3.43,3.43,0,0,0-.91,5,3.35,3.35,0,0,0-1.89,4.22c1.05,2.51,4.63,3.6,7.11,2.59a9,9,0,0,0,6.43,1.51,7,7,0,0,0,4.4-2.72,9.82,9.82,0,0,0,2.81-.19C93,26.39,95.87,25.34,96,23.2,96,21.37,94,20.06,92.53,19.48Z"/><path class="cls-10" d="M122.57,47.13c-.43,1.2-1,3.67-6.35,4.79a9.42,9.42,0,0,1-6-.53c-1.92,1.26-4.54,1.56-6,0a6.11,6.11,0,0,1-4.64.89,3.81,3.81,0,0,1-2.7,2.67c-1,.35-3.29.36-4.37-.77-.93,1.41-3.53,1.63-4.4.6-.59,1-2.37,1.7-3.25.73a6.41,6.41,0,0,1-2.57,1.2,5.35,5.35,0,0,1-3.07-.13c-.17-.07-.45-.18-.74-.33l-.18.1a3.4,3.4,0,0,1-3.15-.28,6.26,6.26,0,0,1-3.82,1.19,7.1,7.1,0,0,1-3.08-.88,9.52,9.52,0,0,1-5.66,1h-.14c-2.16-.24-4.17-1-5.08-2.35-2.52,1.73-7.32,1.27-9.55-.58-2.85,1.33-6.65.33-7.67-1.49-2.39-.12-4.71-1.4-5.26-3.68a7.14,7.14,0,0,1-2.26-.55,4.33,4.33,0,0,1-2.5-2.78c-2.92.55-4.79-3.17-4.53-6.14a5,5,0,0,0-2.32,3.49,5.88,5.88,0,0,0,.37,2.93c-4,.14-6.26,1.17-6.48,2.54a2.3,2.3,0,0,0,1.47,2.42c-2,.71-3.54,2-2.78,3.82a5.38,5.38,0,0,0,2.48,2.56c-1.53,1.5-1.71,3.7,1.16,5,3.44,1.59,8.35,2,11.46-.39,1.73,2.26,6.41,1.9,8.73,1.52S44.6,62,45.72,60a12.79,12.79,0,0,0,3.71-.6,9.86,9.86,0,0,0,1.36-.55c1.73,2.31,6.4,3.34,9.45,2.56,1.4,2.45,6.13,2.62,8.43,2.65a11.67,11.67,0,0,0,6-1.5c1.69,1,4.72.59,6.34.33,2.4-.4,5.17-1.34,6.7-3.25a15.58,15.58,0,0,0,6.15,1.61c3.34,0,9.29-1.57,9.68-5.64a20.36,20.36,0,0,0,13.84-.51C119.89,54,123.72,51,122.57,47.13Z"/><path class="cls-10" d="M112.24,62.49c-2.35-2.44-6.33-2.84-9.66-2.06a1.75,1.75,0,0,0-.56-1.5c-1.15-1.15-3-1.15-4.6-.71a4.26,4.26,0,0,0-1-.89,6,6,0,0,0-4-.81c-1.66.19-4.16.65-5.3,2-1.92,2.35.2,4.57,2.58,5.53-.33.11-.66.23-1,.35-.68.28-2,.75-2.24,1.57s.7,1.44,1.32,1.78a7.76,7.76,0,0,0,1.34.59c-.54.87-.38,1.92,1.12,3,3.25,2.29,9.29,2,13,1.69,2.69-.25,8.21-1.12,8.25-4.7,0-.07,0-.13,0-.2a4.34,4.34,0,0,0-.24-1.28C113,65.85,114,64.3,112.24,62.49Z"/><path class="cls-11" d="M112.24,62.49c-2.35-2.44-6.33-2.84-9.66-2.06a1.75,1.75,0,0,0-.56-1.5c-1.15-1.15-3-1.15-4.6-.71a4.26,4.26,0,0,0-1-.89l-.12,0a2.33,2.33,0,0,0-1.79,1.76c-1.35-1.12-3.33.11-3.39,1.83a2.77,2.77,0,0,0,1.27,2.42l.26.15A2.54,2.54,0,0,0,92,66.85c1,1.58,3.49,1.82,5.52,1.46,1.17,1.36,4.18,1.23,5.75,1.16a4.6,4.6,0,0,0,3.36-1.23,8.56,8.56,0,0,0,4.9-.1,4.34,4.34,0,0,0-.24-1.28C113,65.85,114,64.3,112.24,62.49Z"/><path class="cls-10" d="M35.13,71.6a1.37,1.37,0,0,1-.13.2,1.61,1.61,0,0,1-1.29.44,1.85,1.85,0,0,1-1.1-.42c-.27.12-.55.21-.79.29a3.51,3.51,0,0,1-3-.3,2.28,2.28,0,0,1-1-2.24,2.05,2.05,0,0,1,.16-.55,2.71,2.71,0,0,1-1.48-1.6A2.31,2.31,0,0,1,27.08,65a3,3,0,0,0-.64.44,8.46,8.46,0,0,0-2.22.41,3.49,3.49,0,0,0-2.44,2.5,2.42,2.42,0,0,0,1.49,2.52,4.15,4.15,0,0,0,.63.24,1.85,1.85,0,0,0,.19,1.67c1.1,1.81,4.47,2,6.86,1.35,1.67.9,6.19.1,7.2-.27,1.43-.52,2.73-1.42,2.2-2.91,0,0,0,0,0-.06A6.18,6.18,0,0,1,35.13,71.6Z"/><path class="cls-11" d="M40.6,69.36c.72-.86.31-1.77-.51-2.43a8.4,8.4,0,0,0-7.23-1.45,4.82,4.82,0,0,0-3.76-1,6.23,6.23,0,0,0-2,.58,2.31,2.31,0,0,0-.64,2.38A2.71,2.71,0,0,0,27.92,69a2.05,2.05,0,0,0-.16.55,2.28,2.28,0,0,0,1,2.24,3.51,3.51,0,0,0,3,.3c.24-.08.52-.17.79-.29a1.85,1.85,0,0,0,1.1.42A1.61,1.61,0,0,0,35,71.8a1.37,1.37,0,0,0,.13-.2,6.18,6.18,0,0,0,5.2-.67,2.55,2.55,0,0,0-.64-.92A2.5,2.5,0,0,0,40.6,69.36Z"/><g class="cls-13"><path class="cls-14" d="M68.12,11.75a1.69,1.69,0,0,0-2-.55.3.3,0,0,0,.07.55c.27.07.55.07.82.16a5.69,5.69,0,0,0,.77.32A.33.33,0,0,0,68.12,11.75Z"/><path class="cls-14" d="M98.85,24.93a.24.24,0,0,0-.3.23c0,.26.11.49.09.75s-.17.48-.21.74a.29.29,0,0,0,.36.36A1.16,1.16,0,0,0,98.85,24.93Z"/><path class="cls-14" d="M57.89,4.5c0-.13-.1-.29-.24-.23a1.19,1.19,0,0,0-.29,1.87c.17.12.38,0,.39-.23s-.09-.45-.08-.7A3.64,3.64,0,0,1,57.89,4.5Z"/><path class="cls-14" d="M50.23,12.36a6.73,6.73,0,0,0-.73.32,3.53,3.53,0,0,1-.85.1c-.12,0-.23.14-.15.25.5.69,2,.47,2-.48A.21.21,0,0,0,50.23,12.36Z"/><path class="cls-14" d="M42.06,32.62a1.85,1.85,0,0,1-1-1.76c0-.2-.26-.23-.35-.1-.6.89.14,2.44,1.32,2.14A.16.16,0,0,0,42.06,32.62Z"/><path class="cls-14" d="M44.26,33.61a1.27,1.27,0,0,1-.09-.18c-.18-.49.1-1.09-.23-1.51a.14.14,0,0,0-.17,0c-.39.22-.43.79-.46,1.19a1,1,0,0,0,.42,1,.38.38,0,0,0,.45-.06.42.42,0,0,0,.11-.32Z"/><path class="cls-14" d="M71,40.37a7.69,7.69,0,0,0-.83,0,3.24,3.24,0,0,1-.89-.11s-.11,0-.08.09.11.36.3.53a1.18,1.18,0,0,0,.57.25,1,1,0,0,0,1.07-.38A.24.24,0,0,0,71,40.37Z"/><path class="cls-14" d="M84.35,38.81a3.6,3.6,0,0,1-.74.9c-.25.22-.6.32-.69.67a.29.29,0,0,0,.2.35c.86.24,1.38-1.24,1.41-1.87A.1.1,0,0,0,84.35,38.81Z"/><path class="cls-14" d="M97.22,38.57c-.48-.2-1-.21-1.49-.42-.13,0-.59-.28-.65,0-.11.43.41.75.75.9a1.55,1.55,0,0,0,1.46.06A.29.29,0,0,0,97.22,38.57Z"/><path class="cls-14" d="M111,28.32c0-.12-.22-.17-.28,0-.31.6-.43,1.21-1.09,1.53a.2.2,0,0,0,0,.33.91.91,0,0,0,1.19-.26A1.7,1.7,0,0,0,111,28.32Z"/><path class="cls-14" d="M57.83,27.61a7.15,7.15,0,0,1-.61-.73c-.16-.3-.12-.63-.25-.93a.12.12,0,0,0-.18-.08c-.85.52-.07,2.17.8,2.17A.28.28,0,0,0,57.83,27.61Z"/><path class="cls-14" d="M61.64,29c-.24-.26-.59-.36-.85-.6s-.32-.53-.58-.67a.09.09,0,0,0-.12,0c-.59.68.69,2,1.42,1.73A.29.29,0,0,0,61.64,29Z"/><path class="cls-14" d="M64.88,29.85a.16.16,0,0,0-.16-.07c-.34.1-.56.49-.91.63s-.78,0-1.15.17a.29.29,0,0,0-.1.4c.27.55,1.17.38,1.61.14S65.18,30.32,64.88,29.85Z"/><path class="cls-14" d="M64.54,10.57c-.76-.35-1.78.91-1.6,1.62a.32.32,0,0,0,.53.14c.25-.26.33-.63.56-.9s.48-.37.59-.66A.19.19,0,0,0,64.54,10.57Z"/></g><path class="cls-10" d="M90.47,50.41c-.4.3-.64.73-1.08,1s-.91.23-1.22.54a.11.11,0,0,0,0,.08c.33.48,1.1.23,1.52,0s1.17-.8,1.12-1.44C90.79,50.45,90.61,50.3,90.47,50.41Z"/><path class="cls-10" d="M69.35,53.51a6.54,6.54,0,0,1-1.17,0,3.24,3.24,0,0,1-1.1-.47.2.2,0,0,0-.29.23c.36,1,2,1.59,2.73.67A.24.24,0,0,0,69.35,53.51Z"/><path class="cls-10" d="M20.9,30.89a.1.1,0,0,0-.1-.09c-.49,0-.83.6-1,1A1.62,1.62,0,0,0,20,33.38a.25.25,0,0,0,.42-.18,4,4,0,0,1,0-1.29C20.57,31.56,20.86,31.25,20.9,30.89Z"/><path class="cls-10" d="M23.24,34.13c-.18-.28-.5-.4-.71-.65a3.09,3.09,0,0,1-.46-1,.16.16,0,0,0-.29,0c-.5.77.25,2.38,1.26,2.16A.34.34,0,0,0,23.24,34.13Z"/><path class="cls-10" d="M9.05,50c-.1-.4-.42-.65-.59-1a2.67,2.67,0,0,1-.18-1.28.17.17,0,0,0-.3-.12,1.73,1.73,0,0,0-.32,1.6c.13.53.53,1.21,1.15,1.14A.26.26,0,0,0,9.05,50Z"/><path class="cls-10" d="M11.57,49.32a2.42,2.42,0,0,1-.79.77c-.29.16-.59.18-.78.48a.37.37,0,0,0,.13.49c.45.25.94-.09,1.23-.43a1.63,1.63,0,0,0,.41-1.26A.11.11,0,0,0,11.57,49.32Z"/><path class="cls-10" d="M40.1,48.71c-.27-.3-.67-.44-.93-.77s-.26-.74-.53-1a.12.12,0,0,0-.16,0c-.39.32-.11,1.08.1,1.43a1.47,1.47,0,0,0,1.38.84C40.21,49.2,40.24,48.87,40.1,48.71Z"/><path class="cls-10" d="M46.91,50a.23.23,0,0,0-.29-.16c-.41.11-.66.53-1.07.68a4,4,0,0,1-1.34.08.18.18,0,0,0-.14.26c.27.61,1.15.66,1.71.5S47.17,50.67,46.91,50Z"/><path class="cls-10" d="M111.75,44.62a.12.12,0,0,0-.14.06c-.18.36-.06.77-.31,1.13a4.09,4.09,0,0,1-1,.75.29.29,0,0,0,.06.45c.65.36,1.36-.24,1.63-.8S112.36,44.81,111.75,44.62Z"/><path class="cls-10" d="M107.67,46.3c0-.08-.15-.12-.19,0-.17.4-.24.83-.44,1.23s-.58.67-.69,1.08a.3.3,0,0,0,.37.37C107.55,48.66,108,47.06,107.67,46.3Z"/><path class="cls-10" d="M86.81,52.74a12,12,0,0,0-1.17-.34,3.42,3.42,0,0,1-1.17-.74c-.17-.17-.41,0-.32.25.39.86,1.65,1.91,2.66,1.38A.32.32,0,0,0,86.81,52.74Z"/><path class="cls-12" d="M108.14,62.2c-.9-1.39-3.54-1.48-5.12-.65a.87.87,0,0,0-.64-.5,2.32,2.32,0,0,0-1.1.07,1.58,1.58,0,0,0-.68-.65,4.33,4.33,0,0,0-3.54,0,2.05,2.05,0,0,0-1.5,2.08,2,2,0,0,0,.4.89,1,1,0,0,0-.61,1.12,1.65,1.65,0,0,0,1.61,1,1.38,1.38,0,0,0,.23.38c.63.69,2,.75,2.88.82a3.6,3.6,0,0,0,2.77-.63v0a4.47,4.47,0,0,0,1.67-.33,2.21,2.21,0,0,0,1-.88C107.26,64.8,109.21,63.87,108.14,62.2Z"/><path class="cls-2" d="M46.2,16.26,43.9,15h0l-.09-.06a3.87,3.87,0,0,0-3.7.41c-3.27,1.89-5.92,7-5.92,11.31,0,2.42.82,4.11,2.1,4.81h0l.05,0h0l2.2,1.24.52-1.14a6.81,6.81,0,0,0,1-.47c3.27-1.89,5.92-7,5.92-11.32a8.17,8.17,0,0,0-.34-2.44Z"/><path class="cls-2" d="M46.2,16.26,43.9,15h0l-.09-.06a3.28,3.28,0,0,0-2.12-.22l4,2.3-.93.53-4.2-2.43a4.5,4.5,0,0,0-.43.23,4.62,4.62,0,0,0-.55.35l3.32,1.92-.92.53-3.17-1.83a8.58,8.58,0,0,0-.81.79l3.64,2.09-.92.54-3.32-1.92a11.06,11.06,0,0,0-.67.93l3.8,2.19-.92.53L36.23,19.5c-.19.33-.37.66-.53,1l3.79,2.19-.93.53-3.24-1.87c-.16.38-.31.77-.44,1.17l4,2.31-.93.53-3.33-1.93a12.54,12.54,0,0,0-.27,1.33l4.24,2.45-.92.53-3.45-2c0,.3,0,.59,0,.88s0,.47,0,.7l3.93,2.26-.92.54-2.85-1.65a5.62,5.62,0,0,0,.68,1.76l3.65,2.11.35-.77a6,6,0,0,0,1-.48c3.27-1.88,5.92-7,5.92-11.31a8.17,8.17,0,0,0-.34-2.44Z"/><path class="cls-3" d="M42.88,17.59l-3.32-1.92a7.21,7.21,0,0,0-.77.62L42,18.12Z"/><path class="cls-3" d="M45.67,17l-4-2.3a5.26,5.26,0,0,0-1.15.4l4.2,2.43Z"/><path class="cls-3" d="M41.62,19.17,38,17.08c-.2.22-.41.46-.6.71l3.32,1.92Z"/><path class="cls-3" d="M40.51,20.91l-3.8-2.19q-.26.38-.48.78l3.36,1.94Z"/><path class="cls-3" d="M39.49,22.69,35.7,20.5c-.13.28-.26.56-.38.85l3.24,1.87Z"/><path class="cls-3" d="M38.88,24.83l-4-2.31c-.1.3-.18.61-.26.91L38,25.36Z"/><path class="cls-3" d="M38.59,27.21l-4.24-2.45c-.06.33-.1.66-.13,1l3.45,2Z"/><path class="cls-3" d="M38.15,29.59l-3.93-2.26a8,8,0,0,0,.16,1.15l2.85,1.65Z"/><path class="cls-3" d="M36.29,31.44h0l.05,0h0l2.2,1.23.17-.36-3.65-2.11A3.35,3.35,0,0,0,36.29,31.44Z"/><path class="cls-4" d="M48.27,21.06c0,4.36-2.65,9.42-5.92,11.31s-5.92-.12-5.92-4.47,2.65-9.43,5.92-11.32S48.27,16.7,48.27,21.06Z"/><path class="cls-5" d="M45.14,16.93C46.27,17.52,47,19,47,21.17c-.05,3.85-2.39,8.34-5.22,10a3.63,3.63,0,0,1-2.64.58,3.28,3.28,0,0,0,3.25-.37c2.83-1.7,5.17-6.19,5.21-10C47.58,18.86,46.61,17.25,45.14,16.93Z"/><path class="cls-3" d="M45.14,16.93C46.27,17.52,47,19,47,21.17c-.05,3.85-2.39,8.34-5.22,10a3.63,3.63,0,0,1-2.64.58,3.28,3.28,0,0,0,3.25-.37c2.83-1.7,5.17-6.19,5.21-10C47.58,18.86,46.61,17.25,45.14,16.93Z"/><path class="cls-5" d="M41.73,31.21c2.83-1.7,5.17-6.19,5.22-10,0-2.16-.68-3.65-1.81-4.24a3.61,3.61,0,0,0-2.63.58c-2.84,1.7-5.17,6.19-5.22,10,0,2.16.68,3.65,1.8,4.25A3.63,3.63,0,0,0,41.73,31.21Z"/><path class="cls-3" d="M42.28,29.5a15.12,15.12,0,0,0,.3-1.49A8.14,8.14,0,0,0,44,25.71c.68-1.62.15-2.13-.39-2.26a2.26,2.26,0,0,0-.88.06c0-1,.1-2.14,0-3.08a1.29,1.29,0,0,1,1.16.09c.07,0,.25-.25.22-.34-.17-.53-.69-.72-1.44-.3a1.85,1.85,0,0,0-.32-.83s-.11.1-.11.15c0,.31,0,.64,0,1a5.42,5.42,0,0,0-2,3.51c-.1,1.38.95,1,1.77.83l.22-.05c0,1-.15,2.25-.23,3.39a2.19,2.19,0,0,1-1.26.46,1,1,0,0,1-1-.64c0-.08-.24.14-.27.32-.27,1.38.88,1.64,2.12.84a2.62,2.62,0,0,0,.34-.24,7.81,7.81,0,0,0,0,1.2C42,29.91,42.23,29.71,42.28,29.5Zm-1.3-6c-.35-.55.25-1.84,1.12-2.64l.17-.13c0,1,0,1.94,0,2.9l-.31.08A1.35,1.35,0,0,1,41,23.51Zm2.23.91c.39.16,1.06.68-.52,2.78h0a21.2,21.2,0,0,0,.08-2.83A.93.93,0,0,1,43.21,24.42Z"/><path class="cls-2" d="M30.1,49.74l-2.3-1.3h0l-.09-.06a3.9,3.9,0,0,0-3.7.41c-3.27,1.89-5.92,7-5.92,11.31,0,2.42.82,4.11,2.1,4.82h0l0,0h0l2.19,1.24L23,65.06A6.81,6.81,0,0,0,24,64.59c3.27-1.89,5.92-7,5.92-11.32a8.17,8.17,0,0,0-.34-2.44Z"/><path class="cls-2" d="M30.1,49.74l-2.3-1.3h0l-.09-.06a3.28,3.28,0,0,0-2.12-.22l4,2.3-.93.53-4.2-2.43a4.5,4.5,0,0,0-.43.23,4.62,4.62,0,0,0-.55.35l3.32,1.92-.92.53-3.17-1.83a8.58,8.58,0,0,0-.81.79l3.64,2.1-.92.53-3.32-1.92a11.06,11.06,0,0,0-.67.93l3.8,2.19-.92.53L20.13,53c-.19.33-.37.66-.53,1l3.79,2.19-.93.53-3.24-1.87c-.16.38-.31.78-.44,1.17l4,2.31-.93.53-3.33-1.93a13.07,13.07,0,0,0-.27,1.33l4.24,2.45-.92.53-3.45-2c0,.3,0,.59,0,.88s0,.47,0,.7l3.93,2.26-.92.54L18.28,62A5.53,5.53,0,0,0,19,63.72l3.65,2.11.35-.77A6.81,6.81,0,0,0,24,64.59c3.27-1.89,5.92-7,5.92-11.32a8.17,8.17,0,0,0-.34-2.44Z"/><path class="cls-3" d="M26.78,51.07l-3.32-1.92a8.71,8.71,0,0,0-.77.62l3.17,1.83Z"/><path class="cls-3" d="M29.57,50.47l-4-2.3a5.26,5.26,0,0,0-1.15.4L28.64,51Z"/><path class="cls-3" d="M25.52,52.66l-3.64-2.1c-.2.22-.41.46-.6.71l3.32,1.92Z"/><path class="cls-3" d="M24.41,54.39l-3.8-2.19q-.25.38-.48.78l3.36,1.94Z"/><path class="cls-3" d="M23.39,56.17,19.6,54c-.13.28-.26.56-.38.85l3.24,1.87Z"/><path class="cls-3" d="M22.78,58.31l-4-2.31c-.1.3-.18.61-.26.91l3.33,1.93Z"/><path class="cls-3" d="M22.49,60.69l-4.24-2.45c-.06.33-.1.66-.13,1l3.45,2Z"/><path class="cls-3" d="M22.05,63.07l-3.93-2.26A8,8,0,0,0,18.28,62l2.85,1.65Z"/><path class="cls-3" d="M20.19,64.92h0l0,0h0l2.19,1.23.18-.36L19,63.72A3.35,3.35,0,0,0,20.19,64.92Z"/><path class="cls-4" d="M32.17,54.54c0,4.36-2.65,9.42-5.92,11.31s-5.92-.11-5.92-4.47S23,52,26.25,50.06,32.17,50.18,32.17,54.54Z"/><path class="cls-5" d="M29,50.41c1.13.59,1.83,2.08,1.81,4.25-.05,3.84-2.39,8.33-5.22,10a3.63,3.63,0,0,1-2.64.58,3.28,3.28,0,0,0,3.25-.37c2.83-1.7,5.17-6.19,5.21-10C31.48,52.34,30.51,50.73,29,50.41Z"/><path class="cls-3" d="M29,50.41c1.13.59,1.83,2.08,1.81,4.25-.05,3.84-2.39,8.33-5.22,10a3.63,3.63,0,0,1-2.64.58,3.28,3.28,0,0,0,3.25-.37c2.83-1.7,5.17-6.19,5.21-10C31.48,52.34,30.51,50.73,29,50.41Z"/><path class="cls-5" d="M25.63,64.69c2.83-1.7,5.17-6.19,5.22-10,0-2.17-.68-3.66-1.81-4.25a3.61,3.61,0,0,0-2.63.58c-2.84,1.7-5.17,6.19-5.22,10,0,2.16.68,3.65,1.8,4.25A3.63,3.63,0,0,0,25.63,64.69Z"/><path class="cls-3" d="M26.18,63c.13-.53.23-1,.3-1.5a8.14,8.14,0,0,0,1.43-2.3c.68-1.62.15-2.13-.39-2.25a1.93,1.93,0,0,0-.88.06c0-1,.1-2.15,0-3.09a1.29,1.29,0,0,1,1.16.09c.07,0,.25-.24.22-.34-.17-.53-.69-.72-1.44-.3a1.85,1.85,0,0,0-.32-.83s-.11.1-.11.15c0,.32,0,.64,0,1a5.42,5.42,0,0,0-2,3.51c-.1,1.38.95,1,1.77.83l.22,0c0,1-.15,2.25-.23,3.39a2.19,2.19,0,0,1-1.26.46,1,1,0,0,1-1-.64c0-.08-.24.14-.27.32-.27,1.38.87,1.65,2.12.84a3.53,3.53,0,0,0,.34-.24,7.78,7.78,0,0,0,0,1.2C25.93,63.39,26.13,63.2,26.18,63Zm-1.3-6c-.35-.56.25-1.85,1.12-2.64a2.09,2.09,0,0,1,.17-.14c0,1,0,1.94,0,2.9l-.31.08A1.39,1.39,0,0,1,24.88,57Zm2.23.9c.39.16,1.06.68-.52,2.78h0a21.2,21.2,0,0,0,.08-2.83A.93.93,0,0,1,27.11,57.9Z"/><path class="cls-2" d="M85.71,48.7l-2.29-1.29h0l-.09,0a3.86,3.86,0,0,0-3.7.4c-3.27,1.89-5.92,7-5.92,11.31,0,2.42.82,4.11,2.11,4.82h0l.06,0h0l2.19,1.24L78.58,64a5,5,0,0,0,1-.47c3.27-1.89,5.92-6.95,5.92-11.31a8.19,8.19,0,0,0-.34-2.45Z"/><path class="cls-2" d="M85.71,48.7l-2.29-1.3h0l-.09,0a3.14,3.14,0,0,0-2.12-.22l4,2.29-.92.53-4.21-2.42-.43.22-.54.35L82.39,50l-.92.53L78.3,48.73c-.27.24-.54.51-.8.79l3.63,2.1-.92.53-3.32-1.92c-.23.3-.45.61-.67.93L80,53.35l-.92.53-3.36-1.94c-.19.33-.36.66-.53,1L79,55.13l-.92.53-3.25-1.87c-.16.39-.3.78-.43,1.18l4,2.3-.92.53-3.34-1.92q-.16.66-.27,1.32l4.24,2.45-.92.54-3.44-2c0,.29,0,.58,0,.87s0,.47,0,.7L77.66,62l-.92.53-2.85-1.64a5.72,5.72,0,0,0,.68,1.76l3.65,2.1.36-.77a5,5,0,0,0,1-.47c3.27-1.89,5.92-6.95,5.92-11.31a8.19,8.19,0,0,0-.34-2.45Z"/><path class="cls-3" d="M82.39,50l-3.31-1.92a9.22,9.22,0,0,0-.78.62l3.17,1.83Z"/><path class="cls-3" d="M85.18,49.43l-4-2.29a4.79,4.79,0,0,0-1.15.4L84.26,50Z"/><path class="cls-3" d="M81.13,51.62l-3.63-2.1c-.21.23-.41.46-.61.71l3.32,1.92Z"/><path class="cls-3" d="M80,53.35l-3.8-2.19-.48.78,3.36,1.94Z"/><path class="cls-3" d="M79,55.13,75.21,53c-.13.27-.26.56-.38.84l3.25,1.87Z"/><path class="cls-3" d="M78.39,57.27l-4-2.3c-.1.3-.19.6-.27.91l3.34,1.92Z"/><path class="cls-3" d="M78.1,59.65,73.86,57.2c0,.34-.1.67-.12,1l3.44,2Z"/><path class="cls-3" d="M77.66,62l-3.93-2.27a9.84,9.84,0,0,0,.16,1.16l2.85,1.64Z"/><path class="cls-3" d="M75.81,63.89h0l.06,0h0l2.19,1.24.17-.37-3.65-2.1A3.46,3.46,0,0,0,75.81,63.89Z"/><path class="cls-4" d="M87.78,53.5c0,4.36-2.65,9.43-5.92,11.32s-5.92-.12-5.92-4.48S78.59,50.92,81.86,49,87.78,49.14,87.78,53.5Z"/><path class="cls-5" d="M84.66,49.37c1.12.59,1.83,2.09,1.8,4.25,0,3.84-2.38,8.33-5.22,10a3.61,3.61,0,0,1-2.63.58,3.26,3.26,0,0,0,3.24-.37c2.83-1.7,5.17-6.19,5.22-10C87.1,51.31,86.13,49.7,84.66,49.37Z"/><path class="cls-3" d="M84.66,49.37c1.12.59,1.83,2.09,1.8,4.25,0,3.84-2.38,8.33-5.22,10a3.61,3.61,0,0,1-2.63.58,3.26,3.26,0,0,0,3.24-.37c2.83-1.7,5.17-6.19,5.22-10C87.1,51.31,86.13,49.7,84.66,49.37Z"/><path class="cls-5" d="M81.24,63.65c2.84-1.7,5.17-6.19,5.22-10,0-2.16-.68-3.66-1.8-4.25A3.63,3.63,0,0,0,82,50c-2.83,1.7-5.17,6.19-5.22,10,0,2.16.68,3.66,1.81,4.25A3.61,3.61,0,0,0,81.24,63.65Z"/><path class="cls-3" d="M81.79,62c.14-.52.23-1,.31-1.5a8,8,0,0,0,1.42-2.3c.68-1.62.15-2.13-.39-2.25a1.89,1.89,0,0,0-.87.06c0-1,.09-2.15,0-3.09a1.27,1.27,0,0,1,1.15.09c.07,0,.25-.24.22-.34-.16-.53-.69-.71-1.44-.3a1.85,1.85,0,0,0-.32-.83s-.1.1-.1.15c0,.32,0,.64,0,1a5.38,5.38,0,0,0-2,3.52c-.11,1.38.95,1,1.76.83l.22-.06c0,1-.15,2.26-.23,3.39a2.19,2.19,0,0,1-1.25.46,1,1,0,0,1-1-.63c0-.09-.24.13-.28.32-.27,1.38.88,1.64,2.13.83L81.5,61a9.28,9.28,0,0,0,0,1.2C81.54,62.35,81.74,62.16,81.79,62ZM80.5,56c-.35-.55.24-1.85,1.12-2.64l.16-.14c0,1,0,2,0,2.9l-.31.09C81.31,56.23,80.61,56.14,80.5,56Zm2.23.9c.39.17,1,.69-.53,2.78h0a23.23,23.23,0,0,0,.08-2.84A1.1,1.1,0,0,1,82.73,56.86Z"/><path class="cls-2" d="M84.73,17.12l-2.3-1.3h0l-.09-.06a3.87,3.87,0,0,0-3.7.41c-3.27,1.88-5.92,7-5.92,11.31,0,2.42.82,4.11,2.1,4.81h0l.05,0h0l2.2,1.23.52-1.13a6,6,0,0,0,1-.48c3.27-1.88,5.92-6.95,5.92-11.31a8.17,8.17,0,0,0-.34-2.44Z"/><path class="cls-2" d="M84.73,17.11l-2.3-1.29h0l-.09-.05a3.28,3.28,0,0,0-2.12-.22l4,2.3-.93.53L79.07,16l-.43.22c-.18.11-.37.23-.55.36l3.32,1.91-.92.54-3.17-1.84a9.94,9.94,0,0,0-.8.79L80.15,20l-.92.53-3.32-1.91c-.23.29-.46.6-.67.92l3.8,2.2-.92.53-3.36-1.94c-.19.32-.36.66-.53,1L78,23.55l-.92.53L73.85,22.2c-.16.39-.31.78-.44,1.18l4,2.31-.92.53-3.34-1.93c-.11.44-.2.88-.27,1.33l4.24,2.45-.92.53-3.44-2a8.64,8.64,0,0,0,0,.88q0,.36,0,.69l3.93,2.27-.92.53-2.85-1.64a5.62,5.62,0,0,0,.68,1.76l3.65,2.11.35-.77a6,6,0,0,0,1-.48c3.27-1.89,5.92-6.95,5.92-11.31a8.07,8.07,0,0,0-.34-2.44Z"/><path class="cls-3" d="M81.41,18.44l-3.32-1.91a8.57,8.57,0,0,0-.77.61L80.49,19Z"/><path class="cls-3" d="M84.2,17.85l-4-2.3a5.26,5.26,0,0,0-1.15.4l4.2,2.43Z"/><path class="cls-3" d="M80.15,20l-3.63-2.1c-.21.23-.42.47-.61.72l3.32,1.91Z"/><path class="cls-3" d="M79,21.77l-3.8-2.2c-.17.26-.33.52-.48.79l3.36,1.94Z"/><path class="cls-3" d="M78,23.55l-3.79-2.19c-.13.28-.26.56-.38.84l3.25,1.88Z"/><path class="cls-3" d="M77.41,25.69l-4-2.31c-.09.3-.18.61-.26.91l3.34,1.93Z"/><path class="cls-3" d="M77.12,28.07l-4.24-2.45a8.36,8.36,0,0,0-.12,1l3.44,2Z"/><path class="cls-3" d="M76.68,30.45l-3.93-2.27a8.11,8.11,0,0,0,.16,1.16L75.76,31Z"/><path class="cls-3" d="M74.82,32.3h0l.05,0h0l2.2,1.24.17-.36L73.59,31.1A3.35,3.35,0,0,0,74.82,32.3Z"/><path class="cls-4" d="M86.8,21.92c0,4.36-2.65,9.42-5.92,11.31S75,33.11,75,28.75s2.65-9.42,5.92-11.31S86.8,17.56,86.8,21.92Z"/><path class="cls-5" d="M83.67,17.78c1.13.6,1.83,2.09,1.81,4.25,0,3.84-2.39,8.33-5.22,10a3.63,3.63,0,0,1-2.64.58,3.27,3.27,0,0,0,3.25-.36c2.83-1.7,5.17-6.19,5.21-10C86.11,19.72,85.14,18.11,83.67,17.78Z"/><path class="cls-3" d="M83.67,17.78c1.13.6,1.83,2.09,1.81,4.25,0,3.84-2.39,8.33-5.22,10a3.63,3.63,0,0,1-2.64.58,3.27,3.27,0,0,0,3.25-.36c2.83-1.7,5.17-6.19,5.21-10C86.11,19.72,85.14,18.11,83.67,17.78Z"/><path class="cls-5" d="M80.26,32.06c2.83-1.7,5.17-6.19,5.22-10,0-2.16-.68-3.65-1.81-4.25a3.61,3.61,0,0,0-2.63.58c-2.84,1.7-5.17,6.19-5.22,10,0,2.16.68,3.65,1.8,4.24A3.63,3.63,0,0,0,80.26,32.06Z"/><path class="cls-3" d="M80.81,30.36c.13-.52.23-1,.3-1.49a8.28,8.28,0,0,0,1.43-2.3c.68-1.63.15-2.13-.39-2.26a2.08,2.08,0,0,0-.88.06c0-1,.1-2.15,0-3.08a1.26,1.26,0,0,1,1.16.09c.07,0,.25-.25.22-.35-.17-.52-.69-.71-1.44-.3a1.9,1.9,0,0,0-.32-.83s-.11.1-.11.16v1a5.31,5.31,0,0,0-2,3.51c-.11,1.38.94,1,1.76.83l.22-.05c0,1-.15,2.25-.23,3.39a2.27,2.27,0,0,1-1.26.46,1,1,0,0,1-1-.64c0-.08-.24.14-.27.32-.27,1.38.88,1.64,2.12.84l.34-.25a7.74,7.74,0,0,0,0,1.2C80.56,30.77,80.76,30.57,80.81,30.36Zm-1.3-6c-.35-.55.25-1.85,1.12-2.64l.17-.13c0,1,0,1.94,0,2.9l-.31.08C80.33,24.64,79.62,24.55,79.51,24.37Zm2.23.91c.39.16,1.06.68-.52,2.78h0a21.24,21.24,0,0,0,.08-2.83A.83.83,0,0,1,81.74,25.28Z"/><path class="cls-2" d="M106.85,31.5l-2.3-1.3h0l-.09-.06a3.87,3.87,0,0,0-3.7.41c-3.27,1.88-5.92,7-5.92,11.31,0,2.42.82,4.11,2.1,4.81h0l0,0h0L99.19,48l.53-1.13a6.33,6.33,0,0,0,1-.48c3.27-1.88,5.92-7,5.92-11.31a8.17,8.17,0,0,0-.34-2.44Z"/><path class="cls-2" d="M106.85,31.5l-2.3-1.3h0l-.09-.06a3.28,3.28,0,0,0-2.12-.22l4,2.3-.92.53-4.21-2.43-.43.23a5.6,5.6,0,0,0-.55.35l3.32,1.91-.92.54-3.17-1.84c-.28.25-.54.51-.8.79l3.63,2.1-.92.53L98,33c-.23.29-.46.6-.67.92l3.8,2.2-.92.53-3.36-1.94c-.19.32-.36.66-.53,1l3.79,2.19-.92.53L96,36.59c-.16.38-.31.77-.44,1.17l4,2.31-.92.53-3.34-1.93c-.11.44-.2.89-.27,1.33l4.24,2.45-.92.53-3.44-2a8.64,8.64,0,0,0,0,.88q0,.36,0,.69l3.93,2.27-.92.53L95,43.72a5.62,5.62,0,0,0,.68,1.76l3.65,2.11.36-.77a6.33,6.33,0,0,0,1-.48c3.27-1.88,5.92-7,5.92-11.31a8.12,8.12,0,0,0-.34-2.44Z"/><path class="cls-3" d="M103.53,32.82l-3.32-1.91a8.57,8.57,0,0,0-.77.61l3.17,1.84Z"/><path class="cls-3" d="M106.32,32.23l-4-2.3a5.26,5.26,0,0,0-1.15.4l4.21,2.43Z"/><path class="cls-3" d="M102.27,34.41l-3.63-2.1c-.21.23-.42.47-.61.72l3.32,1.91Z"/><path class="cls-3" d="M101.16,36.15,97.36,34c-.17.26-.33.52-.48.79l3.36,1.94Z"/><path class="cls-3" d="M100.14,37.93l-3.79-2.19c-.13.28-.26.56-.38.85l3.25,1.87Z"/><path class="cls-3" d="M99.53,40.07l-4-2.31c-.09.3-.18.61-.26.91l3.34,1.93Z"/><path class="cls-3" d="M99.24,42.45,95,40a8.36,8.36,0,0,0-.12,1l3.44,2Z"/><path class="cls-3" d="M98.8,44.83l-3.93-2.27A7.92,7.92,0,0,0,95,43.72l2.85,1.64Z"/><path class="cls-3" d="M96.94,46.68h0l0,0h0L99.19,48l.17-.36-3.65-2.11A3.35,3.35,0,0,0,96.94,46.68Z"/><path class="cls-4" d="M108.92,36.3c0,4.36-2.65,9.42-5.92,11.31s-5.92-.12-5.92-4.48,2.65-9.42,5.92-11.31S108.92,31.94,108.92,36.3Z"/><path class="cls-5" d="M105.79,32.16c1.13.6,1.83,2.09,1.81,4.25,0,3.84-2.38,8.34-5.22,10a3.54,3.54,0,0,1-2.64.58,3.27,3.27,0,0,0,3.25-.36c2.83-1.7,5.17-6.19,5.21-10C108.23,34.1,107.26,32.49,105.79,32.16Z"/><path class="cls-3" d="M105.79,32.16c1.13.6,1.83,2.09,1.81,4.25,0,3.84-2.38,8.34-5.22,10a3.54,3.54,0,0,1-2.64.58,3.27,3.27,0,0,0,3.25-.36c2.83-1.7,5.17-6.19,5.21-10C108.23,34.1,107.26,32.49,105.79,32.16Z"/><path class="cls-5" d="M102.38,46.44c2.84-1.69,5.17-6.19,5.22-10,0-2.16-.68-3.65-1.81-4.25a3.58,3.58,0,0,0-2.63.59c-2.84,1.69-5.17,6.18-5.22,10,0,2.16.68,3.65,1.8,4.24A3.54,3.54,0,0,0,102.38,46.44Z"/><path class="cls-3" d="M102.93,44.74a13.1,13.1,0,0,0,.3-1.49,8.28,8.28,0,0,0,1.43-2.3c.68-1.63.15-2.13-.39-2.26a2,2,0,0,0-.87.06c0-1,.09-2.15,0-3.08a1.26,1.26,0,0,1,1.16.09c.07,0,.25-.25.22-.34-.17-.53-.69-.72-1.44-.3a1.85,1.85,0,0,0-.32-.83s-.11.09-.11.15v1a5.34,5.34,0,0,0-2,3.51c-.11,1.38.94,1,1.76.83l.22-.05c0,1-.15,2.25-.23,3.39a2.27,2.27,0,0,1-1.26.46,1,1,0,0,1-1-.64c0-.08-.24.14-.27.32-.27,1.38.88,1.64,2.13.84l.33-.25a7.74,7.74,0,0,0,0,1.2C102.68,45.15,102.88,45,102.93,44.74Zm-1.3-6c-.35-.55.25-1.84,1.12-2.64l.17-.13c0,1,0,1.94,0,2.9l-.31.08A1.41,1.41,0,0,1,101.63,38.75Zm2.23.91c.4.16,1.06.68-.52,2.78h0a21.2,21.2,0,0,0,.08-2.83A.83.83,0,0,1,103.86,39.66Z"/></g></g></g></svg>