<svg xmlns="http://www.w3.org/2000/svg" viewBox="0 0 127.93 116.5"><defs><style>.cls-1{fill:#acc2e2;}.cls-2{fill:#ebf2ff;}.cls-3{fill:#d2e1f9;}.cls-4{fill:#2f5bc1;}.cls-5{fill:#d5e0f7;}.cls-6{fill:#fff;}.cls-7{fill:#3973d4;}.cls-8{fill:#ffb83b;}.cls-9{fill:#98daf4;}.cls-10,.cls-13{fill:#ff9d27;}.cls-11{fill:#ffc9b6;}.cls-12{fill:#ffe375;}.cls-13{opacity:0.5;}.cls-14{fill:#2c1d1b;}.cls-15{fill:#3a2832;}</style></defs><g id="Layer_2" data-name="Layer 2"><g id="Layer_1-2" data-name="Layer 1"><path class="cls-1" d="M29.43,73.7a3.8,3.8,0,0,0-1.58-3,1,1,0,0,0-1-.09h0L3.19,84.08l2.19,4.39L28.83,75h0A1.33,1.33,0,0,0,29.43,73.7Z"/><path class="cls-2" d="M5.89,87.21c0,1.17-.71,1.71-1.59,1.2a3.81,3.81,0,0,1-1.58-3c0-1.17.71-1.71,1.58-1.2A3.79,3.79,0,0,1,5.89,87.21Z"/><path class="cls-1" d="M58.71,56.87a3.81,3.81,0,0,0-1.58-3,1,1,0,0,0-1-.08h0L32.46,67.26l2.2,4.38L58.1,58.18h0A1.35,1.35,0,0,0,58.71,56.87Z"/><path class="cls-2" d="M35.17,70.39c0,1.16-.71,1.7-1.59,1.19a3.78,3.78,0,0,1-1.59-3c0-1.16.71-1.7,1.59-1.2A3.81,3.81,0,0,1,35.17,70.39Z"/><path class="cls-1" d="M107.15,82.65h0V80s-2.75-.69-2.72-.59,0,.12,0,.27L67.86,58.53c-2.48-1.43-6.25-1.59-8.41-.35L7,88.5,4.7,88.31V91h0a3.41,3.41,0,0,0,2.05,2.78L44,115.31c2.48,1.44,6.26,1.59,8.41.35l53.3-30.78A2.44,2.44,0,0,0,107.15,82.65Z"/><path class="cls-3" d="M52.4,113c-2.15,1.24-5.93,1.08-8.41-.35L6.75,91.13C4.27,89.7,4,87.52,6.15,86.28L59.45,55.5c2.16-1.24,5.93-1.09,8.41.35l37.24,21.5c2.48,1.43,2.76,3.61.6,4.85Z"/><path class="cls-2" d="M105.2,81.91,51.9,112.69c-1.91,1.1-5.28,1-7.48-.31L7.18,90.88c-2.2-1.27-2.44-3.21-.53-4.31L60,55.79c1.91-1.1,5.28-1,7.48.31l37.24,21.5C106.87,78.87,107.11,80.81,105.2,81.91Z"/><path class="cls-4" d="M19,91.14l-1.63.94a2.24,2.24,0,0,1-2-.08l-1.89-1.09c-.6-.35-.67-.88-.15-1.18l1.64-.94a2.27,2.27,0,0,1,2,.08L18.85,90C19.45,90.31,19.51,90.84,19,91.14Z"/><path class="cls-4" d="M23.64,88.46,22,89.4a2.3,2.3,0,0,1-2-.08l-1.88-1.09c-.61-.35-.67-.88-.15-1.18l1.63-.94a2.24,2.24,0,0,1,2,.08l1.89,1.09C24.09,87.63,24.16,88.16,23.64,88.46Z"/><path class="cls-4" d="M28.28,85.78l-1.63.94a2.27,2.27,0,0,1-2-.09l-1.89-1.08c-.6-.35-.67-.88-.15-1.18l1.64-1a2.27,2.27,0,0,1,2,.09l1.89,1.09C28.74,84.94,28.81,85.47,28.28,85.78Z"/><path class="cls-4" d="M32.93,83.09,31.3,84A2.29,2.29,0,0,1,29.25,84l-1.88-1.09c-.6-.34-.67-.88-.15-1.18l1.63-.94a2.29,2.29,0,0,1,2,.09l1.88,1.08C33.39,82.26,33.45,82.79,32.93,83.09Z"/><path class="cls-4" d="M37.58,80.41l-1.64.94a2.24,2.24,0,0,1-2-.08L32,80.18c-.6-.35-.66-.88-.14-1.18l1.63-.94a2.3,2.3,0,0,1,2,.08l1.89,1.09C38,79.58,38.1,80.11,37.58,80.41Z"/><path class="cls-4" d="M42.22,77.73l-1.63.94a2.27,2.27,0,0,1-2-.08L36.66,77.5c-.6-.35-.67-.88-.15-1.18l1.64-.94a2.24,2.24,0,0,1,2,.08l1.89,1.09C42.68,76.9,42.74,77.43,42.22,77.73Z"/><path class="cls-4" d="M46.87,75.05,45.23,76a2.3,2.3,0,0,1-2-.08l-1.88-1.09c-.61-.35-.67-.88-.15-1.18l1.63-1a2.27,2.27,0,0,1,2,.09l1.89,1.09C47.32,74.21,47.39,74.75,46.87,75.05Z"/><path class="cls-4" d="M51.51,72.36l-1.63,1a2.27,2.27,0,0,1-2-.09L46,72.13c-.6-.34-.67-.87-.15-1.18L47.44,70a2.27,2.27,0,0,1,2,.09l1.89,1.08C52,71.53,52,72.06,51.51,72.36Z"/><path class="cls-4" d="M24.12,94.1,22.48,95a2.27,2.27,0,0,1-2-.08l-1.89-1.09c-.6-.35-.66-.88-.14-1.18L20,91.75a2.27,2.27,0,0,1,2,.08L24,92.92C24.57,93.27,24.64,93.8,24.12,94.1Z"/><path class="cls-4" d="M28.76,91.42l-1.63.94a2.3,2.3,0,0,1-2-.08L23.2,91.19c-.6-.35-.67-.88-.15-1.18l1.64-1a2.27,2.27,0,0,1,2,.09l1.89,1.09C29.22,90.59,29.29,91.12,28.76,91.42Z"/><path class="cls-4" d="M33.41,88.74l-1.63.94a2.29,2.29,0,0,1-2.05-.09L27.85,88.5c-.61-.34-.67-.87-.15-1.17l1.63-1a2.29,2.29,0,0,1,2.05.09l1.88,1.09C33.87,87.9,33.93,88.43,33.41,88.74Z"/><path class="cls-4" d="M38.06,86.05l-1.64,1a2.27,2.27,0,0,1-2-.09l-1.89-1.09c-.6-.35-.66-.88-.14-1.18L34,83.7a2.3,2.3,0,0,1,2,.08l1.89,1.09C38.51,85.22,38.58,85.75,38.06,86.05Z"/><path class="cls-4" d="M42.7,83.37l-1.63.94a2.27,2.27,0,0,1-2-.08l-1.89-1.09c-.6-.35-.67-.88-.15-1.18L38.63,81a2.27,2.27,0,0,1,2,.08l1.89,1.09C43.16,82.54,43.22,83.07,42.7,83.37Z"/><path class="cls-4" d="M47.35,80.69l-1.64.94a2.3,2.3,0,0,1-2-.08l-1.89-1.09c-.6-.35-.66-.88-.14-1.18l1.63-.94a2.24,2.24,0,0,1,2,.08l1.89,1.09C47.8,79.86,47.87,80.39,47.35,80.69Z"/><path class="cls-4" d="M52,78,50.36,79a2.27,2.27,0,0,1-2-.09l-1.89-1.08c-.6-.35-.67-.88-.15-1.18l1.64-.95a2.27,2.27,0,0,1,2,.09l1.89,1.09C52.45,77.17,52.52,77.7,52,78Z"/><path class="cls-4" d="M56.64,75.32l-1.63,1a2.29,2.29,0,0,1-2-.09l-1.88-1.09c-.6-.34-.67-.88-.15-1.18L52.56,73a2.29,2.29,0,0,1,2,.09l1.88,1.08C57.1,74.49,57.16,75,56.64,75.32Z"/><path class="cls-4" d="M61.29,72.64l-1.64.94a2.24,2.24,0,0,1-2-.08l-1.89-1.09c-.6-.35-.66-.88-.14-1.18l1.63-.94a2.3,2.3,0,0,1,2,.08l1.89,1.09C61.74,71.81,61.81,72.34,61.29,72.64Z"/><path class="cls-4" d="M65.93,70l-1.63.94a2.3,2.3,0,0,1-2-.08l-1.89-1.09c-.6-.35-.67-.88-.15-1.18l1.64-.94a2.24,2.24,0,0,1,2,.08l1.89,1.09C66.39,69.13,66.45,69.66,65.93,70Z"/><path class="cls-4" d="M70.58,67.28l-1.64.94a2.3,2.3,0,0,1-2-.08L65,67.05c-.6-.35-.66-.88-.14-1.18l1.63-1a2.27,2.27,0,0,1,2,.09l1.89,1.09C71,66.44,71.1,67,70.58,67.28Z"/><path class="cls-4" d="M75.22,64.59l-1.63,1a2.27,2.27,0,0,1-2-.09l-1.89-1.09c-.6-.34-.67-.87-.15-1.18l1.64-.94a2.27,2.27,0,0,1,2,.09l1.89,1.08C75.68,63.76,75.75,64.29,75.22,64.59Z"/><path class="cls-4" d="M29.24,97.06,27.61,98a2.27,2.27,0,0,1-2-.08l-1.89-1.09c-.6-.35-.67-.88-.15-1.18l1.64-.94a2.27,2.27,0,0,1,2,.08l1.89,1.09C29.7,96.23,29.76,96.76,29.24,97.06Z"/><path class="cls-4" d="M33.89,94.38l-1.63.94a2.32,2.32,0,0,1-2-.08l-1.88-1.09c-.61-.35-.67-.88-.15-1.18l1.63-1a2.29,2.29,0,0,1,2.05.09l1.88,1.09C34.34,93.55,34.41,94.08,33.89,94.38Z"/><path class="cls-4" d="M38.54,91.69l-1.64,1a2.27,2.27,0,0,1-2-.09L33,91.46c-.6-.34-.67-.87-.14-1.17l1.63-1a2.27,2.27,0,0,1,2,.09l1.89,1.09C39,90.86,39.06,91.39,38.54,91.69Z"/><path class="cls-4" d="M43.18,89,41.55,90a2.27,2.27,0,0,1-2-.09l-1.89-1.09c-.6-.35-.67-.88-.15-1.18l1.64-.94a2.3,2.3,0,0,1,2,.08L43,87.83C43.64,88.18,43.7,88.71,43.18,89Z"/><path class="cls-4" d="M47.83,86.33l-1.64.94a2.27,2.27,0,0,1-2-.08L42.26,86.1c-.6-.35-.66-.88-.14-1.18L43.75,84a2.27,2.27,0,0,1,2,.08l1.89,1.09C48.28,85.5,48.35,86,47.83,86.33Z"/><path class="cls-4" d="M52.47,83.65l-1.63.94a2.3,2.3,0,0,1-2-.08l-1.89-1.09c-.6-.35-.67-.88-.15-1.18l1.64-.95a2.27,2.27,0,0,1,2,.09l1.89,1.09C52.93,82.82,53,83.35,52.47,83.65Z"/><path class="cls-4" d="M57.12,81l-1.63.94a2.29,2.29,0,0,1-2.05-.09l-1.88-1.09c-.61-.34-.67-.87-.15-1.17l1.63-1a2.29,2.29,0,0,1,2.05.09L57,79.79C57.57,80.13,57.64,80.66,57.12,81Z"/><path class="cls-4" d="M66.41,75.6l-6.28,3.63a2.27,2.27,0,0,1-2-.09L56.2,78.05c-.6-.35-.67-.88-.14-1.18l6.28-3.62a2.27,2.27,0,0,1,2,.08l1.89,1.09C66.87,74.77,66.93,75.3,66.41,75.6Z"/><path class="cls-4" d="M71.06,72.92l-1.64.94a2.3,2.3,0,0,1-2-.08l-1.89-1.09c-.6-.35-.66-.88-.14-1.18L67,70.57a2.24,2.24,0,0,1,2,.08l1.89,1.09C71.51,72.09,71.58,72.62,71.06,72.92Z"/><path class="cls-4" d="M75.7,70.24l-1.63.94a2.27,2.27,0,0,1-2-.09L70.14,70c-.6-.35-.67-.88-.15-1.18l1.64-1a2.27,2.27,0,0,1,2,.09l1.89,1.09C76.16,69.4,76.22,69.93,75.7,70.24Z"/><path class="cls-4" d="M80.35,67.55l-1.63,1a2.29,2.29,0,0,1-2-.09l-1.88-1.09c-.61-.34-.67-.88-.15-1.18l1.63-.94a2.32,2.32,0,0,1,2,.08l1.88,1.09C80.81,66.72,80.87,67.25,80.35,67.55Z"/><path class="cls-4" d="M34.37,100l-1.63.94a2.29,2.29,0,0,1-2.05-.08l-1.88-1.09c-.61-.35-.67-.88-.15-1.18l1.63-.94a2.26,2.26,0,0,1,2.05.08l1.88,1.09C34.82,99.19,34.89,99.72,34.37,100Z"/><path class="cls-4" d="M39,97.34l-1.64.94a2.3,2.3,0,0,1-2-.08l-1.89-1.09c-.6-.35-.67-.88-.14-1.18l1.63-1a2.27,2.27,0,0,1,2,.09l1.89,1.09C39.47,96.5,39.54,97,39,97.34Z"/><path class="cls-4" d="M43.66,94.65,42,95.6a2.27,2.27,0,0,1-2-.09L38.1,94.42c-.6-.34-.67-.87-.15-1.18l1.64-.94a2.27,2.27,0,0,1,2,.09l1.88,1.09C44.12,93.82,44.18,94.35,43.66,94.65Z"/><path class="cls-4" d="M48.31,92l-1.64,1a2.27,2.27,0,0,1-2-.09l-1.89-1.09c-.6-.35-.66-.88-.14-1.18l1.63-.94a2.3,2.3,0,0,1,2,.08l1.89,1.09C48.76,91.14,48.83,91.67,48.31,92Z"/><path class="cls-4" d="M53,89.29l-1.63.94a2.27,2.27,0,0,1-2-.08l-1.89-1.09c-.6-.35-.67-.88-.15-1.18l1.64-.94a2.27,2.27,0,0,1,2,.08l1.89,1.09C53.41,88.46,53.47,89,53,89.29Z"/><path class="cls-4" d="M57.6,86.61,56,87.55a2.32,2.32,0,0,1-2-.08L52,86.38c-.61-.35-.67-.88-.15-1.18l1.63-1a2.29,2.29,0,0,1,2,.09l1.88,1.09C58.05,85.78,58.12,86.31,57.6,86.61Z"/><path class="cls-4" d="M62.25,83.92l-1.64,1a2.27,2.27,0,0,1-2-.09l-1.89-1.09c-.6-.34-.67-.87-.14-1.18l1.63-.94a2.27,2.27,0,0,1,2,.09l1.89,1.09C62.7,83.09,62.77,83.62,62.25,83.92Z"/><path class="cls-4" d="M66.89,81.24l-1.63,1a2.27,2.27,0,0,1-2-.09L61.33,81c-.6-.35-.67-.88-.15-1.18l1.64-.94a2.3,2.3,0,0,1,2,.08l1.88,1.09C67.35,80.41,67.41,80.94,66.89,81.24Z"/><path class="cls-4" d="M71.54,78.56l-1.64.94a2.27,2.27,0,0,1-2-.08L66,78.33c-.6-.35-.66-.88-.14-1.18l1.63-.94a2.27,2.27,0,0,1,2,.08l1.89,1.09C72,77.73,72.06,78.26,71.54,78.56Z"/><path class="cls-4" d="M76.18,75.88l-1.63.94a2.3,2.3,0,0,1-2-.08l-1.89-1.09c-.6-.35-.67-.88-.15-1.18l1.64-1a2.27,2.27,0,0,1,2,.09L76,74.7C76.64,75.05,76.7,75.58,76.18,75.88Z"/><path class="cls-4" d="M80.83,73.2l-1.63.94a2.29,2.29,0,0,1-2-.09L75.27,73c-.61-.34-.67-.87-.15-1.17l1.63-1a2.29,2.29,0,0,1,2,.09L80.68,72C81.28,72.36,81.35,72.89,80.83,73.2Z"/><path class="cls-4" d="M85.48,70.51l-1.64.95a2.27,2.27,0,0,1-2-.09l-1.89-1.09c-.6-.35-.67-.88-.14-1.18l1.63-.94a2.3,2.3,0,0,1,2,.08l1.89,1.09C85.93,69.68,86,70.21,85.48,70.51Z"/><path class="cls-4" d="M39.5,103l-1.64.94a2.3,2.3,0,0,1-2-.08l-1.89-1.09c-.6-.35-.67-.88-.14-1.18l1.63-.94a2.24,2.24,0,0,1,2,.08l1.89,1.09C40,102.15,40,102.68,39.5,103Z"/><path class="cls-4" d="M44.14,100.3l-1.63.94a2.27,2.27,0,0,1-2-.09l-1.89-1.08c-.6-.35-.67-.88-.15-1.18l1.64-1a2.27,2.27,0,0,1,2,.09L44,99.12C44.6,99.46,44.66,100,44.14,100.3Z"/><path class="cls-4" d="M48.79,97.61l-1.64,1a2.27,2.27,0,0,1-2-.09l-1.89-1.09c-.6-.34-.66-.88-.14-1.18l1.63-.94a2.27,2.27,0,0,1,2,.09l1.89,1.08C49.24,96.78,49.31,97.31,48.79,97.61Z"/><path class="cls-4" d="M67.37,86.88l-15.57,9a2.24,2.24,0,0,1-2-.08L47.87,94.7c-.6-.35-.67-.88-.15-1.18l15.58-9a2.27,2.27,0,0,1,2,.09l1.88,1.09C67.83,86.05,67.89,86.58,67.37,86.88Z"/><path class="cls-4" d="M72,84.2l-1.64.94a2.24,2.24,0,0,1-2-.08L66.45,84c-.6-.35-.66-.88-.14-1.18l1.63-.94a2.3,2.3,0,0,1,2,.08L71.87,83C72.47,83.37,72.54,83.9,72,84.2Z"/><path class="cls-4" d="M76.66,81.52,75,82.46a2.27,2.27,0,0,1-2-.08L71.1,81.29c-.6-.35-.67-.88-.15-1.18l1.64-.94a2.27,2.27,0,0,1,2,.08l1.89,1.09C77.12,80.69,77.18,81.22,76.66,81.52Z"/><path class="cls-4" d="M81.31,78.84l-1.63.94a2.32,2.32,0,0,1-2.05-.08l-1.88-1.09c-.61-.35-.67-.88-.15-1.18l1.63-1a2.29,2.29,0,0,1,2,.09l1.88,1.09C81.76,78,81.83,78.54,81.31,78.84Z"/><path class="cls-4" d="M86,76.15l-1.64.95a2.27,2.27,0,0,1-2-.09l-1.89-1.09c-.6-.34-.67-.87-.14-1.18l1.63-.94a2.27,2.27,0,0,1,2,.09L85.81,75C86.41,75.32,86.48,75.85,86,76.15Z"/><path class="cls-4" d="M90.6,73.47l-1.63,1a2.27,2.27,0,0,1-2-.09L85,73.24c-.6-.35-.67-.88-.15-1.18l1.64-.94a2.3,2.3,0,0,1,2,.08l1.88,1.09C91.06,72.64,91.12,73.17,90.6,73.47Z"/><path class="cls-4" d="M56.16,69.68l-1.63.95a2.29,2.29,0,0,1-2.05-.09L50.6,69.45c-.6-.35-.67-.88-.15-1.18l1.63-.94a2.32,2.32,0,0,1,2.05.08L56,68.5C56.62,68.85,56.68,69.38,56.16,69.68Z"/><path class="cls-4" d="M60.81,67l-1.64.94a2.27,2.27,0,0,1-2-.08l-1.89-1.09c-.6-.35-.66-.88-.14-1.18l1.63-.94a2.27,2.27,0,0,1,2,.08l1.89,1.09C61.26,66.17,61.33,66.7,60.81,67Z"/><path class="cls-4" d="M65.45,64.32l-1.63.94a2.3,2.3,0,0,1-2-.08l-1.89-1.09c-.6-.35-.67-.88-.15-1.18L61.38,62a2.27,2.27,0,0,1,2,.09l1.89,1.09C65.91,63.49,66,64,65.45,64.32Z"/><path class="cls-4" d="M70.1,61.63l-1.64.95a2.27,2.27,0,0,1-2-.09L64.54,61.4c-.61-.34-.67-.87-.15-1.18L66,59.28a2.27,2.27,0,0,1,2,.09L70,60.46C70.55,60.8,70.62,61.33,70.1,61.63Z"/><path class="cls-4" d="M65.27,58.48,63,59.79a1.48,1.48,0,0,1-1.34,0l-.75-.43c-.4-.23-.44-.58-.1-.78l2.28-1.32a1.5,1.5,0,0,1,1.35.06l.75.43C65.57,57.93,65.62,58.28,65.27,58.48Z"/><path class="cls-4" d="M60.63,61.16l-2.28,1.31a1.5,1.5,0,0,1-1.35,0L56.25,62c-.39-.23-.44-.58-.09-.78l2.28-1.32a1.51,1.51,0,0,1,1.34.06l.75.43C60.93,60.61,61,61,60.63,61.16Z"/><path class="cls-4" d="M56,63.84,53.7,65.16a1.54,1.54,0,0,1-1.35-.06l-.74-.43c-.4-.23-.44-.58-.1-.78l2.28-1.31a1.5,1.5,0,0,1,1.35.05l.74.43C56.28,63.29,56.32,63.64,56,63.84Z"/><path class="cls-4" d="M51.33,66.52l-2.28,1.32a1.48,1.48,0,0,1-1.34-.06L47,67.35c-.39-.23-.44-.58-.09-.77l2.28-1.32a1.51,1.51,0,0,1,1.34,0l.75.44C51.63,66,51.68,66.32,51.33,66.52Z"/><path class="cls-4" d="M46.69,69.2l-2.28,1.32a1.53,1.53,0,0,1-1.35,0L42.32,70c-.4-.22-.44-.57-.1-.77l2.28-1.32a1.5,1.5,0,0,1,1.35.06l.74.43C47,68.66,47,69,46.69,69.2Z"/><path class="cls-4" d="M42,71.89,39.76,73.2a1.48,1.48,0,0,1-1.34,0l-.75-.43c-.4-.23-.44-.58-.1-.78l2.28-1.32a1.53,1.53,0,0,1,1.35.06l.75.43C42.34,71.34,42.39,71.69,42,71.89Z"/><path class="cls-4" d="M37.4,74.57l-2.28,1.32a1.53,1.53,0,0,1-1.35-.06L33,75.4c-.39-.23-.44-.58-.09-.78l2.28-1.31a1.48,1.48,0,0,1,1.34,0l.75.43C37.7,74,37.74,74.37,37.4,74.57Z"/><path class="cls-4" d="M32.75,77.25l-2.28,1.32a1.5,1.5,0,0,1-1.35-.06l-.74-.43c-.4-.23-.44-.58-.1-.78L30.56,76a1.53,1.53,0,0,1,1.35.05l.74.43C33.05,76.7,33.09,77.05,32.75,77.25Z"/><path class="cls-4" d="M28.1,79.93l-2.28,1.32a1.48,1.48,0,0,1-1.34-.06l-.75-.43c-.39-.22-.44-.57-.09-.77l2.28-1.32a1.48,1.48,0,0,1,1.34.06l.75.43C28.4,79.39,28.45,79.74,28.1,79.93Z"/><path class="cls-4" d="M23.46,82.62l-2.28,1.31a1.5,1.5,0,0,1-1.35-.05l-.74-.43c-.4-.23-.44-.58-.1-.78l2.28-1.32a1.5,1.5,0,0,1,1.35.06l.74.43C23.76,82.07,23.8,82.42,23.46,82.62Z"/><path class="cls-4" d="M18.81,85.3l-2.28,1.32a1.51,1.51,0,0,1-1.34-.06l-.75-.43c-.4-.23-.44-.58-.1-.78L16.62,84a1.5,1.5,0,0,1,1.35,0l.75.43C19.11,84.75,19.16,85.1,18.81,85.3Z"/><path class="cls-4" d="M14.17,88,11.89,89.3a1.5,1.5,0,0,1-1.35-.06l-.75-.43c-.39-.23-.44-.58-.09-.78L12,86.72a1.48,1.48,0,0,1,1.34,0l.75.43C14.47,87.43,14.51,87.78,14.17,88Z"/><path class="cls-5" d="M82.83,92.41l-14.4,8.32a3.71,3.71,0,0,1-3.3-.14l-7.36-4.25c-1-.56-1.08-1.42-.24-1.9l14.41-8.32a3.65,3.65,0,0,1,3.3.14l7.36,4.25C83.57,91.07,83.68,91.92,82.83,92.41Z"/><path class="cls-6" d="M12.15,96,8.07,93.6a.9.9,0,0,1-.39-.73h0c0-.28.17-.41.39-.29l4.08,2.35a.93.93,0,0,1,.38.74h0C12.53,96,12.36,96.08,12.15,96Z"/><path class="cls-6" d="M18.18,99.51,14.1,97.15a.93.93,0,0,1-.39-.74h0c0-.28.18-.41.39-.29l4.08,2.36a.92.92,0,0,1,.38.73h0C18.56,99.5,18.39,99.63,18.18,99.51Z"/><path class="cls-6" d="M36.46,110.06l-4.08-2.35A.93.93,0,0,1,32,107h0c0-.28.18-.41.39-.29L36.46,109a.92.92,0,0,1,.38.73h0C36.84,110.06,36.67,110.19,36.46,110.06Z"/><path class="cls-1" d="M61.21,1.26,59.32.18h0A1.23,1.23,0,0,0,58,.23L2,32.56a4.74,4.74,0,0,0-2,3.75v47A1.76,1.76,0,0,0,.64,84.9h0l2,1.16,1-2.22L58,52.5a4.71,4.71,0,0,0,2-3.75V2.65c.39.25.69.45.72.45S61.21,1.26,61.21,1.26Z"/><path class="cls-3" d="M4,86,60,53.67a4.71,4.71,0,0,0,2-3.75v-47c0-1.44-.88-2.1-2-1.48L4,33.73a4.72,4.72,0,0,0-2,3.75v47C2,86,2.91,86.63,4,86Z"/><path class="cls-2" d="M4.45,85,59.54,53.23a4.64,4.64,0,0,0,1.93-3.69V3.59c0-1.41-.86-2.07-1.93-1.46L4.45,34a4.61,4.61,0,0,0-1.94,3.68V83.58C2.51,85,3.38,85.65,4.45,85Z"/><polygon class="cls-7" points="59.71 6.12 4.28 38.12 4.28 81.05 59.71 49.05 59.71 6.12"/><path class="cls-6" d="M31.21,20.45c0,.51.31.74.69.52a1.66,1.66,0,0,0,.69-1.32c0-.51-.31-.74-.69-.52A1.66,1.66,0,0,0,31.21,20.45Z"/><path class="cls-6" d="M34.56,18.4c0,.41.25.6.56.42a1.33,1.33,0,0,0,.56-1.07c0-.41-.25-.6-.56-.42A1.34,1.34,0,0,0,34.56,18.4Z"/><path class="cls-6" d="M1.94,40a.09.09,0,0,1,.18,0c.1,2.06,0,4.13,0,6.19s0,4.14-.11,6.19c0,.13-.22.22-.22-.06C1.83,48.53,1.52,43.93,1.94,40Z"/><path class="cls-6" d="M5.9,32.94c1.49-1.11,8.19-5,10.71-6.32.39-.2.57-.11.18.19A93.05,93.05,0,0,1,6.05,33.2C5.91,33.26,5.66,33.11,5.9,32.94Z"/><path class="cls-6" d="M19.45,25.14c1.49-1.11,8.19-5,10.71-6.31.39-.21.57-.12.18.18A91.64,91.64,0,0,1,19.6,25.4C19.46,25.46,19.21,25.31,19.45,25.14Z"/><path class="cls-6" d="M60.21,108.53c-3.5,1.7-7.12,4.68-11.29,5.15-2.44.27-4.41-1-6.47-2.1-1.77-1-3.49-2-5.28-2.93a0,0,0,0,0,0,.07,59.91,59.91,0,0,0,6.19,3.87,9.9,9.9,0,0,0,5.75,1.61c3.56-.32,8.25-3.14,11.23-5.55C60.37,108.59,60.28,108.5,60.21,108.53Z"/><path class="cls-2" d="M49.9,46.85,13.79,67.7c-1.46.85-2.64,0-2.64-2v-24a6.32,6.32,0,0,1,2.64-5.05L49.9,15.84c1.46-.84,2.65.05,2.65,2v24A6.33,6.33,0,0,1,49.9,46.85Z"/><path class="cls-8" d="M11.15,77.09V75.42a6.32,6.32,0,0,1,2.64-5L49.9,49.52c1.46-.85,2.65,0,2.65,2v1.71Z"/><path class="cls-7" d="M50.3,22,13.65,43.11c-.07,0-.13,0-.13-.11a.33.33,0,0,1,.13-.25L50.3,21.59c.07,0,.13,0,.13.1A.35.35,0,0,1,50.3,22Z"/><path class="cls-7" d="M18.85,61.78c-.07,0-.13,0-.13-.11V43.36a.31.31,0,0,1,.13-.25c.08,0,.14,0,.14.1V61.52A.33.33,0,0,1,18.85,61.78Z"/><path class="cls-7" d="M27.55,56.76c-.08,0-.14,0-.14-.1V38.34a.31.31,0,0,1,.14-.25c.07-.05.13,0,.13.1V56.5A.35.35,0,0,1,27.55,56.76Z"/><path class="cls-7" d="M35.73,52c-.08,0-.14,0-.14-.11V33.62a.33.33,0,0,1,.14-.26c.07,0,.13,0,.13.11V51.78A.35.35,0,0,1,35.73,52Z"/><path class="cls-7" d="M44.07,47.22c-.07,0-.13,0-.13-.1V28.8a.33.33,0,0,1,.13-.25c.07-.05.13,0,.13.1V47A.33.33,0,0,1,44.07,47.22Z"/><path class="cls-9" d="M17.24,46.64l-3.06,1.77c-.29.17-.53,0-.53-.4h0a1.27,1.27,0,0,1,.53-1l3.06-1.77c.29-.17.52,0,.52.4h0A1.25,1.25,0,0,1,17.24,46.64Z"/><path class="cls-8" d="M17.24,51.4l-3.06,1.77c-.29.17-.53,0-.53-.4h0a1.27,1.27,0,0,1,.53-1L17.24,50c.29-.16.52,0,.52.4h0A1.23,1.23,0,0,1,17.24,51.4Z"/><path class="cls-9" d="M17.24,56.17l-3.06,1.76c-.29.17-.53,0-.53-.39h0a1.27,1.27,0,0,1,.53-1l3.06-1.76c.29-.17.52,0,.52.39h0A1.27,1.27,0,0,1,17.24,56.17Z"/><path class="cls-8" d="M17.24,60.93,14.18,62.7c-.29.16-.53,0-.53-.4h0a1.24,1.24,0,0,1,.53-1l3.06-1.77c.29-.17.52,0,.52.4h0A1.26,1.26,0,0,1,17.24,60.93Z"/><path class="cls-8" d="M33,42.31l-3.06,1.76c-.29.17-.52,0-.52-.39h0a1.27,1.27,0,0,1,.52-1L33,40.91c.29-.17.53,0,.53.39h0A1.27,1.27,0,0,1,33,42.31Z"/><path class="cls-9" d="M33,51.83,29.93,53.6c-.29.17-.52,0-.52-.4h0a1.26,1.26,0,0,1,.52-1L33,50.43c.29-.17.53,0,.53.4h0A1.25,1.25,0,0,1,33,51.83Z"/><path class="cls-8" d="M24.73,42.31l-3.06,1.77c-.29.17-.52,0-.52-.4h0a1.26,1.26,0,0,1,.52-1l3.06-1.77c.29-.16.53,0,.53.4h0A1.24,1.24,0,0,1,24.73,42.31Z"/><path class="cls-9" d="M24.73,47.08l-3.06,1.76c-.29.17-.52,0-.52-.39h0a1.27,1.27,0,0,1,.52-1l3.06-1.76c.29-.17.53,0,.53.39h0A1.27,1.27,0,0,1,24.73,47.08Z"/><path class="cls-9" d="M49.82,27.83,46.76,29.6c-.29.16-.53,0-.53-.4h0a1.24,1.24,0,0,1,.53-1l3.06-1.77c.29-.17.52,0,.52.4h0A1.26,1.26,0,0,1,49.82,27.83Z"/><path class="cls-8" d="M49.82,42.12l-3.06,1.77c-.29.16-.53,0-.53-.4h0a1.24,1.24,0,0,1,.53-1l3.06-1.77c.29-.17.52,0,.52.4h0A1.26,1.26,0,0,1,49.82,42.12Z"/><path class="cls-9" d="M41.38,32.7l-3.06,1.77c-.29.16-.52,0-.52-.4h0a1.25,1.25,0,0,1,.52-1l3.06-1.77c.29-.17.53,0,.53.4h0A1.27,1.27,0,0,1,41.38,32.7Z"/><path class="cls-9" d="M41.38,42.23,38.32,44c-.29.17-.52,0-.52-.39h0a1.27,1.27,0,0,1,.52-1l3.06-1.76c.29-.17.53,0,.53.39h0A1.27,1.27,0,0,1,41.38,42.23Z"/><path class="cls-7" d="M17.39,38.49,14.08,40.4c-.15.09-.27,0-.27-.2a.66.66,0,0,1,.27-.52l3.31-1.91c.15-.09.27,0,.27.2A.66.66,0,0,1,17.39,38.49Z"/><path class="cls-7" d="M24.86,34.18l-3.32,1.91c-.14.09-.27,0-.27-.2a.69.69,0,0,1,.27-.52l3.32-1.91c.15-.09.27,0,.27.2A.66.66,0,0,1,24.86,34.18Z"/><path class="cls-7" d="M33.12,29.41l-3.31,1.91c-.15.09-.27,0-.27-.2a.66.66,0,0,1,.27-.52l3.31-1.91c.15-.09.27,0,.27.2A.66.66,0,0,1,33.12,29.41Z"/><path class="cls-7" d="M41.51,24.56,38.2,26.48c-.15.08-.27,0-.27-.21a.62.62,0,0,1,.27-.51l3.31-1.91c.15-.09.27,0,.27.2A.62.62,0,0,1,41.51,24.56Z"/><path class="cls-7" d="M49.94,19.69l-3.31,1.92c-.15.08-.27,0-.27-.21a.62.62,0,0,1,.27-.51L49.94,19c.15-.08.27,0,.27.21A.62.62,0,0,1,49.94,19.69Z"/><path class="cls-9" d="M55.71,23.64a.46.46,0,0,1-.19-.89l21.21-9.37a.47.47,0,0,1,.62.23.48.48,0,0,1-.24.62L55.89,23.6A.39.39,0,0,1,55.71,23.64Z"/><path class="cls-9" d="M73.81,34.91h0l-18-1.45a.46.46,0,0,1-.42-.5.47.47,0,0,1,.5-.43l18,1.46a.46.46,0,0,1,0,.92Z"/><path class="cls-10" d="M86.55,40.29,72,48.68c-.81.47-1.46,0-1.46-1.1V38A3.47,3.47,0,0,1,72,35.23l14.53-8.39c.8-.46,1.45,0,1.45,1.1v9.57A3.49,3.49,0,0,1,86.55,40.29Z"/><path class="cls-10" d="M77.73,39.46l-5.91,3.41c-.7.4-1.26,0-1.26-.95v-6.4a3,3,0,0,1,1.26-2.4l5.91-3.41c.7-.4,1.26,0,1.26.94v6.41A3,3,0,0,1,77.73,39.46Z"/><path class="cls-10" d="M77.72,30.34s.79-.72.82-.71l1.29.84-.75.92Z"/><path class="cls-10" d="M71.46,47.54,71,48.74l1.31.84s1-1.57.94-1.54S71.46,47.54,71.46,47.54Z"/><polygon class="cls-10" points="86.97 27.23 87.5 26.76 88.78 27.59 87.67 28.84 86.97 27.23"/><path class="cls-8" d="M87.77,41.08,73.24,49.47c-.81.47-1.46,0-1.46-1.1V38.8A3.47,3.47,0,0,1,73.24,36l14.53-8.39c.8-.46,1.45,0,1.45,1.1V38.3A3.49,3.49,0,0,1,87.77,41.08Z"/><path class="cls-8" d="M79,40.25,73,43.66c-.7.4-1.26,0-1.26-.95v-6.4A3,3,0,0,1,73,33.91L79,30.5c.7-.4,1.26,0,1.26.94v6.41A3,3,0,0,1,79,40.25Z"/><path class="cls-6" d="M80.3,42.82a14,14,0,0,0,.29-1.43A7.79,7.79,0,0,0,82,39.19c.65-1.55.14-2-.37-2.15a2.06,2.06,0,0,0-.84.06c0-.94.09-2.05,0-3a1.23,1.23,0,0,1,1.1.09c.07,0,.24-.23.21-.33-.16-.5-.66-.68-1.37-.28a1.68,1.68,0,0,0-.31-.79s-.1.09-.1.14v.92a5.08,5.08,0,0,0-1.91,3.35c-.1,1.32.9,1,1.68.79l.21,0c0,1-.14,2.15-.22,3.24a2.14,2.14,0,0,1-1.2.44,1,1,0,0,1-.92-.61c0-.08-.24.13-.27.31-.26,1.31.84,1.56,2,.79a3.19,3.19,0,0,0,.32-.23,8.55,8.55,0,0,0,0,1.15C80.06,43.21,80.25,43,80.3,42.82ZM79.06,37.1c-.33-.53.23-1.76,1.07-2.52l.16-.13c0,.93,0,1.85,0,2.77l-.3.08A1.32,1.32,0,0,1,79.06,37.1Zm2.13.86c.37.16,1,.65-.5,2.66h0a23,23,0,0,0,.07-2.71A1,1,0,0,1,81.19,38Z"/><path class="cls-10" d="M89.1,14.65,74.57,23c-.81.46-1.46,0-1.46-1.1V12.37a3.47,3.47,0,0,1,1.46-2.78L89.1,1.2c.8-.47,1.45,0,1.45,1.1v9.57A3.5,3.5,0,0,1,89.1,14.65Z"/><path class="cls-10" d="M80.28,13.81l-5.91,3.42c-.7.4-1.26,0-1.26-.95V9.88a3,3,0,0,1,1.26-2.4l5.91-3.42c.69-.4,1.26,0,1.26,1v6.4A3,3,0,0,1,80.28,13.81Z"/><path class="cls-10" d="M80.27,4.7s.79-.73.81-.71l1.3.83-.75.92Z"/><path class="cls-10" d="M74,21.89l-.42,1.2,1.31.84s1-1.57.94-1.54S74,21.89,74,21.89Z"/><polygon class="cls-10" points="89.52 1.58 90.05 1.12 91.33 1.95 90.22 3.2 89.52 1.58"/><path class="cls-8" d="M90.31,15.44,75.78,23.83c-.8.46-1.45,0-1.45-1.1V13.16a3.51,3.51,0,0,1,1.45-2.79L90.31,2c.81-.47,1.46,0,1.46,1.1v9.57A3.48,3.48,0,0,1,90.31,15.44Z"/><path class="cls-8" d="M81.5,14.6,75.58,18c-.69.4-1.25,0-1.25-.95V10.66a3,3,0,0,1,1.25-2.39L81.5,4.85c.69-.4,1.26,0,1.26,1v6.4A3,3,0,0,1,81.5,14.6Z"/><path class="cls-6" d="M82.66,17.36c.13-.51.22-1,.29-1.43a7.93,7.93,0,0,0,1.36-2.2c.65-1.55.14-2-.37-2.15a1.89,1.89,0,0,0-.84.06c0-.94.09-2.06,0-3a1.19,1.19,0,0,1,1.1.09c.07,0,.24-.24.21-.33-.16-.5-.66-.68-1.37-.29a1.77,1.77,0,0,0-.31-.79s-.1.1-.1.15v.91a5.13,5.13,0,0,0-1.91,3.36c-.1,1.31.9,1,1.68.79l.21-.05c0,1-.14,2.15-.22,3.23a2.06,2.06,0,0,1-1.2.44.94.94,0,0,1-.92-.6c0-.08-.24.13-.27.3-.26,1.32.84,1.57,2,.8l.32-.23a8.36,8.36,0,0,0,0,1.14C82.42,17.74,82.61,17.56,82.66,17.36Zm-1.24-5.72c-.33-.53.23-1.77,1.07-2.52A1.53,1.53,0,0,1,82.65,9c0,.93,0,1.85,0,2.77l-.3.08A1.32,1.32,0,0,1,81.42,11.64Zm2.13.86c.37.15,1,.65-.5,2.65h0a23,23,0,0,0,.07-2.71A1,1,0,0,1,83.55,12.5Z"/><path class="cls-9" d="M56.09,27.92a.47.47,0,0,1-.46-.42.48.48,0,0,1,.42-.51l38.47-3.44A.47.47,0,0,1,95,24a.46.46,0,0,1-.42.51L56.14,27.92Z"/><path class="cls-10" d="M106.94,24.7,92.41,33.09c-.81.46-1.46,0-1.46-1.1V22.42a3.47,3.47,0,0,1,1.46-2.78l14.53-8.39c.8-.46,1.45,0,1.45,1.1v9.57A3.49,3.49,0,0,1,106.94,24.7Z"/><path class="cls-10" d="M98.12,23.86l-5.91,3.42c-.7.4-1.26,0-1.26-1v-6.4a3,3,0,0,1,1.26-2.4l5.91-3.42c.7-.4,1.26,0,1.26,1v6.41A3,3,0,0,1,98.12,23.86Z"/><path class="cls-10" d="M98.11,14.75s.79-.72.82-.71l1.29.84-.75.91Z"/><path class="cls-10" d="M91.85,31.94l-.42,1.21,1.31.84s1-1.57.94-1.54S91.85,31.94,91.85,31.94Z"/><polygon class="cls-10" points="107.36 11.63 107.89 11.17 109.17 12 108.06 13.25 107.36 11.63"/><path class="cls-8" d="M108.16,25.49,93.63,33.88c-.81.46-1.46,0-1.46-1.1V23.21a3.47,3.47,0,0,1,1.46-2.78L108.16,12c.8-.47,1.45,0,1.45,1.1v9.57A3.49,3.49,0,0,1,108.16,25.49Z"/><path class="cls-8" d="M99.34,24.65l-5.91,3.42c-.7.4-1.26,0-1.26-.95v-6.4a3,3,0,0,1,1.26-2.4l5.91-3.42c.7-.4,1.26,0,1.26.95v6.41A3,3,0,0,1,99.34,24.65Z"/><path class="cls-6" d="M100.5,27.41a14,14,0,0,0,.29-1.43,7.71,7.71,0,0,0,1.36-2.2c.65-1.55.15-2-.37-2.15a2,2,0,0,0-.83.06c0-.94.08-2.05,0-3a1.22,1.22,0,0,1,1.11.09c.06,0,.23-.23.2-.33-.15-.5-.65-.68-1.37-.28a1.76,1.76,0,0,0-.3-.8s-.1.1-.1.15c0,.3,0,.61,0,.92a5.08,5.08,0,0,0-1.91,3.35c-.1,1.32.9,1,1.68.79l.21-.05c0,1-.14,2.15-.22,3.24a2.14,2.14,0,0,1-1.2.44,1,1,0,0,1-.92-.61c0-.08-.23.13-.27.31-.25,1.31.84,1.56,2,.79a3.09,3.09,0,0,0,.31-.23,8.55,8.55,0,0,0,0,1.15C100.26,27.8,100.45,27.61,100.5,27.41Zm-1.24-5.72c-.33-.53.24-1.77,1.07-2.52l.16-.13c0,.93,0,1.85,0,2.77l-.29.08A1.34,1.34,0,0,1,99.26,21.69Zm2.13.86c.38.16,1,.65-.5,2.66h0A21,21,0,0,0,101,22.5,1,1,0,0,1,101.39,22.55Z"/><path class="cls-11" d="M115.36,41.22a11.5,11.5,0,0,0-1.51-2.53c-.5-.55-.81-.91-1-.86s-.23.57.08,1a3.18,3.18,0,0,1,.47.76,3,3,0,0,1-1.48-1c-.57-.61-.91-1.26-1.27-1.29-.14,0-.19.15-.19.46-1,.79-.2,2.57.79,3.42a10,10,0,0,0,2.93,1.43Z"/><path class="cls-4" d="M118.5,42.59l-3.32-2.1a2.21,2.21,0,0,0-1.7,2.1c.65,1.07,3.67,3.21,3.67,3.21Z"/><path class="cls-8" d="M113,29.77l-2.07-1.16h0l-.08-.05a3.5,3.5,0,0,0-3.34.37c-3,1.7-5.34,6.27-5.34,10.2,0,2.18.74,3.71,1.9,4.34h0l0,0h0l2,1.12.48-1a5.45,5.45,0,0,0,.94-.42c3-1.71,5.34-6.27,5.34-10.21a7.3,7.3,0,0,0-.31-2.2Z"/><path class="cls-8" d="M113,29.77l-2.07-1.17h0l-.08-.05a2.94,2.94,0,0,0-1.92-.2l3.59,2.07-.83.48-3.79-2.19c-.13.07-.26.13-.39.21a5,5,0,0,0-.49.31L110,31l-.83.48-2.86-1.65c-.25.22-.49.46-.73.71l3.28,1.9-.83.47-3-1.73c-.21.27-.41.55-.61.84l3.43,2-.83.48-3-1.75q-.25.44-.48.9l3.42,2-.83.48-2.93-1.69c-.14.35-.28.71-.4,1.06l3.61,2.08-.83.48-3-1.73a9.68,9.68,0,0,0-.25,1.19l3.83,2.21-.83.48-3.11-1.79c0,.26,0,.53,0,.79s0,.42,0,.63l3.54,2-.83.48L102.3,40.8a5.22,5.22,0,0,0,.61,1.59l3.29,1.9.33-.7a5.45,5.45,0,0,0,.94-.42c3-1.71,5.34-6.28,5.34-10.21a7.3,7.3,0,0,0-.31-2.2Z"/><path class="cls-10" d="M110,31l-3-1.73a7.46,7.46,0,0,0-.7.56l2.86,1.65Z"/><path class="cls-10" d="M112.48,30.43l-3.59-2.07a4.53,4.53,0,0,0-1,.36l3.79,2.19Z"/><path class="cls-10" d="M108.83,32.41l-3.28-1.9c-.18.21-.37.42-.54.64l3,1.73Z"/><path class="cls-10" d="M107.83,34l-3.43-2c-.15.23-.29.47-.43.71l3,1.75Z"/><path class="cls-10" d="M106.91,35.57l-3.42-2c-.12.25-.23.51-.34.76l2.93,1.69Z"/><path class="cls-10" d="M106.36,37.5l-3.61-2.08c-.08.28-.16.55-.23.83l3,1.73Z"/><path class="cls-10" d="M106.1,39.65l-3.83-2.21c0,.3-.09.6-.11.9l3.11,1.79Z"/><path class="cls-10" d="M105.7,41.8l-3.54-2a6.53,6.53,0,0,0,.14,1l2.57,1.48Z"/><path class="cls-10" d="M104,43.47h0l0,0h0l2,1.12.15-.33-3.29-1.9A3,3,0,0,0,104,43.47Z"/><path class="cls-12" d="M114.83,34.1c0,3.94-2.39,8.5-5.34,10.21s-5.34-.11-5.34-4,2.39-8.5,5.34-10.2S114.83,30.17,114.83,34.1Z"/><path class="cls-13" d="M112,30.38c1,.53,1.65,1.88,1.63,3.83,0,3.46-2.15,7.51-4.71,9a3.3,3.3,0,0,1-2.38.52,3,3,0,0,0,2.93-.33c2.55-1.53,4.66-5.58,4.7-9.05C114.21,32.12,113.34,30.67,112,30.38Z"/><path class="cls-10" d="M112,30.38c1,.53,1.65,1.88,1.63,3.83,0,3.46-2.15,7.51-4.71,9a3.3,3.3,0,0,1-2.38.52,3,3,0,0,0,2.93-.33c2.55-1.53,4.66-5.58,4.7-9.05C114.21,32.12,113.34,30.67,112,30.38Z"/><path class="cls-13" d="M108.93,43.26c2.56-1.54,4.66-5.59,4.71-9,0-2-.62-3.3-1.63-3.83a3.26,3.26,0,0,0-2.38.52c-2.56,1.53-4.66,5.58-4.7,9.05,0,1.95.61,3.3,1.62,3.83A3.3,3.3,0,0,0,108.93,43.26Z"/><path class="cls-10" d="M109.43,41.72c.12-.47.2-.92.27-1.35A7.4,7.4,0,0,0,111,38.3c.61-1.47.13-1.92-.36-2a1.63,1.63,0,0,0-.78,0c0-.89.08-1.94,0-2.78a1.11,1.11,0,0,1,1,.08c.07,0,.23-.22.2-.31-.15-.48-.62-.65-1.3-.27a1.55,1.55,0,0,0-.29-.75s-.09.09-.09.14c0,.28,0,.57,0,.86a4.86,4.86,0,0,0-1.8,3.17c-.1,1.25.85.93,1.59.75l.2-.05c0,.93-.14,2-.21,3.06a2,2,0,0,1-1.13.41.89.89,0,0,1-.88-.57c0-.08-.22.12-.25.29-.24,1.24.8,1.48,1.92.75a1.91,1.91,0,0,0,.3-.22,7.67,7.67,0,0,0,0,1.09C109.2,42.09,109.38,41.91,109.43,41.72Zm-1.17-5.4c-.32-.5.22-1.67,1-2.38a1.58,1.58,0,0,1,.15-.12c0,.88,0,1.75,0,2.61l-.28.08C109,36.56,108.36,36.48,108.26,36.32Zm2,.81c.35.15,1,.62-.48,2.51h0a20.58,20.58,0,0,0,.07-2.56A.91.91,0,0,1,110.27,37.13Z"/><path class="cls-11" d="M107.68,47a14,14,0,0,0-.69-3,8.69,8.69,0,0,0-1.08-2.14c-.43-.51-.67,0-.49.79s.32,1.35.32,1.35a2.93,2.93,0,0,1-1.27-1.53c-.37-1.06-.75-2.32-1.18-1.23A4.8,4.8,0,0,0,104,45.6a13.85,13.85,0,0,0,2.37,2Z"/><path class="cls-4" d="M122.13,37.28c1.47-1.58,4.16-1.66,5.21,1.43,1.15,3.42.11,8.09-1.21,8.26-.51.06-1.89-.85-3.4-2Z"/><path class="cls-14" d="M126.13,85a10.3,10.3,0,0,1,.68,2.47c.14,1.26-.07,1.91-.92,2.2s-2.2.1-4.33-1-3.07-2.26-3.15-3,1-1.8,2.84-1.22a23.11,23.11,0,0,1,2.78,1Z"/><path class="cls-14" d="M120.29,59.5c.21-1.38.19-3.32.78-4.59-.32-.17,3.64-.82,4.8-1,.59-.12,3.33,4.88,1.36,7.65a22.58,22.58,0,0,1-1.91,8.64,30,30,0,0,1,1.09,3.43c1,3.47.35,8-.1,11.72-.19,1.59-3.36,1.06-4,.27-.47-2.31-.81-7.94-1.81-11.63-.75-2.78-.94-3.36-.66-5.21A75.63,75.63,0,0,0,120.29,59.5Z"/><path class="cls-3" d="M122.73,84.88a5.9,5.9,0,0,0-1.6,1.18c-.52.67-1.1.12-.72-.55a2.55,2.55,0,0,1,1.36-1A2.78,2.78,0,0,1,122.73,84.88Z"/><path class="cls-14" d="M119.23,88.89a10.3,10.3,0,0,1,.68,2.47c.14,1.26-.07,1.91-.92,2.19s-2.2.11-4.33-1-3.08-2.26-3.15-3,1-1.8,2.84-1.22a23.11,23.11,0,0,1,2.78,1Z"/><path class="cls-15" d="M114.28,63.41a33,33,0,0,1,1.27-6c-.32-.18,3,1,4.21.76,1-.2,3.87-3.26,3.88-3.15,2.59,3.09,2,7.62-.74,9.57a14.83,14.83,0,0,1-4.48,9.45,19.48,19.48,0,0,1,1.09,3.43c.67,3.53.35,8-.1,11.72-.19,1.58-3.36,1.06-4,.27-.46-2.31-.8-7.94-1.8-11.63-.75-2.78-.94-3.36-.66-5.21C113.58,68.38,114.14,64.31,114.28,63.41Z"/><path class="cls-3" d="M115.83,88.8a5.9,5.9,0,0,0-1.6,1.18c-.52.67-1.1.12-.72-.55a2.55,2.55,0,0,1,1.36-1A2.78,2.78,0,0,1,115.83,88.8Z"/><path class="cls-11" d="M116.32,28.33a3.38,3.38,0,0,1,3.72.05,3,3,0,0,1,1.64,2.47,8.75,8.75,0,0,1-.19,2,8.45,8.45,0,0,1-1.36,2.52,4.24,4.24,0,0,1-3.81,1.38c-1.08-.35-1.82-1.94-1.59-4.3C114.89,30.75,114.84,29.33,116.32,28.33Z"/><path class="cls-7" d="M119.44,38.87c3.16-1.54,4.14-3.15,6.33-1.23,1.35,1.2,1.58,6.06,1.4,8.09-.14,1.52-1.06,4.8-.9,7.5,0,.9.9,2,1.07,2.88-1,1.31-4.24,4.11-7.09,4.1s-4.08-.52-5.1-1.53c0-2.18.17-3.53.06-4.83-.3-3.75-.82-6.78-.95-9.11C114.09,41.61,115.76,40.67,119.44,38.87Z"/><path class="cls-11" d="M121.4,33.24a18.93,18.93,0,0,0,.44,2.63,4.85,4.85,0,0,0,1.35,2,1.52,1.52,0,0,1-.71,2.35c-1.76.75-3.85-.8-3.85-.8a8.33,8.33,0,0,0-.69-2.63C117.46,35.58,121.4,33.24,121.4,33.24Z"/><path class="cls-14" d="M114.18,28.15a2.76,2.76,0,0,0,2,3,4.27,4.27,0,0,0,2,2,2.66,2.66,0,0,0,1.33,2.16,7.43,7.43,0,0,0,2.46,1,33.81,33.81,0,0,0,1.48-4.91A4,4,0,0,0,120.78,27a6,6,0,0,0-3.78.05A25.93,25.93,0,0,0,114.18,28.15Z"/><path class="cls-11" d="M118.56,33a1.45,1.45,0,0,1-1,1.83l-.83-1.54S118.09,31.4,118.56,33Z"/><path class="cls-4" d="M124.22,54.91s-2.11,2.16-4.1,2.32a10.69,10.69,0,0,1-2.75,0,7.6,7.6,0,0,1,2.8-1.27C121.67,55.67,124.22,54.91,124.22,54.91Z"/><path class="cls-4" d="M111.64,54.1a1.91,1.91,0,0,1-2.09-.49c-1.74-1.44-4-5.54-4.43-6.09-.15-.85,1.56-2.65,2.56-2A30.81,30.81,0,0,1,111.17,49a56.41,56.41,0,0,1,3.51-7.26c1.94-2.14,2.95-1.73,3.9-.58s1.31,3.3,1.35,5.27-.27,3.53-1.29,4a3.89,3.89,0,0,1-2.11.48A13.11,13.11,0,0,1,111.64,54.1Z"/><path class="cls-4" d="M123.39,37.36c.67.24,1.53,1.59-.07,2.84s-3.28.2-3.92-.12a5.82,5.82,0,0,0-1.5-.44s.3-1,1.87-1c1,0,2.38-.27,2.8-.85S123,37.22,123.39,37.36Z"/></g></g></svg>