<svg width="552" height="482" viewBox="0 0 552 482" fill="none" xmlns="http://www.w3.org/2000/svg">
<g clip-path="url(#clip0_91_840)">
<path d="M61.6904 61.5999C35.5333 75.5896 12.5069 98.5472 4.09548 128.138C-2.19733 150.229 0.0471062 173.969 2.34398 197L17.7037 351.275C20.2523 376.878 23.1679 403.598 36.6503 425.217C58.7276 460.627 102.415 472.523 142.265 477.471C237.05 489.236 333.954 477.776 423.92 445.772C456.229 434.29 488.369 419.728 513.388 395.469C538.407 371.21 555.477 335.685 551.402 299.918C549.263 281.101 541.549 263.391 538.245 244.747C530.038 198.38 549.567 150.088 538.864 104.262C528.622 60.4297 491.62 27.334 450.985 12.5571C410.349 -2.2197 366.352 -1.42733 323.702 2.27738C240.485 9.50837 136.869 21.3939 61.6904 61.5999Z" fill="#FFF3D9"/>
<path d="M516.871 354.025C440.675 414.979 326.104 429.856 178.574 427.358C31.0446 424.86 2.43854 378.51 3.08355 340.177C3.72856 301.844 54.0134 300.553 208.743 309.149C347.505 316.857 575.881 306.814 516.871 354.025Z" fill="#F2E1BD"/>
<path d="M419.751 255.026C421.005 253.322 421.928 251.398 422.473 249.354C421.277 251.092 420.359 253.006 419.751 255.026Z" fill="#F7CA68"/>
<path d="M447.109 252.885C447.081 252.822 447.039 252.765 446.988 252.718C446.937 252.67 446.877 252.633 446.812 252.609C446.746 252.586 446.677 252.575 446.607 252.578C446.538 252.581 446.47 252.598 446.407 252.628C439.065 256.029 432.248 260.069 425.651 263.979L423.097 265.485L422.777 265.59C429.028 261.512 434.938 255.194 440.539 250.682L418.881 259.891C418.971 258.24 419.263 256.606 419.751 255.026C417.279 258.448 413.662 260.869 409.557 261.848C409.403 258.329 409.253 254.808 409.106 251.285C406.788 253.919 404.469 256.555 402.147 259.193C401.25 256.13 400.942 252.925 401.24 249.748C397.003 250.844 395.76 256.27 392.503 259.193C387.354 263.805 377.464 258.91 378.009 252.014C375.911 254.463 373.8 256.926 371.674 259.403C370.405 253.508 369.14 247.617 367.878 241.729C367.654 247.165 367.099 252.582 366.215 257.949L364.742 240.355C364.73 240.215 364.663 240.087 364.557 239.997C364.45 239.907 364.312 239.863 364.173 239.874C364.034 239.886 363.905 239.953 363.815 240.06C363.725 240.166 363.681 240.305 363.693 240.444L365.497 262.006C365.324 262.887 365.145 263.774 364.972 264.629C360.401 260.887 356.88 256.019 354.757 250.503L352.271 261.969C350.125 256.904 347.122 252.248 343.393 248.205C342.495 252.819 341.596 257.43 340.698 262.037C340.347 261.581 340.006 261.114 339.649 260.652L332.994 239.384C332.952 239.249 332.858 239.138 332.733 239.073C332.608 239.008 332.463 238.995 332.328 239.037C332.194 239.08 332.082 239.174 332.018 239.299C331.953 239.424 331.94 239.57 331.982 239.704L337.714 257.892C334.762 253.567 332.204 248.985 330.074 244.201C329.027 250.389 328.635 256.67 328.904 262.94C320.556 261.349 312.897 257.232 306.963 251.143C306.732 255.037 306.498 258.929 306.261 262.819C301.435 259.576 297.417 255.267 294.519 250.225C292.061 256.872 288.214 262.917 283.234 267.956L267.864 249.732C265.475 254.041 263.898 258.753 263.212 263.632C259.505 260.983 256.792 257.165 255.509 252.791L251.188 264.472C250.837 265.427 250.396 266.476 249.468 266.886C249.228 266.985 248.972 267.042 248.713 267.054C246.038 264.755 242.614 262.305 235.797 258.201C235.677 258.138 235.538 258.124 235.408 258.162C235.278 258.2 235.167 258.286 235.1 258.404C235.032 258.521 235.012 258.66 235.044 258.791C235.077 258.922 235.158 259.036 235.272 259.109C239.063 261.308 242.719 263.731 246.222 266.366L228.681 259.02C228.317 261.368 228.609 263.77 229.525 265.962C225.131 262.371 220.508 259.068 215.686 256.076C215.627 256.039 215.561 256.014 215.492 256.002C215.424 255.991 215.353 255.993 215.285 256.009C215.217 256.025 215.153 256.055 215.097 256.096C215.041 256.137 214.993 256.189 214.957 256.249C214.92 256.308 214.895 256.374 214.883 256.443C214.872 256.512 214.874 256.582 214.89 256.65C214.907 256.718 214.936 256.782 214.977 256.839C215.018 256.895 215.07 256.942 215.13 256.979C218.62 259.13 222 261.456 225.256 263.947C221.364 261.839 217.053 260.621 212.634 260.379C213.578 266.214 218.36 270.842 223.767 273.219C228.89 275.476 234.549 276.058 240.134 276.525L241.34 277.622C241.436 277.713 241.564 277.763 241.696 277.764C241.77 277.762 241.843 277.746 241.91 277.717C241.978 277.687 242.039 277.644 242.09 277.591C242.137 277.539 242.174 277.479 242.198 277.413C242.222 277.347 242.233 277.278 242.229 277.208C242.226 277.138 242.209 277.069 242.178 277.006C242.148 276.943 242.105 276.887 242.053 276.84L241.869 276.672C277.251 279.595 312.894 282.444 348.176 278.498C365.004 276.609 381.606 273.156 398.403 271.057C401.471 270.674 404.565 270.533 407.601 270.27C406.767 270.501 405.918 270.716 405.073 270.931C407.323 270.795 409.515 270.197 411.775 270.144C414.161 269.436 416.532 268.712 418.87 267.967C418.206 268.355 417.535 268.738 416.857 269.116C418.042 268.832 419.222 268.56 420.412 268.303C421.461 267.699 422.51 267.09 423.532 266.482C430.182 264.383 437.036 262.242 444.146 260.709C444.215 260.695 444.281 260.667 444.339 260.627C444.397 260.588 444.447 260.537 444.485 260.478C444.523 260.419 444.55 260.353 444.563 260.284C444.576 260.215 444.575 260.143 444.561 260.075C444.546 260.006 444.518 259.94 444.479 259.882C444.439 259.824 444.388 259.774 444.329 259.736C444.27 259.697 444.204 259.671 444.135 259.658C444.066 259.645 443.995 259.645 443.926 259.66C438.31 260.851 432.867 262.42 427.56 264.068C433.716 260.431 440.082 256.721 446.852 253.573C446.977 253.515 447.073 253.41 447.121 253.282C447.169 253.153 447.165 253.011 447.109 252.885Z" fill="#F7CA68"/>
<path d="M402.011 267.683C399.321 278.609 389.902 282.932 382.036 279.926C374.516 277.055 371.548 268.906 375.56 258.411C379.572 247.916 390.123 240.444 396.132 242.742C402.504 245.156 404.591 257.209 402.011 267.683Z" fill="white"/>
<path d="M389.006 252.282C388.768 252.323 388.546 252.43 388.366 252.592C388.114 252.849 388.083 253.253 387.925 253.578C387.658 254.15 386.971 254.575 387.05 255.2C387.115 255.487 387.265 255.749 387.48 255.95C387.826 256.354 388.172 256.753 388.529 257.152C388.822 257.55 389.204 257.874 389.645 258.096C390.469 258.443 391.418 258.049 392.126 257.509C392.502 257.26 392.782 256.889 392.918 256.459C392.96 256.209 392.941 255.952 392.862 255.711C392.784 255.47 392.648 255.251 392.467 255.074C392.1 254.726 391.678 254.44 391.219 254.229C392.393 252.345 390.61 251.904 389.006 252.282Z" fill="#382118"/>
<path d="M389.011 262.268C388.725 261.994 388.504 261.661 388.361 261.292C388.297 261.279 388.233 261.262 388.172 261.239C388.144 261.229 388.118 261.215 388.093 261.197L386.882 261.848C386.515 262.053 386.09 262.431 386.274 262.808C386.457 263.186 386.919 263.102 387.296 263.097C387.843 263.091 388.376 263.266 388.812 263.596C388.881 263.664 388.969 263.711 389.063 263.732C389.226 263.732 389.357 263.601 389.41 263.449C389.444 263.234 389.426 263.015 389.357 262.809C389.287 262.603 389.169 262.417 389.011 262.268Z" fill="#382118"/>
<path d="M393.689 262.069C393.517 262.229 393.393 262.435 393.333 262.662C393.273 262.89 393.278 263.13 393.348 263.354C393.421 263.538 393.647 263.711 393.809 263.596C393.86 263.548 393.897 263.488 393.919 263.422C394.026 263.167 394.086 262.896 394.098 262.62C394.094 262.519 394.112 262.419 394.15 262.326C394.26 262.1 394.575 262.095 394.821 262.069C395.194 262.032 396.269 261.596 395.697 261.135C395.367 260.862 393.93 261.848 393.689 262.069Z" fill="#382118"/>
<path d="M399.982 256.207C399.842 256.077 399.657 256.008 399.466 256.014C399.276 256.02 399.096 256.1 398.964 256.239C398.721 256.532 398.6 256.908 398.629 257.288C398.629 257.671 398.718 258.049 398.702 258.427C398.702 258.694 398.665 259.025 398.891 259.167C399.116 259.308 399.415 259.14 399.546 258.915C399.677 258.689 399.714 258.416 399.835 258.185C399.975 257.965 400.138 257.761 400.322 257.577C400.506 257.388 400.609 257.136 400.611 256.874C400.611 256.611 400.333 256.349 400.086 256.438L399.982 256.207Z" fill="#382118"/>
<path d="M380.542 253.106C381.15 253.001 381.916 253.274 382.309 252.802C382.375 252.695 382.454 252.598 382.545 252.513C382.606 252.473 382.675 252.446 382.748 252.434C382.82 252.423 382.894 252.426 382.965 252.445C383.725 252.586 384.103 253.494 383.961 254.271C383.747 255.013 383.381 255.703 382.886 256.296C382.344 257.09 381.886 257.938 381.517 258.826C381.47 258.973 381.387 259.107 381.276 259.214C381.168 259.29 381.041 259.333 380.909 259.34C380.577 259.336 380.254 259.231 379.984 259.037C379.714 258.844 379.509 258.572 379.399 258.259C379.186 257.628 379.122 256.956 379.21 256.296C379.289 255.026 378.827 253.405 380.542 253.106Z" fill="#382118"/>
<path d="M375.948 265.521C376.289 265.557 376.619 265.66 376.918 265.826C377.264 265.97 377.559 266.215 377.763 266.529C378.24 267.421 377.327 268.407 377.165 269.405C377.002 270.402 377.616 271.325 378.339 271.997C379.123 272.599 379.876 273.24 380.594 273.917C381.25 274.657 381.643 275.759 381.213 276.641C381.122 276.836 380.981 277.005 380.804 277.129C380.599 277.231 380.375 277.288 380.146 277.297C379.918 277.306 379.69 277.267 379.477 277.181C378.299 276.825 377.286 276.06 376.619 275.025C376.197 274.3 375.866 273.527 375.634 272.721C375.172 271.346 372.76 265.353 375.948 265.521Z" fill="#382118"/>
<path d="M395.477 245.78C395.345 245.651 395.173 245.569 394.989 245.55C394.399 245.411 393.781 245.44 393.206 245.634C393.221 245.849 393.185 246.064 393.101 246.263C393.322 246.468 393.457 246.75 393.479 247.05C393.479 247.402 393.358 247.795 393.558 248.1C393.663 248.224 393.809 248.308 393.97 248.336C394.131 248.364 394.297 248.334 394.439 248.252C394.719 248.081 394.943 247.831 395.084 247.533C395.246 247.244 395.384 246.942 395.498 246.631C395.57 246.5 395.607 246.352 395.603 246.203C395.599 246.053 395.556 245.907 395.477 245.78Z" fill="#382118"/>
<path d="M392.483 276.137C392.181 276.162 391.885 276.227 391.602 276.331C391.459 276.383 391.331 276.469 391.23 276.583C391.129 276.697 391.059 276.834 391.025 276.982C390.956 277.459 391.428 277.853 391.89 277.963C392.589 278.076 393.307 277.96 393.935 277.633C394.46 277.396 398.497 274.484 396.756 273.812C396.232 273.597 395.43 274.767 395.063 275.051C394.307 275.623 393.42 275.996 392.483 276.137Z" fill="#382118"/>
<path d="M392.745 270.994C392.581 271.03 392.436 271.126 392.339 271.262C392.242 271.399 392.199 271.568 392.22 271.734L393.107 271.514C393.285 271.467 393.495 271.393 393.542 271.215C393.256 271.047 392.934 270.952 392.603 270.937L392.745 270.994Z" fill="#382118"/>
<path d="M395.964 267.022L394.68 268.35C394.791 268.517 394.954 268.643 395.143 268.711C395.332 268.778 395.538 268.783 395.73 268.724C395.921 268.665 396.089 268.546 396.208 268.384C396.327 268.222 396.39 268.026 396.389 267.825L395.865 267.3L395.964 267.022Z" fill="#382118"/>
<path d="M390.333 270.417C390.137 270.509 389.97 270.652 389.85 270.832C390.069 270.884 390.298 270.878 390.514 270.814C390.73 270.751 390.926 270.632 391.082 270.47C390.874 270.269 390.612 270.134 390.327 270.081L390.333 270.417Z" fill="#382118"/>
<path d="M390.055 278.456C390.012 278.424 389.961 278.402 389.908 278.392C389.855 278.383 389.8 278.387 389.749 278.403C389.697 278.42 389.65 278.449 389.612 278.487C389.574 278.526 389.546 278.573 389.53 278.624C389.77 278.76 390.041 278.832 390.317 278.834C390.454 278.83 390.587 278.785 390.698 278.704C390.809 278.624 390.894 278.512 390.941 278.383C390.819 278.249 390.668 278.146 390.5 278.08C390.332 278.014 390.151 277.989 389.971 278.005L389.855 278.246L390.055 278.456Z" fill="#382118"/>
<path d="M299.748 245.954C310.97 246.106 317.331 254.302 316.214 262.651C315.123 270.627 307.855 275.366 296.716 273.839C285.578 272.312 275.934 263.722 276.789 257.335C277.707 250.582 288.945 245.812 299.748 245.954Z" fill="white"/>
<path d="M305.201 271.026C305.298 271.239 305.452 271.421 305.647 271.551C305.983 271.675 306.337 271.744 306.696 271.755C307.309 271.892 307.881 272.459 308.473 272.243C308.738 272.113 308.958 271.909 309.108 271.656L310.041 270.365C310.36 269.987 310.588 269.542 310.707 269.063C310.854 268.182 310.256 267.348 309.57 266.776C309.248 266.474 308.834 266.289 308.395 266.251C308.142 266.266 307.896 266.342 307.679 266.473C307.462 266.603 307.279 266.785 307.147 267.001C306.897 267.44 306.72 267.917 306.622 268.413C304.504 267.704 304.483 269.546 305.201 271.026Z" fill="#382118"/>
<path d="M303.796 265.563C303.748 265.645 303.717 265.735 303.704 265.829C303.692 265.922 303.698 266.018 303.722 266.109C303.746 266.2 303.789 266.286 303.846 266.36C303.904 266.435 303.976 266.498 304.058 266.545C304.227 266.632 304.412 266.685 304.602 266.7C304.792 266.715 304.983 266.693 305.164 266.634C305.532 266.539 305.883 266.377 306.255 266.303C306.517 266.251 306.843 266.204 306.932 265.952C307.021 265.7 306.785 265.427 306.538 265.369C306.292 265.311 306.014 265.317 305.762 265.254C305.516 265.17 305.28 265.057 305.06 264.918C304.833 264.785 304.566 264.742 304.31 264.797C304.248 264.814 304.19 264.844 304.14 264.885C304.091 264.925 304.05 264.976 304.022 265.034C303.993 265.091 303.977 265.154 303.974 265.218C303.971 265.282 303.982 265.346 304.006 265.406L303.796 265.563Z" fill="#382118"/>
<path d="M289.847 263.218C289.606 262.646 289.7 261.843 289.144 261.565C289.029 261.522 288.918 261.468 288.814 261.402C288.71 261.297 288.652 261.156 288.651 261.009C288.62 260.237 289.433 259.655 290.224 259.623C290.996 259.663 291.752 259.864 292.443 260.211C293.337 260.559 294.265 260.814 295.211 260.972C295.366 260.985 295.515 261.036 295.647 261.119C295.744 261.208 295.815 261.322 295.851 261.449C295.921 261.773 295.891 262.111 295.765 262.418C295.638 262.724 295.422 262.985 295.143 263.165C294.578 263.516 293.939 263.732 293.276 263.795C292.023 264 290.518 264.818 289.847 263.218Z" fill="#382118"/>
<path d="M280.471 253.153C280.378 253.311 280.337 253.495 280.355 253.678C280.353 254.284 280.522 254.879 280.843 255.394C281.049 255.334 281.266 255.322 281.477 255.357C281.63 255.102 281.874 254.915 282.159 254.832C282.5 254.738 282.909 254.78 283.15 254.523C283.248 254.391 283.296 254.228 283.286 254.065C283.276 253.901 283.21 253.745 283.098 253.625C282.868 253.392 282.574 253.231 282.253 253.164C281.934 253.071 281.608 253.004 281.278 252.964C281.139 252.924 280.991 252.92 280.85 252.953C280.708 252.986 280.578 253.055 280.471 253.153Z" fill="#382118"/>
<path d="M287.896 265.269C287.971 265.417 288.097 265.531 288.251 265.591C288.405 265.652 288.575 265.653 288.73 265.595L288.31 264.781C288.226 264.614 288.111 264.43 287.928 264.419C287.825 264.736 287.805 265.074 287.87 265.401L287.896 265.269Z" fill="#382118"/>
<path d="M283.287 263.029C283.811 263.344 284.335 263.659 284.86 263.979C285.002 263.832 285.092 263.643 285.116 263.441C285.14 263.238 285.097 263.034 284.993 262.858C284.889 262.683 284.731 262.546 284.542 262.47C284.353 262.394 284.144 262.382 283.947 262.436L283.559 263.039L283.287 263.029Z" fill="#382118"/>
<path d="M287.896 267.746C288.03 267.921 288.212 268.053 288.42 268.124C288.42 267.899 288.362 267.677 288.251 267.481C288.139 267.285 287.979 267.122 287.786 267.006C287.639 267.255 287.566 267.541 287.576 267.83L287.896 267.746Z" fill="#382118"/>
<path d="M311.772 266.482C311.744 266.532 311.729 266.59 311.73 266.648C311.73 266.706 311.746 266.762 311.775 266.813C311.804 266.863 311.846 266.905 311.896 266.934C311.946 266.963 312.002 266.979 312.06 266.98C312.132 266.714 312.132 266.433 312.06 266.167C312.031 266.03 311.96 265.905 311.857 265.811C311.753 265.717 311.623 265.658 311.483 265.642C311.377 265.793 311.308 265.966 311.283 266.149C311.257 266.332 311.276 266.518 311.337 266.692L311.599 266.749L311.772 266.482Z" fill="#382118"/>
<path d="M294.656 254.019C294.656 255.068 295.206 256.207 296.229 256.496C296.585 256.595 296.963 256.58 297.32 256.664C298.893 257.036 299.506 259.078 300.99 259.649C301.357 259.784 301.752 259.823 302.137 259.761C302.523 259.7 302.886 259.54 303.193 259.298C303.168 259.411 303.168 259.529 303.195 259.642C303.221 259.755 303.273 259.861 303.346 259.951C303.419 260.042 303.512 260.114 303.617 260.164C303.722 260.213 303.837 260.238 303.953 260.237C304.187 260.215 304.41 260.127 304.596 259.983C304.781 259.839 304.922 259.645 305.002 259.424C305.16 258.974 305.228 258.498 305.201 258.023C305.868 258.04 306.531 258.117 307.184 258.254C307.511 258.318 307.849 258.296 308.165 258.191C308.481 258.085 308.765 257.899 308.987 257.65C309.189 257.309 309.293 256.918 309.286 256.522C309.366 255.924 309.254 255.316 308.966 254.785C308.816 254.526 308.578 254.33 308.294 254.233C308.011 254.137 307.702 254.146 307.425 254.26C307.283 253.277 307.467 252.274 307.949 251.406C308.057 251.25 308.122 251.069 308.138 250.881C308.138 250.398 307.482 250.267 307.089 249.994C306.72 249.643 306.417 249.229 306.192 248.772C305.904 248.357 305.327 248.021 304.908 248.304C304.714 248.693 304.525 249.086 304.331 249.475C304.379 249.144 304.35 248.808 304.247 248.49C304.145 248.173 303.971 247.883 303.739 247.643C303.507 247.404 303.223 247.221 302.91 247.108C302.596 246.995 302.26 246.955 301.929 246.993C300.356 247.276 299.459 249.233 297.875 249.359C297.622 249.343 297.368 249.388 297.136 249.49C296.192 250.099 294.635 252.513 294.656 254.019Z" fill="#382118"/>
<path d="M360.678 249.915C369.923 256.317 370.61 266.665 365.009 272.952C359.65 278.96 350.976 278.834 342.586 271.346C334.195 263.858 330.986 251.353 335.276 246.531C339.812 241.441 351.815 243.776 360.678 249.915Z" fill="white"/>
<path d="M343.734 247.874C343.545 247.906 343.351 247.942 343.163 247.984C343.058 247.622 343 247.249 342.99 246.872C342.103 245.805 341.084 244.854 339.959 244.044C339.822 244.07 339.691 244.101 339.555 244.138C339.22 244.252 338.915 244.441 338.663 244.689C338.419 244.92 338.267 245.232 338.235 245.567C338.204 245.902 338.294 246.237 338.49 246.51C337.448 246.912 336.302 246.962 335.228 246.652H335.186C334.205 247.898 333.611 249.405 333.477 250.986L334.048 251.117C333.845 251.12 333.643 251.155 333.451 251.222C333.304 252.899 333.41 254.588 333.765 256.233C334.531 256.79 335.286 257.341 335.564 258.212C335.608 258.494 335.722 258.761 335.894 258.988C336.796 259.886 339.833 260.977 341.474 260.563C342.612 260.284 343.729 259.403 343.781 258.227C343.781 257.813 343.692 257.409 343.692 256.994C343.692 255.457 345.197 254.371 345.79 252.959C345.489 251.133 344.787 249.396 343.734 247.874Z" fill="#382118"/>
<path d="M362.067 275.434C363.184 274.07 364.139 272.417 364.291 271.094C364.495 269.384 363.861 267.395 362.277 266.713C361.721 266.476 361.108 266.419 360.541 266.188C358.444 265.39 357.699 262.766 356.089 261.229C353.43 260.703 350.688 260.775 348.06 261.439C348.008 261.717 347.961 261.995 347.924 262.278C347.373 262.234 346.829 262.123 346.304 261.948C344.38 262.617 342.551 263.53 340.86 264.666C340.829 264.865 340.808 265.065 340.782 265.264C340.769 265.784 340.871 266.3 341.081 266.776C341.5 267.668 342.57 268.313 343.488 267.956C343.499 269.162 343.218 270.352 342.67 271.425C349.639 277.591 356.787 278.698 362.067 275.434Z" fill="#382118"/>
<path d="M361.585 252.954C361.271 253.133 361.026 253.412 360.888 253.747C360.75 254.081 360.728 254.452 360.824 254.801C361.53 254.535 362.108 254.009 362.44 253.332C362.282 253.098 362.049 252.928 361.779 252.849L361.585 252.954Z" fill="#382118"/>
<path d="M361.957 263.097C361.045 263.291 360.908 264.419 361.674 265.653C362.723 265.653 363.478 265.096 363.667 264.194C363.259 263.729 362.775 263.337 362.235 263.034L361.957 263.097Z" fill="#382118"/>
<path d="M351.936 252.198C351.768 252.109 351.585 252.371 351.689 252.534C351.752 252.61 351.841 252.659 351.939 252.67C352.037 252.682 352.135 252.656 352.214 252.597C352.364 252.482 352.484 252.332 352.565 252.161C352.645 251.988 352.772 251.84 352.932 251.736C352.915 251.686 352.886 251.64 352.849 251.602C352.811 251.563 352.766 251.534 352.716 251.515C352.666 251.496 352.613 251.488 352.56 251.492C352.506 251.496 352.455 251.511 352.408 251.537C352.219 251.654 352.071 251.826 351.983 252.03L351.936 252.198Z" fill="#382118"/>
<path d="M354.138 250.692C354.227 250.515 354.354 250.361 354.511 250.241C354.587 250.185 354.679 250.154 354.773 250.154C354.867 250.154 354.959 250.185 355.035 250.241C354.842 250.531 354.543 250.735 354.201 250.807L354.138 250.692Z" fill="#382118"/>
<path d="M349.639 251.752C349.727 251.575 349.855 251.421 350.011 251.301C350.087 251.245 350.179 251.214 350.273 251.214C350.368 251.214 350.46 251.245 350.536 251.301C350.349 251.591 350.058 251.798 349.723 251.878L349.639 251.752Z" fill="#382118"/>
<path d="M431.362 267.967C427.014 278.341 417.035 281.148 409.73 276.961C402.75 272.957 401.083 264.435 406.678 254.675C412.273 244.915 423.847 239.19 429.432 242.396C435.342 245.791 435.536 258.023 431.362 267.967Z" fill="white"/>
<path d="M415.22 277.591C415.325 276.541 415.362 275.413 415.897 274.531C415.803 274.381 415.719 274.225 415.645 274.064C415.614 273.991 415.603 273.917 415.577 273.844L412.037 272.763C410.989 272.438 409.457 272.312 409.074 273.361C408.728 274.311 409.704 275.161 410.412 275.875C411.004 276.478 411.475 277.191 411.796 277.974C412.83 278.364 413.908 278.628 415.005 278.761C415.109 278.377 415.181 277.986 415.22 277.591Z" fill="#382118"/>
<path d="M416.846 255.152C417.003 254.949 417.089 254.701 417.093 254.444C417.045 253.888 416.311 253.468 416.479 252.933C416.715 252.193 418.152 252.707 418.472 251.993C418.755 251.369 417.78 250.891 417.633 250.225C417.613 249.976 417.664 249.727 417.781 249.507C417.898 249.286 418.076 249.104 418.293 248.981C418.727 248.737 419.123 248.432 419.468 248.074C419.767 247.675 419.767 246.993 419.321 246.777C419.08 246.667 418.797 246.714 418.571 246.562C418.447 246.434 418.37 246.267 418.352 246.089C418.334 245.911 418.376 245.732 418.472 245.581C418.664 245.29 418.792 244.961 418.844 244.616C418.257 244.633 417.684 244.797 417.177 245.093C417.208 244.775 417.208 244.456 417.177 244.138C415.316 245.216 413.583 246.501 412.011 247.969C412.218 248.819 412.604 249.615 413.144 250.304C413.261 250.428 413.345 250.58 413.39 250.745C413.404 250.893 413.375 251.042 413.306 251.175C412.457 253.153 409.536 253.893 409.258 256.029C409.787 256.526 410.419 256.902 411.109 257.13C411.799 257.358 412.53 257.432 413.252 257.347C413.973 257.262 414.667 257.02 415.286 256.638C415.904 256.256 416.431 255.744 416.83 255.137L416.846 255.152Z" fill="#382118"/>
<path d="M422.494 270.087C422.569 270.081 422.644 270.081 422.72 270.087C422.822 270.08 422.925 270.1 423.018 270.146C423.11 270.192 423.188 270.262 423.244 270.349C423.297 270.434 423.315 270.537 423.294 270.635C423.272 270.733 423.213 270.819 423.129 270.874L422.41 270.47C422.41 270.333 422.457 270.197 422.484 270.055L422.494 270.087Z" fill="#382118"/>
<path d="M422.195 271.818C422.217 271.897 422.223 271.979 422.21 272.06C422.197 272.141 422.167 272.218 422.122 272.285C422.091 272.33 422.049 272.366 422.001 272.39C421.949 272.406 421.893 272.407 421.841 272.393C421.788 272.379 421.74 272.351 421.702 272.312C421.631 272.251 421.575 272.174 421.54 272.087C421.506 272 421.493 271.906 421.503 271.813C421.561 271.341 422.085 271.425 422.195 271.818Z" fill="#382118"/>
<path d="M423.653 271.934C423.716 271.972 423.769 272.027 423.805 272.091C423.823 272.124 423.829 272.163 423.822 272.2C423.816 272.237 423.797 272.271 423.768 272.296C423.733 272.316 423.693 272.327 423.653 272.327C423.612 272.327 423.573 272.316 423.538 272.296C423.325 272.178 423.158 271.994 423.06 271.771C423.045 271.72 423.045 271.665 423.06 271.614C423.281 271.67 423.485 271.78 423.653 271.934Z" fill="#382118"/>
<path d="M426.563 270.171C426.592 270.184 426.617 270.204 426.637 270.228C426.653 270.271 426.653 270.317 426.637 270.36C426.621 270.462 426.589 270.561 426.542 270.653C426.527 270.694 426.5 270.729 426.464 270.753C426.434 270.766 426.402 270.773 426.369 270.773C426.337 270.773 426.305 270.766 426.275 270.753C426.083 270.714 425.913 270.601 425.803 270.438C425.499 269.793 426.265 269.992 426.563 270.171Z" fill="#382118"/>
<path d="M420.522 262.856C420.608 262.906 420.681 262.975 420.738 263.056C420.795 263.138 420.834 263.23 420.853 263.328L420.056 262.866C420.049 262.818 420.062 262.77 420.09 262.731C420.118 262.692 420.16 262.665 420.208 262.656C420.257 262.651 420.307 262.659 420.352 262.679C420.397 262.699 420.436 262.731 420.465 262.772C420.469 262.783 420.472 262.796 420.472 262.808C420.472 262.821 420.469 262.834 420.465 262.845L420.522 262.856Z" fill="#382118"/>
<path d="M420.145 270.171L420.59 270.428C420.685 270.48 420.795 270.559 420.785 270.669C420.778 270.707 420.759 270.742 420.732 270.769C420.705 270.796 420.67 270.814 420.632 270.821C420.558 270.84 420.481 270.84 420.407 270.821C420.336 270.815 420.267 270.797 420.202 270.769C420.152 270.743 420.11 270.705 420.078 270.658C420.046 270.611 420.027 270.557 420.021 270.501C420.015 270.445 420.024 270.388 420.045 270.336C420.067 270.284 420.101 270.238 420.145 270.202V270.171Z" fill="#382118"/>
<path d="M419.987 274.201C420.089 274.263 420.174 274.349 420.234 274.453C420.261 274.505 420.271 274.564 420.262 274.623C420.254 274.681 420.227 274.735 420.187 274.778C420.066 274.888 419.872 274.83 419.725 274.778L419.479 274.668C419.393 274.636 419.313 274.59 419.243 274.531C419.207 274.501 419.18 274.463 419.162 274.42C419.145 274.377 419.138 274.331 419.143 274.285C419.217 273.807 419.772 274.054 419.987 274.201Z" fill="#382118"/>
<path d="M420.737 273.592C420.714 273.695 420.716 273.803 420.741 273.906C420.767 274.009 420.815 274.104 420.884 274.185C420.892 274.189 420.901 274.191 420.91 274.191C420.919 274.191 420.928 274.189 420.936 274.185C420.936 274.185 420.936 274.185 420.973 274.185C421.061 274.095 421.12 273.981 421.141 273.857C421.163 273.734 421.146 273.606 421.094 273.492C421.094 273.492 421.094 273.456 421.047 273.456C421.037 273.452 421.028 273.45 421.018 273.45C421.008 273.45 420.998 273.452 420.989 273.456C420.909 273.493 420.836 273.545 420.774 273.608L420.737 273.592Z" fill="#382118"/>
<path d="M423.302 273.025C423.397 273.054 423.49 273.091 423.58 273.135C423.638 273.162 423.689 273.204 423.726 273.256C423.746 273.281 423.757 273.311 423.757 273.343C423.757 273.374 423.746 273.405 423.726 273.429C423.663 273.487 423.564 273.429 423.49 273.403L423.055 273.146L423.108 273.062L423.386 273.03L423.302 273.025Z" fill="#382118"/>
<path d="M427.607 246.337C427.619 246.234 427.638 246.132 427.665 246.032C427.687 245.893 427.757 245.766 427.863 245.674C427.969 245.581 428.103 245.528 428.244 245.524C428.385 245.521 428.522 245.566 428.633 245.653C428.744 245.74 428.82 245.863 428.85 246.001L428.042 246.683L427.518 246.342L427.607 246.337Z" fill="#382118"/>
<path d="M408.875 268.958C409.114 269.003 409.327 269.138 409.468 269.336C409.519 269.4 409.551 269.476 409.562 269.557C409.567 269.628 409.549 269.698 409.511 269.758C409.474 269.818 409.418 269.865 409.353 269.893C409.235 269.949 409.105 269.974 408.975 269.967C408.845 269.96 408.719 269.92 408.608 269.851C408.036 269.509 408.346 268.88 408.875 268.958Z" fill="#382118"/>
<path d="M430.496 245.948C430.574 245.889 430.667 245.853 430.764 245.843C430.819 245.841 430.873 245.856 430.918 245.887C430.963 245.919 430.996 245.964 431.012 246.017C431.028 246.069 431.027 246.125 431.007 246.177C430.988 246.228 430.952 246.271 430.905 246.3C430.666 246.51 430.353 246.617 430.035 246.599C429.956 246.603 429.878 246.578 429.815 246.531C429.893 246.279 430.281 246.106 430.496 245.948Z" fill="#382118"/>
<path d="M423.889 242.858C423.917 242.829 423.954 242.809 423.994 242.8C424.057 242.803 424.118 242.827 424.167 242.868C424.296 242.954 424.416 243.055 424.523 243.167C424.571 243.212 424.607 243.268 424.628 243.33C424.634 243.373 424.629 243.417 424.614 243.458C424.6 243.499 424.576 243.536 424.544 243.566C424.486 243.678 424.402 243.775 424.299 243.849C424.196 243.923 424.077 243.972 423.952 243.991C422.982 244.007 423.537 243.141 423.889 242.858Z" fill="#382118"/>
<path d="M417.271 257.341C417.377 257.262 417.5 257.208 417.63 257.183C417.76 257.159 417.893 257.164 418.021 257.199L417.114 257.955C417.051 257.932 416.997 257.891 416.958 257.836C416.92 257.782 416.899 257.717 416.899 257.65C416.909 257.586 416.939 257.527 416.984 257.48C417.029 257.433 417.087 257.401 417.15 257.388C417.167 257.38 417.185 257.376 417.203 257.376C417.221 257.376 417.239 257.38 417.255 257.388L417.271 257.341Z" fill="#382118"/>
<path d="M414.277 258.374L414.801 257.955C414.911 257.865 415.058 257.771 415.2 257.855C415.246 257.887 415.284 257.93 415.308 257.98C415.333 258.031 415.345 258.087 415.341 258.143C415.336 258.246 415.305 258.345 415.252 258.432C415.216 258.518 415.164 258.596 415.1 258.663C415.042 258.71 414.973 258.741 414.899 258.753C414.826 258.765 414.75 258.758 414.68 258.731C414.602 258.703 414.531 258.658 414.472 258.6C414.412 258.542 414.365 258.472 414.334 258.395L414.277 258.374Z" fill="#382118"/>
<path d="M425.897 263.092C426.292 262.782 426.771 262.6 427.271 262.567C427.55 262.565 427.823 262.641 428.061 262.786C428.299 262.93 428.492 263.138 428.619 263.386C428.944 264.105 428.451 264.787 427.979 265.28L427.224 266.083C426.977 266.379 426.677 266.624 426.338 266.807C426.152 266.893 425.947 266.933 425.743 266.922C425.538 266.911 425.339 266.85 425.163 266.744C423.275 265.521 425.011 263.7 425.897 263.092Z" fill="#382118"/>
<path d="M427.623 249.296C427.895 249.443 428.22 249.595 428.462 249.464C428.462 249.464 428.504 249.433 428.504 249.406C428.504 249.38 428.504 249.364 428.504 249.343C428.304 249.023 427.979 248.724 427.628 248.771C427.615 248.773 427.602 248.777 427.59 248.783C427.578 248.789 427.568 248.798 427.56 248.808C427.554 248.821 427.552 248.834 427.552 248.848C427.552 248.861 427.554 248.874 427.56 248.887C427.582 249.017 427.624 249.143 427.685 249.26L427.623 249.296Z" fill="#382118"/>
<path d="M431.818 247.056C431.89 246.95 431.975 246.853 432.069 246.767C432.127 246.705 432.202 246.663 432.284 246.646C432.33 246.641 432.377 246.65 432.418 246.673C432.458 246.695 432.49 246.73 432.51 246.772C432.557 246.888 432.468 246.993 432.384 247.061L431.86 247.47L431.771 247.355L431.833 246.972L431.818 247.056Z" fill="#382118"/>
<path d="M444.309 270.863C440.888 270.327 437.391 270.524 434.052 271.441C437.004 270.372 439.688 268.672 441.918 266.461L436.967 267.18C436.296 264.556 437.733 261.512 440.114 260.526L432.405 267.347C433.181 263.422 433.959 259.497 434.739 255.572C434.04 258.105 433.34 260.639 432.641 263.176C432.222 258.114 431.8 253.041 431.377 247.958L419.384 269.95C417.843 265.633 417.414 260.997 418.136 256.47C416.22 262.953 411.887 268.452 406.033 271.829L404.486 260.274C405.01 264.997 401.34 269.992 396.924 269.861C392.509 269.73 389.147 263.475 391.811 259.686C389.84 263.197 387.569 266.975 383.945 268.261C380.322 269.546 375.324 266.408 376.242 262.431C374.302 266.036 370.699 270.223 367.269 268.255C366.262 267.678 365.507 266.623 364.411 266.282C362.314 265.632 360.473 267.83 358.407 268.586C351.647 271.073 346.87 258.091 339.833 259.466L339.754 270.963C336.178 272.668 331.82 271.068 328.978 268.192C326.135 265.317 324.468 261.371 322.874 257.571L322.506 268.491L306.302 258.778L305.547 269.195C298.706 267.439 292.34 264.184 286.91 259.665C286.129 266.676 277.429 269.079 270.968 267.536C264.508 265.994 258.142 262.289 251.66 263.695V272.028L226.966 265.805L230.836 272.821L199.702 264.22C198.774 267.715 201.181 271.246 203.897 273.44C206.614 275.633 209.865 277.244 211.858 280.198C213.248 282.266 213.955 284.921 215.87 286.459C217.5 287.786 219.671 288.033 221.717 288.185C260.022 291.393 298.416 292.773 336.896 292.325C356.124 292.105 375.326 291.426 394.501 290.289C402.997 289.765 410.595 289.943 418.194 286.149C427.119 281.678 435.667 275.896 444.309 270.863Z" fill="#FFE09C"/>
<path d="M439.007 274.007H205.34V366.792H439.007V274.007Z" fill="#D49F74"/>
<path d="M234.816 338.55C225.377 338.55 215.948 338.528 206.53 338.482C206.451 338.508 206.368 338.515 206.286 338.502C206.204 338.489 206.126 338.457 206.059 338.409C205.992 338.36 205.937 338.296 205.899 338.222C205.862 338.148 205.842 338.067 205.842 337.984C205.842 337.901 205.862 337.819 205.899 337.745C205.937 337.671 205.992 337.607 206.059 337.558C206.126 337.51 206.204 337.478 206.286 337.465C206.368 337.452 206.451 337.459 206.53 337.485L234.811 337.553C234.876 337.553 234.941 337.566 235.002 337.591C235.062 337.616 235.117 337.653 235.163 337.699C235.21 337.746 235.246 337.801 235.271 337.861C235.296 337.921 235.309 337.986 235.309 338.052C235.309 338.117 235.296 338.182 235.271 338.243C235.246 338.303 235.21 338.358 235.163 338.404C235.117 338.451 235.062 338.487 235.002 338.512C234.941 338.537 234.876 338.55 234.811 338.55H234.816Z" fill="#382118"/>
<path d="M296.244 338.655H266.275C266.168 338.622 266.075 338.555 266.008 338.465C265.942 338.375 265.906 338.266 265.906 338.154C265.906 338.042 265.942 337.933 266.008 337.843C266.075 337.753 266.168 337.686 266.275 337.653C301.357 337.653 338.81 337.653 376.992 337.574C377.099 337.607 377.192 337.674 377.258 337.764C377.325 337.854 377.361 337.963 377.361 338.075C377.361 338.187 377.325 338.296 377.258 338.387C377.192 338.477 377.099 338.543 376.992 338.576C349.497 338.639 322.37 338.655 296.244 338.655Z" fill="#382118"/>
<path d="M426.023 338.618C422.059 338.618 418.094 338.571 414.156 338.482C414.077 338.508 413.993 338.515 413.911 338.502C413.83 338.489 413.752 338.457 413.685 338.409C413.617 338.36 413.563 338.296 413.525 338.222C413.487 338.148 413.468 338.067 413.468 337.984C413.468 337.901 413.487 337.819 413.525 337.745C413.563 337.671 413.617 337.607 413.685 337.558C413.752 337.51 413.83 337.478 413.911 337.465C413.993 337.452 414.077 337.459 414.156 337.485C422.022 337.663 429.982 337.663 437.812 337.485C437.917 337.52 438.008 337.586 438.073 337.676C438.137 337.765 438.172 337.873 438.172 337.984C438.172 338.094 438.137 338.202 438.073 338.291C438.008 338.381 437.917 338.448 437.812 338.482C433.917 338.573 429.988 338.618 426.023 338.618Z" fill="#382118"/>
<path d="M210.898 305.213C209.467 305.213 208.03 305.171 206.504 305.077C206.4 305.037 206.312 304.965 206.252 304.871C206.193 304.778 206.164 304.668 206.17 304.557C206.176 304.446 206.218 304.341 206.288 304.255C206.358 304.169 206.454 304.108 206.562 304.08C209.436 304.258 212.319 304.258 215.193 304.08C215.324 304.079 215.45 304.127 215.547 304.214C215.644 304.302 215.705 304.422 215.718 304.552C215.718 304.683 215.67 304.809 215.583 304.906C215.496 305.003 215.375 305.064 215.246 305.077C213.751 305.171 212.33 305.213 210.898 305.213Z" fill="#382118"/>
<path d="M260.375 305.14L233.358 305.082C233.251 305.049 233.158 304.982 233.092 304.892C233.025 304.802 232.99 304.693 232.99 304.581C232.99 304.469 233.025 304.36 233.092 304.27C233.158 304.18 233.251 304.113 233.358 304.08C242.361 304.104 251.366 304.125 260.375 304.143C260.508 304.143 260.634 304.195 260.728 304.289C260.821 304.382 260.874 304.509 260.874 304.641C260.874 304.773 260.821 304.9 260.728 304.994C260.634 305.087 260.508 305.14 260.375 305.14Z" fill="#382118"/>
<path d="M358.874 305.245C346.073 305.245 332.654 305.245 318.332 305.208C318.253 305.234 318.17 305.241 318.088 305.228C318.006 305.215 317.928 305.183 317.861 305.134C317.794 305.086 317.739 305.022 317.701 304.948C317.664 304.874 317.644 304.792 317.644 304.709C317.644 304.626 317.664 304.545 317.701 304.471C317.739 304.397 317.794 304.333 317.861 304.284C317.928 304.236 318.006 304.204 318.088 304.191C318.17 304.178 318.253 304.185 318.332 304.211C355.706 304.269 387.055 304.248 416.993 304.158C417.072 304.133 417.156 304.126 417.237 304.138C417.319 304.151 417.397 304.183 417.464 304.232C417.531 304.281 417.586 304.344 417.624 304.418C417.661 304.492 417.681 304.574 417.681 304.657C417.681 304.74 417.661 304.822 417.624 304.896C417.586 304.969 417.531 305.033 417.464 305.082C417.397 305.131 417.319 305.163 417.237 305.175C417.156 305.188 417.072 305.181 416.993 305.155C398.545 305.213 379.509 305.245 358.874 305.245Z" fill="#382118"/>
<path d="M240.322 355.384C251.267 357.955 255.693 367.338 252.772 375.241C249.987 382.792 241.864 385.851 231.318 381.952C220.773 378.053 213.211 367.579 215.44 361.539C217.805 355.137 229.829 352.918 240.322 355.384Z" fill="white"/>
<path d="M220.636 369.773C220.665 369.948 220.746 370.11 220.867 370.24C221.061 370.429 221.355 370.444 221.596 370.555C222.021 370.754 222.341 371.252 222.802 371.195C223.014 371.143 223.205 371.03 223.353 370.869L224.229 370.088C224.518 369.868 224.753 369.584 224.916 369.258C225.002 368.94 225.005 368.604 224.926 368.283C224.846 367.963 224.685 367.668 224.459 367.427C224.278 367.156 224.01 366.954 223.699 366.855C223.514 366.825 223.325 366.841 223.148 366.9C222.971 366.959 222.811 367.061 222.682 367.196C222.429 367.471 222.221 367.784 222.068 368.125C220.652 367.27 220.343 368.592 220.636 369.773Z" fill="#382118"/>
<path d="M234.003 366.357C233.732 366.644 233.401 366.868 233.033 367.012C233.02 367.078 233.002 367.143 232.981 367.207C232.981 367.233 232.981 367.254 232.944 367.285L233.626 368.487C233.836 368.849 234.213 369.274 234.591 369.085C234.968 368.896 234.879 368.435 234.869 368.036C234.856 367.49 235.028 366.955 235.356 366.519C235.423 366.447 235.469 366.358 235.487 366.262C235.487 366.105 235.351 365.968 235.199 365.921C234.979 365.886 234.754 365.908 234.545 365.984C234.336 366.06 234.149 366.188 234.003 366.357Z" fill="#382118"/>
<path d="M231.13 358.522C231.29 358.694 231.496 358.818 231.723 358.877C231.951 358.937 232.191 358.93 232.414 358.858C232.598 358.779 232.771 358.554 232.65 358.391C232.605 358.338 232.545 358.299 232.477 358.281C232.222 358.177 231.95 358.12 231.675 358.113C231.575 358.116 231.475 358.1 231.381 358.066C231.156 357.955 231.145 357.641 231.119 357.389C231.077 357.021 230.626 355.951 230.175 356.528C229.908 356.864 230.883 358.286 231.13 358.522Z" fill="#382118"/>
<path d="M223.106 358.066C223.042 358.135 222.993 358.217 222.961 358.306C222.928 358.395 222.914 358.49 222.918 358.584C222.923 358.679 222.946 358.772 222.986 358.857C223.027 358.943 223.083 359.02 223.154 359.084C223.299 359.203 223.466 359.293 223.646 359.348C223.826 359.403 224.015 359.422 224.202 359.404C224.585 359.404 224.957 359.309 225.34 359.32C225.608 359.32 225.938 359.351 226.08 359.126C226.221 358.9 226.043 358.601 225.817 358.47C225.592 358.338 225.319 358.307 225.083 358.186C224.861 358.052 224.655 357.891 224.47 357.709C224.279 357.528 224.025 357.428 223.762 357.431C223.698 357.434 223.636 357.451 223.58 357.48C223.523 357.509 223.474 357.55 223.434 357.599C223.394 357.648 223.364 357.706 223.348 357.767C223.331 357.828 223.327 357.893 223.337 357.955L223.106 358.066Z" fill="#382118"/>
<path d="M226.913 378.163C226.845 377.785 227.008 377.313 226.714 377.077C226.651 377.034 226.592 376.987 226.536 376.935C226.488 376.857 226.473 376.763 226.494 376.673C226.566 376.447 226.72 376.257 226.927 376.141C227.133 376.025 227.376 375.992 227.606 376.049C228.063 376.178 228.49 376.399 228.859 376.699C229.355 377.026 229.882 377.302 230.432 377.523C230.523 377.552 230.606 377.602 230.673 377.67C230.722 377.733 230.75 377.811 230.752 377.89C230.753 378.095 230.691 378.295 230.575 378.463C230.458 378.631 230.293 378.759 230.102 378.83C229.715 378.965 229.302 379.01 228.896 378.961C228.114 378.919 227.107 379.213 226.913 378.163Z" fill="#382118"/>
<path d="M238.466 381.49C238.496 381.146 238.596 380.813 238.76 380.509C238.899 380.163 239.141 379.869 239.452 379.664C240.338 379.171 241.335 380.079 242.331 380.226C243.327 380.373 244.25 379.759 244.911 379.024C245.502 378.232 246.134 377.472 246.804 376.747C247.538 376.085 248.629 375.666 249.52 376.096C249.717 376.186 249.886 376.327 250.008 376.505C250.112 376.708 250.173 376.931 250.185 377.158C250.198 377.386 250.163 377.614 250.082 377.827C249.733 379.01 248.979 380.032 247.952 380.714C247.232 381.142 246.463 381.482 245.661 381.726C244.276 382.204 238.309 384.681 238.466 381.49Z" fill="#382118"/>
<path d="M215.843 360.668C215.767 361.539 215.885 362.415 216.19 363.234C216.631 363.207 217.073 363.277 217.485 363.439C217.899 362.981 218.474 362.699 219.089 362.652C219.808 362.615 220.615 362.883 221.187 362.468C221.439 362.247 221.607 361.945 221.66 361.613C221.714 361.282 221.65 360.942 221.481 360.653C221.122 360.082 220.605 359.63 219.991 359.351C219.396 359.025 218.775 358.748 218.135 358.522C217.989 358.468 217.84 358.422 217.689 358.386C216.94 359.027 216.314 359.801 215.843 360.668Z" fill="#382118"/>
<path d="M248.87 364.83C248.899 365.131 248.968 365.428 249.075 365.711C249.128 365.853 249.217 365.979 249.332 366.078C249.448 366.176 249.587 366.243 249.735 366.273C250.207 366.336 250.595 365.863 250.706 365.396C250.809 364.697 250.686 363.984 250.354 363.36C250.108 362.809 247.182 358.826 246.505 360.579C246.295 361.104 247.47 361.891 247.758 362.258C248.34 363.008 248.722 363.892 248.87 364.83Z" fill="#382118"/>
<path d="M243.731 364.625C243.773 364.785 243.872 364.923 244.009 365.015C244.146 365.107 244.312 365.145 244.476 365.123C244.397 364.83 244.318 364.53 244.245 364.237C244.198 364.058 244.124 363.848 243.946 363.806C243.777 364.091 243.685 364.415 243.679 364.746L243.731 364.625Z" fill="#382118"/>
<path d="M239.725 361.445L241.067 362.71C241.231 362.595 241.354 362.433 241.42 362.244C241.486 362.056 241.491 361.851 241.434 361.66C241.367 361.47 241.242 361.306 241.076 361.191C240.91 361.076 240.713 361.016 240.511 361.02C240.338 361.188 240.165 361.356 239.987 361.545L239.725 361.445Z" fill="#382118"/>
<path d="M243.18 367.039C243.271 367.235 243.417 367.401 243.6 367.516C243.649 367.296 243.64 367.068 243.574 366.852C243.508 366.637 243.386 366.443 243.222 366.288C243.026 366.5 242.894 366.764 242.845 367.049L243.18 367.039Z" fill="#382118"/>
<path d="M251.214 367.233C251.181 367.276 251.16 367.327 251.151 367.38C251.142 367.434 251.146 367.489 251.163 367.541C251.18 367.592 251.21 367.639 251.249 367.677C251.288 367.715 251.335 367.742 251.387 367.758C251.521 367.517 251.59 367.246 251.587 366.971C251.582 366.833 251.536 366.7 251.455 366.59C251.373 366.479 251.26 366.396 251.13 366.351C250.999 366.475 250.898 366.627 250.835 366.797C250.772 366.966 250.749 367.148 250.768 367.327L251.01 367.438L251.214 367.233Z" fill="#382118"/>
<path d="M201.543 365.291C195.832 363.087 189.482 365.176 183.498 366.383C177.515 367.59 170.152 367.359 166.691 362.311C165.118 360.049 164.704 357.226 164.305 354.508C163.393 348.253 162.479 341.996 161.563 335.738C158.941 335.664 155.674 335.397 155.238 338.062C154.609 341.945 157.666 347.23 158.516 351.05C159.659 356.161 156.544 360.768 152.522 364.032C152.582 364.427 152.686 364.814 152.831 365.186C152.838 365.211 152.847 365.236 152.858 365.26C153.115 365.454 153.382 365.627 153.566 365.737C153.566 365.737 153.566 365.737 153.628 365.737C153.754 365.737 153.875 365.737 153.954 365.701C154.425 365.584 154.911 365.54 155.396 365.569C156.89 364.425 158.188 363.044 159.24 361.482C159.453 361.144 159.645 360.793 159.816 360.432C160.086 363.129 160.26 365.832 160.341 368.539C160.297 369.366 160.437 370.192 160.75 370.959C161.799 373.021 164.699 372.911 167.011 372.821C172.936 372.608 178.746 374.5 183.409 378.163C185.507 379.827 187.751 381.968 190.405 381.6C190.856 380.609 189.88 379.601 188.973 378.977L179.135 371.961C187.567 369.56 196.413 368.988 205.083 370.282C205.77 368.135 203.646 366.099 201.543 365.291Z" fill="#CCA955"/>
<path d="M190.101 380.372L189.083 381.396L191.186 382.109L190.101 380.372Z" fill="#A6513C"/>
<path d="M205.119 368.702L203.882 369.988L205.612 370.565L205.119 368.702Z" fill="#A6513C"/>
<path d="M153.073 364.179L152.522 365.942L154.252 365.365L153.073 364.179Z" fill="#A6513C"/>
<path d="M272.788 164.445C269.904 150.014 252.384 140.438 240.474 141.356C226.174 142.448 217.401 155.792 217.401 155.792C207.018 188.132 149.889 203.722 149.889 203.722C94.4812 216.416 71.974 267.804 71.974 267.804C55.8172 297.83 43.1319 309.38 43.1319 309.38C32.1667 323.238 54.6688 315.734 54.6688 315.734C44.8572 333.051 71.974 323.238 71.974 323.238C61.0088 333.633 92.7507 330.17 92.7507 330.17C122.757 348.069 149.297 344.606 149.297 344.606C157.378 337.097 186.23 326.702 186.23 326.702C267.596 273.004 241.051 189.853 241.051 189.853C258.357 185.812 268.173 174.84 268.173 174.84L272.788 164.445Z" fill="#917B64"/>
<path d="M240.474 141.346C226.174 142.437 217.401 155.781 217.401 155.781C214.034 166.276 205.759 174.982 196.115 181.982C175.989 196.586 149.889 203.712 149.889 203.712C94.4812 216.416 71.974 267.804 71.974 267.804C55.8172 297.83 43.1319 309.38 43.1319 309.38C32.1667 323.238 54.6688 315.734 54.6688 315.734C44.8572 333.051 71.974 323.238 71.974 323.238C62.5348 332.159 84.7222 330.863 91.0989 330.322C91.3517 330.162 91.6125 330.015 91.8802 329.881C124.776 308.514 162.281 299.278 189.98 271.561C202.676 258.857 207.285 240.953 214.795 224.208C218.025 216.935 221.533 209.379 224.732 201.739C223.269 202.179 222.178 204.299 220.862 206.325C222.755 203.412 224.166 200.306 226.913 202.269C230.951 204.577 224.606 212.659 228.644 213.813C230.951 214.39 233.259 203.995 236.148 206.304C239.038 208.613 235.571 214.967 237.879 217.276C240.186 220.162 240.186 212.076 242.493 210.922C245.163 209.925 244.748 212.585 245.037 215.455C244.287 199.981 241.051 189.848 241.051 189.848C258.357 185.807 268.173 174.835 268.173 174.835L272.788 164.44C269.904 150.014 252.384 140.438 240.474 141.346ZM218.78 208.954C218.806 208.928 218.832 208.896 218.864 208.87C218.895 208.844 218.806 208.928 218.78 208.954ZM219.341 208.377C219.31 208.408 219.278 208.445 219.241 208.476C219.205 208.508 219.315 208.408 219.346 208.377H219.341Z" fill="#917B64"/>
<path d="M245.037 215.461C244.748 212.59 245.163 209.93 242.493 210.927C240.186 212.081 240.186 220.168 237.879 217.282C235.571 214.973 239.032 208.618 236.148 206.309C233.264 204 230.951 214.395 228.644 213.818C224.606 212.659 230.951 204.577 226.913 202.274C226.618 202.018 226.266 201.837 225.887 201.745C225.507 201.654 225.111 201.655 224.732 201.749C221.533 209.389 218.025 216.967 214.795 224.219C207.296 240.963 202.676 258.852 189.98 271.572C162.281 299.289 124.776 308.524 91.8802 329.892C91.6125 330.026 91.3517 330.173 91.0989 330.333C92.1477 330.249 92.7507 330.181 92.7507 330.181C122.757 348.08 149.297 344.616 149.297 344.616C157.378 337.107 186.23 326.712 186.23 326.712C239.195 291.759 246.432 244.316 245.037 215.461Z" fill="#BDA286"/>
<path d="M270.334 163.978C268.375 161.476 266.115 159.226 263.606 157.277C261.226 155.392 258.495 154.001 255.572 153.184C252.645 152.528 249.621 152.428 246.657 152.89C245.131 153.079 243.553 153.315 241.985 153.567C240.417 153.819 238.886 154.092 237.391 154.406C234.457 154.973 231.637 156.019 229.043 157.502L228.13 158.095L227.254 158.741C226.7 159.184 226.174 159.663 225.681 160.173C224.668 161.291 223.746 162.488 222.923 163.752C221.203 166.339 219.63 169.178 217.726 171.87C216.771 173.231 215.67 174.484 214.443 175.606C213.82 176.161 213.144 176.653 212.424 177.076C211.71 177.48 210.949 177.795 210.159 178.015C211.514 177.204 212.697 176.134 213.641 174.866C214.575 173.613 215.387 172.274 216.069 170.868C217.511 168.071 218.665 165.096 220.264 162.157C220.659 161.422 221.084 160.696 221.538 159.979C222.005 159.251 222.513 158.551 223.059 157.88C223.628 157.185 224.252 156.538 224.926 155.944C225.262 155.655 225.608 155.382 225.949 155.104L226.997 154.338C228.453 153.378 230.009 152.581 231.638 151.961C233.229 151.364 234.861 150.882 236.521 150.518C238.157 150.167 239.788 149.904 241.403 149.679C243.018 149.453 244.617 149.259 246.285 149.154C249.583 148.891 253.16 149.023 256.469 150.203C259.665 151.419 262.543 153.346 264.885 155.839C267.165 158.211 269.009 160.966 270.334 163.978Z" fill="#AA917C"/>
<path d="M269.615 168.197C265.729 168.42 261.875 169.03 258.11 170.018C256.315 170.513 254.561 171.15 252.866 171.922C252.447 172.117 252.027 172.306 251.618 172.521C251.209 172.736 250.795 172.935 250.401 173.171C250.008 173.408 249.604 173.612 249.232 173.854C248.86 174.095 248.477 174.352 248.104 174.614C246.599 175.664 245.105 176.934 243.469 178.151C243.06 178.45 242.635 178.749 242.179 179.049C241.723 179.348 241.261 179.615 240.794 179.878C239.855 180.387 238.876 180.82 237.868 181.174C235.9 181.846 233.857 182.276 231.785 182.454C230.773 182.554 229.771 182.612 228.765 182.638H227.26C226.735 182.638 226.258 182.638 225.749 182.638C229.467 181.064 233.322 180.014 236.573 178.246C237.38 177.817 238.162 177.344 238.917 176.829C239.662 176.304 240.338 175.779 241.083 175.139C242.556 173.917 244.051 172.578 245.776 171.361C246.211 171.062 246.652 170.763 247.119 170.479C247.344 170.338 247.585 170.207 247.821 170.07C248.057 169.934 248.293 169.829 248.529 169.708C248.996 169.461 249.473 169.241 249.961 169.031C250.449 168.821 250.931 168.622 251.424 168.438C253.388 167.714 255.429 167.221 257.507 166.969C261.584 166.465 265.722 166.885 269.615 168.197Z" fill="#AA917C"/>
<path d="M241.901 158.473C241.686 160.924 244.224 163.149 247.57 163.443C250.915 163.736 253.81 161.984 254.02 159.523C254.23 157.062 251.691 154.847 248.346 154.553C245 154.26 242.116 156.028 241.901 158.473Z" fill="#AA917C"/>
<path d="M243.962 158.137C244.024 157.593 244.273 157.087 244.664 156.705C244.656 156.878 244.684 157.051 244.747 157.212C244.81 157.374 244.906 157.52 245.029 157.642C245.152 157.764 245.3 157.858 245.462 157.919C245.624 157.98 245.797 158.006 245.97 157.996C247.339 157.943 247.517 156.201 246.631 155.598C247.4 155.383 248.201 155.308 248.996 155.377C251.618 155.608 253.626 157.219 253.474 158.972C253.322 160.724 251.067 161.958 248.44 161.727C245.813 161.496 243.804 159.89 243.962 158.137Z" fill="#382118"/>
<path d="M272.374 163.049C277.434 164.77 282.788 173.691 282.788 173.691C275.588 173.869 268.981 174.079 268.981 174.079C263.338 170.6 272.374 163.049 272.374 163.049Z" fill="#ECC362"/>
<path d="M273.601 166.239C273.533 166.376 273.255 166.376 272.982 166.239C272.709 166.103 272.547 165.883 272.62 165.746C272.694 165.61 272.961 165.61 273.234 165.746C273.506 165.883 273.669 166.103 273.601 166.239Z" fill="#382118"/>
<path d="M54.9519 316.521C54.8599 316.522 54.7695 316.496 54.6909 316.448C54.6123 316.4 54.5486 316.331 54.5068 316.249C54.4649 316.167 54.4467 316.075 54.454 315.983C54.4613 315.892 54.4939 315.803 54.5481 315.729C77.433 284.244 121.215 260.384 121.671 260.148C121.781 260.126 121.895 260.14 121.997 260.188C122.098 260.235 122.182 260.314 122.235 260.413C122.288 260.511 122.309 260.624 122.293 260.735C122.278 260.846 122.227 260.949 122.149 261.03C121.708 261.266 78.1252 285.016 55.3767 316.317C55.3268 316.382 55.2624 316.434 55.1886 316.47C55.1148 316.505 55.0338 316.523 54.9519 316.521Z" fill="#382118"/>
<path d="M72.2624 324.025C72.1591 324.009 72.0631 323.962 71.9867 323.89C71.9104 323.818 71.8572 323.725 71.8341 323.623C71.811 323.521 71.819 323.414 71.857 323.317C71.895 323.219 71.9613 323.135 72.0474 323.075C93.6422 312.843 102.431 305.323 102.52 305.234C124.288 286.317 144.084 281.495 144.278 281.453C144.349 281.409 144.429 281.384 144.511 281.377C144.594 281.371 144.677 281.384 144.753 281.416C144.83 281.448 144.898 281.497 144.951 281.56C145.005 281.623 145.043 281.698 145.062 281.779C145.081 281.86 145.081 281.944 145.061 282.024C145.042 282.105 145.004 282.179 144.95 282.242C144.896 282.305 144.828 282.354 144.751 282.386C144.675 282.417 144.592 282.43 144.509 282.423C144.315 282.471 124.744 287.246 103.176 305.99C103.087 306.063 94.2138 313.662 72.4774 323.962C72.4111 323.999 72.3378 324.02 72.2624 324.025Z" fill="#382118"/>
<path d="M197.421 187.859C197.619 189.151 197.304 190.469 196.545 191.532C195.837 192.543 194.882 193.356 193.771 193.894C192.604 194.473 191.32 194.778 190.017 194.786C188.553 194.814 187.115 194.395 185.895 193.584C186.564 192.551 187.366 191.61 188.281 190.787C188.993 190.158 189.787 189.628 190.641 189.213C191.528 188.78 192.465 188.46 193.431 188.258C194.742 187.977 196.08 187.843 197.421 187.859Z" fill="#7D5F40"/>
<path d="M190.557 206.309C190.28 207.855 189.687 209.327 188.816 210.633C188.068 211.78 187.142 212.8 186.073 213.656C185.049 214.492 183.889 215.147 182.644 215.592C181.304 216.087 179.861 216.235 178.448 216.022C178.905 214.558 179.615 213.185 180.546 211.966C181.324 210.918 182.235 209.975 183.257 209.164C184.242 208.365 185.333 207.707 186.498 207.206C187.776 206.635 189.157 206.33 190.557 206.309Z" fill="#7D5F40"/>
<path d="M207.448 216.961C208.436 218.27 208.958 219.871 208.932 221.511C208.918 223.049 208.54 224.562 207.829 225.926C207.118 227.289 206.094 228.465 204.841 229.356C203.509 230.319 201.889 230.8 200.248 230.72C200.48 229.278 200.839 227.859 201.323 226.48C201.705 225.37 202.171 224.292 202.718 223.253C203.265 222.212 203.887 221.213 204.579 220.262C205.436 219.079 206.396 217.975 207.448 216.961Z" fill="#7D5F40"/>
<path d="M179.382 235.684C179.572 237.149 179.343 238.637 178.721 239.977C178.174 241.169 177.383 242.233 176.401 243.101C175.418 243.97 174.265 244.623 173.015 245.02C171.61 245.468 170.105 245.506 168.679 245.13C169.026 243.779 169.595 242.495 170.362 241.331C170.981 240.378 171.73 239.517 172.585 238.77C173.438 238.017 174.389 237.383 175.412 236.886C176.661 236.272 178.002 235.866 179.382 235.684Z" fill="#7D5F40"/>
<path d="M179.754 267.809C179.514 269.673 178.811 271.446 177.709 272.968C176.693 274.415 175.431 275.672 173.98 276.683C172.539 277.705 170.926 278.462 169.219 278.918C167.412 279.434 165.503 279.485 163.671 279.065C164.61 277.549 165.741 276.16 167.037 274.935C169.306 272.754 171.902 270.941 174.73 269.562C176.324 268.768 178.012 268.179 179.754 267.809Z" fill="#7D5F40"/>
<path d="M133.088 271.068C132.585 272.464 131.781 273.733 130.733 274.783C129.831 275.696 128.786 276.455 127.639 277.029C126.488 277.612 125.247 277.997 123.968 278.168C122.498 278.383 120.998 278.266 119.579 277.827C120.081 276.428 120.885 275.158 121.934 274.106C122.834 273.191 123.882 272.434 125.033 271.866C126.186 271.289 127.426 270.906 128.704 270.732C130.172 270.523 131.668 270.637 133.088 271.068Z" fill="#7D5F40"/>
<path d="M144.31 237.983C143.344 239.432 142.167 240.728 140.817 241.829C138.436 243.796 135.697 245.284 132.752 246.211C131.092 246.742 129.361 247.016 127.618 247.024C128.132 245.289 129.048 243.699 130.293 242.385C131.433 241.158 132.769 240.127 134.247 239.337C135.72 238.535 137.314 237.98 138.966 237.694C140.745 237.37 142.576 237.469 144.31 237.983Z" fill="#7D5F40"/>
<path d="M151.321 209.153C151.172 209.597 150.976 210.025 150.739 210.428C150.47 210.813 150.175 211.179 149.858 211.525C149.524 211.85 149.174 212.158 148.809 212.449C148.432 212.711 148.033 212.973 147.629 213.199C146.068 214.023 144.39 214.604 142.653 214.92C141.093 215.216 139.517 215.421 137.933 215.534C136.267 215.646 134.608 215.844 132.962 216.127C133.087 215.675 133.263 215.238 133.486 214.826C133.744 214.431 134.028 214.054 134.336 213.697C134.668 213.362 135.018 213.045 135.385 212.748C135.764 212.469 136.158 212.21 136.564 211.971C138.124 211.119 139.812 210.525 141.562 210.213C143.132 209.918 144.719 209.722 146.313 209.625C147.881 209.515 149.36 209.437 151.321 209.153Z" fill="#7D5F40"/>
<path d="M102.421 238.235C101.999 239.855 101.288 241.385 100.323 242.753C98.6376 245.201 96.3755 247.196 93.7367 248.562C92.2555 249.341 90.6461 249.848 88.9856 250.057C89.1642 248.359 89.7196 246.722 90.6112 245.266C92.2327 242.615 94.629 240.527 97.4756 239.284C99.0255 238.571 100.715 238.212 102.421 238.235Z" fill="#7D5F40"/>
<path d="M221.108 225.567C222.134 226.217 223.108 226.943 224.024 227.74C224.874 228.464 225.665 229.178 226.436 229.917C226.62 230.096 226.761 230.222 226.835 230.279C226.908 230.337 226.835 230.342 226.835 230.363C226.835 230.384 226.835 230.363 226.835 230.421C226.835 230.479 226.866 230.468 226.929 230.447C227.112 230.43 227.29 230.379 227.454 230.295C227.894 230.096 228.434 229.77 229.085 229.503C229.735 229.235 230.616 229.088 231.182 229.503C230.713 229.834 230.349 230.293 230.133 230.825C229.875 231.384 229.555 231.912 229.179 232.399C228.918 232.728 228.6 233.007 228.24 233.223C228.014 233.363 227.771 233.472 227.517 233.549C227.228 233.627 226.93 233.666 226.63 233.664C226.053 233.656 225.49 233.491 224.999 233.187C224.656 232.974 224.338 232.724 224.05 232.441C223.132 231.564 222.385 230.523 221.848 229.372C221.272 228.19 221.017 226.878 221.108 225.567Z" fill="#D4B59A"/>
<path d="M229.593 248.766C229.96 249.506 230.233 250.194 230.506 250.865L231.261 252.77L231.979 254.596C232.22 255.194 232.451 255.787 232.703 256.38L231.596 255.462C232.007 255.599 232.425 255.709 232.85 255.793C233.303 255.887 233.762 255.956 234.224 255.997C234.701 256.039 235.204 256.065 235.739 256.06C236.274 256.055 236.84 256.023 237.48 255.976C237.205 256.552 236.81 257.062 236.321 257.472C235.831 257.894 235.272 258.229 234.669 258.464C234.054 258.707 233.405 258.858 232.745 258.91C232.07 258.962 231.392 258.914 230.731 258.768L230.018 258.616L229.619 257.85C229.252 257.149 228.964 256.41 228.759 255.646C228.551 254.884 228.433 254.1 228.408 253.311C228.384 252.522 228.464 251.733 228.644 250.965C228.823 250.18 229.144 249.434 229.593 248.766Z" fill="#D4B59A"/>
<path d="M206.986 257.125C207.634 258.452 208.083 259.866 208.318 261.323C208.381 261.654 208.434 262.074 208.486 262.268C208.496 262.331 208.525 262.39 208.57 262.436C208.57 262.436 208.57 262.357 208.533 262.268C208.49 262.197 208.431 262.138 208.36 262.095C208.329 262.069 208.36 262.069 208.413 262.069C208.465 262.069 208.822 262.069 209.168 262.032C210.484 261.969 211.79 261.943 213.158 261.964C214.596 261.966 216.03 262.088 217.448 262.326C216.356 263.363 215.054 264.154 213.63 264.645C212.247 265.141 210.798 265.428 209.33 265.495C208.888 265.52 208.444 265.507 208.004 265.458C207.674 265.41 207.353 265.317 207.049 265.18C206.656 265.003 206.311 264.735 206.042 264.398C205.79 264.079 205.611 263.708 205.518 263.312C205.453 263.029 205.428 262.737 205.444 262.446C205.467 262.063 205.52 261.683 205.602 261.308C205.855 259.853 206.322 258.444 206.986 257.125Z" fill="#D4B59A"/>
<path d="M215.754 277.753C216.071 278.445 216.347 279.155 216.583 279.878C216.808 280.566 217.018 281.227 217.196 281.883C217.375 282.539 217.558 283.19 217.721 283.83C217.883 284.47 218.035 285.121 218.187 285.761L216.578 284.491C217.165 284.517 217.757 284.57 218.345 284.648C218.939 284.726 219.529 284.835 220.112 284.974C220.71 285.112 221.298 285.288 221.874 285.498C222.484 285.717 223.074 285.989 223.636 286.312C223.066 286.619 222.469 286.874 221.853 287.073C221.271 287.267 220.677 287.424 220.075 287.545C219.488 287.668 218.895 287.761 218.298 287.823C217.71 287.881 217.118 287.918 216.525 287.928H215.277L214.894 286.637C214.673 285.909 214.518 285.163 214.433 284.407C214.344 283.651 214.328 282.888 214.386 282.13C214.438 281.365 214.576 280.608 214.795 279.873C215.006 279.122 215.33 278.408 215.754 277.753Z" fill="#D4B59A"/>
<path d="M193.446 282.392C194.018 282.891 194.5 283.483 194.873 284.145C195.24 284.784 195.527 285.466 195.727 286.175C196.119 287.598 196.212 289.086 196 290.547L194.553 288.663C195.009 288.752 195.47 288.841 195.948 288.915C196.425 288.988 196.902 289.067 197.405 289.145L198.979 289.35C199.503 289.429 200.096 289.487 200.725 289.591C200.348 290.091 199.889 290.522 199.367 290.867C198.853 291.207 198.298 291.48 197.715 291.68C197.129 291.88 196.522 292.012 195.906 292.074C195.283 292.139 194.656 292.139 194.034 292.074L192.46 291.885L192.586 290.19C192.675 288.972 192.754 287.76 192.869 286.516C192.927 285.887 193 285.241 193.084 284.564C193.168 283.887 193.273 283.158 193.446 282.392Z" fill="#D4B59A"/>
<path d="M184.353 302.033C184.758 302.781 185.04 303.589 185.187 304.426C185.335 305.266 185.381 306.12 185.323 306.971C185.266 307.827 185.111 308.674 184.862 309.495C184.612 310.324 184.273 311.122 183.85 311.877L182.649 309.322C184.294 309.588 185.915 309.99 187.494 310.524C188.297 310.793 189.084 311.105 189.854 311.458C190.656 311.823 191.426 312.254 192.156 312.749C191.297 312.97 190.419 313.114 189.534 313.179C188.688 313.248 187.839 313.272 186.991 313.252C185.325 313.218 183.666 313.042 182.03 312.728L179.597 312.271L180.829 310.172C181.18 309.579 181.506 308.965 181.82 308.335C182.135 307.706 182.429 307.066 182.701 306.394C182.974 305.722 183.257 305.035 183.519 304.295L184.353 302.033Z" fill="#D4B59A"/>
<path d="M160.787 301.514C160.796 302.362 160.759 303.21 160.676 304.053C160.603 304.862 160.519 305.628 160.414 306.415C160.309 307.202 160.204 307.947 160.084 308.697C159.963 309.448 159.837 310.198 159.706 310.949L157.687 309.012C159.025 308.787 160.379 308.674 161.736 308.676C162.436 308.673 163.137 308.71 163.833 308.787C164.555 308.861 165.268 308.994 165.968 309.185C165.388 309.621 164.774 310.009 164.132 310.345C163.518 310.669 162.886 310.958 162.239 311.211C160.979 311.711 159.679 312.105 158.353 312.386L156.03 312.911L156.329 310.466C156.429 309.625 156.596 308.793 156.827 307.979C157.054 307.161 157.352 306.366 157.719 305.601C158.078 304.831 158.512 304.098 159.014 303.413C159.515 302.702 160.112 302.063 160.787 301.514Z" fill="#D4B59A"/>
<path d="M144.918 321.213C144.903 322.759 144.67 324.296 144.226 325.778C144.027 326.497 143.785 327.2 143.523 327.877C143.492 327.961 143.46 328.05 143.424 328.134L143.355 328.323C143.324 328.396 143.308 328.474 143.308 328.554C143.308 328.585 143.308 328.554 143.308 328.402C143.275 328.23 143.191 328.073 143.067 327.95C142.995 327.877 142.905 327.824 142.805 327.798C142.85 327.806 142.896 327.806 142.941 327.798C143.109 327.798 143.544 327.798 143.901 327.798C144.64 327.798 145.38 327.851 146.119 327.94C147.659 328.086 149.17 328.45 150.608 329.021C149.254 329.768 147.801 330.319 146.292 330.658C145.568 330.836 144.84 330.968 144.111 331.078C143.699 331.143 143.284 331.183 142.868 331.199C142.548 331.201 142.229 331.164 141.919 331.088C141.459 330.975 141.035 330.747 140.686 330.427C140.295 330.048 140.031 329.557 139.931 329.021C139.855 328.608 139.869 328.184 139.973 327.777C140.046 327.497 140.146 327.225 140.272 326.964L140.435 326.649C140.477 326.57 140.524 326.492 140.571 326.413C140.948 325.778 141.347 325.153 141.782 324.545C142.669 323.295 143.725 322.174 144.918 321.213Z" fill="#D4B59A"/>
<path d="M108.918 320.132C108.83 320.133 108.743 320.11 108.666 320.065C108.589 320.021 108.526 319.957 108.483 319.88C108.423 319.764 108.409 319.629 108.443 319.503C108.477 319.377 108.556 319.268 108.666 319.198C117.204 314.323 126.129 310.35 134.761 306.509C142.8 302.936 151.111 299.236 159.156 294.797C182.524 282.169 200.563 261.539 209.97 236.687C209.975 236.604 209.999 236.524 210.04 236.453C210.082 236.381 210.139 236.321 210.209 236.276C210.278 236.231 210.357 236.203 210.439 236.194C210.521 236.186 210.604 236.196 210.681 236.226C210.758 236.255 210.827 236.303 210.882 236.364C210.938 236.425 210.978 236.498 211 236.578C211.021 236.658 211.024 236.741 211.007 236.822C210.991 236.903 210.955 236.979 210.904 237.043C201.412 262.119 183.211 282.933 159.633 295.673C151.552 300.155 143.224 303.828 135.17 307.428C126.559 311.253 117.655 315.215 109.165 320.069C109.089 320.11 109.004 320.131 108.918 320.132Z" fill="#382118"/>
<path d="M186.005 371.961C180.577 369.132 174.049 370.502 167.955 371.032C161.862 371.562 154.578 370.507 151.699 365.102C150.409 362.683 150.288 359.855 150.199 357.084L149.57 338.125C146.984 337.758 143.754 337.128 143.025 339.699C141.976 343.488 144.415 349.082 144.834 352.976C145.395 358.181 141.787 362.421 137.43 365.202C137.441 365.603 137.501 366.001 137.608 366.388C137.608 366.419 137.608 366.435 137.608 366.461C137.844 366.682 138.096 366.887 138.258 367.012C138.258 367.012 138.258 367.012 138.321 367.012C138.429 367.02 138.538 367.02 138.646 367.012C139.126 366.941 139.614 366.941 140.094 367.012C141.708 366.047 143.152 364.822 144.367 363.386C144.618 363.079 144.849 362.757 145.06 362.421C145.025 365.129 144.888 367.831 144.651 370.528C144.514 371.345 144.56 372.182 144.787 372.979C145.595 375.146 148.495 375.361 150.802 375.529C156.715 375.98 162.277 378.512 166.502 382.676C168.401 384.56 170.388 386.937 173.068 386.874C173.629 385.94 172.748 384.828 171.941 384.098L162.989 376.085C171.638 374.645 180.494 375.065 188.968 377.318C189.885 375.261 188.003 373 186.005 371.961Z" fill="#ECC362"/>
<path d="M172.953 385.672L171.825 386.57L173.834 387.52L172.953 385.672Z" fill="#A6513C"/>
<path d="M189.178 375.755L187.804 376.888L189.461 377.66L189.178 375.755Z" fill="#A6513C"/>
<path d="M137.965 365.438L137.22 367.128L139.003 366.75L137.965 365.438Z" fill="#A6513C"/>
</g>
<defs>
<clipPath id="clip0_91_840">
<rect width="552" height="482" fill="white"/>
</clipPath>
</defs>
</svg>
