<svg width="130" height="77" viewBox="0 0 130 77" fill="none" xmlns="http://www.w3.org/2000/svg">
<rect x="1.5" y="1.5" width="126.599" height="73.4032" rx="21.5" fill="white" stroke="black" stroke-width="3"/>
<path d="M37 58.085C37 58.345 36.905 58.565 36.715 58.745C36.525 58.915 36.305 59 36.055 59C35.775 59 35.55 58.915 35.38 58.745C35.21 58.565 35.125 58.345 35.125 58.085V49.415C35.125 49.155 35.215 48.94 35.395 48.77C35.575 48.59 35.805 48.5 36.085 48.5C36.325 48.5 36.535 48.59 36.715 48.77C36.905 48.94 37 49.155 37 49.415V58.085ZM47.5209 48.5C47.7609 48.5 47.9559 48.58 48.1059 48.74C48.2559 48.9 48.3309 49.1 48.3309 49.34V58.085C48.3309 58.345 48.2409 58.565 48.0609 58.745C47.8909 58.915 47.6759 59 47.4159 59C47.2859 59 47.1509 58.98 47.0109 58.94C46.8809 58.89 46.7809 58.825 46.7109 58.745L40.8159 51.26L41.2059 51.02V58.16C41.2059 58.4 41.1259 58.6 40.9659 58.76C40.8159 58.92 40.6159 59 40.3659 59C40.1259 59 39.9309 58.92 39.7809 58.76C39.6309 58.6 39.5559 58.4 39.5559 58.16V49.415C39.5559 49.155 39.6409 48.94 39.8109 48.77C39.9909 48.59 40.2109 48.5 40.4709 48.5C40.6109 48.5 40.7559 48.53 40.9059 48.59C41.0559 48.64 41.1659 48.72 41.2359 48.83L46.9509 56.12L46.6959 56.3V49.34C46.6959 49.1 46.7709 48.9 46.9209 48.74C47.0709 48.58 47.2709 48.5 47.5209 48.5ZM55.3861 48.5C56.1061 48.5 56.7461 48.635 57.3061 48.905C57.8661 49.175 58.3361 49.555 58.7161 50.045C59.1061 50.525 59.3961 51.085 59.5861 51.725C59.7861 52.355 59.8861 53.03 59.8861 53.75C59.8861 54.72 59.7111 55.605 59.3611 56.405C59.0111 57.195 58.5011 57.825 57.8311 58.295C57.1711 58.765 56.3561 59 55.3861 59H51.8011C51.5411 59 51.3211 58.915 51.1411 58.745C50.9711 58.565 50.8861 58.345 50.8861 58.085V49.415C50.8861 49.155 50.9711 48.94 51.1411 48.77C51.3211 48.59 51.5411 48.5 51.8011 48.5H55.3861ZM55.2361 57.275C55.8661 57.275 56.3811 57.115 56.7811 56.795C57.1811 56.465 57.4711 56.035 57.6511 55.505C57.8411 54.965 57.9361 54.38 57.9361 53.75C57.9361 53.28 57.8811 52.835 57.7711 52.415C57.6711 51.985 57.5111 51.61 57.2911 51.29C57.0711 50.96 56.7911 50.7 56.4511 50.51C56.1111 50.32 55.7061 50.225 55.2361 50.225H52.6111L52.7611 50.09V57.44L52.6711 57.275H55.2361ZM63.7838 58.085C63.7838 58.345 63.6888 58.565 63.4988 58.745C63.3088 58.915 63.0888 59 62.8388 59C62.5588 59 62.3338 58.915 62.1638 58.745C61.9938 58.565 61.9088 58.345 61.9088 58.085V49.415C61.9088 49.155 61.9988 48.94 62.1788 48.77C62.3588 48.59 62.5888 48.5 62.8688 48.5C63.1088 48.5 63.3188 48.59 63.4988 48.77C63.6888 48.94 63.7838 49.155 63.7838 49.415V58.085ZM74.0046 48.47C74.2546 48.47 74.4696 48.555 74.6496 48.725C74.8396 48.885 74.9346 49.09 74.9346 49.34C74.9346 49.47 74.9046 49.605 74.8446 49.745L71.1396 58.415C71.0496 58.615 70.9196 58.765 70.7496 58.865C70.5896 58.955 70.4246 59 70.2546 59C70.0946 58.99 69.9396 58.94 69.7896 58.85C69.6396 58.75 69.5246 58.61 69.4446 58.43L65.7396 49.73C65.7096 49.67 65.6896 49.61 65.6796 49.55C65.6696 49.48 65.6646 49.415 65.6646 49.355C65.6646 49.065 65.7696 48.845 65.9796 48.695C66.1896 48.535 66.3896 48.455 66.5796 48.455C66.9596 48.455 67.2346 48.65 67.4046 49.04L70.6896 56.765L70.1646 56.78L73.1796 49.04C73.3496 48.66 73.6246 48.47 74.0046 48.47ZM78.6807 58.085C78.6807 58.345 78.5857 58.565 78.3957 58.745C78.2057 58.915 77.9857 59 77.7357 59C77.4557 59 77.2307 58.915 77.0607 58.745C76.8907 58.565 76.8057 58.345 76.8057 58.085V49.415C76.8057 49.155 76.8957 48.94 77.0757 48.77C77.2557 48.59 77.4857 48.5 77.7657 48.5C78.0057 48.5 78.2157 48.59 78.3957 48.77C78.5857 48.94 78.6807 49.155 78.6807 49.415V58.085ZM85.7365 48.5C86.4565 48.5 87.0965 48.635 87.6565 48.905C88.2165 49.175 88.6865 49.555 89.0665 50.045C89.4565 50.525 89.7465 51.085 89.9365 51.725C90.1365 52.355 90.2365 53.03 90.2365 53.75C90.2365 54.72 90.0615 55.605 89.7115 56.405C89.3615 57.195 88.8515 57.825 88.1815 58.295C87.5215 58.765 86.7065 59 85.7365 59H82.1515C81.8915 59 81.6715 58.915 81.4915 58.745C81.3215 58.565 81.2365 58.345 81.2365 58.085V49.415C81.2365 49.155 81.3215 48.94 81.4915 48.77C81.6715 48.59 81.8915 48.5 82.1515 48.5H85.7365ZM85.5865 57.275C86.2165 57.275 86.7315 57.115 87.1315 56.795C87.5315 56.465 87.8215 56.035 88.0015 55.505C88.1915 54.965 88.2865 54.38 88.2865 53.75C88.2865 53.28 88.2315 52.835 88.1215 52.415C88.0215 51.985 87.8615 51.61 87.6415 51.29C87.4215 50.96 87.1415 50.7 86.8015 50.51C86.4615 50.32 86.0565 50.225 85.5865 50.225H82.9615L83.1115 50.09V57.44L83.0215 57.275H85.5865ZM99.7142 48.485C99.9742 48.485 100.184 48.575 100.344 48.755C100.504 48.925 100.584 49.14 100.584 49.4V54.83C100.584 55.66 100.404 56.395 100.044 57.035C99.6942 57.675 99.2092 58.175 98.5892 58.535C97.9692 58.895 97.2492 59.075 96.4292 59.075C95.6092 59.075 94.8842 58.895 94.2542 58.535C93.6342 58.175 93.1442 57.675 92.7842 57.035C92.4342 56.395 92.2592 55.66 92.2592 54.83V49.4C92.2592 49.14 92.3492 48.925 92.5292 48.755C92.7092 48.575 92.9392 48.485 93.2192 48.485C93.4492 48.485 93.6542 48.575 93.8342 48.755C94.0242 48.925 94.1192 49.14 94.1192 49.4V54.83C94.1192 55.33 94.2242 55.765 94.4342 56.135C94.6542 56.495 94.9392 56.775 95.2892 56.975C95.6492 57.175 96.0292 57.275 96.4292 57.275C96.8592 57.275 97.2592 57.175 97.6292 56.975C97.9992 56.775 98.2992 56.495 98.5292 56.135C98.7592 55.765 98.8742 55.33 98.8742 54.83V49.4C98.8742 49.14 98.9492 48.925 99.0992 48.755C99.2492 48.575 99.4542 48.485 99.7142 48.485Z" fill="black"/>
<path d="M64.8284 25.7468C63.2471 25.7468 61.8935 25.1593 60.7674 23.9843C59.6414 22.8093 59.0784 21.3968 59.0784 19.7468C59.0784 18.0968 59.6414 16.6843 60.7674 15.5093C61.8935 14.3343 63.2471 13.7468 64.8284 13.7468C66.4096 13.7468 67.7633 14.3343 68.8893 15.5093C70.0153 16.6843 70.5784 18.0968 70.5784 19.7468C70.5784 21.3968 70.0153 22.8093 68.8893 23.9843C67.7633 25.1593 66.4096 25.7468 64.8284 25.7468ZM53.3284 37.7468V33.5468C53.3284 32.6968 53.5382 31.9158 53.958 31.2038C54.3777 30.4918 54.9345 29.9478 55.6284 29.5718C57.1138 28.7968 58.6232 28.2158 60.1565 27.8288C61.6898 27.4418 63.2471 27.2478 64.8284 27.2468C66.4096 27.2458 67.9669 27.4398 69.5002 27.8288C71.0336 28.2178 72.543 28.7988 74.0284 29.5718C74.7232 29.9468 75.2804 30.4908 75.7002 31.2038C76.1199 31.9168 76.3293 32.6978 76.3284 33.5468V37.7468H53.3284Z" fill="black"/>
</svg>
