<svg width="130" height="77" viewBox="0 0 130 77" fill="none" xmlns="http://www.w3.org/2000/svg">
<rect x="1.5" y="1.5" width="126.599" height="73.4032" rx="21.5" fill="white" stroke="black" stroke-width="3"/>
<path d="M45.82 48.5C46.78 48.5 47.495 48.725 47.965 49.175C48.435 49.625 48.67 50.29 48.67 51.17C48.67 51.64 48.555 52.055 48.325 52.415C48.095 52.765 47.755 53.04 47.305 53.24C46.855 53.43 46.3 53.525 45.64 53.525L45.7 52.85C46.01 52.85 46.365 52.895 46.765 52.985C47.165 53.065 47.55 53.215 47.92 53.435C48.3 53.645 48.61 53.945 48.85 54.335C49.1 54.715 49.225 55.205 49.225 55.805C49.225 56.465 49.115 57.005 48.895 57.425C48.685 57.845 48.405 58.17 48.055 58.4C47.705 58.63 47.33 58.79 46.93 58.88C46.53 58.96 46.145 59 45.775 59H42.04C41.78 59 41.56 58.915 41.38 58.745C41.21 58.565 41.125 58.345 41.125 58.085V49.415C41.125 49.155 41.21 48.94 41.38 48.77C41.56 48.59 41.78 48.5 42.04 48.5H45.82ZM45.55 50.27H42.88L43.075 50.03V52.745L42.895 52.61H45.595C45.885 52.61 46.145 52.515 46.375 52.325C46.605 52.135 46.72 51.86 46.72 51.5C46.72 51.07 46.61 50.76 46.39 50.57C46.18 50.37 45.9 50.27 45.55 50.27ZM45.67 54.38H42.94L43.075 54.26V57.425L42.925 57.275H45.775C46.235 57.275 46.6 57.155 46.87 56.915C47.14 56.665 47.275 56.295 47.275 55.805C47.275 55.355 47.185 55.03 47.005 54.83C46.825 54.63 46.61 54.505 46.36 54.455C46.11 54.405 45.88 54.38 45.67 54.38ZM55.1091 50.855L51.8691 58.475C51.7991 58.665 51.6891 58.815 51.5391 58.925C51.3991 59.025 51.2441 59.075 51.0741 59.075C50.8041 59.075 50.6041 59 50.4741 58.85C50.3441 58.7 50.2791 58.515 50.2791 58.295C50.2791 58.205 50.2941 58.11 50.3241 58.01L54.0591 49.04C54.1391 48.84 54.2591 48.685 54.4191 48.575C54.5891 48.465 54.7691 48.42 54.9591 48.44C55.1391 48.44 55.3041 48.495 55.4541 48.605C55.6141 48.705 55.7291 48.85 55.7991 49.04L59.4891 57.83C59.5391 57.96 59.5641 58.08 59.5641 58.19C59.5641 58.46 59.4741 58.675 59.2941 58.835C59.1241 58.995 58.9341 59.075 58.7241 59.075C58.5441 59.075 58.3791 59.02 58.2291 58.91C58.0891 58.8 57.9791 58.65 57.8991 58.46L54.6741 50.945L55.1091 50.855ZM52.3341 56.645L53.1591 54.92H57.2091L57.4941 56.645H52.3341ZM65.6342 48.5C66.3542 48.5 66.9942 48.635 67.5542 48.905C68.1142 49.175 68.5842 49.555 68.9642 50.045C69.3542 50.525 69.6442 51.085 69.8342 51.725C70.0342 52.355 70.1342 53.03 70.1342 53.75C70.1342 54.72 69.9592 55.605 69.6092 56.405C69.2592 57.195 68.7492 57.825 68.0792 58.295C67.4192 58.765 66.6042 59 65.6342 59H62.0492C61.7892 59 61.5692 58.915 61.3892 58.745C61.2192 58.565 61.1342 58.345 61.1342 58.085V49.415C61.1342 49.155 61.2192 48.94 61.3892 48.77C61.5692 48.59 61.7892 48.5 62.0492 48.5H65.6342ZM65.4842 57.275C66.1142 57.275 66.6292 57.115 67.0292 56.795C67.4292 56.465 67.7192 56.035 67.8992 55.505C68.0892 54.965 68.1842 54.38 68.1842 53.75C68.1842 53.28 68.1292 52.835 68.0192 52.415C67.9192 51.985 67.7592 51.61 67.5392 51.29C67.3192 50.96 67.0392 50.7 66.6992 50.51C66.3592 50.32 65.9542 50.225 65.4842 50.225H62.8592L63.0092 50.09V57.44L62.9192 57.275H65.4842ZM75.9386 50.855L72.6986 58.475C72.6286 58.665 72.5186 58.815 72.3686 58.925C72.2286 59.025 72.0736 59.075 71.9036 59.075C71.6336 59.075 71.4336 59 71.3036 58.85C71.1736 58.7 71.1086 58.515 71.1086 58.295C71.1086 58.205 71.1236 58.11 71.1536 58.01L74.8886 49.04C74.9686 48.84 75.0886 48.685 75.2486 48.575C75.4186 48.465 75.5986 48.42 75.7886 48.44C75.9686 48.44 76.1336 48.495 76.2836 48.605C76.4436 48.705 76.5586 48.85 76.6286 49.04L80.3186 57.83C80.3686 57.96 80.3936 58.08 80.3936 58.19C80.3936 58.46 80.3036 58.675 80.1236 58.835C79.9536 58.995 79.7636 59.075 79.5536 59.075C79.3736 59.075 79.2086 59.02 79.0586 58.91C78.9186 58.8 78.8086 58.65 78.7286 58.46L75.5036 50.945L75.9386 50.855ZM73.1636 56.645L73.9886 54.92H78.0386L78.3236 56.645H73.1636ZM89.9287 48.5C90.1687 48.5 90.3637 48.58 90.5137 48.74C90.6637 48.9 90.7387 49.1 90.7387 49.34V58.085C90.7387 58.345 90.6487 58.565 90.4687 58.745C90.2987 58.915 90.0837 59 89.8237 59C89.6937 59 89.5587 58.98 89.4187 58.94C89.2887 58.89 89.1887 58.825 89.1187 58.745L83.2237 51.26L83.6137 51.02V58.16C83.6137 58.4 83.5337 58.6 83.3737 58.76C83.2237 58.92 83.0237 59 82.7737 59C82.5337 59 82.3387 58.92 82.1887 58.76C82.0387 58.6 81.9637 58.4 81.9637 58.16V49.415C81.9637 49.155 82.0487 48.94 82.2187 48.77C82.3987 48.59 82.6187 48.5 82.8787 48.5C83.0187 48.5 83.1637 48.53 83.3137 48.59C83.4637 48.64 83.5737 48.72 83.6437 48.83L89.3587 56.12L89.1037 56.3V49.34C89.1037 49.1 89.1787 48.9 89.3287 48.74C89.4787 48.58 89.6787 48.5 89.9287 48.5Z" fill="black"/>
<path d="M68.3333 35H66.4167V37H68.3333M68.3333 31H66.4167V33H68.3333M70.25 39H62.5833V37H64.5V35H62.5833V33H64.5V31H62.5833V29H70.25M60.6667 27H58.75V25H60.6667M60.6667 31H58.75V29H60.6667M60.6667 35H58.75V33H60.6667M60.6667 39H58.75V37H60.6667M56.8333 27H54.9167V25H56.8333M56.8333 31H54.9167V29H56.8333M56.8333 35H54.9167V33H56.8333M56.8333 39H54.9167V37H56.8333M62.5833 27V23H53V41H72.1667V27H62.5833Z" fill="black"/>
</svg>
