<svg width="350" height="350" viewBox="0 0 350 350" fill="none" xmlns="http://www.w3.org/2000/svg">
<path d="M308.497 184.632C309.897 166.033 305.571 146.615 299.775 129.332C291.2 103.6 274.456 77.2309 246.316 71.1409C230.09 67.6409 213.577 71.3929 199.661 80.1849C186.284 88.6409 175.861 99.5679 159.404 101.682C142.765 103.824 125.692 102.963 108.969 102.963C65.968 102.963 31.073 148.134 39.795 195.188C48.517 242.242 89.649 274.869 124.544 274.869C155.904 274.869 181.706 256.06 211.491 251.006C226.261 248.5 241.094 251.468 255.71 247.716C272.699 243.348 288.673 232.939 298.088 217.868C304.5 207.592 307.622 196.273 308.497 184.632Z" fill="#B87817"/>
<path opacity="0.7" d="M308.497 184.632C309.897 166.033 305.571 146.615 299.775 129.332C291.2 103.6 274.456 77.2309 246.316 71.1409C230.09 67.6409 213.577 71.3929 199.661 80.1849C186.284 88.6409 175.861 99.5679 159.404 101.682C142.765 103.824 125.692 102.963 108.969 102.963C65.968 102.963 31.073 148.134 39.795 195.188C48.517 242.242 89.649 274.869 124.544 274.869C155.904 274.869 181.706 256.06 211.491 251.006C226.261 248.5 241.094 251.468 255.71 247.716C272.699 243.348 288.673 232.939 298.088 217.868C304.5 207.592 307.622 196.273 308.497 184.632Z" fill="white"/>
<path d="M303.464 178.101C303.464 178.101 303.464 174.601 298.564 169.75C293.664 164.899 290.556 162.085 290.556 162.085C290.556 162.085 288.12 170.093 292.656 174.972C295.986 178.399 299.596 181.541 303.45 184.366L303.464 178.101Z" fill="#B87817"/>
<path d="M296.394 199.843C296.394 199.843 296.394 196.343 291.494 191.492C286.594 186.641 283.5 183.827 283.5 183.827C283.5 183.827 281.057 191.835 285.6 196.714C288.93 200.141 292.54 203.283 296.394 206.108V199.843Z" fill="#B87817"/>
<path d="M303.156 184.03C303.156 184.03 303.527 180.572 308.889 176.239C314.251 171.906 317.66 169.47 317.66 169.47C317.66 169.47 319.235 177.688 314.223 182.07C310.55 185.126 306.628 187.871 302.498 190.274L303.156 184.03Z" fill="#B87817"/>
<path d="M294.616 209.706C294.616 209.706 295.316 206.304 301.133 202.559C306.95 198.814 310.562 196.749 310.562 196.749C310.562 196.749 311.262 205.093 305.823 208.908C301.849 211.562 297.66 213.881 293.3 215.838L294.616 209.706Z" fill="#B87817"/>
<path d="M296.219 237.706C296.219 237.706 296.219 234.206 301.119 229.348C306.019 224.49 309.12 221.69 309.12 221.69C309.12 221.69 311.563 229.698 307.02 234.57C303.691 238 300.081 241.145 296.226 243.971L296.219 237.706Z" fill="#B87817"/>
<path d="M296.142 244.538C296.142 244.538 296.632 241.094 292.502 235.578C288.372 230.062 285.663 226.856 285.663 226.856C285.663 226.856 282.114 234.437 285.901 239.904C288.708 243.77 291.834 247.395 295.246 250.74L296.142 244.538Z" fill="#B87817"/>
<path d="M291.333 264.789C291.333 264.789 291.333 261.289 296.233 256.438C301.133 251.587 304.241 248.773 304.241 248.773C304.241 248.773 306.677 256.781 302.141 261.66C298.81 265.088 295.2 268.232 291.347 271.061L291.333 264.789Z" fill="#B87817"/>
<path d="M294.588 283.15C294.588 283.15 293.706 279.783 297.185 273.833C300.664 267.883 302.995 264.397 302.995 264.397C302.995 264.397 307.377 271.523 304.234 277.389C301.883 281.548 299.188 285.503 296.177 289.212L294.588 283.15Z" fill="#B87817"/>
<path d="M303.905 177.212C303.66 180.836 303.216 184.444 302.575 188.02C300.643 197.974 295.827 204.4 293.902 213.388C291.977 222.376 297.507 233.961 296.002 245.511C294.497 257.061 290.031 263.48 291.312 271.187C292.593 278.894 299.341 299.768 299.341 299.768" stroke="#263238" stroke-linecap="round" stroke-linejoin="round"/>
<path d="M303.114 186.347L308.364 182.315" stroke="#263238" stroke-linecap="round" stroke-linejoin="round"/>
<path d="M303.359 181.706L301.154 177.793" stroke="#263238" stroke-linecap="round" stroke-linejoin="round"/>
<path d="M294.196 212.975C294.196 212.975 298.592 209.678 303.114 206.381" stroke="#263238" stroke-linecap="round" stroke-linejoin="round"/>
<path d="M296.394 206.108C296.394 206.108 292.726 198.926 288.575 194.166" stroke="#263238" stroke-linecap="round" stroke-linejoin="round"/>
<path d="M296.394 242.662C298.902 238.028 302.071 233.783 305.802 230.062" stroke="#263238" stroke-linecap="round" stroke-linejoin="round"/>
<path d="M295.54 247.548C294.206 244.406 292.611 241.381 290.773 238.504C288.211 234.717 287.84 234.227 287.84 234.227" stroke="#263238" stroke-linecap="round" stroke-linejoin="round"/>
<path d="M291.333 271.187C292.449 268.428 293.774 265.758 295.295 263.2C296.817 260.823 298.534 258.575 300.426 256.48" stroke="#263238" stroke-linecap="round" stroke-linejoin="round"/>
<path d="M296.177 289.212C295.922 286.574 296.376 283.915 297.493 281.512C299.327 277.97 301.399 273.329 302.253 271.495" stroke="#263238" stroke-linecap="round" stroke-linejoin="round"/>
<path d="M263.69 224.616C263.69 224.616 263.312 222.432 265.839 218.841C268.366 215.25 270.039 213.171 270.039 213.171C270.039 213.171 272.433 217.931 270.123 221.473C268.407 223.985 266.485 226.35 264.376 228.543L263.69 224.616Z" fill="#B87817"/>
<path d="M270.487 237.482C270.487 237.482 270.109 235.298 272.636 231.707C275.163 228.116 276.836 226.037 276.836 226.037C276.836 226.037 279.23 230.797 276.92 234.346C275.203 236.855 273.281 239.218 271.173 241.409L270.487 237.482Z" fill="#B87817"/>
<path d="M264.523 228.298C264.523 228.298 263.921 226.198 260.085 224.035C256.249 221.872 253.855 220.738 253.855 220.738C253.855 220.738 253.757 226.065 257.355 228.263C259.989 229.78 262.745 231.074 265.594 232.134L264.523 228.298Z" fill="#B87817"/>
<path d="M272.671 243.474C272.671 243.474 271.845 241.416 267.813 239.694C263.781 237.972 261.261 237.076 261.261 237.076C261.261 237.076 261.723 242.382 265.559 244.188C268.339 245.419 271.216 246.417 274.162 247.17L272.671 243.474Z" fill="#B87817"/>
<path d="M274.701 261.205C274.701 261.205 274.33 259.021 270.739 256.494C267.148 253.967 264.887 252.56 264.887 252.56C264.887 252.56 264.229 257.845 267.596 260.407C270.056 262.198 272.662 263.779 275.387 265.132L274.701 261.205Z" fill="#B87817"/>
<path d="M275.499 265.482C275.499 265.482 274.799 263.382 276.808 259.462C278.817 255.542 280.147 253.253 280.147 253.253C280.147 253.253 283.192 257.621 281.414 261.464C280.074 264.192 278.508 266.803 276.731 269.269L275.499 265.482Z" fill="#B87817"/>
<path d="M281.617 283.087C281.617 283.087 281.869 280.889 285.306 278.187C288.743 275.485 290.906 273.924 290.906 273.924C290.906 273.924 291.865 279.167 288.652 281.918C286.299 283.844 283.789 285.569 281.148 287.077L281.617 283.087Z" fill="#B87817"/>
<path d="M280.7 277.655C280.7 277.655 280.322 275.471 276.738 272.944C273.154 270.417 270.9 269.01 270.9 269.01C270.9 269.01 270.242 274.295 273.609 276.864C276.071 278.652 278.676 280.233 281.4 281.589L280.7 277.655Z" fill="#B87817"/>
<path d="M280.7 289.527C280.7 289.527 280.882 287.315 278.054 283.962C275.226 280.609 273.392 278.677 273.392 278.677C273.392 278.677 271.411 283.619 274.022 286.958C275.936 289.309 278.043 291.496 280.322 293.496L280.7 289.527Z" fill="#B87817"/>
<path d="M263.319 224.098C263.867 226.345 264.537 228.56 265.328 230.734C267.617 236.768 271.334 240.275 273.518 245.7C275.702 251.125 273.518 259 275.674 266.077C277.83 273.154 281.4 276.696 281.4 281.666C281.4 286.636 279.468 300.461 279.468 300.461" stroke="#263238" stroke-linecap="round" stroke-linejoin="round"/>
<path d="M264.81 229.74L261.079 227.787" stroke="#263238" stroke-linecap="round" stroke-linejoin="round"/>
<path d="M264.152 226.856L265.104 224.168" stroke="#263238" stroke-linecap="round" stroke-linejoin="round"/>
<path d="M273.287 245.476C273.287 245.476 270.172 243.887 266.987 242.305" stroke="#263238" stroke-linecap="round" stroke-linejoin="round"/>
<path d="M271.166 241.409C272.084 238.525 273.292 235.741 274.771 233.1" stroke="#263238" stroke-linecap="round" stroke-linejoin="round"/>
<path d="M275.135 264.327C273.058 261.699 270.61 259.385 267.869 257.46" stroke="#263238" stroke-linecap="round" stroke-linejoin="round"/>
<path d="M276.199 267.295C276.697 265.183 277.369 263.115 278.208 261.114C279.405 258.461 279.608 258.111 279.608 258.111" stroke="#263238" stroke-linecap="round" stroke-linejoin="round"/>
<path d="M281.232 285.439C282.446 283.935 283.79 282.541 285.25 281.274C286.179 280.59 287.049 279.832 287.854 279.006" stroke="#263238" stroke-linecap="round" stroke-linejoin="round"/>
<path d="M281.4 281.666C280.4 280.053 279.279 278.518 278.047 277.074C276.834 275.75 275.513 274.527 274.099 273.42" stroke="#263238" stroke-linecap="round" stroke-linejoin="round"/>
<path d="M280.322 293.496C280.197 291.813 279.624 290.193 278.663 288.806C277.13 286.783 275.324 284.095 274.589 283.038" stroke="#263238" stroke-linecap="round" stroke-linejoin="round"/>
<path d="M64.8691 194.124L61.8031 185.367L64.8691 189.084L62.4611 175.945L66.1851 185.367L67.5011 166.964L69.6921 184.485L72.1001 180.985V185.367L74.9491 179.452L73.4161 189.742L76.0411 187.992L71.8831 193.683L64.8691 194.124Z" fill="#B87817"/>
<path d="M74.508 191.933H63.119L65.17 214.928H72.457L74.508 191.933Z" fill="#263238" stroke="#263238" stroke-linecap="round" stroke-linejoin="round"/>
<path d="M95.8721 214.669H57.071V296.849H95.8721V214.669Z" fill="white" stroke="#263238" stroke-linecap="round" stroke-linejoin="round"/>
<path d="M97.993 214.669H76.468V296.849H97.993V214.669Z" fill="white" stroke="#263238" stroke-linecap="round" stroke-linejoin="round"/>
<path d="M95.571 214.669H76.468V296.849H95.571V214.669Z" fill="#263238" stroke="#263238" stroke-linecap="round" stroke-linejoin="round"/>
<path d="M93.422 277.739H76.468V294.567H93.422V277.739Z" fill="#B87817" stroke="#263238" stroke-linecap="round" stroke-linejoin="round"/>
<path d="M93.422 278.649H76.468V280.805H93.422V278.649Z" fill="white" stroke="#263238" stroke-linecap="round" stroke-linejoin="round"/>
<path d="M93.422 291.039H76.468V293.195H93.422V291.039Z" fill="white" stroke="#263238" stroke-linecap="round" stroke-linejoin="round"/>
<path d="M79.681 278.089V299.369" stroke="#263238" stroke-linecap="round" stroke-linejoin="round"/>
<path d="M85.5961 278.089V299.369" stroke="#263238" stroke-linecap="round" stroke-linejoin="round"/>
<path d="M90.79 278.089V299.369" stroke="#263238" stroke-linecap="round" stroke-linejoin="round"/>
<path d="M93.422 217.721H76.468V242.466H93.422V217.721Z" fill="#B87817" stroke="#263238" stroke-linecap="round" stroke-linejoin="round"/>
<path d="M93.422 218.757H76.468V221.207H93.422V218.757Z" fill="white" stroke="#263238" stroke-linecap="round" stroke-linejoin="round"/>
<path d="M93.422 234.619H76.468V237.069H93.422V234.619Z" fill="white" stroke="#263238" stroke-linecap="round" stroke-linejoin="round"/>
<path d="M79.681 218.113V242.298" stroke="#263238" stroke-linecap="round" stroke-linejoin="round"/>
<path d="M85.5961 218.113V242.298" stroke="#263238" stroke-linecap="round" stroke-linejoin="round"/>
<path d="M90.79 218.113V242.298" stroke="#263238" stroke-linecap="round" stroke-linejoin="round"/>
<path d="M93.422 247.541H76.468V272.286H93.422V247.541Z" fill="#B87817" stroke="#263238" stroke-linecap="round" stroke-linejoin="round"/>
<path d="M93.422 248.577H76.468V251.027H93.422V248.577Z" fill="white" stroke="#263238" stroke-linecap="round" stroke-linejoin="round"/>
<path d="M93.422 264.439H76.468V266.889H93.422V264.439Z" fill="white" stroke="#263238" stroke-linecap="round" stroke-linejoin="round"/>
<path d="M79.681 247.94V272.118" stroke="#263238" stroke-linecap="round" stroke-linejoin="round"/>
<path d="M85.5961 247.94V272.118" stroke="#263238" stroke-linecap="round" stroke-linejoin="round"/>
<path d="M90.79 247.94V272.118" stroke="#263238" stroke-linecap="round" stroke-linejoin="round"/>
<path d="M95.865 242.123H76.468V244.937H95.865V242.123Z" fill="white" stroke="#263238" stroke-linecap="round" stroke-linejoin="round"/>
<path d="M95.865 272.132H76.468V274.946H95.865V272.132Z" fill="white" stroke="#263238" stroke-linecap="round" stroke-linejoin="round"/>
<path d="M95.865 214.669V296.842" stroke="#263238" stroke-linecap="round" stroke-linejoin="round"/>
<path d="M73.7311 214.669V296.842H76.4681V217.721H95.5291V214.634L73.7311 214.669Z" fill="white" stroke="#263238" stroke-linecap="round" stroke-linejoin="round"/>
<path d="M76.468 217.721V214.669" stroke="#263238" stroke-linecap="round" stroke-linejoin="round"/>
<path d="M95.718 176.918C93.681 172.991 92.827 170.177 92.827 169.526C92.827 168.238 95.627 167.468 95.627 167.468C99.995 165.158 120.54 168.497 129.787 170.037C134.963 170.94 140.2 171.454 145.453 171.577C145.453 171.577 146.734 170.555 148.253 169.267C149.772 167.979 156.982 159.509 159.81 158.767C162.638 158.025 165.2 159.796 165.2 159.796C165.2 159.796 169.827 162.596 169.05 163.135C168.273 163.674 156.982 173.404 154.154 175.203C151.326 177.002 145.425 176.232 140.287 177.261C135.863 178.143 117.943 179.235 113.834 179.571C110.748 180.303 107.509 180.033 104.587 178.801" fill="white"/>
<mask id="mask0_264_1723" style="mask-type:luminance" maskUnits="userSpaceOnUse" x="92" y="158" width="78" height="22">
<path d="M95.718 176.918C93.681 172.991 92.827 170.177 92.827 169.526C92.827 168.238 95.627 167.468 95.627 167.468C99.995 165.158 120.54 168.497 129.787 170.037C134.963 170.94 140.2 171.454 145.453 171.577C145.453 171.577 146.734 170.555 148.253 169.267C149.772 167.979 156.982 159.509 159.81 158.767C162.638 158.025 165.2 159.796 165.2 159.796C165.2 159.796 169.827 162.596 169.05 163.135C168.273 163.674 156.982 173.404 154.154 175.203C151.326 177.002 145.425 176.232 140.287 177.261C135.863 178.143 117.943 179.235 113.834 179.571C110.748 180.303 107.509 180.033 104.587 178.801" fill="white"/>
</mask>
<g mask="url(#mask0_264_1723)">
<path d="M165.249 159.768C165.249 159.768 162.68 157.969 159.859 158.739C157.038 159.509 149.842 167.986 148.302 169.239C146.762 170.492 145.502 171.549 145.502 171.549C140.249 171.426 135.013 170.911 129.836 170.009C120.589 168.469 100.044 165.109 95.6762 167.44C95.6762 167.44 92.8762 168.21 92.8762 169.498C92.9735 170.218 93.1592 170.923 93.4292 171.598L93.8142 171.738C93.8142 171.738 98.9452 171.199 110.019 171.465C121.093 171.731 146.706 173.25 148.351 173.845C149.051 174.111 154.014 172.991 159.516 171.045C163.716 167.622 168.651 163.345 169.148 163.044C169.876 162.589 165.249 159.768 165.249 159.768Z" fill="#B87817"/>
<path opacity="0.5" d="M165.249 159.768C165.249 159.768 162.68 157.969 159.859 158.739C157.038 159.509 149.842 167.986 148.302 169.239C146.762 170.492 145.502 171.549 145.502 171.549C140.249 171.426 135.013 170.911 129.836 170.009C120.589 168.469 100.044 165.109 95.6762 167.44C95.6762 167.44 92.8762 168.21 92.8762 169.498C92.9735 170.218 93.1592 170.923 93.4292 171.598L93.8142 171.738C93.8142 171.738 98.9452 171.199 110.019 171.465C121.093 171.731 146.706 173.25 148.351 173.845C149.051 174.111 154.014 172.991 159.516 171.045C163.716 167.622 168.651 163.345 169.148 163.044C169.876 162.589 165.249 159.768 165.249 159.768Z" fill="white"/>
</g>
<path d="M95.718 176.918C93.681 172.991 92.827 170.177 92.827 169.526C92.827 168.238 95.627 167.468 95.627 167.468C99.995 165.158 120.54 168.497 129.787 170.037C134.963 170.94 140.2 171.454 145.453 171.577C145.453 171.577 146.734 170.555 148.253 169.267C149.772 167.979 156.982 159.509 159.81 158.767C162.638 158.025 165.2 159.796 165.2 159.796C165.2 159.796 169.827 162.596 169.05 163.135C168.273 163.674 156.982 173.404 154.154 175.203C151.326 177.002 145.425 176.232 140.287 177.261C135.863 178.143 117.943 179.235 113.834 179.571C110.748 180.303 107.509 180.033 104.587 178.801" stroke="#263238" stroke-linecap="round" stroke-linejoin="round"/>
<path d="M197.155 199.752C197.62 198.87 198.316 198.132 199.17 197.617C200.024 197.103 201.002 196.832 201.999 196.833H248.689C248.689 196.833 252.063 196.833 251.055 203.245C250.047 209.657 236.201 248.808 232.855 260.645C229.509 272.482 228.802 297.43 228.802 297.43H172.802C172.802 297.43 177.24 237.769 197.155 199.752Z" fill="white"/>
<mask id="mask1_264_1723" style="mask-type:luminance" maskUnits="userSpaceOnUse" x="172" y="196" width="80" height="102">
<path d="M197.155 199.752C197.62 198.87 198.316 198.132 199.17 197.617C200.024 197.103 201.002 196.832 201.999 196.833H248.689C248.689 196.833 252.063 196.833 251.055 203.245C250.047 209.657 236.201 248.808 232.855 260.645C229.509 272.482 228.802 297.43 228.802 297.43H172.802C172.802 297.43 177.24 237.769 197.155 199.752Z" fill="white"/>
</mask>
<g mask="url(#mask1_264_1723)">
<path opacity="0.16" d="M218.183 196.833H201.999C201.002 196.832 200.024 197.103 199.17 197.617C198.316 198.132 197.619 198.87 197.155 199.752C177.24 237.769 172.753 297.409 172.753 297.409H197.869L204.064 273.882L229.894 279.209C230.076 277.235 230.286 275.226 230.531 273.245L229.964 266.945C229.964 266.945 224.672 261.38 223.006 259.987C221.34 258.594 222.446 256.081 222.166 245.224C221.886 234.367 212.142 226.562 208.516 219.877C204.89 213.192 210.469 209.013 215.481 202.328C217.266 199.913 217.994 198.135 218.183 196.833Z" fill="black"/>
</g>
<path d="M197.155 199.752C197.62 198.87 198.316 198.132 199.17 197.617C200.024 197.103 201.002 196.832 201.999 196.833H248.689C248.689 196.833 252.063 196.833 251.055 203.245C250.047 209.657 236.201 248.808 232.855 260.645C229.509 272.482 228.802 297.43 228.802 297.43H172.802C172.802 297.43 177.24 237.769 197.155 199.752Z" stroke="#263238" stroke-linecap="round" stroke-linejoin="round"/>
<path d="M240.59 207.97C235.872 218.981 225.89 262.57 224.266 297.409H228.774C228.774 297.409 229.474 272.433 232.827 260.624C236.18 248.815 250.04 209.657 251.027 203.224C252.014 196.791 248.661 196.812 248.661 196.812C248.661 196.812 244.377 199.143 240.59 207.97Z" fill="#263238" stroke="#263238" stroke-linecap="round" stroke-linejoin="round"/>
<path d="M158.571 185.962C158.571 185.962 151.123 181.594 148.302 173.894C145.481 166.194 170.387 153.86 181.202 153.09C192.017 152.32 195.069 155.141 201.502 166.187C207.935 177.233 212.289 192.381 208.95 199.829C205.611 207.277 199.962 209.076 204.05 215.229C208.138 221.382 219.716 238.854 218.946 247.072C218.176 255.29 210.217 262.472 198.646 263.256C187.075 264.04 171.675 257.089 158.837 245.756C145.999 234.423 149.331 217.756 153.937 212.366C158.543 206.976 165.494 204.918 166.005 199.528C166.516 194.138 158.571 185.962 158.571 185.962Z" fill="#263238" stroke="#263238" stroke-linecap="round" stroke-linejoin="round"/>
<path d="M190.316 173.775C194.271 181.139 199.22 191.002 200.767 196.959C203.469 207.389 189.567 213.955 193.424 218.974" stroke="white" stroke-linecap="round" stroke-linejoin="round"/>
<path d="M184.926 164.129C184.926 164.129 186.466 166.754 188.594 170.618" stroke="white" stroke-linecap="round" stroke-linejoin="round"/>
<path d="M205.674 182.658C206.13 184.038 206.426 185.466 206.556 186.914" stroke="white" stroke-linecap="round" stroke-linejoin="round"/>
<path d="M187.6 160.3C187.6 160.3 199.766 169.288 204.624 180.047" stroke="white" stroke-linecap="round" stroke-linejoin="round"/>
<path d="M170.716 167.041C162.029 169.477 149.534 173.432 150.549 175.714" stroke="white" stroke-linecap="round" stroke-linejoin="round"/>
<path d="M178.745 164.899C178.745 164.899 176.89 165.361 174.125 166.103" stroke="white" stroke-linecap="round" stroke-linejoin="round"/>
<path d="M168 160.363C172.976 158.795 178.188 158.108 183.4 158.333" stroke="white" stroke-linecap="round" stroke-linejoin="round"/>
<path d="M164.458 161.812C165.245 161.402 166.059 161.047 166.894 160.748" stroke="white" stroke-linecap="round" stroke-linejoin="round"/>
<path d="M95.718 176.918C94.539 174.759 93.6001 172.478 92.918 170.114C93.5968 172.479 94.5359 174.761 95.718 176.918ZM92.841 169.715C92.841 169.757 92.841 169.806 92.841 169.869C92.855 169.806 92.848 169.757 92.841 169.715ZM95.718 176.911C98.336 181.87 101.593 186.464 105.406 190.575C114.653 200.592 141.365 226.793 143.906 228.592C146.447 230.391 145.705 235.522 143.906 240.66C142.107 245.798 135.429 253.26 135.688 261.464C135.947 269.668 138.488 282.268 138.257 284.837C138.026 287.406 131.6 296.142 131.6 296.142H197.862C197.862 296.142 189.602 285.642 189.602 282.051C189.602 278.46 200.942 232.449 201.453 229.11C201.964 225.771 199.913 223.461 195.804 223.202C191.695 222.943 176.029 219.604 175.259 217.035C174.489 214.466 179.368 204.708 179.368 204.708L163.968 205.478C163.968 205.478 163.198 212.156 162.169 213.444C161.14 214.732 159.6 212.156 156.002 210.364C152.404 208.572 145.502 207.025 142.905 204.967C140.308 202.909 115.682 179.767 115.682 179.767" fill="white"/>
<mask id="mask2_264_1723" style="mask-type:luminance" maskUnits="userSpaceOnUse" x="92" y="169" width="110" height="128">
<path d="M95.718 176.918C94.539 174.759 93.6001 172.478 92.918 170.114C93.5968 172.479 94.5359 174.761 95.718 176.918ZM92.841 169.715C92.841 169.757 92.841 169.806 92.841 169.869C92.855 169.806 92.848 169.757 92.841 169.715ZM95.718 176.911C98.336 181.87 101.593 186.464 105.406 190.575C114.653 200.592 141.365 226.793 143.906 228.592C146.447 230.391 145.705 235.522 143.906 240.66C142.107 245.798 135.429 253.26 135.688 261.464C135.947 269.668 138.488 282.268 138.257 284.837C138.026 287.406 131.6 296.142 131.6 296.142H197.862C197.862 296.142 189.602 285.642 189.602 282.051C189.602 278.46 200.942 232.449 201.453 229.11C201.964 225.771 199.913 223.461 195.804 223.202C191.695 222.943 176.029 219.604 175.259 217.035C174.489 214.466 179.368 204.708 179.368 204.708L163.968 205.478C163.968 205.478 163.198 212.156 162.169 213.444C161.14 214.732 159.6 212.156 156.002 210.364C152.404 208.572 145.502 207.025 142.905 204.967C140.308 202.909 115.682 179.767 115.682 179.767" fill="white"/>
</mask>
<g mask="url(#mask2_264_1723)">
<path d="M146.839 206.948C148.12 209.188 149.401 211.211 149.401 211.211C149.401 211.211 153.72 213.64 154.798 213.64C155.876 213.64 162.358 217.14 162.358 217.14C162.358 217.14 167.762 215.789 165.858 211.197C165.257 210.021 164.499 208.933 163.604 207.963C163.282 210 162.764 212.667 162.155 213.43C161.126 214.711 159.586 212.142 155.988 210.35C153.657 209.188 149.884 208.124 146.839 206.948Z" fill="#B87817"/>
<path d="M133.651 196.553C125.72 189.21 115.682 179.795 115.682 179.795L109.844 178.955L109.144 179.347C109.144 179.347 125.622 193.928 129.129 195.552C130.548 196.204 132.089 196.546 133.651 196.553Z" fill="#B87817"/>
<path d="M141.96 204.155L141.33 203.595C141.652 204.127 141.834 204.463 141.834 204.463L141.96 204.155Z" fill="#B87817"/>
<g opacity="0.5">
<path d="M146.839 206.948C148.12 209.188 149.401 211.211 149.401 211.211C149.401 211.211 153.72 213.64 154.798 213.64C155.876 213.64 162.358 217.14 162.358 217.14C162.358 217.14 167.762 215.789 165.858 211.197C165.257 210.021 164.499 208.933 163.604 207.963C163.282 210 162.764 212.667 162.155 213.43C161.126 214.711 159.586 212.142 155.988 210.35C153.657 209.188 149.884 208.124 146.839 206.948Z" fill="white"/>
<path d="M133.651 196.553C125.72 189.21 115.682 179.795 115.682 179.795L109.844 178.955L109.144 179.347C109.144 179.347 125.622 193.928 129.129 195.552C130.548 196.204 132.089 196.546 133.651 196.553Z" fill="white"/>
<path d="M141.96 204.155L141.33 203.595C141.652 204.127 141.834 204.463 141.834 204.463L141.96 204.155Z" fill="white"/>
</g>
</g>
<path d="M92.827 169.526C92.8238 169.575 92.8238 169.624 92.827 169.673M92.918 170.114C93.6001 172.478 94.539 174.759 95.718 176.918C94.5359 174.761 93.5968 172.479 92.918 170.114ZM92.918 170.114C92.8987 170.048 92.8846 169.98 92.876 169.911M95.718 176.911C98.336 181.87 101.593 186.464 105.406 190.575C114.653 200.592 141.365 226.793 143.906 228.592C146.447 230.391 145.705 235.522 143.906 240.66C142.107 245.798 135.429 253.26 135.688 261.464C135.947 269.668 138.488 282.268 138.257 284.837C138.026 287.406 131.6 296.142 131.6 296.142H197.862C197.862 296.142 189.602 285.642 189.602 282.051C189.602 278.46 200.942 232.449 201.453 229.11C201.964 225.771 199.913 223.461 195.804 223.202C191.695 222.943 176.029 219.604 175.259 217.035C174.489 214.466 179.368 204.708 179.368 204.708L163.968 205.478C163.968 205.478 163.198 212.156 162.169 213.444C161.14 214.732 159.6 212.156 156.002 210.364C152.404 208.572 145.502 207.025 142.905 204.967C140.308 202.909 115.682 179.767 115.682 179.767M92.841 169.715C92.841 169.757 92.841 169.806 92.841 169.869C92.855 169.806 92.848 169.757 92.841 169.715Z" stroke="#263238" stroke-linecap="round" stroke-linejoin="round"/>
<path d="M115.682 179.795C115.682 179.795 107.478 179.949 102.9 176.176" stroke="#263238" stroke-linecap="round" stroke-linejoin="round"/>
<path d="M175.266 217.035C174.496 214.473 179.375 204.708 179.375 204.708L163.975 205.478C163.975 205.478 163.205 212.156 162.176 213.444C161.147 214.732 159.607 212.156 156.009 210.364C155.736 210.224 155.435 210.091 155.127 209.958L154.196 224.595C154.196 224.595 155.547 238.77 171.745 236.075C178.304 234.983 185.304 229.131 191.345 222.551C185.129 221.41 175.854 219.002 175.266 217.035Z" fill="white"/>
<mask id="mask3_264_1723" style="mask-type:luminance" maskUnits="userSpaceOnUse" x="154" y="204" width="38" height="33">
<path d="M175.266 217.035C174.496 214.473 179.375 204.708 179.375 204.708L163.975 205.478C163.975 205.478 163.205 212.156 162.176 213.444C161.147 214.732 159.607 212.156 156.009 210.364C155.736 210.224 155.435 210.091 155.127 209.958L154.196 224.595C154.196 224.595 155.547 238.77 171.745 236.075C178.304 234.983 185.304 229.131 191.345 222.551C185.129 221.41 175.854 219.002 175.266 217.035Z" fill="white"/>
</mask>
<g mask="url(#mask3_264_1723)">
<path d="M174.832 206.647C174.832 206.647 173.901 211.869 173.152 217.644C172.403 223.419 171.85 227.717 171.85 227.717L175.266 217.035L179.116 205.716C179.116 205.716 175.392 205.716 174.832 206.647Z" fill="#B87817"/>
<path opacity="0.5" d="M174.832 206.647C174.832 206.647 173.901 211.869 173.152 217.644C172.403 223.419 171.85 227.717 171.85 227.717L175.266 217.035L179.116 205.716C179.116 205.716 175.392 205.716 174.832 206.647Z" fill="white"/>
</g>
<path d="M175.266 217.035C174.496 214.473 179.375 204.708 179.375 204.708L163.975 205.478C163.975 205.478 163.205 212.156 162.176 213.444C161.147 214.732 159.607 212.156 156.009 210.364C155.736 210.224 155.435 210.091 155.127 209.958L154.196 224.595C154.196 224.595 155.547 238.77 171.745 236.075C178.304 234.983 185.304 229.131 191.345 222.551C185.129 221.41 175.854 219.002 175.266 217.035Z" stroke="#263238" stroke-linecap="round" stroke-linejoin="round"/>
<path d="M162.169 213.444C161.14 214.725 159.6 212.156 156.002 210.364C153.734 209.223 150.122 208.187 147.133 207.067C146.286 205.058 145.166 202.44 144.445 200.858C143.164 198.058 141.106 199.829 141.106 199.829C140.032 198.608 139.165 197.22 138.537 195.72C137.256 192.92 135.198 193.151 132.377 192.64C129.556 192.129 123.641 186.732 123.641 186.732C123.641 186.732 120.876 184.632 119.735 183.589C118.405 186.207 115.22 190.813 108.332 193.69C119.315 205.163 141.596 226.961 143.934 228.599C146.503 230.391 145.733 235.529 143.934 240.667C142.135 245.805 135.457 253.267 135.716 261.471C135.975 269.675 138.516 282.275 138.285 284.844C138.054 287.133 132.93 294.308 131.817 295.848L134.428 296.142H148.022C147.945 289.254 147.952 261.142 152.663 249.942C158.06 237.069 162.169 213.444 162.169 213.444Z" fill="#B87817"/>
<mask id="mask4_264_1723" style="mask-type:luminance" maskUnits="userSpaceOnUse" x="108" y="183" width="55" height="114">
<path d="M162.169 213.444C161.14 214.725 159.6 212.156 156.002 210.364C153.734 209.223 150.122 208.187 147.133 207.067C146.286 205.058 145.166 202.44 144.445 200.858C143.164 198.058 141.106 199.829 141.106 199.829C140.032 198.608 139.165 197.22 138.537 195.72C137.256 192.92 135.198 193.151 132.377 192.64C129.556 192.129 123.641 186.732 123.641 186.732C123.641 186.732 120.876 184.632 119.735 183.589C118.405 186.207 115.22 190.813 108.332 193.69C119.315 205.163 141.596 226.961 143.934 228.599C146.503 230.391 145.733 235.529 143.934 240.667C142.135 245.805 135.457 253.267 135.716 261.471C135.975 269.675 138.516 282.275 138.285 284.844C138.054 287.133 132.93 294.308 131.817 295.848L134.428 296.142H148.022C147.945 289.254 147.952 261.142 152.663 249.942C158.06 237.069 162.169 213.444 162.169 213.444Z" fill="white"/>
</mask>
<g mask="url(#mask4_264_1723)">
<path opacity="0.16" d="M156.002 210.364C153.734 209.223 150.122 208.187 147.133 207.067C146.286 205.058 145.166 202.44 144.445 200.858C143.164 198.058 141.106 199.829 141.106 199.829C140.032 198.608 139.165 197.22 138.537 195.72C137.256 192.92 135.198 193.151 132.377 192.64C129.556 192.129 123.641 186.732 123.641 186.732C123.641 186.732 120.876 184.632 119.735 183.589C119.166 184.701 118.488 185.754 117.712 186.732C122.304 190.617 127.372 194.733 129.143 195.552C132.643 197.169 133.462 195.818 136.143 197.442C138.824 199.066 141.813 204.442 141.813 204.442C141.813 204.442 143.437 200.116 144.788 203.091C146.139 206.066 149.38 211.19 149.38 211.19C149.38 211.19 153.699 213.619 154.777 213.619C155.624 213.619 159.775 215.775 161.539 216.706C161.931 214.655 162.148 213.423 162.148 213.423C161.14 214.725 159.6 212.156 156.002 210.364Z" fill="black"/>
</g>
<path d="M162.169 213.444C161.14 214.725 159.6 212.156 156.002 210.364C153.734 209.223 150.122 208.187 147.133 207.067C146.286 205.058 145.166 202.44 144.445 200.858C143.164 198.058 141.106 199.829 141.106 199.829C140.032 198.608 139.165 197.22 138.537 195.72C137.256 192.92 135.198 193.151 132.377 192.64C129.556 192.129 123.641 186.732 123.641 186.732C123.641 186.732 120.876 184.632 119.735 183.589C118.405 186.207 115.22 190.813 108.332 193.69C119.315 205.163 141.596 226.961 143.934 228.599C146.503 230.391 145.733 235.529 143.934 240.667C142.135 245.805 135.457 253.267 135.716 261.471C135.975 269.675 138.516 282.275 138.285 284.844C138.054 287.133 132.93 294.308 131.817 295.848L134.428 296.142H148.022C147.945 289.254 147.952 261.142 152.663 249.942C158.06 237.069 162.169 213.444 162.169 213.444Z" stroke="#263238" stroke-linecap="round" stroke-linejoin="round"/>
<path d="M162.351 212.548C162.351 212.548 159.159 211.568 157.192 213.29C155.225 215.012 152.292 223.846 150.563 233.429C149.497 239.008 150.233 244.781 152.663 249.914C152.663 249.914 156.702 239.323 157.927 234.164C159.152 229.005 162.351 212.548 162.351 212.548Z" fill="#B87817"/>
<mask id="mask5_264_1723" style="mask-type:luminance" maskUnits="userSpaceOnUse" x="150" y="212" width="13" height="38">
<path d="M162.351 212.548C162.351 212.548 159.159 211.568 157.192 213.29C155.225 215.012 152.292 223.846 150.563 233.429C149.497 239.008 150.233 244.781 152.663 249.914C152.663 249.914 156.702 239.323 157.927 234.164C159.152 229.005 162.351 212.548 162.351 212.548Z" fill="white"/>
</mask>
<g mask="url(#mask5_264_1723)">
<path opacity="0.16" d="M156.226 214.109C156.226 214.109 158.536 213.549 159.488 213.871C160.29 214.215 161.039 214.67 161.714 215.222L162.351 212.548C161.395 212.06 160.312 211.881 159.25 212.037C157.661 212.359 156.226 214.109 156.226 214.109Z" fill="black"/>
</g>
<path d="M162.351 212.548C162.351 212.548 159.159 211.568 157.192 213.29C155.225 215.012 152.292 223.846 150.563 233.429C149.497 239.008 150.233 244.781 152.663 249.914C152.663 249.914 156.702 239.323 157.927 234.164C159.152 229.005 162.351 212.548 162.351 212.548Z" stroke="#263238" stroke-linecap="round" stroke-linejoin="round"/>
<path d="M140.854 213.388L144.963 230.083L135.716 209.02" stroke="#263238" stroke-linecap="round" stroke-linejoin="round"/>
<path d="M167.923 296.142H197.869C197.869 296.142 189.609 285.642 189.609 282.051C189.609 278.46 200.949 232.449 201.46 229.11C201.971 225.771 199.92 223.461 195.811 223.202C191.702 222.943 176.036 219.604 175.266 217.035C175.266 217.035 169.358 237.839 167.307 251.965C165.543 264.082 167.37 289.226 167.923 296.142Z" fill="#B87817"/>
<mask id="mask6_264_1723" style="mask-type:luminance" maskUnits="userSpaceOnUse" x="166" y="217" width="36" height="80">
<path d="M167.923 296.142H197.869C197.869 296.142 189.609 285.642 189.609 282.051C189.609 278.46 200.949 232.449 201.46 229.11C201.971 225.771 199.92 223.461 195.811 223.202C191.702 222.943 176.036 219.604 175.266 217.035C175.266 217.035 169.358 237.839 167.307 251.965C165.543 264.082 167.37 289.226 167.923 296.142Z" fill="white"/>
</mask>
<g mask="url(#mask6_264_1723)">
<path opacity="0.16" d="M195.811 223.202C192.444 222.992 181.321 220.71 176.988 218.484L178.563 222.124C181.417 223.638 184.486 224.705 187.663 225.288C192.878 226.219 197.729 226.037 200.9 230.699L201.054 230.93C201.25 230.034 201.383 229.404 201.425 229.11C201.978 225.771 199.92 223.461 195.811 223.202Z" fill="black"/>
</g>
<path d="M167.923 296.142H197.869C197.869 296.142 189.609 285.642 189.609 282.051C189.609 278.46 200.949 232.449 201.46 229.11C201.971 225.771 199.92 223.461 195.811 223.202C191.702 222.943 176.036 219.604 175.266 217.035C175.266 217.035 169.358 237.839 167.307 251.965C165.543 264.082 167.37 289.226 167.923 296.142Z" stroke="#263238" stroke-linecap="round" stroke-linejoin="round"/>
<path d="M175.266 217.035C175.266 217.035 167.342 242.235 167.307 251.965C167.307 251.965 178.563 238.336 180.033 228.76C181.503 219.184 175.266 217.035 175.266 217.035Z" fill="#B87817"/>
<mask id="mask7_264_1723" style="mask-type:luminance" maskUnits="userSpaceOnUse" x="167" y="217" width="14" height="35">
<path d="M175.266 217.035C175.266 217.035 167.342 242.235 167.307 251.965C167.307 251.965 178.563 238.336 180.033 228.76C181.503 219.184 175.266 217.035 175.266 217.035Z" fill="white"/>
</mask>
<g mask="url(#mask7_264_1723)">
<path opacity="0.16" d="M173.901 220.255C175.092 220.215 176.274 220.466 177.346 220.985C178.418 221.505 179.348 222.278 180.054 223.237C180.054 223.237 178.5 218.666 175.266 217.035L173.901 220.255Z" fill="black"/>
</g>
<path d="M175.266 217.035C175.266 217.035 167.342 242.235 167.307 251.965C167.307 251.965 178.563 238.336 180.033 228.76C181.503 219.184 175.266 217.035 175.266 217.035Z" stroke="#263238" stroke-linecap="round" stroke-linejoin="round"/>
<path d="M259.861 291.403C259.861 291.403 265.664 291.641 269.465 292.187C272 292.531 274.552 292.734 277.109 292.796C277.109 292.796 275.009 288.554 272.769 287.357C270.529 286.16 266.469 284.018 263.067 284.494C259.665 284.97 254.8 288.4 255.206 289.492C255.612 290.584 257.425 291.074 259.861 291.403Z" fill="white"/>
<mask id="mask8_264_1723" style="mask-type:luminance" maskUnits="userSpaceOnUse" x="255" y="284" width="23" height="9">
<path d="M259.861 291.403C259.861 291.403 265.664 291.641 269.465 292.187C272 292.531 274.552 292.734 277.109 292.796C277.109 292.796 275.009 288.554 272.769 287.357C270.529 286.16 266.469 284.018 263.067 284.494C259.665 284.97 254.8 288.4 255.206 289.492C255.612 290.584 257.425 291.074 259.861 291.403Z" fill="white"/>
</mask>
<g mask="url(#mask8_264_1723)">
<path d="M259.861 291.403C259.861 291.403 265.664 291.641 269.465 292.187C272 292.531 274.552 292.734 277.109 292.796C277.109 292.796 275.009 288.554 272.769 287.357C270.529 286.16 266.469 284.018 263.067 284.494C259.665 284.97 254.8 288.4 255.206 289.492C255.612 290.584 257.425 291.074 259.861 291.403Z" fill="#B87817"/>
<path opacity="0.5" d="M259.861 291.403C259.861 291.403 265.664 291.641 269.465 292.187C272 292.531 274.552 292.734 277.109 292.796C277.109 292.796 275.009 288.554 272.769 287.357C270.529 286.16 266.469 284.018 263.067 284.494C259.665 284.97 254.8 288.4 255.206 289.492C255.612 290.584 257.425 291.074 259.861 291.403Z" fill="white"/>
</g>
<path d="M259.861 291.403C259.861 291.403 265.664 291.641 269.465 292.187C272 292.531 274.552 292.734 277.109 292.796C277.109 292.796 275.009 288.554 272.769 287.357C270.529 286.16 266.469 284.018 263.067 284.494C259.665 284.97 254.8 288.4 255.206 289.492C255.612 290.584 257.425 291.074 259.861 291.403Z" stroke="#263238" stroke-linecap="round" stroke-linejoin="round"/>
<path d="M269.5 289.667C269.5 289.667 274.099 287.28 275.247 287.315C276.395 287.35 284.025 292.509 283.647 293.335C283.39 293.718 283.02 294.011 282.588 294.172C282.155 294.332 281.684 294.353 281.239 294.231C280.392 293.832 275.254 291.648 275.254 291.648L271.894 292.439L269.5 289.667Z" fill="white"/>
<mask id="mask9_264_1723" style="mask-type:luminance" maskUnits="userSpaceOnUse" x="269" y="287" width="15" height="8">
<path d="M269.5 289.667C269.5 289.667 274.099 287.28 275.247 287.315C276.395 287.35 284.025 292.509 283.647 293.335C283.39 293.718 283.02 294.011 282.588 294.172C282.155 294.332 281.684 294.353 281.239 294.231C280.392 293.832 275.254 291.648 275.254 291.648L271.894 292.439L269.5 289.667Z" fill="white"/>
</mask>
<g mask="url(#mask9_264_1723)">
<path d="M269.5 289.667C269.5 289.667 274.099 287.28 275.247 287.315C276.395 287.35 284.025 292.509 283.647 293.335C283.269 294.161 281.463 294.833 281.239 294.231C281.015 293.629 275.254 291.648 275.254 291.648L271.894 292.439L269.5 289.667Z" fill="#B87817"/>
<path opacity="0.5" d="M269.5 289.667C269.5 289.667 274.099 287.28 275.247 287.315C276.395 287.35 284.025 292.509 283.647 293.335C283.269 294.161 281.463 294.833 281.239 294.231C281.015 293.629 275.254 291.648 275.254 291.648L271.894 292.439L269.5 289.667Z" fill="white"/>
</g>
<path d="M269.5 289.667C269.5 289.667 274.099 287.28 275.247 287.315C276.395 287.35 284.025 292.509 283.647 293.335C283.39 293.718 283.02 294.011 282.588 294.172C282.155 294.332 281.684 294.353 281.239 294.231C280.392 293.832 275.254 291.648 275.254 291.648L271.894 292.439L269.5 289.667Z" stroke="#263238" stroke-linecap="round" stroke-linejoin="round"/>
<path d="M266.217 285.74C266.217 285.74 272.349 285.544 273.567 286.16C274.785 286.776 280.287 296.212 279.461 296.898C278.635 297.584 276.353 297.381 276.423 296.618C276.493 295.855 271.355 290.801 271.355 290.801L267.358 289.926L266.217 285.74Z" fill="white"/>
<mask id="mask10_264_1723" style="mask-type:luminance" maskUnits="userSpaceOnUse" x="266" y="285" width="14" height="13">
<path d="M266.217 285.74C266.217 285.74 272.349 285.544 273.567 286.16C274.785 286.776 280.287 296.212 279.461 296.898C278.635 297.584 276.353 297.381 276.423 296.618C276.493 295.855 271.355 290.801 271.355 290.801L267.358 289.926L266.217 285.74Z" fill="white"/>
</mask>
<g mask="url(#mask10_264_1723)">
<path d="M266.217 285.74C266.217 285.74 272.349 285.544 273.567 286.16C274.785 286.776 280.287 296.212 279.461 296.898C278.635 297.584 276.353 297.381 276.423 296.618C276.493 295.855 271.355 290.801 271.355 290.801L267.358 289.926L266.217 285.74Z" fill="#B87817"/>
<path opacity="0.5" d="M266.217 285.74C266.217 285.74 272.349 285.544 273.567 286.16C274.785 286.776 280.287 296.212 279.461 296.898C278.635 297.584 276.353 297.381 276.423 296.618C276.493 295.855 271.355 290.801 271.355 290.801L267.358 289.926L266.217 285.74Z" fill="white"/>
</g>
<path d="M266.217 285.74C266.217 285.74 272.349 285.544 273.567 286.16C274.785 286.776 280.287 296.212 279.461 296.898C278.635 297.584 276.353 297.381 276.423 296.618C276.493 295.855 271.355 290.801 271.355 290.801L267.358 289.926L266.217 285.74Z" stroke="#263238" stroke-linecap="round" stroke-linejoin="round"/>
<path d="M262.584 284.473C262.584 284.473 268.793 284.27 270.025 284.9C271.257 285.53 276.829 295.071 275.989 295.771C275.149 296.471 272.853 296.254 272.923 295.484C272.993 294.714 267.792 289.597 267.792 289.597L263.746 288.708L262.584 284.473Z" fill="white"/>
<mask id="mask11_264_1723" style="mask-type:luminance" maskUnits="userSpaceOnUse" x="262" y="284" width="15" height="13">
<path d="M262.584 284.473C262.584 284.473 268.793 284.27 270.025 284.9C271.257 285.53 276.829 295.071 275.989 295.771C275.149 296.471 272.853 296.254 272.923 295.484C272.993 294.714 267.792 289.597 267.792 289.597L263.746 288.708L262.584 284.473Z" fill="white"/>
</mask>
<g mask="url(#mask11_264_1723)">
<path d="M262.584 284.473C262.584 284.473 268.793 284.27 270.025 284.9C271.257 285.53 276.829 295.071 275.989 295.771C275.149 296.471 272.853 296.254 272.923 295.484C272.993 294.714 267.792 289.597 267.792 289.597L263.746 288.708L262.584 284.473Z" fill="#B87817"/>
<path opacity="0.5" d="M262.584 284.473C262.584 284.473 268.793 284.27 270.025 284.9C271.257 285.53 276.829 295.071 275.989 295.771C275.149 296.471 272.853 296.254 272.923 295.484C272.993 294.714 267.792 289.597 267.792 289.597L263.746 288.708L262.584 284.473Z" fill="white"/>
</g>
<path d="M262.584 284.473C262.584 284.473 268.793 284.27 270.025 284.9C271.257 285.53 276.829 295.071 275.989 295.771C275.149 296.471 272.853 296.254 272.923 295.484C272.993 294.714 267.792 289.597 267.792 289.597L263.746 288.708L262.584 284.473Z" stroke="#263238" stroke-linecap="round" stroke-linejoin="round"/>
<path d="M191.989 248.899C196.483 255.822 205.506 273.364 208.138 275.338C212.247 278.418 239.715 285.894 242.361 287.938C245.007 289.982 244.825 292.033 247.331 292.782C249.837 293.531 259.231 295.68 262.815 296.016C266.399 296.352 264.796 294.133 264.796 294.133L258.685 289.933L264.012 288.617C264.012 288.617 269.353 295.043 270.354 295.393C271.355 295.743 273.119 295.393 273.007 294.602C272.811 293.335 267.113 282.968 265.09 282.527C263.067 282.086 250.789 283.787 250.789 283.787C250.789 283.787 225.036 266.42 224.574 265.804C224.574 265.804 223.034 261.436 221.774 259.637C220.514 257.838 219.716 258.356 219.716 258.356C219.716 258.356 220.234 256.039 219.464 255.269L215.355 251.16L215.208 251.356C214.508 249.956 213.808 248.36 213.038 246.54C210.889 241.479 203.28 227.276 201.999 225.225C201.04 223.692 193.004 222.593 188.93 222.131" fill="#B87817"/>
<mask id="mask12_264_1723" style="mask-type:luminance" maskUnits="userSpaceOnUse" x="188" y="222" width="86" height="75">
<path d="M191.989 248.899C196.483 255.822 205.506 273.364 208.138 275.338C212.247 278.418 239.715 285.894 242.361 287.938C245.007 289.982 244.825 292.033 247.331 292.782C249.837 293.531 259.231 295.68 262.815 296.016C266.399 296.352 264.796 294.133 264.796 294.133L258.685 289.933L264.012 288.617C264.012 288.617 269.353 295.043 270.354 295.393C271.355 295.743 273.119 295.393 273.007 294.602C272.811 293.335 267.113 282.968 265.09 282.527C263.067 282.086 250.789 283.787 250.789 283.787C250.789 283.787 225.036 266.42 224.574 265.804C224.574 265.804 223.034 261.436 221.774 259.637C220.514 257.838 219.716 258.356 219.716 258.356C219.716 258.356 220.234 256.039 219.464 255.269L215.355 251.16L215.208 251.356C214.508 249.956 213.808 248.36 213.038 246.54C210.889 241.479 203.28 227.276 201.999 225.225C201.04 223.692 193.004 222.593 188.93 222.131" fill="white"/>
</mask>
<g mask="url(#mask12_264_1723)">
<path opacity="0.16" d="M209.881 249.34C213.241 252.322 212.121 252.322 211.372 254.94C210.623 257.558 211.932 254.009 215.103 254.198C218.274 254.387 217.343 258.482 216.965 259.231C216.587 259.98 220.885 260.911 220.136 262.584C219.387 264.257 215.103 266.686 212.681 269.115C210.259 271.544 219.016 265.195 221.998 265.013C222.908 264.95 223.657 265.069 224.287 265.055C223.626 263.182 222.777 261.381 221.753 259.679C220.465 257.88 219.695 258.398 219.695 258.398C219.695 258.398 220.213 256.081 219.443 255.311L215.334 251.202L215.187 251.398C214.487 249.998 213.787 248.402 213.017 246.582C210.868 241.521 203.259 227.318 201.978 225.267C201.019 223.734 192.983 222.635 188.909 222.173L189.28 225.414L189.371 225.484C189.371 225.484 194.404 226.415 196.084 226.604C197.764 226.793 199.815 228.277 199.626 229.404C199.437 230.531 194.593 235.557 196.084 235.935C197.575 236.313 199.255 232.204 200.935 232.764C202.615 233.324 206.5 246.358 209.881 249.34Z" fill="black"/>
</g>
<path d="M191.989 248.899C196.483 255.822 205.506 273.364 208.138 275.338C212.247 278.418 239.715 285.894 242.361 287.938C245.007 289.982 244.825 292.033 247.331 292.782C249.837 293.531 259.231 295.68 262.815 296.016C266.399 296.352 264.796 294.133 264.796 294.133L258.685 289.933L264.012 288.617C264.012 288.617 269.353 295.043 270.354 295.393C271.355 295.743 273.119 295.393 273.007 294.602C272.811 293.335 267.113 282.968 265.09 282.527C263.067 282.086 250.789 283.787 250.789 283.787C250.789 283.787 225.036 266.42 224.574 265.804C224.574 265.804 223.034 261.436 221.774 259.637C220.514 257.838 219.716 258.356 219.716 258.356C219.716 258.356 220.234 256.039 219.464 255.269L215.355 251.16L215.208 251.356C214.508 249.956 213.808 248.36 213.038 246.54C210.889 241.479 203.28 227.276 201.999 225.225C201.04 223.692 193.004 222.593 188.93 222.131" stroke="#263238" stroke-linecap="round" stroke-linejoin="round"/>
<path d="M192.059 239.4C191.87 240.03 191.709 240.66 191.583 241.304" stroke="#263238" stroke-linecap="round" stroke-linejoin="round"/>
<path d="M198.863 227.815C196.663 230.322 194.808 233.112 193.347 236.11" stroke="#263238" stroke-linecap="round" stroke-linejoin="round"/>
<path d="M209.146 267.561C211.036 264.761 214.046 261.212 217.364 260.197" stroke="#263238" stroke-linecap="round" stroke-linejoin="round"/>
<path d="M207.053 271.005C207.053 271.005 207.389 270.347 207.991 269.353" stroke="#263238" stroke-linecap="round" stroke-linejoin="round"/>
<path d="M207.053 266.581C207.053 266.581 210.49 257.985 213.927 255.773C217.364 253.561 215.397 257.985 215.397 257.985" stroke="#263238" stroke-linecap="round" stroke-linejoin="round"/>
<path d="M242.361 287.945C245.014 289.996 244.825 292.04 247.331 292.789C249.837 293.538 259.231 295.687 262.815 296.023C266.399 296.359 264.796 294.14 264.796 294.14L258.685 289.94L264.012 288.624C264.012 288.624 269.353 295.05 270.354 295.4C271.355 295.75 273.259 295.876 273.007 294.609C272.517 292.159 267.113 282.975 265.09 282.534C263.067 282.093 250.789 283.794 250.789 283.794C250.789 283.794 227.332 267.694 224.763 265.951C214.802 266.91 210.063 272.125 208.068 275.254L208.138 275.31C212.247 278.418 239.715 285.894 242.361 287.945Z" fill="white"/>
<mask id="mask13_264_1723" style="mask-type:luminance" maskUnits="userSpaceOnUse" x="208" y="265" width="66" height="32">
<path d="M242.361 287.945C245.014 289.996 244.825 292.04 247.331 292.789C249.837 293.538 259.231 295.687 262.815 296.023C266.399 296.359 264.796 294.14 264.796 294.14L258.685 289.94L264.012 288.624C264.012 288.624 269.353 295.05 270.354 295.4C271.355 295.75 273.259 295.876 273.007 294.609C272.517 292.159 267.113 282.975 265.09 282.534C263.067 282.093 250.789 283.794 250.789 283.794C250.789 283.794 227.332 267.694 224.763 265.951C214.802 266.91 210.063 272.125 208.068 275.254L208.138 275.31C212.247 278.418 239.715 285.894 242.361 287.945Z" fill="white"/>
</mask>
<g mask="url(#mask13_264_1723)">
<path d="M273 294.637C271.726 291.522 267.106 283.003 265.083 282.562C263.06 282.121 250.782 283.822 250.782 283.822C250.782 283.822 227.325 267.722 224.756 265.979C222.141 266.207 219.576 266.827 217.147 267.82C220.85 269.92 245.532 283.92 248.647 284.543C251.951 285.243 262.976 283.43 264.915 284.732C266.147 285.558 269.815 291.375 272.293 295.505C273 295.4 273.259 295.267 273 294.637Z" fill="#B87817"/>
<path opacity="0.5" d="M273 294.637C271.012 290.178 267.106 283.003 265.083 282.562C263.06 282.121 250.782 283.822 250.782 283.822C250.782 283.822 227.325 267.722 224.756 265.979C222.141 266.207 219.576 266.827 217.147 267.82C220.85 269.92 245.532 283.92 248.647 284.543C251.951 285.243 262.976 283.43 264.915 284.732C266.147 285.558 269.815 291.375 272.293 295.505C273 295.4 273.28 295.26 273 294.637Z" fill="white"/>
</g>
<path d="M242.361 287.945C245.014 289.996 244.825 292.04 247.331 292.789C249.837 293.538 259.231 295.687 262.815 296.023C266.399 296.359 264.796 294.14 264.796 294.14L258.685 289.94L264.012 288.624C264.012 288.624 269.353 295.05 270.354 295.4C271.355 295.75 273.259 295.876 273.007 294.609C272.517 292.159 267.113 282.975 265.09 282.534C263.067 282.093 250.789 283.794 250.789 283.794C250.789 283.794 227.332 267.694 224.763 265.951C214.802 266.91 210.063 272.125 208.068 275.254L208.138 275.31C212.247 278.418 239.715 285.894 242.361 287.945Z" stroke="#263238" stroke-linecap="round" stroke-linejoin="round"/>
<path d="M180.495 165.711L159.411 174.51C159.155 178.216 158.238 181.845 156.702 185.227C154.21 190.498 155.666 200.473 158.06 205.856C160.454 211.239 171.003 209.132 174.86 208.46C177.476 207.963 180.038 207.215 182.511 206.227C183.637 206.661 184.855 206.801 186.05 206.635C187.245 206.468 188.379 206 189.343 205.275C189.343 205.275 178.059 173.6 180.495 165.711Z" fill="white"/>
<mask id="mask14_264_1723" style="mask-type:luminance" maskUnits="userSpaceOnUse" x="155" y="165" width="35" height="45">
<path d="M180.495 165.711L159.411 174.51C159.155 178.216 158.238 181.845 156.702 185.227C154.21 190.498 155.666 200.473 158.06 205.856C160.454 211.239 171.003 209.132 174.86 208.46C177.476 207.963 180.038 207.215 182.511 206.227C183.637 206.661 184.855 206.801 186.05 206.635C187.245 206.468 188.379 206 189.343 205.275C189.343 205.275 178.059 173.6 180.495 165.711Z" fill="white"/>
</mask>
<g mask="url(#mask14_264_1723)">
<path d="M180.495 165.711L159.411 174.51C159.155 178.216 158.238 181.845 156.702 185.227C154.21 190.498 155.666 200.473 158.06 205.856C158.461 206.722 159.105 207.452 159.915 207.956V207.55C159.915 207.55 156.002 197.855 156.744 192.262C157.486 186.669 160.664 183.862 161.035 180.327C161.406 176.792 161.217 175.112 168.308 172.501C175.399 169.89 178.374 167.468 179.116 170.072C179.858 172.676 182.847 189.84 184.898 193.942C186.949 198.044 186.76 202.342 183.596 204.197C180.398 206.117 176.972 207.627 173.397 208.691L174.888 208.432C177.504 207.935 180.066 207.187 182.539 206.199C183.665 206.633 184.883 206.773 186.078 206.607C187.273 206.44 188.407 205.972 189.371 205.247C189.371 205.247 178.059 173.6 180.495 165.711Z" fill="#B87817"/>
<path opacity="0.5" d="M180.495 165.711L159.411 174.51C159.155 178.216 158.238 181.845 156.702 185.227C154.21 190.498 155.666 200.473 158.06 205.856C158.461 206.722 159.105 207.452 159.915 207.956V207.55C159.915 207.55 156.002 197.855 156.744 192.262C157.486 186.669 160.664 183.862 161.035 180.327C161.406 176.792 161.217 175.112 168.308 172.501C175.399 169.89 178.374 167.468 179.116 170.072C179.858 172.676 182.847 189.84 184.898 193.942C186.949 198.044 186.76 202.342 183.596 204.197C180.398 206.117 176.972 207.627 173.397 208.691L174.888 208.432C177.504 207.935 180.066 207.187 182.539 206.199C183.665 206.633 184.883 206.773 186.078 206.607C187.273 206.44 188.407 205.972 189.371 205.247C189.371 205.247 178.059 173.6 180.495 165.711Z" fill="white"/>
</g>
<path d="M180.495 165.711L159.411 174.51C159.155 178.216 158.238 181.845 156.702 185.227C154.21 190.498 155.666 200.473 158.06 205.856C160.454 211.239 171.003 209.132 174.86 208.46C177.476 207.963 180.038 207.215 182.511 206.227C183.637 206.661 184.855 206.801 186.05 206.635C187.245 206.468 188.379 206 189.343 205.275C189.343 205.275 178.059 173.6 180.495 165.711Z" stroke="#263238" stroke-linecap="round" stroke-linejoin="round"/>
<path d="M169.841 179.508C169.898 180.748 169.744 181.988 169.386 183.176C168.826 184.576 163.541 190.078 163.702 190.673C163.863 191.268 164.339 193.179 165.277 193.361" stroke="#263238" stroke-linecap="round" stroke-linejoin="round"/>
<path d="M175.7 184.429C176.435 182.959 178.85 184.394 178.815 187.705" stroke="#263238" stroke-linecap="round" stroke-linejoin="round"/>
<path d="M163.73 180.103C163.73 180.103 165.788 179.2 167.629 182.532" stroke="#263238" stroke-linecap="round" stroke-linejoin="round"/>
<path d="M172.774 189.28C175.152 189.4 177.413 190.348 179.165 191.961" stroke="#263238" stroke-width="0.5" stroke-linecap="round" stroke-linejoin="round"/>
<path d="M161.245 184.905C162.475 185.069 163.676 185.401 164.815 185.892" stroke="#263238" stroke-width="0.5" stroke-linecap="round" stroke-linejoin="round"/>
<path d="M169.61 176.4C169.066 176.113 168.464 175.955 167.849 175.941C167.234 175.926 166.625 176.055 166.068 176.316C164.185 177.219 163.03 178.213 163.156 177.058C163.282 175.903 165.494 174.629 166.159 174.461C166.824 174.293 169.799 173.831 169.61 176.4Z" fill="#263238"/>
<path d="M174.888 173.789C176.85 175.377 178.409 177.406 179.438 179.711C180.838 183.211 181.944 179.389 180.838 177.1C179.732 174.811 176.533 172.375 174.888 173.789Z" fill="#263238"/>
<path d="M189.651 211.26C189.651 212.891 188.727 214.214 187.593 214.214C186.459 214.214 185.542 212.891 185.542 211.26C185.542 209.629 186.459 205.478 187.593 205.478C188.727 205.478 189.651 209.629 189.651 211.26Z" fill="#B87817" stroke="#263238" stroke-linecap="round" stroke-linejoin="round"/>
<path d="M175.882 183.792C175.802 184.006 175.738 184.226 175.693 184.45C175.49 185.486 175.287 187.649 175.693 187.74C176.099 187.831 177.093 185.808 177.268 184.772C177.307 184.569 177.331 184.363 177.338 184.156C176.86 184.006 176.374 183.885 175.882 183.792Z" fill="#263238"/>
<path d="M163.94 179.9C163.878 180.083 163.829 180.27 163.793 180.46C163.583 181.496 163.59 183.771 164.031 183.855C164.472 183.939 165.193 181.811 165.396 180.775C165.447 180.524 165.475 180.269 165.48 180.012C164.979 179.874 164.456 179.836 163.94 179.9Z" fill="#263238"/>
<path d="M175.7 184.464L176.4 183.162C177.51 183.378 178.515 183.96 179.256 184.814" stroke="#263238" stroke-width="0.75" stroke-linecap="round" stroke-linejoin="round"/>
<path d="M163.94 179.9L164.64 179.081C164.64 179.081 164.941 178.934 166.593 179.683" stroke="#263238" stroke-width="0.75" stroke-linecap="round" stroke-linejoin="round"/>
<path d="M161.287 198.884C161.287 198.884 162.463 196.721 164.038 196.721C165.613 196.721 166.789 200.256 166.789 200.256" stroke="#263238" stroke-linecap="round" stroke-linejoin="round"/>
<path d="M110.6 292.166C109.078 292.09 107.583 291.734 106.19 291.116C105.996 291.044 105.818 290.934 105.668 290.791C105.518 290.648 105.399 290.477 105.317 290.286C105.235 290.096 105.193 289.891 105.193 289.684C105.193 289.477 105.236 289.272 105.317 289.082C105.399 288.892 105.519 288.72 105.669 288.578C105.819 288.435 105.997 288.325 106.191 288.253C106.386 288.181 106.592 288.15 106.799 288.161C107.006 288.172 107.208 288.224 107.394 288.316C108.794 288.911 110.607 289.282 111.09 289.072C111.979 288.078 113.344 282.072 111.58 279.174C111.181 278.53 110.81 278.411 110.565 278.383C109.564 278.243 108.08 279.272 107.555 279.783C107.409 279.921 107.237 280.029 107.049 280.1C106.861 280.171 106.661 280.205 106.461 280.199C106.26 280.194 106.062 280.148 105.879 280.066C105.695 279.984 105.53 279.866 105.392 279.72C105.254 279.574 105.146 279.402 105.075 279.214C105.004 279.026 104.97 278.826 104.976 278.625C104.981 278.425 105.027 278.227 105.109 278.043C105.191 277.86 105.309 277.695 105.455 277.557C105.728 277.291 108.255 275.016 110.95 275.38C111.619 275.478 112.255 275.728 112.811 276.111C113.367 276.495 113.828 277.002 114.156 277.592C116.753 281.827 114.975 289.884 112.98 291.48C112.287 291.97 111.448 292.212 110.6 292.166Z" fill="white"/>
<mask id="mask15_264_1723" style="mask-type:luminance" maskUnits="userSpaceOnUse" x="104" y="275" width="12" height="18">
<path d="M110.6 292.166C109.078 292.09 107.583 291.734 106.19 291.116C105.996 291.044 105.818 290.934 105.668 290.791C105.518 290.648 105.399 290.477 105.317 290.286C105.235 290.096 105.193 289.891 105.193 289.684C105.193 289.477 105.236 289.272 105.317 289.082C105.399 288.892 105.519 288.72 105.669 288.578C105.819 288.435 105.997 288.325 106.191 288.253C106.386 288.181 106.592 288.15 106.799 288.161C107.006 288.172 107.208 288.224 107.394 288.316C108.794 288.911 110.607 289.282 111.09 289.072C111.979 288.078 113.344 282.072 111.58 279.174C111.181 278.53 110.81 278.411 110.565 278.383C109.564 278.243 108.08 279.272 107.555 279.783C107.409 279.921 107.237 280.029 107.049 280.1C106.861 280.171 106.661 280.205 106.461 280.199C106.26 280.194 106.062 280.148 105.879 280.066C105.695 279.984 105.53 279.866 105.392 279.72C105.254 279.574 105.146 279.402 105.075 279.214C105.004 279.026 104.97 278.826 104.976 278.625C104.981 278.425 105.027 278.227 105.109 278.043C105.191 277.86 105.309 277.695 105.455 277.557C105.728 277.291 108.255 275.016 110.95 275.38C111.619 275.478 112.255 275.728 112.811 276.111C113.367 276.495 113.828 277.002 114.156 277.592C116.753 281.827 114.975 289.884 112.98 291.48C112.287 291.97 111.448 292.212 110.6 292.166Z" fill="white"/>
</mask>
<g mask="url(#mask15_264_1723)">
<path d="M112.651 278.712C112.468 278.277 112.18 277.894 111.814 277.596C111.448 277.298 111.014 277.095 110.551 277.004C108.801 276.724 107.156 278.481 106.974 278.677C106.807 278.878 106.703 279.125 106.677 279.386C106.651 279.646 106.703 279.909 106.827 280.14C107.102 280.085 107.357 279.954 107.562 279.762C108.087 279.272 109.571 278.243 110.572 278.362C110.817 278.362 111.188 278.509 111.587 279.153C113.351 282.023 111.986 288.057 111.097 289.051C110.614 289.261 108.808 288.89 107.401 288.295C107.228 288.222 107.043 288.182 106.855 288.176C106.868 288.368 106.928 288.553 107.031 288.716C107.134 288.878 107.275 289.013 107.443 289.107C108.328 289.58 109.305 289.856 110.306 289.919C110.878 289.946 111.437 289.75 111.867 289.373C113.183 288.162 114.345 281.967 112.651 278.712Z" fill="#B87817"/>
<path opacity="0.5" d="M112.651 278.712C112.468 278.277 112.18 277.894 111.814 277.596C111.448 277.298 111.014 277.095 110.551 277.004C108.801 276.724 107.156 278.481 106.974 278.677C106.807 278.878 106.703 279.125 106.677 279.386C106.651 279.646 106.703 279.909 106.827 280.14C107.102 280.085 107.357 279.954 107.562 279.762C108.087 279.272 109.571 278.243 110.572 278.362C110.817 278.362 111.188 278.509 111.587 279.153C113.351 282.023 111.986 288.057 111.097 289.051C110.614 289.261 108.808 288.89 107.401 288.295C107.228 288.222 107.043 288.182 106.855 288.176C106.868 288.368 106.928 288.553 107.031 288.716C107.134 288.878 107.275 289.013 107.443 289.107C108.328 289.58 109.305 289.856 110.306 289.919C110.878 289.946 111.437 289.75 111.867 289.373C113.183 288.162 114.345 281.967 112.651 278.712Z" fill="white"/>
</g>
<path d="M110.6 292.166C109.078 292.09 107.583 291.734 106.19 291.116C105.996 291.044 105.818 290.934 105.668 290.791C105.518 290.648 105.399 290.477 105.317 290.286C105.235 290.096 105.193 289.891 105.193 289.684C105.193 289.477 105.236 289.272 105.317 289.082C105.399 288.892 105.519 288.72 105.669 288.578C105.819 288.435 105.997 288.325 106.191 288.253C106.386 288.181 106.592 288.15 106.799 288.161C107.006 288.172 107.208 288.224 107.394 288.316C108.794 288.911 110.607 289.282 111.09 289.072C111.979 288.078 113.344 282.072 111.58 279.174C111.181 278.53 110.81 278.411 110.565 278.383C109.564 278.243 108.08 279.272 107.555 279.783C107.409 279.921 107.237 280.029 107.049 280.1C106.861 280.171 106.661 280.205 106.461 280.199C106.26 280.194 106.062 280.148 105.879 280.066C105.695 279.984 105.53 279.866 105.392 279.72C105.254 279.574 105.146 279.402 105.075 279.214C105.004 279.026 104.97 278.826 104.976 278.625C104.981 278.425 105.027 278.227 105.109 278.043C105.191 277.86 105.309 277.695 105.455 277.557C105.728 277.291 108.255 275.016 110.95 275.38C111.619 275.478 112.255 275.728 112.811 276.111C113.367 276.495 113.828 277.002 114.156 277.592C116.753 281.827 114.975 289.884 112.98 291.48C112.287 291.97 111.448 292.212 110.6 292.166Z" stroke="#263238" stroke-linecap="round" stroke-linejoin="round"/>
<path d="M107.926 274.106H91.0911V296.45H107.926V274.106Z" fill="white"/>
<mask id="mask16_264_1723" style="mask-type:luminance" maskUnits="userSpaceOnUse" x="91" y="274" width="17" height="23">
<path d="M107.926 274.106H91.0911V296.45H107.926V274.106Z" fill="white"/>
</mask>
<g mask="url(#mask16_264_1723)">
<path d="M97.9861 274.106H91.0911V296.45H97.9861V274.106Z" fill="#B87817"/>
<path opacity="0.5" d="M97.9861 274.106H91.0911V296.45H97.9861V274.106Z" fill="white"/>
</g>
<path d="M107.926 274.106H91.0911V296.45H107.926V274.106Z" stroke="#263238" stroke-linecap="round" stroke-linejoin="round"/>
<path d="M240.086 52.5H110.145C105.765 52.5 102.214 56.0508 102.214 60.431V134.988C102.214 139.368 105.765 142.919 110.145 142.919H240.086C244.466 142.919 248.017 139.368 248.017 134.988V60.431C248.017 56.0508 244.466 52.5 240.086 52.5Z" fill="#B87817"/>
<path d="M178.544 104.461C190.331 102.567 198.351 91.476 196.456 79.6891C194.562 67.9021 183.471 59.8826 171.684 61.7769C159.897 63.6712 151.878 74.762 153.772 86.5489C155.666 98.3359 166.757 106.355 178.544 104.461Z" fill="#263238"/>
<path d="M174.951 87.1151L167.748 96.3621C167.503 96.747 167.166 97.065 166.768 97.2874C166.37 97.5098 165.922 97.6296 165.466 97.6361C164.84 97.6446 164.236 97.4056 163.786 96.9711C163.557 96.7611 163.376 96.5042 163.255 96.2179C163.134 95.9316 163.077 95.6227 163.086 95.3121C163.109 94.6165 163.354 93.9466 163.786 93.4011L171.997 83.2441L164.297 73.0801C163.939 72.6031 163.743 72.0243 163.737 71.4281C163.735 71.0725 163.807 70.7204 163.948 70.3939C164.089 70.0674 164.296 69.7736 164.556 69.5311C164.8 69.2761 165.094 69.0733 165.418 68.9349C165.743 68.7965 166.093 68.7255 166.446 68.7261C166.898 68.7334 167.341 68.8538 167.735 69.0764C168.129 69.2989 168.46 69.6165 168.7 70.0001L175.658 79.1631L182.658 70.1541C182.908 69.7338 183.258 69.3817 183.677 69.1289C184.096 68.8762 184.57 68.7306 185.059 68.7051C185.362 68.7043 185.662 68.7661 185.94 68.8865C186.219 69.007 186.469 69.1835 186.676 69.4051C186.897 69.6128 187.072 69.8633 187.193 70.1414C187.313 70.4194 187.375 70.7191 187.376 71.0221C187.368 71.5643 187.181 72.0886 186.844 72.5131L178.605 83.0551L186.564 93.5551C186.94 94.0244 187.15 94.6056 187.159 95.2071C187.161 95.5549 187.088 95.899 186.944 96.2157C186.8 96.5323 186.589 96.814 186.326 97.0411C185.812 97.535 185.127 97.8109 184.415 97.8111C183.961 97.8054 183.515 97.6859 183.118 97.4633C182.722 97.2407 182.388 96.9222 182.147 96.5371L174.951 87.1151Z" fill="white"/>
<path d="M216.3 127.26H133.903C132.232 127.26 130.63 126.596 129.448 125.415C128.267 124.233 127.603 122.631 127.603 120.96C127.603 119.289 128.267 117.687 129.448 116.505C130.63 115.324 132.232 114.66 133.903 114.66H216.3C217.971 114.66 219.573 115.324 220.755 116.505C221.936 117.687 222.6 119.289 222.6 120.96C222.6 122.631 221.936 124.233 220.755 125.415C219.573 126.596 217.971 127.26 216.3 127.26Z" fill="white"/>
<path d="M145.194 122.99C145.139 122.99 145.085 122.979 145.034 122.957C144.984 122.936 144.938 122.904 144.9 122.864C144.859 122.823 144.826 122.774 144.804 122.72C144.783 122.665 144.772 122.607 144.774 122.549C144.774 122.451 144.801 122.354 144.851 122.269L145.481 121.289H144.193C144.133 121.292 144.074 121.282 144.018 121.261C143.963 121.239 143.913 121.206 143.871 121.163C143.799 121.079 143.76 120.973 143.76 120.862C143.76 120.752 143.799 120.645 143.871 120.561C143.913 120.518 143.963 120.485 144.018 120.463C144.074 120.442 144.133 120.432 144.193 120.435L145.46 120.47L144.9 119.56C144.844 119.467 144.813 119.361 144.809 119.252C144.807 119.194 144.818 119.136 144.839 119.082C144.861 119.027 144.894 118.978 144.935 118.937C144.974 118.897 145.021 118.865 145.073 118.844C145.124 118.822 145.18 118.811 145.236 118.811C145.314 118.81 145.391 118.832 145.457 118.874C145.523 118.917 145.575 118.977 145.607 119.049L146.223 120.148L146.811 119.098C146.848 119.016 146.907 118.946 146.981 118.896C147.055 118.845 147.141 118.816 147.231 118.811C147.286 118.811 147.34 118.822 147.391 118.844C147.442 118.866 147.487 118.897 147.525 118.937C147.566 118.976 147.598 119.022 147.62 119.074C147.642 119.126 147.652 119.182 147.651 119.238C147.65 119.337 147.621 119.435 147.567 119.518L146.951 120.505L148.232 120.47C148.292 120.467 148.351 120.476 148.407 120.498C148.462 120.52 148.513 120.553 148.554 120.596C148.626 120.68 148.666 120.787 148.666 120.897C148.666 121.008 148.626 121.114 148.554 121.198C148.513 121.241 148.462 121.275 148.407 121.296C148.351 121.318 148.292 121.328 148.232 121.324H146.937L147.511 122.22C147.576 122.328 147.612 122.451 147.616 122.577C147.618 122.634 147.609 122.69 147.588 122.743C147.568 122.796 147.537 122.844 147.497 122.885C147.46 122.924 147.416 122.956 147.366 122.977C147.317 122.999 147.264 123.011 147.21 123.011C147.123 123.009 147.039 122.982 146.967 122.934C146.895 122.885 146.839 122.818 146.804 122.738L146.223 121.709L145.642 122.738C145.6 122.819 145.535 122.886 145.456 122.931C145.376 122.976 145.285 122.996 145.194 122.99Z" fill="black"/>
<path d="M151.62 122.99C151.565 122.99 151.511 122.979 151.46 122.957C151.409 122.935 151.364 122.904 151.326 122.864C151.285 122.823 151.252 122.774 151.23 122.719C151.209 122.665 151.198 122.607 151.2 122.549C151.2 122.45 151.226 122.354 151.277 122.269L151.907 121.289H150.619C150.559 121.292 150.5 121.282 150.444 121.261C150.389 121.239 150.339 121.206 150.297 121.163C150.225 121.079 150.185 120.972 150.185 120.862C150.185 120.751 150.225 120.645 150.297 120.561C150.339 120.518 150.389 120.485 150.444 120.463C150.5 120.442 150.559 120.432 150.619 120.435L151.886 120.47L151.291 119.525C151.235 119.432 151.203 119.326 151.2 119.217C151.198 119.159 151.209 119.101 151.23 119.046C151.252 118.992 151.285 118.943 151.326 118.902C151.365 118.862 151.412 118.83 151.464 118.809C151.515 118.787 151.571 118.776 151.627 118.776C151.705 118.775 151.782 118.797 151.848 118.839C151.914 118.881 151.966 118.942 151.998 119.014L152.614 120.113L153.202 119.063C153.239 118.981 153.298 118.911 153.372 118.861C153.446 118.81 153.532 118.781 153.622 118.776C153.677 118.776 153.731 118.787 153.782 118.809C153.832 118.83 153.878 118.862 153.916 118.902C153.957 118.94 153.989 118.987 154.011 119.039C154.033 119.091 154.043 119.147 154.042 119.203C154.041 119.302 154.012 119.399 153.958 119.483L153.342 120.47L154.623 120.435C154.683 120.431 154.742 120.441 154.798 120.463C154.853 120.484 154.904 120.518 154.945 120.561C155.017 120.645 155.056 120.751 155.056 120.862C155.056 120.972 155.017 121.079 154.945 121.163C154.904 121.206 154.853 121.239 154.798 121.261C154.742 121.283 154.683 121.292 154.623 121.289H153.328L153.902 122.185C153.967 122.293 154.003 122.416 154.007 122.542C154.009 122.599 153.999 122.655 153.979 122.708C153.959 122.761 153.928 122.809 153.888 122.85C153.851 122.889 153.807 122.921 153.757 122.942C153.708 122.964 153.655 122.975 153.601 122.976C153.514 122.975 153.429 122.948 153.357 122.9C153.285 122.851 153.229 122.783 153.195 122.703L152.614 121.674L152.033 122.703C151.998 122.785 151.941 122.856 151.868 122.906C151.795 122.957 151.709 122.986 151.62 122.99Z" fill="black"/>
<path d="M158.046 122.99C157.991 122.99 157.937 122.979 157.886 122.957C157.835 122.935 157.79 122.904 157.752 122.864C157.711 122.823 157.678 122.774 157.656 122.719C157.635 122.665 157.624 122.607 157.626 122.549C157.626 122.45 157.652 122.354 157.703 122.269L158.333 121.289H157.045C156.985 121.292 156.926 121.282 156.87 121.261C156.815 121.239 156.765 121.206 156.723 121.163C156.651 121.079 156.611 120.972 156.611 120.862C156.611 120.751 156.651 120.645 156.723 120.561C156.765 120.518 156.815 120.485 156.87 120.463C156.926 120.442 156.985 120.432 157.045 120.435L158.312 120.47L157.717 119.525C157.661 119.432 157.629 119.326 157.626 119.217C157.624 119.159 157.635 119.101 157.656 119.046C157.678 118.992 157.711 118.943 157.752 118.902C157.791 118.862 157.838 118.83 157.89 118.809C157.941 118.787 157.997 118.776 158.053 118.776C158.131 118.775 158.208 118.797 158.274 118.839C158.34 118.881 158.392 118.942 158.424 119.014L159.04 120.113L159.628 119.063C159.665 118.981 159.724 118.911 159.798 118.861C159.872 118.81 159.958 118.781 160.048 118.776C160.103 118.776 160.157 118.787 160.208 118.809C160.258 118.83 160.304 118.862 160.342 118.902C160.383 118.94 160.415 118.987 160.437 119.039C160.459 119.091 160.469 119.147 160.468 119.203C160.467 119.302 160.438 119.399 160.384 119.483L159.768 120.47L161.049 120.435C161.109 120.431 161.168 120.441 161.224 120.463C161.279 120.484 161.33 120.518 161.371 120.561C161.443 120.645 161.482 120.751 161.482 120.862C161.482 120.972 161.443 121.079 161.371 121.163C161.33 121.206 161.279 121.239 161.224 121.261C161.168 121.283 161.109 121.292 161.049 121.289H159.754L160.328 122.185C160.393 122.293 160.429 122.416 160.433 122.542C160.435 122.599 160.425 122.655 160.405 122.708C160.385 122.761 160.354 122.809 160.314 122.85C160.277 122.889 160.233 122.921 160.183 122.942C160.134 122.964 160.081 122.975 160.027 122.976C159.94 122.975 159.855 122.948 159.783 122.9C159.711 122.851 159.655 122.783 159.621 122.703L159.04 121.674L158.459 122.703C158.424 122.785 158.367 122.856 158.294 122.906C158.221 122.957 158.135 122.986 158.046 122.99Z" fill="black"/>
<path d="M164.5 122.99C164.445 122.99 164.391 122.979 164.34 122.957C164.289 122.935 164.244 122.904 164.206 122.864C164.165 122.823 164.132 122.774 164.11 122.719C164.089 122.665 164.078 122.607 164.08 122.549C164.08 122.45 164.106 122.354 164.157 122.269L164.787 121.289H163.499C163.439 121.292 163.38 121.282 163.324 121.261C163.269 121.239 163.219 121.206 163.177 121.163C163.105 121.079 163.065 120.972 163.065 120.862C163.065 120.751 163.105 120.645 163.177 120.561C163.219 120.518 163.269 120.485 163.324 120.463C163.38 120.442 163.439 120.432 163.499 120.435L164.766 120.47L164.171 119.525C164.115 119.432 164.083 119.326 164.08 119.217C164.078 119.159 164.089 119.101 164.11 119.046C164.132 118.992 164.165 118.943 164.206 118.902C164.245 118.862 164.292 118.83 164.344 118.809C164.395 118.787 164.451 118.776 164.507 118.776C164.585 118.775 164.662 118.797 164.728 118.839C164.794 118.881 164.846 118.942 164.878 119.014L165.494 120.113L166.082 119.063C166.119 118.981 166.178 118.911 166.252 118.861C166.326 118.81 166.412 118.781 166.502 118.776C166.557 118.776 166.611 118.787 166.662 118.809C166.712 118.83 166.758 118.862 166.796 118.902C166.837 118.94 166.869 118.987 166.891 119.039C166.913 119.091 166.923 119.147 166.922 119.203C166.921 119.302 166.892 119.399 166.838 119.483L166.222 120.47L167.503 120.435C167.563 120.431 167.622 120.441 167.678 120.463C167.733 120.484 167.784 120.518 167.825 120.561C167.897 120.645 167.936 120.751 167.936 120.862C167.936 120.972 167.897 121.079 167.825 121.163C167.784 121.206 167.733 121.239 167.678 121.261C167.622 121.283 167.563 121.292 167.503 121.289H166.208L166.782 122.185C166.847 122.293 166.883 122.416 166.887 122.542C166.889 122.599 166.879 122.655 166.859 122.708C166.839 122.761 166.808 122.809 166.768 122.85C166.731 122.889 166.687 122.921 166.637 122.942C166.588 122.964 166.535 122.975 166.481 122.976C166.394 122.974 166.31 122.947 166.238 122.899C166.166 122.85 166.11 122.782 166.075 122.703L165.494 121.674L164.913 122.703C164.878 122.785 164.821 122.856 164.748 122.906C164.675 122.957 164.589 122.986 164.5 122.99Z" fill="black"/>
<path d="M170.898 122.99C170.843 122.99 170.789 122.979 170.738 122.957C170.688 122.935 170.642 122.904 170.604 122.864C170.563 122.823 170.53 122.774 170.508 122.719C170.487 122.665 170.476 122.607 170.478 122.549C170.481 122.451 170.508 122.355 170.555 122.269L171.185 121.289H169.897C169.837 121.292 169.778 121.282 169.722 121.261C169.667 121.239 169.617 121.206 169.575 121.163C169.503 121.079 169.464 120.972 169.464 120.862C169.464 120.751 169.503 120.645 169.575 120.561C169.617 120.518 169.667 120.485 169.722 120.463C169.778 120.442 169.837 120.432 169.897 120.435L171.164 120.47L170.569 119.525C170.513 119.432 170.482 119.326 170.478 119.217C170.476 119.159 170.487 119.101 170.508 119.046C170.53 118.992 170.563 118.943 170.604 118.902C170.643 118.862 170.69 118.83 170.742 118.809C170.793 118.787 170.849 118.776 170.905 118.776C170.983 118.775 171.06 118.797 171.126 118.839C171.192 118.881 171.244 118.942 171.276 119.014L171.892 120.113L172.48 119.063C172.517 118.981 172.576 118.911 172.65 118.861C172.724 118.81 172.81 118.781 172.9 118.776C172.955 118.775 173.01 118.786 173.06 118.808C173.111 118.829 173.157 118.861 173.194 118.902C173.235 118.94 173.267 118.987 173.289 119.039C173.311 119.091 173.321 119.147 173.32 119.203C173.319 119.302 173.29 119.399 173.236 119.483L172.62 120.47L173.901 120.435C173.961 120.431 174.02 120.441 174.076 120.463C174.131 120.484 174.182 120.518 174.223 120.561C174.295 120.645 174.335 120.751 174.335 120.862C174.335 120.972 174.295 121.079 174.223 121.163C174.182 121.206 174.131 121.239 174.076 121.261C174.02 121.283 173.961 121.292 173.901 121.289H172.606L173.18 122.185C173.245 122.293 173.281 122.416 173.285 122.542C173.287 122.599 173.278 122.655 173.257 122.708C173.237 122.761 173.206 122.809 173.166 122.85C173.129 122.889 173.085 122.921 173.035 122.942C172.986 122.964 172.933 122.975 172.879 122.976C172.792 122.974 172.708 122.947 172.636 122.899C172.564 122.85 172.508 122.782 172.473 122.703L171.892 121.674L171.311 122.703C171.277 122.785 171.219 122.856 171.146 122.906C171.073 122.957 170.987 122.986 170.898 122.99Z" fill="black"/>
<path d="M177.324 122.99C177.269 122.99 177.215 122.979 177.164 122.957C177.114 122.935 177.068 122.904 177.03 122.864C176.989 122.823 176.956 122.774 176.934 122.719C176.913 122.665 176.902 122.607 176.904 122.549C176.907 122.451 176.934 122.355 176.981 122.269L177.611 121.289H176.33C176.269 121.293 176.209 121.283 176.152 121.261C176.095 121.24 176.044 121.206 176.001 121.163C175.929 121.079 175.89 120.972 175.89 120.862C175.89 120.751 175.929 120.645 176.001 120.561C176.044 120.518 176.095 120.484 176.152 120.462C176.209 120.441 176.269 120.431 176.33 120.435L177.59 120.47L176.995 119.525C176.939 119.432 176.908 119.326 176.904 119.217C176.902 119.159 176.913 119.101 176.934 119.046C176.956 118.992 176.989 118.943 177.03 118.902C177.069 118.862 177.116 118.83 177.168 118.809C177.219 118.787 177.275 118.776 177.331 118.776C177.409 118.775 177.486 118.797 177.552 118.839C177.618 118.881 177.67 118.942 177.702 119.014L178.318 120.113L178.906 119.063C178.943 118.981 179.002 118.911 179.076 118.861C179.15 118.81 179.236 118.781 179.326 118.776C179.381 118.775 179.436 118.786 179.486 118.808C179.537 118.829 179.583 118.861 179.62 118.902C179.661 118.94 179.693 118.987 179.715 119.039C179.737 119.091 179.747 119.147 179.746 119.203C179.745 119.302 179.716 119.399 179.662 119.483L179.046 120.47L180.327 120.435C180.387 120.431 180.446 120.441 180.502 120.463C180.557 120.484 180.608 120.518 180.649 120.561C180.721 120.645 180.761 120.751 180.761 120.862C180.761 120.972 180.721 121.079 180.649 121.163C180.608 121.206 180.557 121.239 180.502 121.261C180.446 121.283 180.387 121.292 180.327 121.289H179.032L179.606 122.185C179.671 122.293 179.707 122.416 179.711 122.542C179.713 122.599 179.704 122.655 179.683 122.708C179.663 122.761 179.632 122.809 179.592 122.85C179.555 122.889 179.511 122.921 179.461 122.942C179.412 122.964 179.359 122.975 179.305 122.976C179.218 122.974 179.134 122.947 179.062 122.899C178.99 122.85 178.934 122.782 178.899 122.703L178.318 121.674L177.737 122.703C177.703 122.785 177.645 122.856 177.572 122.906C177.499 122.957 177.413 122.986 177.324 122.99Z" fill="black"/>
<path d="M183.75 122.99C183.695 122.99 183.641 122.979 183.59 122.957C183.539 122.936 183.494 122.904 183.456 122.864C183.415 122.823 183.382 122.774 183.36 122.72C183.339 122.665 183.328 122.607 183.33 122.549C183.33 122.451 183.356 122.354 183.407 122.269L184.037 121.289H182.749C182.689 121.292 182.63 121.282 182.574 121.261C182.519 121.239 182.469 121.206 182.427 121.163C182.355 121.079 182.315 120.973 182.315 120.862C182.315 120.752 182.355 120.645 182.427 120.561C182.469 120.518 182.519 120.485 182.574 120.463C182.63 120.442 182.689 120.432 182.749 120.435L184.016 120.47L183.4 119.56C183.344 119.467 183.312 119.361 183.309 119.252C183.307 119.194 183.318 119.136 183.339 119.082C183.361 119.027 183.394 118.978 183.435 118.937C183.474 118.897 183.521 118.865 183.573 118.844C183.624 118.822 183.68 118.811 183.736 118.811C183.814 118.81 183.891 118.832 183.957 118.874C184.023 118.917 184.075 118.977 184.107 119.049L184.723 120.148L185.311 119.098C185.348 119.016 185.407 118.946 185.481 118.896C185.555 118.845 185.641 118.816 185.731 118.811C185.786 118.81 185.841 118.821 185.891 118.843C185.942 118.864 185.988 118.897 186.025 118.937C186.066 118.976 186.098 119.022 186.12 119.074C186.142 119.126 186.152 119.182 186.151 119.238C186.15 119.337 186.121 119.435 186.067 119.518L185.451 120.505L186.732 120.47C186.792 120.467 186.851 120.476 186.907 120.498C186.962 120.52 187.013 120.553 187.054 120.596C187.126 120.68 187.165 120.787 187.165 120.897C187.165 121.008 187.126 121.114 187.054 121.198C187.013 121.241 186.962 121.275 186.907 121.296C186.851 121.318 186.792 121.328 186.732 121.324H185.437L186.011 122.22C186.076 122.328 186.112 122.451 186.116 122.577C186.118 122.634 186.108 122.69 186.088 122.743C186.068 122.796 186.037 122.844 185.997 122.885C185.96 122.924 185.916 122.956 185.866 122.977C185.817 122.999 185.764 123.011 185.71 123.011C185.623 123.009 185.539 122.982 185.467 122.934C185.395 122.885 185.339 122.818 185.304 122.738L184.723 121.709L184.142 122.738C184.104 122.811 184.048 122.872 183.979 122.916C183.911 122.96 183.832 122.986 183.75 122.99Z" fill="black"/>
<path d="M190.176 122.99C190.121 122.99 190.067 122.979 190.016 122.957C189.966 122.936 189.92 122.904 189.882 122.864C189.841 122.823 189.808 122.774 189.786 122.72C189.765 122.665 189.754 122.607 189.756 122.549C189.759 122.451 189.786 122.355 189.833 122.269L190.463 121.289H189.182C189.122 121.294 189.062 121.285 189.007 121.263C188.951 121.241 188.901 121.207 188.86 121.163C188.784 121.081 188.741 120.974 188.741 120.862C188.741 120.75 188.784 120.643 188.86 120.561C188.901 120.517 188.951 120.483 189.007 120.461C189.062 120.44 189.122 120.431 189.182 120.435L190.442 120.47L189.847 119.525C189.791 119.432 189.76 119.326 189.756 119.217C189.754 119.16 189.764 119.103 189.784 119.049C189.805 118.996 189.836 118.947 189.876 118.906C189.916 118.865 189.964 118.832 190.016 118.81C190.069 118.788 190.126 118.776 190.183 118.776C190.261 118.775 190.338 118.797 190.404 118.839C190.47 118.882 190.522 118.942 190.554 119.014L191.17 120.113L191.758 119.063C191.795 118.981 191.854 118.911 191.928 118.861C192.002 118.81 192.088 118.781 192.178 118.776C192.233 118.774 192.288 118.785 192.339 118.806C192.39 118.828 192.435 118.861 192.472 118.902C192.513 118.941 192.546 118.987 192.567 119.039C192.589 119.091 192.599 119.147 192.598 119.203C192.597 119.302 192.568 119.4 192.514 119.483L191.898 120.47L193.179 120.435C193.239 120.432 193.298 120.441 193.354 120.463C193.409 120.485 193.46 120.518 193.501 120.561C193.573 120.645 193.613 120.752 193.613 120.862C193.613 120.973 193.573 121.079 193.501 121.163C193.46 121.206 193.409 121.24 193.354 121.261C193.298 121.283 193.239 121.293 193.179 121.289H191.884L192.458 122.185C192.523 122.293 192.559 122.416 192.563 122.542C192.565 122.597 192.556 122.652 192.536 122.704C192.517 122.756 192.488 122.803 192.45 122.843C192.412 122.884 192.367 122.916 192.317 122.939C192.266 122.962 192.212 122.974 192.157 122.976C192.07 122.974 191.986 122.947 191.914 122.899C191.842 122.85 191.786 122.783 191.751 122.703L191.17 121.674L190.589 122.703C190.555 122.785 190.497 122.856 190.424 122.907C190.351 122.957 190.265 122.986 190.176 122.99Z" fill="black"/>
<path d="M196.602 122.99C196.547 122.99 196.493 122.979 196.442 122.957C196.391 122.936 196.346 122.904 196.308 122.864C196.267 122.823 196.234 122.774 196.212 122.72C196.191 122.665 196.18 122.607 196.182 122.549C196.185 122.451 196.212 122.355 196.259 122.269L196.889 121.289H195.601C195.542 121.293 195.484 121.283 195.429 121.261C195.375 121.239 195.326 121.206 195.286 121.163C195.21 121.081 195.167 120.974 195.167 120.862C195.167 120.75 195.21 120.643 195.286 120.561C195.326 120.518 195.375 120.485 195.429 120.463C195.484 120.441 195.542 120.432 195.601 120.435L196.868 120.47L196.273 119.525C196.217 119.432 196.185 119.326 196.182 119.217C196.18 119.16 196.19 119.103 196.21 119.049C196.231 118.996 196.262 118.947 196.302 118.906C196.342 118.865 196.389 118.832 196.442 118.81C196.495 118.788 196.552 118.776 196.609 118.776C196.687 118.775 196.764 118.797 196.83 118.839C196.896 118.882 196.948 118.942 196.98 119.014L197.596 120.113L198.184 119.063C198.221 118.981 198.28 118.911 198.354 118.861C198.428 118.81 198.514 118.781 198.604 118.776C198.659 118.774 198.714 118.785 198.765 118.806C198.816 118.828 198.861 118.861 198.898 118.902C198.939 118.941 198.971 118.987 198.993 119.039C199.015 119.091 199.025 119.147 199.024 119.203C199.023 119.302 198.994 119.4 198.94 119.483L198.324 120.47L199.605 120.435C199.665 120.432 199.724 120.441 199.78 120.463C199.835 120.485 199.886 120.518 199.927 120.561C199.999 120.645 200.038 120.752 200.038 120.862C200.038 120.973 199.999 121.079 199.927 121.163C199.886 121.206 199.835 121.24 199.78 121.261C199.724 121.283 199.665 121.293 199.605 121.289H198.31L198.884 122.185C198.949 122.293 198.985 122.416 198.989 122.542C198.991 122.597 198.982 122.652 198.962 122.704C198.943 122.756 198.914 122.803 198.876 122.843C198.838 122.884 198.793 122.916 198.743 122.939C198.692 122.962 198.638 122.974 198.583 122.976C198.496 122.974 198.412 122.947 198.34 122.899C198.268 122.85 198.212 122.783 198.177 122.703L197.596 121.674L197.015 122.703C196.98 122.785 196.923 122.856 196.85 122.907C196.777 122.957 196.691 122.986 196.602 122.99Z" fill="black"/>
<path d="M203 122.99C202.945 122.99 202.891 122.979 202.84 122.957C202.79 122.936 202.744 122.904 202.706 122.864C202.665 122.823 202.632 122.774 202.61 122.72C202.589 122.665 202.578 122.607 202.58 122.549C202.583 122.451 202.61 122.355 202.657 122.269L203.287 121.289H201.999C201.94 121.293 201.882 121.283 201.827 121.261C201.773 121.239 201.724 121.206 201.684 121.163C201.608 121.081 201.565 120.974 201.565 120.862C201.565 120.75 201.608 120.643 201.684 120.561C201.724 120.518 201.773 120.485 201.827 120.463C201.882 120.441 201.94 120.432 201.999 120.435L203.266 120.47L202.671 119.525C202.615 119.432 202.584 119.326 202.58 119.217C202.578 119.159 202.589 119.101 202.61 119.047C202.632 118.992 202.665 118.943 202.706 118.902C202.745 118.862 202.792 118.83 202.844 118.809C202.895 118.787 202.951 118.776 203.007 118.776C203.085 118.775 203.162 118.797 203.228 118.839C203.294 118.882 203.346 118.942 203.378 119.014L203.994 120.113L204.582 119.063C204.619 118.981 204.678 118.911 204.752 118.861C204.826 118.81 204.912 118.781 205.002 118.776C205.057 118.774 205.112 118.785 205.163 118.806C205.214 118.828 205.259 118.861 205.296 118.902C205.337 118.941 205.369 118.987 205.391 119.039C205.413 119.091 205.423 119.147 205.422 119.203C205.421 119.302 205.392 119.4 205.338 119.483L204.722 120.47L206.003 120.435C206.063 120.432 206.122 120.441 206.178 120.463C206.233 120.485 206.284 120.518 206.325 120.561C206.397 120.645 206.437 120.752 206.437 120.862C206.437 120.973 206.397 121.079 206.325 121.163C206.284 121.206 206.233 121.24 206.178 121.261C206.122 121.283 206.063 121.293 206.003 121.289H204.708L205.282 122.185C205.347 122.293 205.383 122.416 205.387 122.542C205.389 122.599 205.379 122.655 205.359 122.708C205.339 122.761 205.308 122.809 205.268 122.85C205.231 122.889 205.187 122.921 205.137 122.942C205.088 122.964 205.035 122.976 204.981 122.976C204.894 122.974 204.81 122.947 204.738 122.899C204.666 122.85 204.61 122.783 204.575 122.703L203.994 121.674L203.413 122.703C203.379 122.785 203.321 122.856 203.248 122.907C203.175 122.957 203.089 122.986 203 122.99Z" fill="black"/>
<path d="M225.022 138.474H233.583" stroke="white" stroke-width="3" stroke-linecap="round" stroke-linejoin="round"/>
<path d="M106.281 75.439V132.3C106.281 133.947 106.935 135.526 108.1 136.69C109.264 137.855 110.843 138.509 112.49 138.509H216.895" stroke="white" stroke-width="3" stroke-linecap="round" stroke-linejoin="round"/>
<path d="M106.281 60.3611V68.8871" stroke="white" stroke-width="3" stroke-linecap="round" stroke-linejoin="round"/>
</svg>
