<svg width="260" height="204" viewBox="0 0 260 204" fill="none" xmlns="http://www.w3.org/2000/svg">
<g clip-path="url(#clip0_492_3318)">
<path d="M139.552 21.4245C148.593 38.8691 178.18 36.244 198.257 32.5179C203.071 31.5864 208.002 30.5702 212.346 28.7919C216.691 27.0136 220.33 24.1344 221.739 20.6624C223.266 16.767 221.504 12.4482 218.452 9.0609C215.634 5.92765 211.525 2.62503 207.18 0.592653C205.302 4.06463 198.609 4.31868 194.03 4.31868C187.573 4.31868 181.702 2.54035 175.714 1.27011C169.609 -0.000123786 163.034 -0.254171 156.929 0.931383C144.601 3.04844 134.738 12.1095 139.552 21.4245Z" fill="#572618"/>
<path d="M157.986 138.202C157.633 138.202 157.516 138.202 157.281 138.287L157.986 138.202Z" fill="#572618"/>
<path d="M157.986 138.202C157.633 138.202 157.516 138.202 157.281 138.287L157.986 138.202Z" fill="#572618"/>
<path d="M131.921 53.2654V36.9216C131.921 23.0337 149.885 11.6863 171.84 11.6863C182.76 11.6863 192.739 14.4808 200.019 19.0537C207.298 23.6265 211.76 29.893 211.76 36.837V53.1807" stroke="#572618" stroke-width="2" stroke-miterlimit="10"/>
<path d="M211.76 70.9639V89.848C211.76 103.736 193.796 115.083 171.84 115.083C149.885 115.083 131.921 103.736 131.921 89.848V70.9639" stroke="#572618" stroke-width="2" stroke-miterlimit="10"/>
<path d="M148.123 76.807C159.341 76.807 168.435 70.2479 168.435 62.1569C168.435 54.0659 159.341 47.5068 148.123 47.5068C136.906 47.5068 127.812 54.0659 127.812 62.1569C127.812 70.2479 136.906 76.807 148.123 76.807Z" stroke="#572618" stroke-width="2" stroke-miterlimit="10"/>
<path d="M195.439 76.807C206.657 76.807 215.751 70.2479 215.751 62.1569C215.751 54.0659 206.657 47.5068 195.439 47.5068C184.221 47.5068 175.127 54.0659 175.127 62.1569C175.127 70.2479 184.221 76.807 195.439 76.807Z" stroke="#572618" stroke-width="2" stroke-miterlimit="10"/>
<path d="M168.317 61.7334H175.362" stroke="#572618" stroke-width="4" stroke-miterlimit="10"/>
<path d="M188.16 112.797H188.279V139.303" stroke="#572618" stroke-width="2" stroke-miterlimit="10"/>
<path d="M158.925 138.964V113.474" stroke="#572618" stroke-width="2" stroke-miterlimit="10"/>
<path d="M148.123 65.5441C150.717 65.5441 152.82 64.0276 152.82 62.1568C152.82 60.2861 150.717 58.7695 148.123 58.7695C145.529 58.7695 143.427 60.2861 143.427 62.1568C143.427 64.0276 145.529 65.5441 148.123 65.5441Z" fill="#572618"/>
<path d="M195.44 65.5441C198.033 65.5441 200.136 64.0276 200.136 62.1568C200.136 60.2861 198.033 58.7695 195.44 58.7695C192.846 58.7695 190.743 60.2861 190.743 62.1568C190.743 64.0276 192.846 65.5441 195.44 65.5441Z" fill="#572618"/>
<path d="M129.22 67.6614H126.871C124.288 67.6614 121.94 68.4235 120.179 69.6091C118.535 70.8793 117.479 72.573 117.479 74.436C117.479 78.162 121.705 81.2106 126.871 81.2106H131.568" stroke="#572618" stroke-width="2" stroke-miterlimit="10"/>
<path d="M214.342 67.6614H216.691C221.857 67.6614 226.083 70.7099 226.083 74.436C226.083 76.299 225.027 77.9926 223.266 79.2629C221.622 80.4484 219.274 81.2106 216.691 81.2106H211.994" stroke="#572618" stroke-width="2" stroke-miterlimit="10"/>
<path d="M131.685 72.4036V76.4683H127.928C126.402 76.4683 125.11 75.5368 125.11 74.4359C125.11 73.8432 125.463 73.3351 125.932 72.9963C126.402 72.6576 127.106 72.4036 127.928 72.4036H131.685V72.4036Z" fill="#572618"/>
<path d="M211.994 76.4683V72.4036H215.751C217.278 72.4036 218.569 73.3351 218.569 74.4359C218.569 75.0287 218.217 75.5368 217.747 75.8755C217.278 76.2143 216.573 76.4683 215.751 76.4683H211.994V76.4683Z" fill="#572618"/>
<path d="M171.84 76.1294C171.84 76.1294 165.97 82.904 175.363 81.2103" stroke="#572618" stroke-width="2" stroke-miterlimit="10" stroke-linecap="round"/>
<path d="M161.273 95.6912C161.273 95.6912 170.666 104.075 183.581 95.6912" stroke="#572618" stroke-width="2" stroke-miterlimit="10" stroke-linecap="round"/>
<path d="M138.965 44.7969C138.965 44.7969 145.422 40.1394 156.576 43.9501" stroke="#572618" stroke-width="3" stroke-miterlimit="10" stroke-linecap="round"/>
<path d="M204.715 44.7969C204.715 44.7969 198.257 40.1394 187.104 43.9501" stroke="#572618" stroke-width="3" stroke-miterlimit="10" stroke-linecap="round"/>
<path d="M131.686 35.1431C131.686 35.1431 115.483 26.0821 122.528 15.0734C129.572 4.06466 151.88 9.99243 151.88 9.99243C151.88 9.99243 160.803 37.4295 131.686 35.1431Z" fill="#572618"/>
<path d="M51.1417 102.805C49.7328 99.5027 47.7369 97.8937 46.6802 93.0668C44.4494 83.413 45.2712 74.1826 39.753 74.5214C37.5222 74.6907 36.8177 76.3844 36.9351 77.3159L38.6963 92.5587C37.9918 94.3371 36.7003 93.6596 36.7003 93.6596C36.7003 93.6596 32.1213 80.1104 31.5342 77.6546C30.9472 75.2835 29.3034 73.9286 27.0726 74.0979C23.1981 74.352 24.7244 77.7393 25.0767 79.0095L29.186 95.4379C29.5383 97.0469 27.1901 96.5388 27.1901 96.5388L18.0321 80.1104C16.9754 78.3321 14.9794 78.7555 14.9794 78.7555C11.3397 79.3483 12.7486 81.7194 12.7486 81.7194L20.6151 99.1639C20.6151 99.2486 20.6151 99.3333 20.6151 99.418C20.7325 100.35 19.0887 100.858 18.3843 100.011C15.9187 97.3009 11.1048 92.9821 7.1129 91.2885C5.11693 90.4417 3.708 90.611 2.88613 91.0344C2.06426 91.4578 1.94685 92.22 2.5339 92.8128L17.2102 108.14C20.6151 124.399 34.3521 126.347 34.3521 126.347L42.5708 149.55L54.6641 186.133L56.1904 190.79C57.5993 195.279 63.235 198.496 69.5752 198.496H76.0327C80.6117 198.496 83.7818 195.279 82.3729 192.23L53.1377 128.041L51.8462 122.452C54.6641 120.165 56.5426 115.338 57.4819 111.866C58.069 110.003 58.3038 108.056 58.069 106.193C57.5993 101.535 61.9435 93.1515 61.9435 93.1515C61.5913 91.5425 57.3645 92.8974 57.3645 92.8974C52.6681 94.083 51.494 99.5027 51.1417 102.467C51.0243 103.737 50.2025 104.838 49.0284 105.684C41.9837 110.681 41.3967 116.27 41.3967 116.27" stroke="#572618" stroke-width="2" stroke-miterlimit="10"/>
<path d="M31.417 77.7384C30.8299 75.3673 29.7732 73.589 26.9554 74.1818C23.1982 74.9439 24.6072 77.8231 24.9594 79.0934" stroke="#572618" stroke-width="2" stroke-miterlimit="10"/>
<path d="M259.898 203.153V204H234.303L228.902 182.406V204H118.066V191.721C118.066 188.757 118.066 185.793 118.184 182.829C115.718 184.269 113.018 185.454 109.848 186.725L85.309 198.58C85.1916 198.665 85.0742 198.665 84.9568 198.75C83.9001 199.173 82.726 199.427 81.4345 199.427L76.3316 199.567C76.3316 199.567 81.7867 198.072 83.0782 194.346L74.2725 173.176C86.8354 165.639 107.147 143.875 146.128 139.387C147.771 139.133 149.532 138.879 151.411 138.71C153.172 138.54 154.933 138.371 156.929 138.286L158.221 138.202V138.371L157.516 138.456C157.751 138.456 157.869 138.456 158.103 138.371H158.221C158.456 138.371 158.69 138.371 158.925 138.286H159.043L160.217 138.202V141.42C160.217 141.843 160.452 142.351 161.039 142.775C162.8 144.214 166.792 145.315 171.606 145.569C172.427 145.654 173.249 145.654 174.071 145.654C174.189 145.654 174.306 145.654 174.306 145.654H174.423C179.12 145.569 183.464 144.638 185.695 143.283C186.399 142.859 187.104 142.266 187.104 141.42V138.456L188.278 138.625H188.513C188.865 138.625 189.1 138.71 189.452 138.71V138.456L190.978 138.625C234.068 142.436 259.898 166.57 259.898 203.153Z" fill="#572618"/>
<path d="M85.1911 198.496L84.8389 198.665C84.9563 198.665 85.0737 198.58 85.1911 198.496Z" fill="#572618"/>
</g>
<defs>
<clipPath id="clip0_492_3318">
<rect width="259.007" height="204" fill="white" transform="translate(0.890625)"/>
</clipPath>
</defs>
</svg>
