<svg xmlns="http://www.w3.org/2000/svg" viewBox="0 0 99.84 101.36"><defs><style>.cls-1{fill:#ffb8a3;}.cls-2{fill:#ffc8b5;}.cls-3{fill:#3a2832;}.cls-4{fill:#2b1822;}.cls-5{fill:#fe645f;}.cls-6{fill:#f25555;}.cls-7{fill:#ffb83b;}.cls-10,.cls-8{fill:#ff9d27;}.cls-9{fill:#ffe375;}.cls-10{opacity:0.5;}.cls-11{fill:#acc2e2;}.cls-12{fill:#d5e0f7;}.cls-13{opacity:0.7;}.cls-14{fill:#ebf2ff;}.cls-15{fill:#2c1d1b;}.cls-16{fill:#dedff4;}.cls-17{fill:#dc3b27;}.cls-18{fill:#db3e55;}.cls-19{fill:#ffb9a4;}.cls-20{fill:#ffc9b6;}</style></defs><g id="Layer_2" data-name="Layer 2"><g id="Layer_1-2" data-name="Layer 1"><path class="cls-1" d="M91.14,12.78c-1.52-.68-4.21.2-4.21.2a28.14,28.14,0,0,1-5.41-2.81c-1.66-2.63-2.92-4.89-3.58-5.89L76.69,5.35l-.28.25a14.8,14.8,0,0,0,1.49,5c1.34,2.5,1.91,1.69,3.19,2.5s4.85,3.1,6.75,4.38,4.73-2.22,5-2.55A3.48,3.48,0,0,0,91.14,12.78Z"/><path class="cls-2" d="M97.6,21.1c1.49-3.2.16-4.5-.74-4.74C95.28,15.93,93,19.61,94,22.6s2.46,1.51,2.46,1.51A13.61,13.61,0,0,1,97.6,21.1Z"/><path class="cls-2" d="M87.05,46.06c-.13,1.55-1.23,2.43-.94,4.68.26,2,1.27,7.83.89,9-.49,1.54-1.19,5-2.38,6.27-.72.77-.82,1.27,0,1.46a2.79,2.79,0,0,0,2.59-.45c.86-.7.9-2,1.21-2.95C88.82,63,90,63,90.17,61.84c.11-.93-.34-1.33-.67-2.21.92-2,.62-5.49,1.06-8.89.24-1.78,1.47-2.39.75-4.1A9.39,9.39,0,0,0,87.05,46.06Z"/><path class="cls-3" d="M90.21,61.54a2.86,2.86,0,0,0-.59-1.63c-.05.24-.36.67-.58,1.22a19.81,19.81,0,0,0-2.27-.7l-.15.67,2.25.59c0,.05,0,.1,0,.15-.06.37-.1.76-.14,1.09A8.83,8.83,0,0,0,88,64.58c-.14.58-.35,1.22-.48,1.61A2.9,2.9,0,0,0,85.16,65a21,21,0,0,0-1.54,2c-.41.71.4,1.34,1.8,1a4,4,0,0,0,2.27-1.2h0a.7.7,0,0,0,.1-.19v0a16.16,16.16,0,0,0,.64-1.82A7,7,0,0,1,89,63.47l0,0c0,.76-.06,1.84-.07,2.15a.54.54,0,0,0,.61,0,15.4,15.4,0,0,1,.3-1.78A8,8,0,0,0,90.21,61.54Z"/><path class="cls-2" d="M98.49,65.45A3.56,3.56,0,0,0,97.77,64c-1.21-2.21-.15-3.74-1.64-6.8-.13-.28-.33-.56-.5-.89a21.94,21.94,0,0,1-3.86,2.12c1.62,2.72,3.14,5.45,3.55,6.41a29.86,29.86,0,0,1-1.62,4.6c-.52,1.3-.94,3.07.19,2.81A4.06,4.06,0,0,0,97,68.87C97.11,67.21,98.74,66.34,98.49,65.45Z"/><path class="cls-3" d="M98.76,66a2.8,2.8,0,0,0-.6-1.63c0,.24-.35.67-.57,1.22a19.81,19.81,0,0,0-2.27-.7l-.15.67,2.24.58,0,.16c-.06.36-.1.75-.14,1.09A8.35,8.35,0,0,0,96.59,69c-.14.58-.35,1.23-.48,1.62a2.94,2.94,0,0,0-2.41-1.16,22,22,0,0,0-1.53,2.06c-.41.7.4,1.34,1.79,1a4.09,4.09,0,0,0,2.28-1.21h0a.54.54,0,0,0,.1-.18v-.05A14.85,14.85,0,0,0,97,69.25a6.84,6.84,0,0,1,.55-1.36l0,0c0,.75-.06,1.83-.08,2.15a.54.54,0,0,0,.61,0,17.36,17.36,0,0,1,.31-1.79A8.34,8.34,0,0,0,98.76,66Z"/><path class="cls-4" d="M92.07,30.51l-5.42-1.67A60.51,60.51,0,0,0,85,38a35.36,35.36,0,0,0,0,9.1c.29,1.67,1.29,6.8,1.83,9.52a3.53,3.53,0,0,0,3.37.24A52.44,52.44,0,0,0,91,51a16.79,16.79,0,0,0-1.31-5.62,59.25,59.25,0,0,0,3.09-9.79C93.35,31.91,92.07,30.51,92.07,30.51Z"/><path class="cls-3" d="M88.86,28.39s-2.07,8,.13,9.1c0,2.22-.28,5.24-.64,8.92A16.07,16.07,0,0,0,89.51,55c.89,1.93,4.27,7.21,4.27,7.21a4.84,4.84,0,0,0,1.73-.3c1.35-.65,1.52-1.28,1.52-1.28a33.5,33.5,0,0,0-1.75-6.67A23.31,23.31,0,0,0,93.67,51a22.87,22.87,0,0,0,2.12-6.65c.28-2.91.51-5.41.51-5.41s3-2-.21-9C94.25,26.1,88.86,28.39,88.86,28.39Z"/><path class="cls-5" d="M86.51,22.8a16.43,16.43,0,0,1,.11,3.43c-.06,1.34-.49,4-.58,5.12,1.34,1.56,4.45,2.08,6.22,2.13a7.68,7.68,0,0,0,4.6-1.59A22.37,22.37,0,0,1,96,28.14a22.45,22.45,0,0,1,.47-4,3.67,3.67,0,0,1-1.81-3.82,6.38,6.38,0,0,1,2.18-3.93s-.79-.67-1.88-1.45c-2-1.43-4.85-3.28-5.48-2.46-1,1.28-3.41,4.85-3.41,4.85a7.06,7.06,0,0,0-1.16,3.28C84.91,21.79,86.51,22.8,86.51,22.8Z"/><path class="cls-4" d="M93.67,6.53a3.27,3.27,0,0,1,2.75-1.88c2-.13,1.74,1.56,1.74,1.56s.86-.82,1.52.52-.83,2.61-.83,2.61.48.36,0,1.48-3.41-.11-3.41-.11Z"/><path class="cls-1" d="M92.63,15.88a2.81,2.81,0,0,0,2.88-.57c-.06-.09-.12-.17-.18-.27-.45-.75-.34-1-.26-2A16.13,16.13,0,0,0,95,11.43a8.86,8.86,0,0,1-3.9.62,3.13,3.13,0,0,1-.35,1.07A2.55,2.55,0,0,0,92.63,15.88Z"/><path class="cls-6" d="M95.18,14.75l.61.76s-.34.8-2.13.83a3.29,3.29,0,0,1-3-1.2,2.47,2.47,0,0,1-.24-1.52l.79-.26a1.88,1.88,0,0,0,.94,1.49A3.22,3.22,0,0,0,95.18,14.75Z"/><path class="cls-2" d="M95.18,11.44A5.14,5.14,0,0,0,95.25,8a4.25,4.25,0,0,0-2.53-1.88c-1.44-.51-3.43.77-4,2.67s-.18,4.65,1.52,5.81C92.16,15.88,94.63,12.86,95.18,11.44Z"/><path class="cls-3" d="M96,7.17c-.84-.94-2.6-2.7-5-1.38-1.53.84-2.07,1.73-2.1,2.72a7.16,7.16,0,0,0,4.7,1.24c.2.52.83,2.71,1.51,3.3a7.68,7.68,0,0,0,1.56-3A3.8,3.8,0,0,0,96,7.17Z"/><path class="cls-2" d="M93.51,11.21S94.65,10.16,95,11s-.65,1.81-.65,1.81Z"/><path class="cls-6" d="M90.93,24.54a5,5,0,0,0,2.49-.8,2.38,2.38,0,0,1-2.48,1.68,2.84,2.84,0,0,1-2.59-1.56A6.5,6.5,0,0,0,90.93,24.54Z"/><path class="cls-1" d="M73.87,3.37s-.4-.55-.33-.53A3.48,3.48,0,0,1,75,2.66c.92.08,1,.34,1,.49s-.39.22-.39.22.55.06.61.39-.5.26-.5.26.47.08.5.39-.53.14-.53.14.6.39.35.65-1.26,0-1.26,0Z"/><path class="cls-1" d="M77.59,2.91a2.38,2.38,0,0,0-.57-1c-.62-.4-1.1-.17-1.57-.19s-.38,1-.5,1.66.12.74.5.47.35-1.23.35-1.23a7,7,0,0,0,.54.84,2.73,2.73,0,0,0,1.25.64A8,8,0,0,0,77.59,2.91Z"/><path class="cls-7" d="M71.55,1.49,73.62.32h0l.08,0a3.49,3.49,0,0,1,3.34.36c3,1.71,5.35,6.28,5.35,10.22,0,2.19-.74,3.71-1.9,4.35h0l0,0h0l-2,1.12-.48-1a5.45,5.45,0,0,1-.94-.42c-3-1.71-5.35-6.29-5.35-10.22A7.32,7.32,0,0,1,72,2.48Z"/><path class="cls-7" d="M71.55,1.49,73.62.32h0l.08,0A2.91,2.91,0,0,1,75.62.08L72,2.15l.83.48L76.66.44a3.6,3.6,0,0,1,.39.2c.17.1.33.21.49.32l-3,1.73.83.48,2.87-1.65a9.6,9.6,0,0,1,.72.71l-3.29,1.9.84.48,3-1.74q.32.41.6.84l-3.43,2,.83.48,3-1.75a9.76,9.76,0,0,1,.47.91l-3.42,2,.84.48,2.93-1.69c.14.35.28.7.39,1.06L78.16,9.23l.84.48L82,8c.1.4.19.8.25,1.2l-3.84,2.22.83.48,3.12-1.8c0,.27,0,.53,0,.79s0,.43,0,.63l-3.55,2,.84.48,2.57-1.48a5.08,5.08,0,0,1-.62,1.59L78.32,16l-.33-.7a4.85,4.85,0,0,1-.94-.43c-3-1.7-5.35-6.28-5.35-10.22A7.3,7.3,0,0,1,72,2.48Z"/><path class="cls-8" d="M74.55,2.69l3-1.73a7.25,7.25,0,0,1,.71.56L75.38,3.17Z"/><path class="cls-8" d="M72,2.15,75.62.08a4.6,4.6,0,0,1,1,.36l-3.8,2.19Z"/><path class="cls-8" d="M75.68,4.13,79,2.23c.19.2.37.42.55.64l-3,1.74Z"/><path class="cls-8" d="M76.69,5.69l3.43-2c.15.23.3.47.44.71l-3,1.75Z"/><path class="cls-8" d="M77.61,7.3l3.42-2c.13.25.24.5.35.76L78.45,7.78Z"/><path class="cls-8" d="M78.16,9.23l3.61-2.08c.09.27.17.55.24.82L79,9.71Z"/><path class="cls-8" d="M78.42,11.39l3.84-2.22c0,.3.08.6.11.9l-3.12,1.8Z"/><path class="cls-8" d="M78.82,13.54l3.55-2a6.83,6.83,0,0,1-.14,1L79.66,14Z"/><path class="cls-8" d="M80.5,15.21h0l0,0h0l-2,1.12L78.32,16l3.29-1.9A3,3,0,0,1,80.5,15.21Z"/><path class="cls-9" d="M69.68,5.83c0,3.94,2.39,8.51,5.35,10.22s5.35-.11,5.35-4S78,3.49,75,1.78,69.68,1.89,69.68,5.83Z"/><path class="cls-10" d="M72.5,2.09c-1,.54-1.65,1.89-1.63,3.84,0,3.47,2.16,7.53,4.72,9.07a3.25,3.25,0,0,0,2.38.52A2.93,2.93,0,0,1,75,15.19c-2.56-1.54-4.67-5.59-4.71-9.06C70.3,3.84,71.17,2.39,72.5,2.09Z"/><path class="cls-8" d="M72.5,2.09c-1,.54-1.65,1.89-1.63,3.84,0,3.47,2.16,7.53,4.72,9.07a3.25,3.25,0,0,0,2.38.52A2.93,2.93,0,0,1,75,15.19c-2.56-1.54-4.67-5.59-4.71-9.06C70.3,3.84,71.17,2.39,72.5,2.09Z"/><path class="cls-10" d="M75.59,15C73,13.46,70.92,9.4,70.87,5.93c0-1.95.62-3.3,1.63-3.84a3.26,3.26,0,0,1,2.38.53c2.57,1.53,4.67,5.59,4.72,9.06,0,2-.62,3.31-1.63,3.84A3.25,3.25,0,0,1,75.59,15Z"/><path class="cls-8" d="M75.09,13.46a12.39,12.39,0,0,1-.27-1.35A7.16,7.16,0,0,1,73.53,10c-.62-1.47-.14-1.93.35-2a1.83,1.83,0,0,1,.79.06c0-.89-.08-1.94,0-2.79a1.14,1.14,0,0,0-1,.08c-.06,0-.22-.22-.2-.31.15-.47.63-.65,1.3-.27A1.78,1.78,0,0,1,75,4s.1.09.1.14V5A4.85,4.85,0,0,1,76.9,8.19c.09,1.25-.86.93-1.59.75l-.2,0c0,.93.13,2,.21,3.06a2,2,0,0,0,1.13.42.91.91,0,0,0,.88-.57c0-.08.22.12.25.29.24,1.24-.8,1.48-1.93.75l-.3-.22a7.58,7.58,0,0,1,0,1.08C75.31,13.83,75.14,13.65,75.09,13.46Zm1.17-5.41c.32-.5-.22-1.67-1-2.39a1.58,1.58,0,0,0-.15-.12c0,.88,0,1.75,0,2.62l.28.08C75.53,8.29,76.16,8.21,76.26,8.05Zm-2,.81c-.36.15-1,.62.47,2.52h0a22.72,22.72,0,0,1-.07-2.56A.85.85,0,0,0,74.25,8.86Z"/><path class="cls-2" d="M96.86,16.36a3.55,3.55,0,0,0-2.56,1.92c-1.14.43-5.8.47-5.8.47a15.9,15.9,0,0,1-3.18-2.11A29.29,29.29,0,0,0,81.77,14c-.25.27-.48.55-.73.82l-.49.58.63.62c1.13,1.1,4.56,4.69,5.07,5.09a4.1,4.1,0,0,0,3.26,1.18c2.47,0,4.72.87,6.78.87C96.61,21.84,97.18,17,96.86,16.36Z"/><path class="cls-2" d="M83.48,15.17a22.49,22.49,0,0,0-.7-2.87c-.38-1.09-.52-2.08-.92-1.58s0,2.26,0,2.26a3.89,3.89,0,0,1-2,0c-.88-.3-2-.72-1.84.15-.79,0-.53,1.24.55,2,.56.39,4.11,1.81,4.11,1.81Z"/><path class="cls-1" d="M70.05,3.42c0,.11-.71.32-.85.86a.75.75,0,0,0,.17.8,3.62,3.62,0,0,0,0,1.3c.14.65,1.15,1.44,1.36,1.08a3.14,3.14,0,0,0,.06-2A4.52,4.52,0,0,0,69.88,4Z"/><ellipse class="cls-11" cx="49.98" cy="76.51" rx="4.71" ry="2.78"/><ellipse class="cls-11" cx="49.98" cy="67.07" rx="5.92" ry="3.49"/><polygon class="cls-11" points="55.86 67.46 54.69 76.51 45.27 76.51 44.06 67.08 55.86 67.46"/><ellipse class="cls-11" cx="66.47" cy="67.04" rx="4.71" ry="2.78"/><ellipse class="cls-11" cx="66.47" cy="57.6" rx="5.92" ry="3.49"/><polygon class="cls-11" points="72.35 57.99 71.18 67.04 61.75 67.04 60.55 57.6 72.35 57.99"/><path class="cls-11" d="M27.14,66c0,1.54,2.11,2.78,4.71,2.78S36.57,67.5,36.57,66s-2.11-2.77-4.72-2.77S27.14,64.43,27.14,66Z"/><path class="cls-11" d="M25.94,53c0,1.93,2.64,3.49,5.91,3.49S37.77,55,37.77,53s-2.65-3.48-5.92-3.48S25.94,51.12,25.94,53Z"/><polygon class="cls-11" points="37.73 56.92 36.57 65.96 27.14 65.96 25.12 50.14 37.73 56.92"/><ellipse class="cls-12" cx="51.04" cy="43.24" rx="25.36" ry="28.8" transform="translate(-11.92 65.82) rotate(-60)"/><path class="cls-12" d="M24.23,33c.94,8.63,6.35,17.12,15.15,22.2C53.16,63.15,70,59.77,77,47.63a22.34,22.34,0,0,0,1.86-4.16A23.1,23.1,0,0,1,76,57.64C69,69.77,52.13,73.16,38.35,65.2,26.1,58.13,20.41,44.47,24.23,33Z"/><g class="cls-13"><path class="cls-11" d="M23.61,35.24c-.53,9.91,5.11,20.29,15.26,26.15,13.78,8,30.62,4.57,37.63-7.56A22.71,22.71,0,0,0,79,47.41a22.59,22.59,0,0,1-3,10.23C69,69.77,52.13,73.16,38.35,65.2,26.89,58.58,21.18,46.2,23.61,35.24Z"/></g><path class="cls-14" d="M39.38,55.2C30.58,50.12,25.17,41.63,24.23,33a23.42,23.42,0,0,1,1.86-4.17c7-12.13,23.85-15.51,37.63-7.56,8.81,5.08,14.22,13.57,15.15,22.2A22.34,22.34,0,0,1,77,47.63C70,59.77,53.16,63.15,39.38,55.2Z"/><path class="cls-11" d="M64.44,59c0,4.21,2.83,4.53,5.71,2.3s5.71-5.19,5.71-8.9c0-4.2-2.55-6.14-5.71-4.31S64.44,54.74,64.44,59Z"/><polygon class="cls-11" points="78.25 50.24 73.88 47.71 65.59 62.2 70.32 64.86 78.25 50.24"/><path class="cls-12" d="M68.57,61.31c0,4.21,2.83,4.53,5.71,2.3S80,58.42,80,54.71c0-4.2-2.55-6.14-5.71-4.31S68.57,57.1,68.57,61.31Z"/><path class="cls-11" d="M71.08,60.42c0,.94.57,1.37,1.27,1A3,3,0,0,0,73.62,59c0-.93-.57-1.36-1.27-1A3.05,3.05,0,0,0,71.08,60.42Z"/><path class="cls-11" d="M75.92,57.56c0,.94.57,1.37,1.27,1a3,3,0,0,0,1.27-2.42c0-.94-.57-1.37-1.27-1A3.07,3.07,0,0,0,75.92,57.56Z"/><path class="cls-15" d="M59.73,51.25a1.94,1.94,0,1,0,1.92-2.2A2.08,2.08,0,0,0,59.73,51.25Z"/><path class="cls-15" d="M73.77,43.24A1.9,1.9,0,1,0,75.64,41,2.05,2.05,0,0,0,73.77,43.24Z"/><path class="cls-12" d="M73.77,23.43s-3.85-2.46-7.63-.31a9.57,9.57,0,0,0-4.49,5.09l2.63,1.47Z"/><path class="cls-12" d="M55.3,35.69l-3.23-1.4s-6.46-2-10,3.45c-1.8,2.75-2.12,7.7-.35,10.54s5.6,3.56,5.6,3.56l.62-10Z"/><path class="cls-11" d="M55.3,35.69a32.27,32.27,0,0,0-4.88,6.9,35.38,35.38,0,0,0-3.13,9.25s-7.49-3.73-4.58-11.45C46.14,31.31,55.3,35.69,55.3,35.69Z"/><path class="cls-11" d="M71.4,31a24.4,24.4,0,0,0-7.12-1.34s2.11-8,8.09-6.73c7.14,1.55,4.06,12.38,4.06,12.38A11.66,11.66,0,0,0,71.4,31Z"/><path class="cls-15" d="M44.7,19.74a31.35,31.35,0,0,1,5.9,2.48A29.58,29.58,0,0,1,56.23,26c.72.69,1.22,2.1,0,2.81a3.47,3.47,0,0,1-3.38-.61,44.37,44.37,0,0,0-5.39-3.68c-1.52-.88-4.85-2-6.36-2.75-.9-.43-1.16-1.08-.16-1.66A6.36,6.36,0,0,1,44.7,19.74Z"/><path class="cls-16" d="M20.91,16l-2,.35c-1.71.33-3.78.7-3.78.7a34.54,34.54,0,0,0-2.34-5.55A4.82,4.82,0,0,0,7.71,9.33a32.29,32.29,0,0,0,1.54,3.78c1.09,2.32,2,6.56,3.26,7.51s1.86.57,4.92-.94L21,17.88A3.24,3.24,0,0,1,20.91,16Z"/><path class="cls-15" d="M13.26,53A9.19,9.19,0,0,1,13,54.32,3.82,3.82,0,0,0,13,56a1,1,0,0,0,.79.55,2.4,2.4,0,0,0,1.08,0,8.21,8.21,0,0,0,1.36,1.26,6.31,6.31,0,0,0,2.93.89c.74-.11,1.14-.69,1.08-1.07a4.58,4.58,0,0,0-1.65-1.85,15.65,15.65,0,0,1-1.85-1.62,8.82,8.82,0,0,1-.92-1.2Z"/><path class="cls-15" d="M2.2,58.6a9.83,9.83,0,0,0-.35,2.33,1.73,1.73,0,0,0,.51,1.35.5.5,0,0,0,.56.16,4.28,4.28,0,0,0,1,2.48,3.59,3.59,0,0,0,3,.52c.7-.26.24-1.52-.44-2.76A15.41,15.41,0,0,1,4.71,59C3.05,58.77,2.2,58.6,2.2,58.6Z"/><path class="cls-15" d="M12.24,23.41a57,57,0,0,1,2.49,7.73c.33,2.22,1,5.59,1.41,8.39a39.55,39.55,0,0,1,.21,8.27,33.06,33.06,0,0,0-.27,5.47c-.23,1-2.58,1.13-2.86,0-.17-.72-2-7.12-2.16-9.14a9.45,9.45,0,0,1,.29-3.45s-2.93-6.29-4-8.76a10.5,10.5,0,0,1-.33-5.54Z"/><path class="cls-3" d="M4.52,25.69a16.43,16.43,0,0,0-1.89,4.12c-.59,1.84-.5,6.27-.5,6.27A44.92,44.92,0,0,0,2.26,42a10.65,10.65,0,0,1,.26,1.81,24.41,24.41,0,0,0-1,7.88C1.68,55.92,2,59,2,59a1.46,1.46,0,0,0,1.33.92,2.4,2.4,0,0,0,1.73-.59S6.93,50.26,7.61,48.2a25.71,25.71,0,0,0,.93-4.44L9.92,33.61s2.75-1.8,1.34-6.32C10.38,24.46,4.52,25.69,4.52,25.69Z"/><path class="cls-17" d="M1.39,14.14a8.4,8.4,0,0,1,8-4.23,6.9,6.9,0,0,1,2.57,3.22,8.68,8.68,0,0,1,.51,3.93c-.44,3.81,1,8.74,1.34,10.2C9.65,31.5,5.16,28.88,4,28.43a.41.41,0,0,1-.28-.37,38.58,38.58,0,0,0-2.54-8.55A7.4,7.4,0,0,1,1.39,14.14Z"/><path class="cls-18" d="M4.37,12.15c.26-.15,2.3,2.14,3.7,3.29s2.11,1.61,2.11,1.61,1-3.75,0-5.11S4.37,12.15,4.37,12.15Z"/><path class="cls-19" d="M8.5,8.23s-.28,1.87.4,2.51a1.41,1.41,0,0,1-.68,2.42c-1.65.54-2.82-.66-3.85-1.48.44-.95.66-.94.66-3.59C5,5.93,8.5,8.23,8.5,8.23Z"/><path class="cls-16" d="M2.39,12.9a4.17,4.17,0,0,0-1.95,3,43.32,43.32,0,0,0-.4,7.9C.2,26,.48,26.28,1,26.73A9.18,9.18,0,0,0,4.61,28.5a8,8,0,0,0,3.53.22s.25-.34-.39-2.41c-.13-.07-1-.43-1.51-.68-1.5-.75-2.31-1.21-2.31-1.21s.79-2.42,1.5-5.05C5.94,14.41,2.39,12.9,2.39,12.9Z"/><path class="cls-16" d="M5,9.86a3.79,3.79,0,0,0,1.18,1.77c1,.77,3,.9,3,1.43-.56,0-.67,0-.67.44,0,.76-.23.94-.23.94s-1.4-.4-2.41-.82A4.14,4.14,0,0,1,4,11.34S4.22,9.78,5,9.86Z"/><path class="cls-16" d="M9.12,9.91s.82.9,1.17,1.31.15,1.16.33,1.5a5.35,5.35,0,0,1,.25.57s-.73-.15-.87-.57-.88.34-.88.34l-.51-.42s.78-.5.51-1-.7-1.23-.7-1.23Z"/><path class="cls-20" d="M5.5,3.64c1-1.13,3.73-1.6,4.7.07a7.9,7.9,0,0,1,.57,4.5c-.42,2.15-2.18,3.43-4.22,1.78S3.73,5.6,5.5,3.64Z"/><path class="cls-20" d="M6.57,7.48s-.6-.9-1.12-.22S6,8.61,6,8.61Z"/><path class="cls-15" d="M13,3.4a5.65,5.65,0,0,1-3.25-1,4.84,4.84,0,0,0-3.23-.92C5.23,1.61,4,2.59,4.42,3.91A2.05,2.05,0,0,0,3.17,5.44C2.89,6.82,4.18,8,5,9,5,9,6.46,6.52,6.47,5.29a21.9,21.9,0,0,1,4-.48,12.22,12.22,0,0,1,.37,1.43C12,6.27,12.89,4.26,13,3.4Z"/><path class="cls-7" d="M20.53,15.71l-2.08-1.17h0l-.08,0a3.54,3.54,0,0,0-3.36.37c-3,1.71-5.36,6.3-5.36,10.25,0,2.2.74,3.73,1.9,4.37h0l0,0h0l2,1.12.48-1a5.28,5.28,0,0,0,.95-.43c3-1.71,5.37-6.3,5.37-10.25a7.39,7.39,0,0,0-.31-2.22Z"/><path class="cls-7" d="M20.53,15.71l-2.08-1.17h0l-.08,0a3,3,0,0,0-1.93-.2l3.61,2.08-.84.49-3.81-2.2a3.6,3.6,0,0,0-.39.2,3.74,3.74,0,0,0-.49.32l3,1.73-.83.49-2.88-1.66a9.63,9.63,0,0,0-.72.71l3.29,1.9-.83.49-3-1.74c-.21.27-.42.55-.61.84l3.44,2-.83.48-3-1.76c-.17.29-.33.6-.48.91l3.44,2-.84.48-2.94-1.7c-.14.35-.28.71-.4,1.07l3.62,2.09-.83.48-3-1.74a10.24,10.24,0,0,0-.25,1.2l3.85,2.22-.84.48-3.12-1.8c0,.26,0,.53,0,.79s0,.43,0,.63l3.56,2.06-.83.48L9.82,26.79a5,5,0,0,0,.61,1.6l3.31,1.91.32-.7a5.28,5.28,0,0,0,.95-.43c3-1.71,5.37-6.3,5.37-10.25a7.39,7.39,0,0,0-.31-2.22Z"/><path class="cls-8" d="M17.52,16.91l-3-1.73a7.25,7.25,0,0,0-.71.56l2.88,1.66Z"/><path class="cls-8" d="M20.05,16.37l-3.61-2.08a4.35,4.35,0,0,0-1,.37l3.81,2.2Z"/><path class="cls-8" d="M16.38,18.35l-3.29-1.9c-.19.21-.38.42-.55.65l3,1.74Z"/><path class="cls-8" d="M15.37,19.93l-3.44-2c-.15.23-.3.47-.44.71l3,1.76Z"/><path class="cls-8" d="M14.45,21.54l-3.44-2c-.12.25-.23.5-.34.76L13.61,22Z"/><path class="cls-8" d="M13.89,23.48l-3.62-2.09c-.08.27-.16.55-.23.83l3,1.74Z"/><path class="cls-8" d="M13.64,25.64,9.79,23.42c0,.3-.09.6-.11.9l3.12,1.8Z"/><path class="cls-8" d="M13.23,27.8,9.67,25.74a7.8,7.8,0,0,0,.15,1.05l2.58,1.49Z"/><path class="cls-8" d="M11.55,29.48h0l0,0h0l2,1.12.16-.33-3.31-1.91A3.15,3.15,0,0,0,11.55,29.48Z"/><path class="cls-9" d="M22.41,20.06c0,4-2.4,8.55-5.37,10.26s-5.36-.11-5.36-4.06S14.08,17.72,17,16,22.41,16.11,22.41,20.06Z"/><path class="cls-10" d="M19.57,16.32c1,.53,1.66,1.89,1.64,3.85,0,3.48-2.16,7.55-4.73,9.09a3.28,3.28,0,0,1-2.39.53A3,3,0,0,0,17,29.45c2.57-1.54,4.69-5.61,4.73-9.09C21.79,18.07,20.91,16.61,19.57,16.32Z"/><path class="cls-8" d="M19.57,16.32c1,.53,1.66,1.89,1.64,3.85,0,3.48-2.16,7.55-4.73,9.09a3.28,3.28,0,0,1-2.39.53A3,3,0,0,0,17,29.45c2.57-1.54,4.69-5.61,4.73-9.09C21.79,18.07,20.91,16.61,19.57,16.32Z"/><path class="cls-10" d="M16.48,29.26c2.57-1.54,4.69-5.61,4.73-9.09,0-2-.62-3.32-1.64-3.85a3.28,3.28,0,0,0-2.39.52c-2.56,1.54-4.68,5.61-4.72,9.1,0,1.95.61,3.31,1.63,3.85A3.28,3.28,0,0,0,16.48,29.26Z"/><path class="cls-8" d="M17,27.72a12.55,12.55,0,0,0,.27-1.36,7.25,7.25,0,0,0,1.3-2.08c.61-1.47.13-1.93-.36-2.05a1.83,1.83,0,0,0-.79.06c0-.89.08-1.95,0-2.8a1.11,1.11,0,0,1,1,.09c.07,0,.23-.23.2-.32-.15-.47-.62-.65-1.3-.27a1.78,1.78,0,0,0-.29-.75s-.1.09-.1.14c0,.28,0,.58,0,.87a4.87,4.87,0,0,0-1.81,3.18c-.09,1.25.86.94,1.6.75l.2,0c0,.93-.14,2-.21,3.07a2,2,0,0,1-1.14.41.89.89,0,0,1-.88-.57c0-.08-.21.12-.25.29-.24,1.25.8,1.49,1.93.76l.3-.22a7.49,7.49,0,0,0,0,1.08C16.75,28.09,16.93,27.91,17,27.72ZM15.8,22.29c-.31-.5.22-1.68,1-2.39l.15-.13c0,.89,0,1.76,0,2.63l-.28.08A1.25,1.25,0,0,1,15.8,22.29Zm2,.82c.35.15,1,.62-.48,2.52h0a22.83,22.83,0,0,0,.07-2.57A.91.91,0,0,1,17.83,23.11Z"/><path class="cls-20" d="M7.75,26.31A1.71,1.71,0,0,0,7,27.53a2.52,2.52,0,0,0,.4,1.38,8.79,8.79,0,0,0,2.55.81c1.15,0,2.1-.1,2-.46.64-.25,0-.78,0-.78s.74-.08.44-.57c-.17-.27-1.27-.28-2-.45a2.91,2.91,0,0,1-1-.47,6.33,6.33,0,0,0,1.41-.84c.39-.52.12-1-.59-.55A7.86,7.86,0,0,1,7.75,26.31Z"/><path class="cls-1" d="M22,17.53c0,.1.62.29.75.76a.66.66,0,0,1-.15.69,3.26,3.26,0,0,1,0,1.14c-.12.57-1,1.25-1.18.94a2.72,2.72,0,0,1-.06-1.73,4,4,0,0,1,.82-1.28Z"/><path class="cls-7" d="M36.07,94.55v6.78c.34,0,.67,0,1-.1V94.55Z"/><path class="cls-7" d="M34.7,94.55v6.79l.58,0h.28v-6.8Z"/><path class="cls-7" d="M27.15,94.55v1.93a3.24,3.24,0,0,0,.61,1.84V94.55Z"/><path class="cls-7" d="M37.58,94.55v6.61c.34-.06.67-.14,1-.22V94.55Z"/><path class="cls-7" d="M39.09,94.55v6.24l.73-.26v-6Z"/><path class="cls-7" d="M29.51,94.55v5.36c.23.14.48.27.73.39V94.55Z"/><path class="cls-7" d="M33.33,94.55v6.66l.86.1V94.55Z"/><path class="cls-7" d="M30.75,94.55v6l.73.26V94.55Z"/><path class="cls-7" d="M32,94.55v6.39l.83.19V94.55Z"/><path class="cls-7" d="M28.27,94.55v4.38a5.07,5.07,0,0,0,.73.64v-5Z"/><path class="cls-7" d="M43.42,94.55h-.61v3.77a3.24,3.24,0,0,0,.61-1.84Z"/><path class="cls-7" d="M41.57,94.55v5a5.07,5.07,0,0,0,.73-.64V94.55Z"/><path class="cls-7" d="M40.33,94.55v5.75c.25-.12.5-.25.73-.39V94.55Z"/><path class="cls-8" d="M27.76,94.55v3.77a3.59,3.59,0,0,0,.51.61V94.55Z"/><path class="cls-8" d="M29,94.55v5c.16.12.33.23.51.34V94.55Z"/><path class="cls-8" d="M30.24,94.55v5.75l.51.23v-6Z"/><path class="cls-8" d="M31.48,94.55v6.24l.51.15V94.55Z"/><path class="cls-8" d="M32.82,94.55v6.58l.51.08V94.55Z"/><path class="cls-8" d="M34.19,94.55v6.76l.51,0V94.55Z"/><path class="cls-8" d="M35.56,94.55v6.8l.51,0V94.55Z"/><path class="cls-8" d="M37.07,94.55v6.68l.51-.07V94.55Z"/><path class="cls-8" d="M42.3,94.55v4.38a3.59,3.59,0,0,0,.51-.61V94.55Z"/><path class="cls-8" d="M41.06,94.55v5.36c.18-.11.35-.22.51-.34v-5Z"/><path class="cls-8" d="M39.82,94.55v6l.51-.23V94.55Z"/><path class="cls-8" d="M38.58,94.55v6.39l.51-.15V94.55Z"/><path class="cls-9" d="M35.28,89.67c-4.49,0-8.13,2.19-8.13,4.88s3.64,4.88,8.13,4.88,8.14-2.19,8.14-4.88S39.78,89.67,35.28,89.67Z"/><path class="cls-8" d="M35.28,90.64c3.78,0,6.86,1.78,7.08,4,0-.08,0-.16,0-.24,0-2.35-3.18-4.26-7.1-4.26s-7.09,1.91-7.09,4.26c0,.08,0,.16,0,.24C28.43,92.42,31.51,90.64,35.28,90.64Z"/><path class="cls-10" d="M35.28,98.66c3.78,0,6.86-1.77,7.08-4-.22-2.23-3.3-4-7.08-4s-6.85,1.78-7.07,4C28.43,96.89,31.51,98.66,35.28,98.66Z"/><path class="cls-8" d="M39.65,94.4c.6,1.71-1,2.21-2.07,2.34a9.73,9.73,0,0,1-4.87-.84c-1.22-.66-2-1.55-1.59-2.43s2.36-1.33,3.73-1.37c.5,0,.19-.46,0-.46-2.22,0-3.74.46-4.35,1.55s.21,2.48,1.84,3.34c2.45,1.3,5.64,1.24,7.1.12a1.72,1.72,0,0,0,.66-2.3C40,94.16,39.58,94.21,39.65,94.4Z"/><path class="cls-8" d="M37.82,94c-.91.53-3.66,2-5.37,3.13-.39.25.08.48.46.26,1.28-.75,3.71-2.06,5.33-3.14C38.42,94.14,38,93.89,37.82,94Z"/><path class="cls-8" d="M36.28,93.18c-.9.53-3.65,2-5.36,3.13-.39.25.08.47.46.25,1.28-.74,3.71-2.06,5.32-3.14C36.89,93.3,36.49,93.06,36.28,93.18Z"/><path class="cls-7" d="M20.06,77.1v6.78c.34,0,.67,0,1-.09V77.1Z"/><path class="cls-7" d="M18.69,77.1v6.79l.58,0h.28V77.1Z"/><path class="cls-7" d="M11.14,77.1V79a3.31,3.31,0,0,0,.6,1.84V77.1Z"/><path class="cls-7" d="M21.57,77.1v6.61c.34-.06.67-.14,1-.22V77.1Z"/><path class="cls-7" d="M23.07,77.1v6.24c.26-.08.5-.17.74-.26v-6Z"/><path class="cls-7" d="M13.5,77.1v5.36a7.19,7.19,0,0,0,.73.39V77.1Z"/><path class="cls-7" d="M17.32,77.1v6.66l.86.1V77.1Z"/><path class="cls-7" d="M14.74,77.1v6l.73.26V77.1Z"/><path class="cls-7" d="M16,77.1v6.39l.83.19V77.1Z"/><path class="cls-7" d="M12.25,77.1v4.38a5.16,5.16,0,0,0,.74.64v-5Z"/><path class="cls-7" d="M27.4,77.1h-.6v3.77A3.23,3.23,0,0,0,27.4,79Z"/><path class="cls-7" d="M25.56,77.1v5a5.67,5.67,0,0,0,.73-.64V77.1Z"/><path class="cls-7" d="M24.32,77.1v5.75c.25-.12.5-.25.73-.39V77.1Z"/><path class="cls-8" d="M11.74,77.1v3.77a4.85,4.85,0,0,0,.51.61V77.1Z"/><path class="cls-8" d="M13,77.1v5c.16.12.33.23.51.34V77.1Z"/><path class="cls-8" d="M14.23,77.1v5.75c.17.08.33.16.51.23v-6Z"/><path class="cls-8" d="M15.47,77.1v6.24l.51.15V77.1Z"/><path class="cls-8" d="M16.81,77.1v6.58l.51.08V77.1Z"/><path class="cls-8" d="M18.18,77.1v6.76l.51,0V77.1Z"/><path class="cls-8" d="M19.55,77.1v6.8l.51,0V77.1Z"/><path class="cls-8" d="M21.06,77.1v6.69l.51-.08V77.1Z"/><path class="cls-8" d="M26.29,77.1v4.38a4.13,4.13,0,0,0,.51-.61V77.1Z"/><path class="cls-8" d="M25.05,77.1v5.36c.18-.11.35-.22.51-.34v-5Z"/><path class="cls-8" d="M23.81,77.1v6l.51-.23V77.1Z"/><path class="cls-8" d="M22.56,77.1v6.39l.51-.15V77.1Z"/><path class="cls-9" d="M19.27,72.22c-4.49,0-8.13,2.19-8.13,4.88S14.78,82,19.27,82,27.4,79.8,27.4,77.1,23.76,72.22,19.27,72.22Z"/><path class="cls-8" d="M19.27,73.2c3.78,0,6.86,1.77,7.07,4a1.94,1.94,0,0,0,0-.24c0-2.35-3.17-4.26-7.09-4.26S12.18,74.61,12.18,77a1.94,1.94,0,0,0,0,.24C12.42,75,15.5,73.2,19.27,73.2Z"/><path class="cls-10" d="M19.27,81.21c3.78,0,6.86-1.77,7.07-4-.21-2.23-3.29-4-7.07-4s-6.85,1.77-7.07,4C12.42,79.44,15.5,81.21,19.27,81.21Z"/><path class="cls-8" d="M23.83,79.51a6.13,6.13,0,0,0-.81-.8,1.58,1.58,0,0,0,.15-1.5c-.37-1-1.56-1.07-2.44-1a6.09,6.09,0,0,0-1.21.28C18.68,76,17.86,75.45,17,75a4.57,4.57,0,0,1,1.74-.28.12.12,0,0,0,0-.23,3.14,3.14,0,0,0-2.32.26,4.55,4.55,0,0,0-1.15-.31c-.06,0-.07.08,0,.1l.79.46a1.29,1.29,0,0,0,0,2.25c1,.69,2.22.23,3.23-.09l.27-.09c.86.49,1.67,1.12,2.49,1.69a3.6,3.6,0,0,1-1.42.57,4.65,4.65,0,0,1-1.93,0,.14.14,0,0,0-.13.23c.76.73,2.63.54,3.76-.19l.28-.21a10.5,10.5,0,0,0,1,.57A.13.13,0,0,0,23.83,79.51ZM17,77c-1-.17-1.19-1-.58-1.58a.45.45,0,0,1,.13-.11c.79.47,1.59.93,2.39,1.39l-.38.13A6.06,6.06,0,0,1,17,77Zm4-.19c.69,0,2.08,0,1.55,1.48h0a20.87,20.87,0,0,0-2.25-1.38A4.07,4.07,0,0,1,21,76.81Z"/><path class="cls-7" d="M56.14,86.13v6.78c.34,0,.67,0,1-.1V86.13Z"/><path class="cls-7" d="M54.77,86.13v6.79h.86v-6.8Z"/><path class="cls-7" d="M47.22,86.13v1.93a3.19,3.19,0,0,0,.61,1.83V86.13Z"/><path class="cls-7" d="M57.65,86.13v6.6c.34-.06.67-.13,1-.22V86.13Z"/><path class="cls-7" d="M59.16,86.13v6.24l.73-.26v-6Z"/><path class="cls-7" d="M49.58,86.13v5.36c.23.14.48.27.73.39V86.13Z"/><path class="cls-7" d="M53.4,86.13v6.66c.29,0,.57.07.86.09V86.13Z"/><path class="cls-7" d="M50.82,86.13v6c.24.09.48.18.74.26V86.13Z"/><path class="cls-7" d="M52.07,86.13v6.38a7,7,0,0,0,.82.19V86.13Z"/><path class="cls-7" d="M48.34,86.13v4.38a6.55,6.55,0,0,0,.73.64v-5Z"/><path class="cls-7" d="M63.49,86.13h-.61v3.76a3.19,3.19,0,0,0,.61-1.83Z"/><path class="cls-7" d="M61.64,86.13v5a5.76,5.76,0,0,0,.73-.64V86.13Z"/><path class="cls-7" d="M60.4,86.13v5.75a7.19,7.19,0,0,0,.73-.39V86.13Z"/><path class="cls-8" d="M47.83,86.13v3.76a3.65,3.65,0,0,0,.51.62V86.13Z"/><path class="cls-8" d="M49.07,86.13v5c.16.12.33.23.51.34V86.13Z"/><path class="cls-8" d="M50.31,86.13v5.75l.51.23v-6Z"/><path class="cls-8" d="M51.56,86.13v6.24l.51.14V86.13Z"/><path class="cls-8" d="M52.89,86.13V92.7l.51.09V86.13Z"/><path class="cls-8" d="M54.26,86.13v6.75l.51,0V86.13Z"/><path class="cls-8" d="M55.63,86.13v6.8l.51,0V86.13Z"/><path class="cls-8" d="M57.14,86.13v6.68l.51-.08v-6.6Z"/><path class="cls-8" d="M62.37,86.13v4.38a3.65,3.65,0,0,0,.51-.62V86.13Z"/><path class="cls-8" d="M61.13,86.13v5.36c.18-.11.35-.22.51-.34v-5Z"/><path class="cls-8" d="M59.89,86.13v6l.51-.23V86.13Z"/><path class="cls-8" d="M58.65,86.13v6.38l.51-.14V86.13Z"/><path class="cls-9" d="M55.36,81.25c-4.49,0-8.14,2.18-8.14,4.88S50.87,91,55.36,91s8.13-2.19,8.13-4.88S59.85,81.25,55.36,81.25Z"/><path class="cls-8" d="M55.36,82.22c3.77,0,6.85,1.78,7.07,4,0-.08,0-.16,0-.24,0-2.35-3.18-4.26-7.09-4.26s-7.1,1.91-7.1,4.26c0,.08,0,.16,0,.24C48.5,84,51.58,82.22,55.36,82.22Z"/><path class="cls-10" d="M55.36,90.24c3.77,0,6.85-1.77,7.07-4-.22-2.23-3.3-4-7.07-4s-6.86,1.78-7.08,4C48.5,88.47,51.58,90.24,55.36,90.24Z"/><path class="cls-8" d="M59.92,88.54a7.65,7.65,0,0,0-.81-.8,1.61,1.61,0,0,0,.14-1.5c-.37-1-1.56-1.07-2.44-1a6.07,6.07,0,0,0-1.21.27c-.84-.47-1.65-1.06-2.53-1.49a4.75,4.75,0,0,1,1.74-.27.12.12,0,0,0,0-.23,3.13,3.13,0,0,0-2.32.25,5,5,0,0,0-1.15-.3c-.06,0-.07.07,0,.1l.79.46a1.29,1.29,0,0,0,0,2.24c1,.7,2.23.24,3.24-.09l.27-.08c.86.49,1.66,1.12,2.49,1.69a3.8,3.8,0,0,1-1.43.57,4.49,4.49,0,0,1-1.93,0,.14.14,0,0,0-.13.23c.76.74,2.63.55,3.76-.19a1.46,1.46,0,0,0,.28-.21,7.55,7.55,0,0,0,1,.57A.13.13,0,0,0,59.92,88.54ZM53.06,86c-1-.17-1.19-1-.58-1.58l.13-.11c.8.47,1.59.94,2.4,1.4l-.38.12A5.4,5.4,0,0,1,53.06,86Zm4-.18c.7,0,2.09,0,1.55,1.48h0a18.46,18.46,0,0,0-2.24-1.38A3.82,3.82,0,0,1,57,85.84Z"/><path class="cls-7" d="M60.16,82.55v6.78c.34,0,.67,0,1-.09V82.55Z"/><path class="cls-7" d="M58.79,82.55v6.79l.58,0h.28v-6.8Z"/><path class="cls-7" d="M51.24,82.55v1.93a3.31,3.31,0,0,0,.6,1.84V82.55Z"/><path class="cls-7" d="M61.67,82.55v6.61c.34-.06.67-.14,1-.22V82.55Z"/><path class="cls-7" d="M63.17,82.55v6.24c.25-.08.5-.16.74-.26v-6Z"/><path class="cls-7" d="M53.6,82.55v5.36a7.19,7.19,0,0,0,.73.39V82.55Z"/><path class="cls-7" d="M57.42,82.55v6.66c.28,0,.57.08.86.1V82.55Z"/><path class="cls-7" d="M54.84,82.55v6c.23.1.48.18.73.26V82.55Z"/><path class="cls-7" d="M56.08,82.55v6.39c.27.07.55.14.83.19V82.55Z"/><path class="cls-7" d="M52.35,82.55v4.39a5.82,5.82,0,0,0,.74.63v-5Z"/><path class="cls-7" d="M67.5,82.55h-.6v3.77a3.23,3.23,0,0,0,.6-1.84Z"/><path class="cls-7" d="M65.66,82.55v5a6.49,6.49,0,0,0,.73-.63V82.55Z"/><path class="cls-7" d="M64.42,82.55V88.3c.25-.12.5-.25.73-.39V82.55Z"/><path class="cls-8" d="M51.84,82.55v3.77a5.77,5.77,0,0,0,.51.62V82.55Z"/><path class="cls-8" d="M53.09,82.55v5c.16.12.33.23.51.34V82.55Z"/><path class="cls-8" d="M54.33,82.55V88.3c.17.08.33.16.51.23v-6Z"/><path class="cls-8" d="M55.57,82.55v6.24l.51.15V82.55Z"/><path class="cls-8" d="M56.91,82.55v6.58l.51.08V82.55Z"/><path class="cls-8" d="M58.28,82.55v6.76l.51,0V82.55Z"/><path class="cls-8" d="M59.65,82.55v6.8l.51,0V82.55Z"/><path class="cls-8" d="M61.16,82.55v6.69l.51-.08V82.55Z"/><path class="cls-8" d="M66.39,82.55v4.39a4.78,4.78,0,0,0,.51-.62V82.55Z"/><path class="cls-8" d="M65.15,82.55v5.36c.18-.11.35-.22.51-.34v-5Z"/><path class="cls-8" d="M63.91,82.55v6l.51-.23V82.55Z"/><path class="cls-8" d="M62.66,82.55v6.39l.51-.15V82.55Z"/><path class="cls-9" d="M59.37,77.67c-4.49,0-8.13,2.19-8.13,4.88s3.64,4.88,8.13,4.88,8.13-2.18,8.13-4.88S63.86,77.67,59.37,77.67Z"/><path class="cls-8" d="M59.37,78.65c3.78,0,6.86,1.77,7.07,4a2.29,2.29,0,0,0,0-.25c0-2.35-3.17-4.25-7.09-4.25s-7.09,1.9-7.09,4.25a2.29,2.29,0,0,0,0,.25C52.51,80.42,55.59,78.65,59.37,78.65Z"/><path class="cls-10" d="M59.37,86.66c3.78,0,6.86-1.77,7.07-4-.21-2.24-3.29-4-7.07-4s-6.86,1.77-7.07,4C52.51,84.89,55.59,86.66,59.37,86.66Z"/><path class="cls-8" d="M63.93,85a7.66,7.66,0,0,0-.81-.8,1.58,1.58,0,0,0,.15-1.5c-.37-1-1.56-1.06-2.44-1a5.45,5.45,0,0,0-1.21.27c-.84-.47-1.66-1.06-2.53-1.49a4.54,4.54,0,0,1,1.74-.28.11.11,0,0,0,0-.22,3.08,3.08,0,0,0-2.32.25,4.55,4.55,0,0,0-1.15-.31c-.06,0-.07.08,0,.1l.79.47a1.28,1.28,0,0,0,0,2.24c1,.69,2.22.23,3.23-.09l.27-.09c.86.49,1.67,1.13,2.49,1.69a3.6,3.6,0,0,1-1.42.57,4.65,4.65,0,0,1-1.93,0,.14.14,0,0,0-.13.23c.76.73,2.63.54,3.76-.19l.28-.21a8.06,8.06,0,0,0,1,.57A.13.13,0,0,0,63.93,85Zm-6.85-2.51c-1-.17-1.19-1-.59-1.58l.14-.11c.79.47,1.59.93,2.39,1.39l-.38.13A6.06,6.06,0,0,1,57.08,82.45Zm4-.19c.7,0,2.09,0,1.56,1.48h0a21,21,0,0,0-2.25-1.39A4.1,4.1,0,0,1,61,82.26Z"/><path class="cls-7" d="M18.37,70.54v6.79c.34,0,.67-.06,1-.1V70.54Z"/><path class="cls-7" d="M17,70.54v6.79l.58,0h.28v-6.8Z"/><path class="cls-7" d="M9.45,70.54v1.93a3.31,3.31,0,0,0,.6,1.84V70.54Z"/><path class="cls-7" d="M19.88,70.54v6.61c.34-.06.67-.13,1-.22V70.54Z"/><path class="cls-7" d="M21.38,70.54v6.24c.25-.08.5-.16.74-.26v-6Z"/><path class="cls-7" d="M11.81,70.54V75.9a7.19,7.19,0,0,0,.73.39V70.54Z"/><path class="cls-7" d="M15.63,70.54V77.2c.28,0,.57.08.86.1V70.54Z"/><path class="cls-7" d="M13.05,70.54v6c.23.1.48.18.73.26V70.54Z"/><path class="cls-7" d="M14.29,70.54v6.39c.27.07.55.14.83.19V70.54Z"/><path class="cls-7" d="M10.56,70.54v4.39a5.87,5.87,0,0,0,.74.64v-5Z"/><path class="cls-7" d="M25.71,70.54h-.6v3.77a3.23,3.23,0,0,0,.6-1.84Z"/><path class="cls-7" d="M23.87,70.54v5a6.55,6.55,0,0,0,.73-.64V70.54Z"/><path class="cls-7" d="M22.63,70.54v5.75c.25-.12.5-.25.73-.39V70.54Z"/><path class="cls-8" d="M10.05,70.54v3.77a5.77,5.77,0,0,0,.51.62V70.54Z"/><path class="cls-8" d="M11.3,70.54v5c.16.11.33.23.51.33V70.54Z"/><path class="cls-8" d="M12.54,70.54v5.75c.17.08.33.16.51.23v-6Z"/><path class="cls-8" d="M13.78,70.54v6.24c.17.06.34.1.51.15V70.54Z"/><path class="cls-8" d="M15.12,70.54v6.58l.51.08V70.54Z"/><path class="cls-8" d="M16.49,70.54V77.3l.51,0V70.54Z"/><path class="cls-8" d="M17.86,70.54v6.8h.51V70.54Z"/><path class="cls-8" d="M19.37,70.54v6.69l.51-.08V70.54Z"/><path class="cls-8" d="M24.6,70.54v4.39a4.78,4.78,0,0,0,.51-.62V70.54Z"/><path class="cls-8" d="M23.36,70.54V75.9c.18-.1.35-.22.51-.33v-5Z"/><path class="cls-8" d="M22.12,70.54v6l.51-.23V70.54Z"/><path class="cls-8" d="M20.87,70.54v6.39c.18-.05.35-.09.51-.15V70.54Z"/><path class="cls-9" d="M17.58,65.67c-4.49,0-8.13,2.18-8.13,4.87s3.64,4.88,8.13,4.88,8.13-2.18,8.13-4.88S22.07,65.67,17.58,65.67Z"/><path class="cls-8" d="M17.58,66.64c3.78,0,6.86,1.77,7.07,4a2.11,2.11,0,0,0,0-.25c0-2.35-3.17-4.25-7.09-4.25s-7.09,1.9-7.09,4.25a2.11,2.11,0,0,0,0,.25C10.72,68.41,13.8,66.64,17.58,66.64Z"/><path class="cls-10" d="M17.58,74.66c3.78,0,6.86-1.78,7.07-4-.21-2.24-3.29-4-7.07-4s-6.86,1.77-7.07,4C10.72,72.88,13.8,74.66,17.58,74.66Z"/><path class="cls-8" d="M16.91,68.34c-.12-.31-.2-.65-.34-1s-.63-.16-.58.09a7.72,7.72,0,0,0,.29.85A14.17,14.17,0,0,0,17,70.05c-1.57-.12-3.08-.23-4.64-.29-.4,0-.45.45-.05.49,1.64.16,3.3.23,5,.4,1.12.68,2.77,1.53,4.06,2.22.28.16.78-.12.5-.27-.79-.44-4.07-2.32-4.08-2.34C17.43,69.66,17.16,68.94,16.91,68.34Z"/><path class="cls-8" d="M20.71,69c-.9.52-3.66,2-5.36,3.12-.39.26.08.48.45.26,1.28-.74,3.72-2.06,5.33-3.14C21.32,69.14,20.91,68.9,20.71,69Z"/><path class="cls-8" d="M21.89,69.81c-.91.52-3.66,2-5.37,3.12-.39.25.09.48.46.26,1.28-.74,3.71-2.06,5.33-3.14C22.49,69.93,22.09,69.69,21.89,69.81Z"/><path class="cls-7" d="M37.58,82.05v6.79c.34,0,.67-.06,1-.1V82.05Z"/><path class="cls-7" d="M36.21,82.05v6.79l.58,0h.28v-6.8Z"/><path class="cls-7" d="M28.66,82.05V84a3.23,3.23,0,0,0,.6,1.84V82.05Z"/><path class="cls-7" d="M39.08,82.05v6.61c.34-.06.68-.13,1-.22V82.05Z"/><path class="cls-7" d="M40.59,82.05v6.24c.25-.08.5-.16.73-.26v-6Z"/><path class="cls-7" d="M31,82.05v5.36c.23.14.48.27.74.4V82.05Z"/><path class="cls-7" d="M34.84,82.05v6.66a7.79,7.79,0,0,0,.86.1V82.05Z"/><path class="cls-7" d="M32.26,82.05v6c.23.1.48.18.73.26V82.05Z"/><path class="cls-7" d="M33.5,82.05v6.39c.27.07.54.14.83.19V82.05Z"/><path class="cls-7" d="M29.77,82.05v4.39a6.55,6.55,0,0,0,.73.64v-5Z"/><path class="cls-7" d="M44.92,82.05h-.6v3.77a3.31,3.31,0,0,0,.6-1.84Z"/><path class="cls-7" d="M43.07,82.05v5a5.87,5.87,0,0,0,.74-.64V82.05Z"/><path class="cls-7" d="M41.83,82.05v5.76c.26-.13.5-.26.73-.4V82.05Z"/><path class="cls-8" d="M29.26,82.05v3.77a4.19,4.19,0,0,0,.51.62V82.05Z"/><path class="cls-8" d="M30.5,82.05v5c.16.11.33.23.51.33V82.05Z"/><path class="cls-8" d="M31.75,82.05v5.76l.51.22v-6Z"/><path class="cls-8" d="M33,82.05v6.24a4.28,4.28,0,0,0,.51.15V82.05Z"/><path class="cls-8" d="M34.33,82.05v6.58l.51.08V82.05Z"/><path class="cls-8" d="M35.7,82.05v6.76a4.36,4.36,0,0,0,.51,0V82.05Z"/><path class="cls-8" d="M37.07,82.05v6.8h.51V82.05Z"/><path class="cls-8" d="M38.57,82.05v6.69l.51-.08V82.05Z"/><path class="cls-8" d="M43.81,82.05v4.39a4.94,4.94,0,0,0,.51-.62V82.05Z"/><path class="cls-8" d="M42.56,82.05v5.36c.18-.1.35-.22.51-.33v-5Z"/><path class="cls-8" d="M41.32,82.05v6l.51-.22V82.05Z"/><path class="cls-8" d="M40.08,82.05v6.39a4.91,4.91,0,0,0,.51-.15V82.05Z"/><path class="cls-9" d="M36.79,77.18c-4.49,0-8.13,2.18-8.13,4.87s3.64,4.88,8.13,4.88,8.13-2.18,8.13-4.88S41.28,77.18,36.79,77.18Z"/><path class="cls-8" d="M36.79,78.15c3.78,0,6.86,1.77,7.07,4a2,2,0,0,0,0-.25c0-2.35-3.18-4.25-7.09-4.25s-7.09,1.9-7.09,4.25a2,2,0,0,0,0,.25C29.93,79.92,33,78.15,36.79,78.15Z"/><path class="cls-10" d="M36.79,86.17c3.78,0,6.86-1.78,7.07-4-.21-2.24-3.29-4-7.07-4s-6.86,1.77-7.07,4C29.93,84.39,33,86.17,36.79,86.17Z"/><path class="cls-8" d="M36.12,79.85c-.12-.31-.2-.65-.35-1s-.62-.16-.57.09a7.69,7.69,0,0,0,.28.85,16,16,0,0,0,.67,1.74c-1.56-.12-3.07-.22-4.63-.29-.4,0-.45.45-.05.49,1.64.16,3.3.23,5,.4,1.13.68,2.78,1.53,4.06,2.22.28.16.78-.12.5-.27l-4.07-2.33C36.64,81.17,36.36,80.45,36.12,79.85Z"/><path class="cls-8" d="M39.92,80.53c-.91.53-3.66,2-5.37,3.13-.39.25.08.47.46.25,1.28-.74,3.71-2.06,5.33-3.14C40.52,80.65,40.12,80.41,39.92,80.53Z"/><path class="cls-8" d="M41.09,81.32c-.9.52-3.65,2-5.36,3.12-.39.26.08.48.46.26,1.28-.74,3.71-2.06,5.32-3.14C41.7,81.44,41.3,81.2,41.09,81.32Z"/><path class="cls-7" d="M36.06,76.69v6.79c.33,0,.67-.06,1-.1V76.69Z"/><path class="cls-7" d="M34.69,76.69v6.79l.58,0h.28v-6.8Z"/><path class="cls-7" d="M27.14,76.69v1.93a3.23,3.23,0,0,0,.6,1.84V76.69Z"/><path class="cls-7" d="M37.56,76.69V83.3c.34-.06.68-.13,1-.22V76.69Z"/><path class="cls-7" d="M39.07,76.69v6.24c.25-.08.49-.16.73-.26v-6Z"/><path class="cls-7" d="M29.49,76.69v5.36c.23.14.48.27.73.39V76.69Z"/><path class="cls-7" d="M33.31,76.69v6.66c.29,0,.57.08.87.1V76.69Z"/><path class="cls-7" d="M30.73,76.69v6c.24.1.48.18.74.26V76.69Z"/><path class="cls-7" d="M32,76.69v6.39c.27.07.54.14.82.19V76.69Z"/><path class="cls-7" d="M28.25,76.69v4.39a6.55,6.55,0,0,0,.73.64v-5Z"/><path class="cls-7" d="M43.4,76.69h-.6v3.77a3.31,3.31,0,0,0,.6-1.84Z"/><path class="cls-7" d="M41.55,76.69v5a5.87,5.87,0,0,0,.74-.64V76.69Z"/><path class="cls-7" d="M40.31,76.69v5.75a7.19,7.19,0,0,0,.73-.39V76.69Z"/><path class="cls-8" d="M27.74,76.69v3.77a4.78,4.78,0,0,0,.51.62V76.69Z"/><path class="cls-8" d="M29,76.69v5c.16.11.33.23.51.33V76.69Z"/><path class="cls-8" d="M30.22,76.69v5.75l.51.23v-6Z"/><path class="cls-8" d="M31.47,76.69v6.24c.16.06.33.1.51.15V76.69Z"/><path class="cls-8" d="M32.8,76.69v6.58l.51.08V76.69Z"/><path class="cls-8" d="M34.18,76.69v6.76c.16,0,.33,0,.51,0V76.69Z"/><path class="cls-8" d="M35.55,76.69v6.8h.51V76.69Z"/><path class="cls-8" d="M37.05,76.69v6.69l.51-.08V76.69Z"/><path class="cls-8" d="M42.29,76.69v4.39a5.77,5.77,0,0,0,.51-.62V76.69Z"/><path class="cls-8" d="M41,76.69v5.36c.18-.1.35-.22.51-.33v-5Z"/><path class="cls-8" d="M39.8,76.69v6c.18-.07.34-.15.51-.23V76.69Z"/><path class="cls-8" d="M38.56,76.69v6.39l.51-.15V76.69Z"/><path class="cls-9" d="M35.27,71.82c-4.49,0-8.13,2.18-8.13,4.87s3.64,4.88,8.13,4.88,8.13-2.18,8.13-4.88S39.76,71.82,35.27,71.82Z"/><path class="cls-8" d="M35.27,72.79c3.77,0,6.85,1.77,7.07,4a2.11,2.11,0,0,0,0-.25c0-2.35-3.18-4.25-7.09-4.25s-7.09,1.9-7.09,4.25a2.11,2.11,0,0,0,0,.25C28.41,74.56,31.49,72.79,35.27,72.79Z"/><path class="cls-10" d="M35.27,80.81c3.77,0,6.85-1.78,7.07-4-.22-2.24-3.3-4-7.07-4s-6.86,1.77-7.07,4C28.41,79,31.49,80.81,35.27,80.81Z"/><path class="cls-8" d="M39.63,76.54c.6,1.72-1.05,2.22-2.07,2.35A9.56,9.56,0,0,1,32.7,78c-1.23-.65-2-1.55-1.6-2.43s2.36-1.32,3.74-1.37c.49,0,.18-.46,0-.46-2.22,0-3.74.46-4.35,1.55s.22,2.48,1.84,3.35c2.45,1.29,5.64,1.24,7.1.12a1.72,1.72,0,0,0,.66-2.31C40,76.31,39.56,76.36,39.63,76.54Z"/><path class="cls-8" d="M37.8,76.16c-.91.53-3.66,2-5.37,3.13-.39.25.09.47.46.25,1.28-.74,3.71-2.06,5.33-3.13C38.4,76.28,38,76,37.8,76.16Z"/><path class="cls-8" d="M36.27,75.32c-.91.53-3.66,2-5.37,3.13-.39.25.08.48.46.26,1.28-.75,3.71-2.06,5.33-3.14C36.87,75.44,36.47,75.2,36.27,75.32Z"/><path class="cls-7" d="M36.06,74.44v6.78c.33,0,.67,0,1-.09V74.44Z"/><path class="cls-7" d="M34.69,74.44v6.79l.58,0h.28v-6.8Z"/><path class="cls-7" d="M27.14,74.44v1.93a3.23,3.23,0,0,0,.6,1.84V74.44Z"/><path class="cls-7" d="M37.56,74.44v6.61c.34-.06.68-.14,1-.22V74.44Z"/><path class="cls-7" d="M39.07,74.44v6.24c.25-.08.49-.16.73-.26v-6Z"/><path class="cls-7" d="M29.49,74.44V79.8c.23.14.48.27.73.39V74.44Z"/><path class="cls-7" d="M33.31,74.44V81.1c.29,0,.57.08.87.1V74.44Z"/><path class="cls-7" d="M30.73,74.44v6c.24.1.48.18.74.26V74.44Z"/><path class="cls-7" d="M32,74.44v6.39c.27.07.54.14.82.19V74.44Z"/><path class="cls-7" d="M28.25,74.44v4.38a5.67,5.67,0,0,0,.73.64v-5Z"/><path class="cls-7" d="M43.4,74.44h-.6v3.77a3.31,3.31,0,0,0,.6-1.84Z"/><path class="cls-7" d="M41.55,74.44v5a5.16,5.16,0,0,0,.74-.64V74.44Z"/><path class="cls-7" d="M40.31,74.44v5.75A7.19,7.19,0,0,0,41,79.8V74.44Z"/><path class="cls-8" d="M27.74,74.44v3.77a4.13,4.13,0,0,0,.51.61V74.44Z"/><path class="cls-8" d="M29,74.44v5c.16.12.33.23.51.34V74.44Z"/><path class="cls-8" d="M30.22,74.44v5.75l.51.23v-6Z"/><path class="cls-8" d="M31.47,74.44v6.24l.51.15V74.44Z"/><path class="cls-8" d="M32.8,74.44V81l.51.08V74.44Z"/><path class="cls-8" d="M34.18,74.44V81.2l.51,0V74.44Z"/><path class="cls-8" d="M35.55,74.44v6.8l.51,0V74.44Z"/><path class="cls-8" d="M37.05,74.44v6.69l.51-.08V74.44Z"/><path class="cls-8" d="M42.29,74.44v4.38a4.85,4.85,0,0,0,.51-.61V74.44Z"/><path class="cls-8" d="M41,74.44V79.8c.18-.11.35-.22.51-.34v-5Z"/><path class="cls-8" d="M39.8,74.44v6c.18-.07.34-.15.51-.23V74.44Z"/><path class="cls-8" d="M38.56,74.44v6.39l.51-.15V74.44Z"/><path class="cls-9" d="M35.27,69.56c-4.49,0-8.13,2.19-8.13,4.88s3.64,4.88,8.13,4.88,8.13-2.18,8.13-4.88S39.76,69.56,35.27,69.56Z"/><path class="cls-8" d="M35.27,70.54c3.77,0,6.85,1.77,7.07,4a2.29,2.29,0,0,0,0-.25c0-2.35-3.18-4.25-7.09-4.25S28.18,72,28.18,74.3a2.29,2.29,0,0,0,0,.25C28.41,72.31,31.49,70.54,35.27,70.54Z"/><path class="cls-10" d="M35.27,78.55c3.77,0,6.85-1.77,7.07-4-.22-2.24-3.3-4-7.07-4s-6.86,1.77-7.07,4C28.41,76.78,31.49,78.55,35.27,78.55Z"/><path class="cls-8" d="M39.63,74.29c.6,1.71-1.05,2.22-2.07,2.34a9.56,9.56,0,0,1-4.86-.84c-1.23-.65-2-1.55-1.6-2.43S33.46,72,34.84,72c.49,0,.18-.46,0-.46-2.22,0-3.74.46-4.35,1.55s.22,2.48,1.84,3.34c2.45,1.3,5.64,1.24,7.1.12a1.71,1.71,0,0,0,.66-2.3C40,74.06,39.56,74.11,39.63,74.29Z"/><path class="cls-8" d="M37.8,73.91c-.91.52-3.66,2-5.37,3.12-.39.26.09.48.46.26,1.28-.74,3.71-2.06,5.33-3.14C38.4,74,38,73.79,37.8,73.91Z"/><path class="cls-8" d="M36.27,73.07c-.91.53-3.66,2-5.37,3.13-.39.25.08.48.46.26,1.28-.75,3.71-2.06,5.33-3.14C36.87,73.19,36.47,73,36.27,73.07Z"/></g></g></svg>