<svg width="309" height="312" viewBox="0 0 309 312" fill="none" xmlns="http://www.w3.org/2000/svg">
<path d="M228 1.46661C178.8 5.86661 145.466 23.0666 130.533 51.9999C126.266 60.2666 126.266 72.9333 130.533 81.7333C134.533 89.8666 144.133 100.533 151.6 104.933L157.733 108.4L128.533 120C66.5331 144.4 29.3331 168.4 10.9331 195.867C-0.533555 213.2 -2.93356 227.467 3.73311 240.133C10.1331 252.667 23.8664 259.467 45.0664 260.933C51.0664 261.333 55.9998 262.133 55.9998 262.533C55.8664 262.933 45.1998 270.8 32.1331 279.733C-3.06689 304.133 -3.46689 304.533 5.19978 309.733C8.93311 312 9.06645 312 19.4664 304.4C25.3331 300.267 39.8664 289.333 51.9998 280.133L73.9998 263.333L99.9998 261.867C144.4 259.2 173.466 253.733 201.333 242.8C237.733 228.667 259.733 206.667 264.133 180.133C266.8 164.4 261.6 149.6 250.666 141.6L246.533 138.533L258 126.533C270.666 113.2 276 104.133 276 96.1333C276 84.3999 265.733 81.6 237.066 86C221.2 88.4 202.533 93.0666 184.133 99.3333C176.4 101.867 169.333 104 168.4 104C166.133 104 150 88.8 146.8 83.4666C142.133 76 140.933 67.3333 143.466 58.9333C150.8 33.3333 201.733 11.7333 244.8 15.9999C264.266 17.9999 278.933 22.8 285.466 29.7333C294.666 39.4666 290.533 46.5333 267.333 60.9333C262.266 64 262.266 64.1333 266 63.3333C279.2 60.5333 299.733 48.5333 305.333 40.4C311.066 31.9999 308.666 20.2666 299.733 12.6666C286.8 1.73328 264.4 -1.73337 228 1.46661ZM260.133 96C266.4 99.3333 260 112 244.4 127.067L237.733 133.6L231.866 130.533C228.666 128.933 217.333 124.4 206.8 120.4C177.733 109.467 178.533 110.533 195.6 105.6C210.266 101.333 228.666 96.6666 234.666 95.6C241.466 94.4 257.6 94.6666 260.133 96ZM200 128.267L227.333 141.467L223.333 144.8C221.2 146.667 186.133 171.467 145.466 200.133L71.5998 252H63.4664C52.3998 251.867 36.6664 248.933 28.2664 245.333C11.9998 238.4 9.19978 226 19.7331 207.867C26.6664 196 47.1998 175.733 63.3331 165.067C91.4664 146.4 163.866 112.133 170.666 114.4C171.733 114.8 184.933 120.933 200 128.267ZM242.266 151.333C253.2 160.667 254.933 172 247.466 187.333C236.933 209.467 217.066 223.467 178.266 236.133C169.6 239.067 154.666 242.8 144.933 244.533C126.666 247.867 97.8665 251.333 94.2664 250.4C92.5331 250 127.6 224 207.733 166.267C222.666 155.467 235.466 146.667 235.866 146.667C236.4 146.667 239.333 148.8 242.266 151.333Z" fill="#572618"/>
<path d="M162 120C160.533 120.666 150.4 125.2 139.333 130C92.2662 150.666 46.7995 181.066 29.9995 203.2C27.1995 206.666 25.3329 209.733 25.5995 210C25.8662 210.266 31.4662 209.333 37.9995 208C52.6662 204.666 73.1995 194.933 96.2662 180.266C110.4 171.333 173.866 127.466 177.866 123.866C179.333 122.533 170.8 118.666 167.066 118.8C165.733 118.8 163.466 119.333 162 120Z" fill="#572618"/>
<path d="M165.334 135.466C115.734 172.4 71.334 200.133 48.0007 208.8L43.334 210.533H47.4673C55.2007 210.8 72.6673 205.333 86.0007 198.666C99.6007 191.866 117.467 178.933 149.601 152.933C159.334 144.933 171.601 136 176.667 132.933C181.867 130 186.267 127.333 186.667 127.066C187.467 126.4 183.734 124 182.001 124.133C181.334 124.133 173.734 129.2 165.334 135.466Z" fill="#572618"/>
<path d="M282.666 60.5331C280.799 61.5998 275.732 63.4665 271.332 64.7998C266.932 66.1331 263.066 67.3331 262.799 67.5998C260.932 68.9331 269.732 74.7998 284.399 81.8665C303.332 91.0665 303.332 91.0665 298.532 77.7331C295.466 69.5998 289.599 59.8665 287.332 59.1998C286.666 58.9331 284.532 59.5998 282.666 60.5331Z" fill="#572618"/>
<path d="M146.399 261.6C140.533 262.8 140.133 263.2 140.799 266.4C141.599 271.067 140.533 272.4 133.733 275.867C129.066 278.267 116.666 289.2 117.733 290.133C117.866 290.267 122.799 289.2 128.666 287.867C134.533 286.4 141.466 285.067 144.133 284.667C148.533 284 149.333 283.2 152.399 276.267C154.266 272.133 156.133 266.667 156.666 264.267C157.599 259.467 157.333 259.333 146.399 261.6Z" fill="#572618"/>
<path d="M153.599 278C151.866 281.467 150.799 284.533 151.066 284.8C151.333 285.067 159.733 287.733 169.866 290.667C179.866 293.6 190.133 296.933 192.666 298C197.999 300.133 198.266 299.6 194.666 293.733C190.266 286.267 171.599 274.8 160.666 272.533C156.933 271.867 156.399 272.267 153.599 278Z" fill="#572618"/>
</svg>
