<svg xmlns="http://www.w3.org/2000/svg" viewBox="0 0 91.08 123.09"><defs><style>.cls-1{fill:#2f5bc1;}.cls-2{fill:#3973d4;}.cls-17,.cls-3{fill:#ebf2ff;}.cls-4{fill:#d2e1f9;}.cls-5{fill:#fe645f;}.cls-6{fill:#acc2e2;}.cls-7{fill:#fff;}.cls-8{fill:#98daf4;}.cls-9{fill:#ffb83b;}.cls-10{fill:#54c3dd;}.cls-11{fill:#ffb9a4;}.cls-12{fill:#f9bba7;}.cls-13{fill:#e84949;}.cls-14{fill:#ffc9b6;}.cls-15{fill:#ffa300;}.cls-16{fill:#fed03d;}.cls-17{opacity:0.5;}.cls-18{fill:#61bcb8;}.cls-19{fill:#53b7b7;}.cls-20{fill:#8fadd1;}.cls-21{fill:#c5ced3;}.cls-22{fill:#ffe375;}</style></defs><g id="Layer_2" data-name="Layer 2"><g id="Layer_1-2" data-name="Layer 1"><polygon class="cls-1" points="17.13 39.4 18.94 38.16 21.41 39.59 19.69 41.3 17.13 39.4"/><path class="cls-1" d="M1.56,77.27c0,.11-.5,1.16-.5,1.16L3.78,80,5,79Z"/><path class="cls-1" d="M16.54,70.88l-13,7.48C1.6,79.5,0,78.29,0,75.65v-23C0,50,1.6,46.92,3.58,45.78l13-7.48c2-1.14,3.58.07,3.58,2.71V64C20.12,66.67,18.52,69.74,16.54,70.88Z"/><path class="cls-2" d="M19,72.27,6,79.75C4,80.89,2.42,79.68,2.42,77V54c0-2.64,1.6-5.71,3.58-6.85l13-7.48c2-1.14,3.59.07,3.59,2.71v23C22.54,68.06,20.93,71.13,19,72.27Z"/><path class="cls-3" d="M18.34,57.09,6.62,63.85c-1.26.73-2.28,0-2.28-1.72V54a5.45,5.45,0,0,1,2.28-4.35l11.72-6.76c1.25-.73,2.27,0,2.27,1.72v8.09A5.47,5.47,0,0,1,18.34,57.09Z"/><path class="cls-4" d="M8.45,69.24l-2.9,1.67c-.47.27-.85,0-.85-.64V68.54a2,2,0,0,1,.85-1.63l2.9-1.67c.47-.27.86,0,.86.64v1.73A2,2,0,0,1,8.45,69.24Z"/><path class="cls-4" d="M14.11,65.93l-2.9,1.68c-.47.27-.85,0-.85-.65V65.23a2,2,0,0,1,.85-1.62l2.9-1.68c.47-.27.85,0,.85.64v1.74A2,2,0,0,1,14.11,65.93Z"/><path class="cls-4" d="M19.76,62.73l-2.9,1.67c-.47.28-.85,0-.85-.64V62a2,2,0,0,1,.85-1.63l2.9-1.67c.47-.27.85,0,.85.64v1.74A2,2,0,0,1,19.76,62.73Z"/><path class="cls-4" d="M8.45,75l-2.9,1.67c-.47.27-.85,0-.85-.64V74.31a2,2,0,0,1,.85-1.62L8.45,71c.47-.28.86,0,.86.64v1.73A2,2,0,0,1,8.45,75Z"/><path class="cls-4" d="M14.11,71.71l-2.9,1.68c-.47.27-.85,0-.85-.65V71a2.05,2.05,0,0,1,.85-1.63l2.9-1.67c.47-.27.85,0,.85.64v1.74A2,2,0,0,1,14.11,71.71Z"/><path class="cls-4" d="M19.76,68.51l-2.9,1.67c-.47.27-.85,0-.85-.64V67.81a2,2,0,0,1,.85-1.63l2.9-1.67c.47-.27.85,0,.85.64v1.73A2,2,0,0,1,19.76,68.51Z"/><path class="cls-1" d="M10.69,51.63c.19-.45.42-.94.61-1.42s-.16-.39-.33,0-.38.86-.55,1.26C10,52.34,9.69,53.1,9.34,54c-.62-.58-1.24-1.13-1.9-1.64-.17-.13-.57.5-.41.67.62.66,1.33,1.2,2,1.87,0,1.25.06,2.86.1,4.16,0,.28.45,0,.45-.25,0-.82,0-4.28,0-4.31C9.87,53.6,10.32,52.54,10.69,51.63Z"/><path class="cls-1" d="M11.9,53.58c-.84.49-3.3,1.83-5,2.9-.38.24-.34.68,0,.47,1.18-.69,3.35-1.85,5-2.92C12.08,53.91,12.08,53.47,11.9,53.58Z"/><path class="cls-1" d="M11.81,55c-.84.49-3.3,1.83-5,2.9-.38.24-.35.68,0,.47,1.18-.68,3.35-1.85,5-2.91C12,55.31,12,54.87,11.81,55Z"/><path class="cls-5" d="M17.92,47.34l-4.08,2.35c-.24.14-.44,0-.44-.33h0a1.07,1.07,0,0,1,.44-.84l4.08-2.35c.24-.14.44,0,.44.33h0A1.07,1.07,0,0,1,17.92,47.34Z"/><path class="cls-5" d="M17.92,49.63,13.84,52c-.24.14-.44,0-.44-.33h0a1,1,0,0,1,.44-.83l4.08-2.36c.24-.14.44,0,.44.33h0A1.05,1.05,0,0,1,17.92,49.63Z"/><path class="cls-5" d="M17.92,51.86l-4.08,2.35c-.24.14-.44,0-.44-.33h0a1,1,0,0,1,.44-.83l4.08-2.36c.24-.14.44,0,.44.33h0A1.07,1.07,0,0,1,17.92,51.86Z"/><path class="cls-5" d="M17.92,54.13l-4.08,2.35c-.24.14-.44,0-.44-.33h0a1,1,0,0,1,.44-.83L17.92,53c.24-.14.44,0,.44.33h0A1.07,1.07,0,0,1,17.92,54.13Z"/><path class="cls-6" d="M55.72,52.38,31,66.68c-2.23,1.28-4-.08-4-3.06V62.14c0-3,1.81-6.43,4-7.72L55.72,40.13c2.23-1.29,4,.08,4,3v1.49C59.76,47.64,58,51.1,55.72,52.38Z"/><polygon class="cls-6" points="57.5 40.98 58.34 39.92 59.17 40.41 58.81 41.74 57.5 40.98"/><polygon class="cls-6" points="28.22 66.82 29.19 67.4 29.98 66.57 28.71 65.6 28.22 66.82"/><path class="cls-3" d="M56.53,52.86,31.78,67.15c-2.23,1.29-4-.08-4-3.05V62.62c0-3,1.81-6.43,4-7.72L56.53,40.61c2.23-1.29,4,.08,4,3v1.48C60.57,48.12,58.76,51.57,56.53,52.86Z"/><path class="cls-2" d="M36.12,58.29a7.47,7.47,0,0,1-3.13,6c-1.73,1-3.13-.06-3.13-2.36a7.5,7.5,0,0,1,3.13-6C34.72,54.92,36.12,56,36.12,58.29Z"/><path class="cls-7" d="M33.16,63.27c.08-.34.14-.65.19-1a5,5,0,0,0,.9-1.45c.43-1,.09-1.34-.25-1.42a1.18,1.18,0,0,0-.55,0c0-.62.06-1.36,0-2a.82.82,0,0,1,.73.06s.16-.15.14-.21c-.11-.34-.44-.46-.91-.19a1.22,1.22,0,0,0-.2-.53s-.07.07-.07.1v.6a3.36,3.36,0,0,0-1.26,2.22c-.07.87.59.65,1.11.52l.14,0c0,.65-.1,1.42-.15,2.13a1.33,1.33,0,0,1-.79.29.62.62,0,0,1-.61-.4c0-.05-.15.09-.18.21-.17.87.56,1,1.35.52a1.37,1.37,0,0,0,.21-.15,6.3,6.3,0,0,0,0,.76C33,63.52,33.13,63.4,33.16,63.27Zm-.82-3.78c-.22-.35.16-1.17.71-1.66l.1-.09v1.83l-.2,0A.89.89,0,0,1,32.34,59.49Zm1.41.57c.24.1.66.43-.33,1.75h0A12.09,12.09,0,0,0,33.46,60,.54.54,0,0,1,33.75,60.06Z"/><path class="cls-5" d="M43.72,51.28l-5,2.9c-.3.17-.54,0-.54-.41h0a1.28,1.28,0,0,1,.54-1l5-2.9c.29-.17.54,0,.54.41h0A1.34,1.34,0,0,1,43.72,51.28Z"/><path class="cls-5" d="M43.72,54.5l-5,2.9c-.3.17-.54,0-.54-.41h0a1.29,1.29,0,0,1,.54-1l5-2.9c.29-.17.54,0,.54.41h0A1.32,1.32,0,0,1,43.72,54.5Z"/><path class="cls-5" d="M43.72,57.87l-5,2.9c-.3.17-.54,0-.54-.41h0a1.29,1.29,0,0,1,.54-1l5-2.9c.29-.17.54,0,.54.41h0A1.32,1.32,0,0,1,43.72,57.87Z"/><path class="cls-6" d="M45.68,49.84a.24.24,0,0,1-.12-.45l11.58-6.68a.24.24,0,0,1,.33.08.24.24,0,0,1-.09.33L45.8,49.8A.19.19,0,0,1,45.68,49.84Z"/><path class="cls-6" d="M45.68,53a.24.24,0,0,1-.12-.45L57.14,45.9a.24.24,0,0,1,.33.08.24.24,0,0,1-.09.33L45.8,53A.27.27,0,0,1,45.68,53Z"/><path class="cls-6" d="M45.68,56.2a.24.24,0,0,1-.12-.45l11.58-6.68a.24.24,0,0,1,.33.08.24.24,0,0,1-.09.33L45.8,56.16A.19.19,0,0,1,45.68,56.2Z"/><polygon class="cls-6" points="18.12 54.4 17.79 56.05 19.22 56.88 19.69 55.91 18.12 54.4"/><polygon class="cls-6" points="60.24 2.04 61.9 3.02 61.28 4.32 59.3 3.02 60.24 2.04"/><path class="cls-6" d="M56.76,35.66l-35,20.22C18.58,57.7,16,55.77,16,51.56v-18c0-4.21,2.56-9.1,5.72-10.92l35-20.22c3.15-1.82,5.71.11,5.71,4.32v18C62.47,29,59.91,33.84,56.76,35.66Z"/><path class="cls-3" d="M57.77,36.24l-35,20.22C19.59,58.28,17,56.35,17,52.14v-18c0-4.21,2.56-9.1,5.71-10.92l35-20.22c3.15-1.82,5.71.11,5.71,4.32v18C63.48,29.53,60.92,34.42,57.77,36.24Z"/><path class="cls-8" d="M28.79,25.48a15.85,15.85,0,0,0-5.35,5.69l5.75,5.25,4.14-11.76A5.81,5.81,0,0,0,28.79,25.48Z"/><path class="cls-9" d="M37.11,31.77c0-3.89-1.51-6.44-3.78-7.11L29.19,36.42l5.34,4.86A20.62,20.62,0,0,0,37.11,31.77Z"/><path class="cls-5" d="M29.19,36.42l-5.75-5.25a22.14,22.14,0,0,0-2.59,6.7l8.34-1.45Z"/><path class="cls-2" d="M29.19,36.42l-8.34,1.45a17.68,17.68,0,0,0-.38,3.5c0,5.32,2.81,8.14,6.56,7.06a8.28,8.28,0,0,0,1.76-.77,16.26,16.26,0,0,0,5.74-6.38Z"/><path class="cls-8" d="M45.12,19.45l-5,2.91c-.29.17-.54,0-.54-.41h0a1.31,1.31,0,0,1,.54-1l5-2.9c.3-.17.54,0,.54.41h0A1.27,1.27,0,0,1,45.12,19.45Z"/><path class="cls-2" d="M46.77,18a.22.22,0,0,1-.2-.12.23.23,0,0,1,.08-.32l13.83-8a.25.25,0,0,1,.33.09.24.24,0,0,1-.09.33l-13.83,8A.27.27,0,0,1,46.77,18Z"/><path class="cls-2" d="M46.77,19.93a.22.22,0,0,1-.2-.12.23.23,0,0,1,.08-.32l13.83-8a.24.24,0,0,1,.33.09.22.22,0,0,1-.09.32l-13.83,8A.27.27,0,0,1,46.77,19.93Z"/><path class="cls-9" d="M45.12,24.57l-5,2.9c-.29.17-.54,0-.54-.41h0a1.3,1.3,0,0,1,.54-1l5-2.91c.3-.17.54,0,.54.41h0A1.28,1.28,0,0,1,45.12,24.57Z"/><path class="cls-2" d="M46.77,23.08a.24.24,0,0,1-.12-.45l13.83-8a.24.24,0,0,1,.33.08.24.24,0,0,1-.09.33l-13.83,8A.27.27,0,0,1,46.77,23.08Z"/><path class="cls-2" d="M46.77,25.05a.24.24,0,0,1-.12-.45l13.83-8a.25.25,0,0,1,.33.09.24.24,0,0,1-.09.33L46.89,25A.19.19,0,0,1,46.77,25.05Z"/><path class="cls-6" d="M45.12,29.28l-5,2.9c-.29.17-.54,0-.54-.41h0a1.34,1.34,0,0,1,.54-1l5-2.9c.3-.17.54,0,.54.41h0A1.28,1.28,0,0,1,45.12,29.28Z"/><path class="cls-2" d="M46.77,27.79a.24.24,0,0,1-.12-.45l13.83-8a.24.24,0,0,1,.33.08.24.24,0,0,1-.09.33l-13.83,8A.19.19,0,0,1,46.77,27.79Z"/><path class="cls-2" d="M46.77,29.75a.23.23,0,0,1-.2-.11.24.24,0,0,1,.08-.33l13.83-8a.25.25,0,0,1,.33.09.24.24,0,0,1-.09.33l-13.83,8A.27.27,0,0,1,46.77,29.75Z"/><path class="cls-10" d="M45.12,34l-5,2.9c-.29.17-.54,0-.54-.41h0a1.31,1.31,0,0,1,.54-1l5-2.9c.3-.17.54,0,.54.41h0A1.31,1.31,0,0,1,45.12,34Z"/><path class="cls-2" d="M46.77,32.47a.22.22,0,0,1-.2-.12.23.23,0,0,1,.08-.32l13.83-8a.25.25,0,0,1,.33.09.24.24,0,0,1-.09.33l-13.83,8A.27.27,0,0,1,46.77,32.47Z"/><path class="cls-2" d="M46.77,34.44a.22.22,0,0,1-.2-.12.23.23,0,0,1,.08-.32l13.83-8a.24.24,0,0,1,.33.09.22.22,0,0,1-.09.32l-13.83,8A.27.27,0,0,1,46.77,34.44Z"/><path class="cls-11" d="M78.32,103.62a9.45,9.45,0,0,0,.38-3.17c-.27-2.2.42-5.91.42-8.19a64.84,64.84,0,0,0-.5-6.52c-.24-1.77-.57-3.31-.73-5.09a22,22,0,0,1-.43-7.3,18.45,18.45,0,0,0,6.29.92,16.94,16.94,0,0,1-.13,5.41,19,19,0,0,1-.93,3.12,7.84,7.84,0,0,0-.6,2.28c0,.91.81,2.37,1,3.24.52,2.61-.57,4.21-1.33,7.62a16.74,16.74,0,0,0-.4,2.87,3.52,3.52,0,0,1,.52.74c.47.88-.27,1.64-.65,2.34s-.16,2.74-.61,3.07-2,1.3-3,.84C76.85,105.46,77.7,104.19,78.32,103.62Z"/><path class="cls-12" d="M72,58.11a19.62,19.62,0,0,0,2.81.81c.44.09,1.37.32,1.92.49.69-1.12,2.48-4.07,3.45-6.15,1.11-2.4,3.89-.95,3.89-.95l-2,5.47s-3.11,3-4.27,4.43c-.63.75-1.39.5-2.85.19A9,9,0,0,1,72,60.66Z"/><path class="cls-13" d="M82,100.84A31.31,31.31,0,0,0,81,105.07c-.07.64-1.12,1.48-2.92,1.41s-1.15-1-.73-1.61c.19-.31.38-.55.55-.8a1.38,1.38,0,0,0,1,.62,1.17,1.17,0,0,0,1.45-.74c.39-.71,1-2.85,1.21-3.45a2.93,2.93,0,0,0-.22-1.69h0C81.83,99.4,82.37,99.78,82,100.84Z"/><path class="cls-13" d="M82.09,100.59v3.15c0,.06-.1.11-.23.11s-.23,0-.23-.11v-2.42Z"/><path class="cls-14" d="M84.25,105.92a9.78,9.78,0,0,0,0-3.19c-.5-2.16-.21-5.93-.45-8.19a61.84,61.84,0,0,0-1.18-6.43c-.42-1.73-.91-3.24-1.26-5a21.85,21.85,0,0,1-1.19-7.21,18.5,18.5,0,0,0,6.35.25,16.92,16.92,0,0,1,.44,5.4,19.4,19.4,0,0,1-.6,3.2,7.65,7.65,0,0,0-.35,2.33,19.86,19.86,0,0,0,1.09,3.35c.85,3,.09,4-.31,7.48a17.46,17.46,0,0,0-.09,2.9,3.44,3.44,0,0,1,.59.68c.56.82-.09,1.66-.39,2.4s.13,2.74-.29,3.11-1.83,1.51-2.9,1.15C83,107.9,83.7,106.55,84.25,105.92Z"/><path class="cls-13" d="M87.64,102.77a32.67,32.67,0,0,0-.61,4.32c0,.64-1,1.59-2.76,1.7s-1.24-.81-.89-1.52c.16-.32.32-.58.46-.86a1.36,1.36,0,0,0,1.1.51,1.17,1.17,0,0,0,1.37-.88c.31-.75.67-2.94.84-3.56a3,3,0,0,0-.4-1.66h0C87.3,101.36,87.88,101.68,87.64,102.77Z"/><path class="cls-13" d="M87.68,102.51l.34,3.14c0,.06-.1.11-.22.13s-.24,0-.25-.08l-.25-2.41Z"/><path class="cls-5" d="M77.83,69.06c.7-1.36,1.6-2.26,1.58-3.25a17.63,17.63,0,0,1,.3-4.49c-.39-.53-1.68-1.18-1-3a9.12,9.12,0,0,1,1.44-2.25,9.63,9.63,0,0,1,2-2.11c.76-.53,1.06-.21,1.82.12a21.42,21.42,0,0,1,4.63,2.18,9.06,9.06,0,0,1,1.25.94,2.46,2.46,0,0,1,.43,2c0,.05-2.11,3.86-3.14,6.24-.37.85-.84,1.34-.26,2.39a13.25,13.25,0,0,1,2.07,4.63c1.54,6.3-2,14.93-2,14.93a5.71,5.71,0,0,1-4,1.21c-3.31-.21-4.65-1.7-4.65-1.7A64.3,64.3,0,0,1,77,76.68C76.91,73.78,77,70.76,77.83,69.06Z"/><path class="cls-15" d="M81.31,53.61a2,2,0,0,1,.38-1.54,1.76,1.76,0,0,1,2.07-.64l0,0a1.27,1.27,0,0,1,.94,1.22A1.88,1.88,0,0,1,82.62,55a1.6,1.6,0,0,1-.09,1.1.9.9,0,0,1-1.44.34,2,2,0,0,1-.67-2A1.25,1.25,0,0,1,81.31,53.61Z"/><path class="cls-11" d="M85.7,56.55a2,2,0,0,1-1.78-.48A1.53,1.53,0,0,1,83.37,55a1.53,1.53,0,0,0,.6-1.18c0-.4-.09-.81-.1-1.22a7,7,0,0,1,1.83-.76c.37-.06,1-1,1.31-1.2a6.55,6.55,0,0,0,0,2.64,7.63,7.63,0,0,0,.58,2.48A4.7,4.7,0,0,1,85.7,56.55Z"/><path class="cls-14" d="M81.6,48.9a4.1,4.1,0,0,1,1.17-2.69,2.83,2.83,0,0,1,2.42-.5c1.41.22,2.5,2.38,2.11,4.18S85.88,53.61,84,53.82C81.86,54,81.43,50.31,81.6,48.9Z"/><path class="cls-14" d="M85.34,49.59s.77-.86,1.09-.19-.29,1.83-.83,1.7S85.34,49.59,85.34,49.59Z"/><path class="cls-15" d="M80.76,44.91a3.51,3.51,0,0,1,4.11-.34,1.85,1.85,0,0,1,2.25-.18,2.11,2.11,0,0,1,1.17,2.11c1.51.07,2.26,2.34,1.26,3.41a1.81,1.81,0,0,1,.69,1.56,2.28,2.28,0,0,1-1.67,1.91,1.69,1.69,0,0,1,.71,2c-.4,1.08-1.59,1.34-2.61,1.43h0a1.61,1.61,0,0,1-.54,1.75,1.48,1.48,0,0,1-1.94.09,1.23,1.23,0,0,1-.38-1.77,1.56,1.56,0,0,1,1-.61,1.34,1.34,0,0,1,1.29-1.89,1.57,1.57,0,0,1,.06-1.51A3,3,0,0,1,85,50.48a1.48,1.48,0,0,1,.28-.94A4,4,0,0,1,83.07,47a3,3,0,0,0-1.17.93,3.63,3.63,0,0,0-.33,1.77A2.94,2.94,0,0,1,80.76,44.91Z"/><path class="cls-13" d="M86.86,65.9l0,1.95a10.51,10.51,0,0,1-4.76.93c-2.53-.35-3.14-1.42-3.14-1.42L79.4,65s.21.88,2.4,1.09A26.67,26.67,0,0,0,86.86,65.9Z"/><path class="cls-13" d="M85.07,75.68s-.45,2.43-2.49,2.95a5.15,5.15,0,0,1-3.16,0,12,12,0,0,0,3.24-1A22.47,22.47,0,0,0,85.07,75.68Z"/><path class="cls-1" d="M82.55,75.68a4.06,4.06,0,0,1-2.33-1.22,6.65,6.65,0,0,1-1.31-2s-.15,2.08,1.26,2.9A2.5,2.5,0,0,0,82.55,75.68Z"/><path class="cls-13" d="M84.45,79.86a10.25,10.25,0,0,1-2.82,3.5,3.46,3.46,0,0,1-2,.53,13.72,13.72,0,0,1,2-1.55A22.83,22.83,0,0,0,84.45,79.86Z"/><path class="cls-13" d="M85.46,62.49a5.87,5.87,0,0,1-2.57,0,20.18,20.18,0,0,1-2-1.11,2.49,2.49,0,0,0,2,1.82A3,3,0,0,0,85.46,62.49Z"/><path class="cls-2" d="M66.18,48s8.23,18.41,13.39,28.18,6.73,12.36,9.81,10.73S68.53,46.17,68.53,46.17Z"/><path class="cls-2" d="M70,46s10.56,17.19,15.72,27S92.1,85.45,89,87.07,67.16,46.9,67.16,46.9Z"/><path class="cls-15" d="M73.62,48.54c.64,1.2-.5,3-2.54,4.12s-4.2,1-4.83-.22.5-3,2.54-4.12S73,47.34,73.62,48.54Z"/><rect class="cls-15" x="64.73" y="46.31" width="8.34" height="4.44" transform="translate(-14.69 37.79) rotate(-27.84)"/><path class="cls-16" d="M71.55,44.62c.63,1.2-.5,3-2.54,4.12s-4.2,1-4.84-.23.51-3,2.54-4.12S70.92,43.42,71.55,44.62Z"/><path class="cls-2" d="M70.13,45.11c.41.77-.32,2-1.63,2.65s-2.71.63-3.12-.14.33-2,1.64-2.66S69.72,44.34,70.13,45.11Z"/><rect class="cls-2" x="64.4" y="43.67" width="5.37" height="2.86" transform="translate(-13.3 36.55) rotate(-27.84)"/><path class="cls-1" d="M68.8,42.58c.41.77-.33,2-1.64,2.66s-2.71.62-3.11-.15.32-2,1.63-2.65S68.39,41.81,68.8,42.58Z"/><path class="cls-1" d="M52.83,47.5a10.07,10.07,0,0,1-1.71-1.68c-.44-.52-.87-1.06-1.32-1.57l-1.6,3.2,4.27,2.6,1-2.14A5.59,5.59,0,0,1,52.83,47.5Z"/><path class="cls-1" d="M71.29,4.52a7.28,7.28,0,0,1,2.24.59l.39.19,1-2.07L71.34,1.08,69.68,4.4C70.22,4.42,70.75,4.45,71.29,4.52Z"/><path class="cls-17" d="M72.14,6.51C69.8,5.66,67,6,63.88,7.78,55.94,12.36,49.5,24.66,49.5,35.24c0,5.23,1.58,9.06,4.12,11,2.34.84,5.19.5,8.26-1.28,7.94-4.58,14.38-16.87,14.38-27.46C76.26,12.32,74.68,8.49,72.14,6.51Z"/><path class="cls-1" d="M60.39,2C51,7.45,43.41,22,43.41,34.46s7.6,18.25,17,12.83,17-19.93,17-32.42S69.76-3.38,60.39,2Zm1.49,43c-3.07,1.78-5.92,2.12-8.26,1.28-2.54-2-4.12-5.82-4.12-11,0-10.58,6.44-22.88,14.38-27.46C67,6,69.8,5.66,72.14,6.51c2.54,2,4.12,5.81,4.12,11C76.26,28.14,69.82,40.43,61.88,45Z"/><path class="cls-2" d="M63.88,4.15c-9.38,5.41-17,19.93-17,32.43s7.6,18.24,17,12.83,17-19.93,17-32.43S73.25-1.26,63.88,4.15ZM61.88,45c-3.07,1.78-5.92,2.12-8.26,1.28-2.54-2-4.12-5.82-4.12-11,0-10.58,6.44-22.88,14.38-27.46C67,6,69.8,5.66,72.14,6.51c2.54,2,4.12,5.81,4.12,11C76.26,28.14,69.82,40.43,61.88,45Z"/><path class="cls-1" d="M72.14,6.51c2.54,2,4.12,5.81,4.12,11,0,10.59-6.44,22.88-14.38,27.46-3.07,1.78-5.92,2.12-8.26,1.28,2.61,2,6.24,2.14,10.26-.18,7.93-4.58,14.37-16.88,14.37-27.46C78.25,12.16,75.83,7.84,72.14,6.51Z"/><path class="cls-14" d="M78.43,62.22l.67-1.28a6.63,6.63,0,0,0-3.3-1.67.22.22,0,0,0-.12.43,11,11,0,0,1,1.37.92,4.11,4.11,0,0,1-1.52.32c-.48.05-1,0-1.47.07s-.65.55,0,.5c-.55.28-.46.46-.12.57-.25.37.35.32.64.38-.4.59,2.2.55,2.7.4C77.39,62.84,78.32,62.23,78.43,62.22Z"/><path class="cls-14" d="M89.89,57.26c-1.28-.3-2.41,1.19-2.82,2.27-.2.51-.22,1.55-.36,2a12.31,12.31,0,0,0-1.44,2.74,8.94,8.94,0,0,0-2.72-1.6c-.34-.16-2-1-3-1.58l-.42-.27,0,.08a2.14,2.14,0,0,1-.2.32,4.86,4.86,0,0,1-.53.58,6,6,0,0,0-.42.46c.73.74,4.5,4.37,5.28,4.61s1.17-.12,2,.13a1.27,1.27,0,0,0,1.44-.32c1.49-1.47,1.56-2.48,2.24-3.46.93-1.36,2.1-1.64,2.13-3.46A2.82,2.82,0,0,0,89.89,57.26Z"/><path class="cls-12" d="M70.27,57a3.22,3.22,0,0,0,.29,1.61c.38.72.81.94,1,.76s-.17-.37-.17-.37.4-.06.34-.28-.49-.25-.49-.25.49-.09.33-.35-.63-.23-.63-.23.42-.12.1-.36a.78.78,0,0,0-.61-.09Z"/><polygon class="cls-3" points="31.39 118.62 73.18 94.49 51.58 82.02 9.79 106.15 31.39 118.62"/><polygon class="cls-2" points="31.22 117.62 71.44 94.39 51.75 83.03 11.53 106.25 31.22 117.62"/><path class="cls-3" d="M18,104.85l31.35-18.1c2.24,1.3,5.64,1.44,7.58.32l1.08.62.85.49,5.6,3.23c-1.94,1.13-1.7,3.09.55,4.38l-31.35,18.1c-2.24-1.3-5.64-1.44-7.58-.31l-5.6-3.24-.85-.49-1.08-.62C20.47,108.11,20.23,106.14,18,104.85Z"/><path class="cls-2" d="M32.92,112.66l.44-.26-1.57-.9-.38.22-.39-.23a.75.75,0,0,0,.26-.43l.35-.2,2.2,1.27.38-.22.51.3-1.29.74Z"/><path class="cls-2" d="M33.65,111.25c-.93-.53-1.11-1-.67-1.23a2.31,2.31,0,0,1,2.12.39c.92.53,1.13,1,.69,1.24A2.36,2.36,0,0,1,33.65,111.25Zm1-.58c-.75-.43-1-.46-1.19-.37s-.12.26.62.69,1.06.47,1.22.38S35.4,111.09,34.66,110.67Z"/><path class="cls-2" d="M35.34,110.27c-.92-.53-1.11-1-.67-1.23a2.31,2.31,0,0,1,2.12.39c.93.53,1.13,1,.7,1.24A2.38,2.38,0,0,1,35.34,110.27Zm1-.58c-.75-.43-1-.46-1.19-.36s-.12.25.62.68,1.06.47,1.22.38S37.09,110.12,36.35,109.69Z"/><path class="cls-2" d="M58.62,97.86l.44-.25-1.57-.91-.38.22-.39-.22a.78.78,0,0,0,.26-.43l.34-.2,2.21,1.27.38-.22.51.29-1.3.75Z"/><path class="cls-2" d="M59.34,96.45c-.92-.53-1.1-1-.67-1.22a2.32,2.32,0,0,1,2.13.38c.92.54,1.12,1,.69,1.24A2.35,2.35,0,0,1,59.34,96.45Zm1-.58c-.74-.43-1-.45-1.19-.36s-.12.26.63.69,1.05.46,1.21.37S61.09,96.3,60.35,95.87Z"/><path class="cls-2" d="M61,95.48c-.92-.54-1.1-1-.66-1.23a2.28,2.28,0,0,1,2.12.39c.92.53,1.13,1,.69,1.24A2.38,2.38,0,0,1,61,95.48Zm1-.59c-.74-.42-1-.45-1.19-.36s-.11.26.63.69,1.06.47,1.21.37S62.78,95.32,62,94.89Z"/><path class="cls-18" d="M36.31,103.32c3.94,2.28,9.49,2.77,12.38,1.1s2-4.87-1.9-7.15S37.3,94.5,34.41,96.18,32.37,101.05,36.31,103.32Z"/><path class="cls-19" d="M37,103c3.5,2,8.41,2.45,11,1s1.81-4.32-1.69-6.34-8.41-2.45-11-1S33.46,100.93,37,103Z"/><path class="cls-2" d="M50.8,94.19a6.29,6.29,0,0,0,5.64.23c1.44-.84,1.26-2.29-.41-3.26a6.26,6.26,0,0,0-5.64-.23C48.94,91.76,49.13,93.22,50.8,94.19Z"/><path class="cls-1" d="M51.58,93.73a4.39,4.39,0,0,0,4,.17c1-.59.88-1.61-.28-2.28a4.39,4.39,0,0,0-4-.17C50.29,92,50.41,93.06,51.58,93.73Z"/><path class="cls-2" d="M25.3,108.91a6.26,6.26,0,0,0,5.64.23c1.44-.83,1.26-2.29-.41-3.26a6.29,6.29,0,0,0-5.64-.23C23.45,106.49,23.63,107.94,25.3,108.91Z"/><path class="cls-1" d="M26.08,108.46a4.42,4.42,0,0,0,4,.16c1-.58.88-1.6-.29-2.28a4.37,4.37,0,0,0-3.94-.16C24.78,106.76,24.91,107.78,26.08,108.46Z"/><polygon class="cls-2" points="41.59 92.49 50.06 87.6 49.65 87.36 41.18 92.25 41.59 92.49"/><polygon class="cls-2" points="45.73 90.79 50.66 87.95 51.07 88.18 46.14 91.03 45.73 90.79"/><polygon class="cls-2" points="55.11 96.18 60.04 93.34 60.45 93.58 55.52 96.42 55.11 96.18"/><polygon class="cls-2" points="19.33 105.35 27.8 100.46 27.38 100.22 18.91 105.11 19.33 105.35"/><polygon class="cls-2" points="19.92 105.69 24.85 102.84 25.27 103.08 20.34 105.93 19.92 105.69"/><polygon class="cls-2" points="29.3 111.08 34.23 108.23 34.65 108.47 29.72 111.32 29.3 111.08"/><polygon class="cls-6" points="73.18 94.49 73.18 98.97 31.39 123.09 31.39 118.62 73.18 94.49"/><polygon class="cls-4" points="9.79 106.15 9.79 110.63 31.39 123.09 31.39 118.62 9.79 106.15"/><path class="cls-20" d="M33.23,120.08a35.61,35.61,0,0,1,4-2.19,29.92,29.92,0,0,1,3.67-1.73,0,0,0,0,1,0,0,43.35,43.35,0,0,1-4,2.17c-1.2.63-2.37,1.34-3.63,1.85C33.21,120.26,33.17,120.13,33.23,120.08Z"/><path class="cls-20" d="M35.89,117.74a53.85,53.85,0,0,1,10.56-6.42s.1.07,0,.1c-3.49,2.14-6.91,4.52-10.49,6.49A.1.1,0,0,1,35.89,117.74Z"/><path class="cls-20" d="M61.84,103.89a60.68,60.68,0,0,1,5.28-3.24,48,48,0,0,1,5-2.68c.06,0,.1.07,0,.1-1.63,1.1-3.41,2-5.11,3s-3.39,2-5.14,3C61.84,104.05,61.76,103.94,61.84,103.89Z"/><path class="cls-21" d="M51.16,108.9c1.12-.8,2.34-1.47,3.53-2.16A22.58,22.58,0,0,1,57.86,105c.08,0,.12.07.06.12a26.32,26.32,0,0,1-3.5,2.19c-1,.61-2.07,1.25-3.16,1.76C51.14,109.14,51.07,109,51.16,108.9Z"/><path class="cls-20" d="M66.28,99.71A22.71,22.71,0,0,1,69,98.28c.91-.47,1.8-1,2.74-1.41,0,0,.1,0,.06.07a17.59,17.59,0,0,1-5.45,3C66.24,99.92,66.19,99.77,66.28,99.71Z"/><path class="cls-6" d="M21.62,116.12c-1.68-1.19-3.48-2.21-5.27-3.23a48.18,48.18,0,0,0-5-2.68c-.06,0-.1.07-.05.1,1.64,1.1,3.42,2,5.12,3s3.38,2,5.13,2.95A.07.07,0,1,0,21.62,116.12Z"/><path class="cls-6" d="M17.19,111.94a28.18,28.18,0,0,0-2.72-1.43c-.92-.47-1.81-1-2.75-1.41,0,0-.1,0-.05.08a17.42,17.42,0,0,0,5.44,2.94C17.22,112.16,17.28,112,17.19,111.94Z"/><polygon class="cls-2" points="24.76 97.51 46.4 109.95 57.65 103.46 36.01 91.02 24.76 97.51"/><polygon class="cls-22" points="25.92 96.84 47.56 109.28 56.74 103.98 35.1 91.54 25.92 96.84"/><polygon class="cls-1" points="46.4 109.95 57.65 103.46 57.65 107.93 46.4 114.42 46.4 109.95"/><polygon class="cls-15" points="56.74 103.98 56.74 108.46 47.56 113.76 47.56 109.28 56.74 103.98"/><polygon class="cls-3" points="29.81 108.83 71.61 84.7 50.01 72.24 8.22 96.36 29.81 108.83"/><polygon class="cls-2" points="29.64 107.83 69.87 84.61 50.18 73.24 9.96 96.46 29.64 107.83"/><path class="cls-3" d="M16.41,95.06,47.75,77c2.25,1.29,5.64,1.43,7.59.31l1.08.63.85.49,5.6,3.23c-1.95,1.12-1.7,3.08.54,4.38L32.07,104.1c-2.24-1.29-5.64-1.43-7.58-.31l-5.6-3.23-.85-.49L17,99.44C18.9,98.32,18.66,96.36,16.41,95.06Z"/><path class="cls-2" d="M31.35,102.87l.44-.25-1.57-.91-.38.22-.39-.22a.77.77,0,0,0,.26-.44l.35-.2,2.2,1.28.38-.22.51.29-1.29.75Z"/><path class="cls-2" d="M32.07,101.46c-.92-.53-1.1-1-.66-1.23a2.31,2.31,0,0,1,2.12.39c.92.53,1.13,1,.69,1.24A2.38,2.38,0,0,1,32.07,101.46Zm1-.58c-.74-.43-1-.46-1.19-.36s-.11.26.63.68,1.06.47,1.21.38S33.82,101.31,33.08,100.88Z"/><path class="cls-2" d="M33.77,100.48c-.93-.53-1.11-1-.67-1.22a2.3,2.3,0,0,1,2.12.38c.92.54,1.13,1,.69,1.24S34.69,101,33.77,100.48Zm1-.58c-.75-.43-1-.45-1.2-.36s-.11.26.63.69,1.06.46,1.22.37S35.51,100.33,34.78,99.9Z"/><path class="cls-2" d="M57,88.08l.45-.26-1.57-.9-.38.22-.39-.23a.8.8,0,0,0,.26-.43l.34-.2L58,87.55l.38-.22.51.29-1.3.75Z"/><path class="cls-2" d="M57.77,86.67c-.92-.54-1.1-1-.67-1.23a2.28,2.28,0,0,1,2.12.39c.93.53,1.13,1,.7,1.24A2.38,2.38,0,0,1,57.77,86.67Zm1-.59c-.74-.42-1-.45-1.19-.36s-.12.26.63.69,1.05.47,1.21.37S59.52,86.51,58.78,86.08Z"/><path class="cls-2" d="M59.46,85.69c-.92-.53-1.1-1-.67-1.23a2.33,2.33,0,0,1,2.13.39c.92.53,1.12,1,.69,1.24A2.38,2.38,0,0,1,59.46,85.69Zm1-.58c-.74-.43-1-.46-1.19-.36s-.12.25.63.68,1.05.47,1.21.38S61.21,85.53,60.47,85.11Z"/><path class="cls-18" d="M34.74,93.54c3.94,2.27,9.48,2.76,12.38,1.09s2-4.87-1.9-7.14-9.49-2.77-12.38-1.1S30.79,91.26,34.74,93.54Z"/><path class="cls-19" d="M35.39,93.16c3.49,2,8.41,2.46,11,1s1.81-4.33-1.69-6.34-8.41-2.46-11-1S31.89,91.14,35.39,93.16Z"/><path class="cls-2" d="M49.22,84.4a6.26,6.26,0,0,0,5.64.23c1.45-.83,1.27-2.29-.4-3.25a6.27,6.27,0,0,0-5.64-.24C47.37,82,47.55,83.44,49.22,84.4Z"/><path class="cls-1" d="M50,84a4.42,4.42,0,0,0,4,.16c1-.59.88-1.61-.29-2.28a4.37,4.37,0,0,0-3.94-.16C48.71,82.25,48.84,83.27,50,84Z"/><path class="cls-2" d="M23.72,99.12a6.26,6.26,0,0,0,5.64.23c1.45-.83,1.27-2.29-.4-3.25a6.27,6.27,0,0,0-5.64-.24C21.87,96.7,22.05,98.16,23.72,99.12Z"/><path class="cls-1" d="M24.51,98.67a4.37,4.37,0,0,0,3.94.16c1-.58.89-1.6-.28-2.28a4.42,4.42,0,0,0-4-.16C23.21,97,23.34,98,24.51,98.67Z"/><polygon class="cls-2" points="40.02 82.7 48.49 77.81 48.08 77.58 39.61 82.47 40.02 82.7"/><polygon class="cls-2" points="44.16 81.01 49.09 78.16 49.5 78.4 44.57 81.24 44.16 81.01"/><polygon class="cls-2" points="53.53 86.4 58.47 83.55 58.88 83.79 53.95 86.64 53.53 86.4"/><polygon class="cls-2" points="17.75 95.56 26.22 90.67 25.81 90.43 17.34 95.32 17.75 95.56"/><polygon class="cls-2" points="18.35 95.9 23.28 93.06 23.69 93.3 18.76 96.14 18.35 95.9"/><polygon class="cls-2" points="27.73 101.3 32.66 98.45 33.07 98.69 28.14 101.53 27.73 101.3"/><polygon class="cls-6" points="71.61 84.7 71.61 89.18 29.81 113.31 29.81 108.83 71.61 84.7"/><polygon class="cls-4" points="8.22 96.36 8.22 100.84 29.81 113.31 29.81 108.83 8.22 96.36"/><path class="cls-20" d="M31.66,110.3a34.85,34.85,0,0,1,4-2.2,30.85,30.85,0,0,1,3.68-1.73s0,0,0,0a43.44,43.44,0,0,1-4,2.18c-1.2.62-2.37,1.33-3.63,1.84C31.63,110.47,31.59,110.34,31.66,110.3Z"/><path class="cls-20" d="M34.32,108a52.83,52.83,0,0,1,10.55-6.42c.06,0,.1.06.05.09-3.48,2.14-6.91,4.53-10.49,6.49A.1.1,0,1,1,34.32,108Z"/><path class="cls-20" d="M60.27,94.1c1.68-1.2,3.48-2.21,5.27-3.24a51.2,51.2,0,0,1,5-2.67c.06,0,.1.06,0,.1-1.64,1.09-3.42,2-5.12,3s-3.38,2-5.13,3C60.27,94.26,60.19,94.15,60.27,94.1Z"/><path class="cls-21" d="M49.59,99.11c1.12-.8,2.33-1.46,3.52-2.15a22.29,22.29,0,0,1,3.18-1.73c.07,0,.11.08.06.12a26.38,26.38,0,0,1-3.5,2.2c-1,.61-2.07,1.24-3.17,1.75C49.57,99.36,49.5,99.18,49.59,99.11Z"/><path class="cls-20" d="M64.7,89.92a25.29,25.29,0,0,1,2.73-1.43c.91-.47,1.8-1,2.74-1.41,0,0,.1,0,0,.07a17.43,17.43,0,0,1-5.44,2.95A.1.1,0,0,1,64.7,89.92Z"/><path class="cls-6" d="M20.05,106.34c-1.68-1.2-3.48-2.21-5.27-3.24a51.28,51.28,0,0,0-5-2.68c-.06,0-.1.07,0,.11,1.63,1.09,3.41,2,5.12,3s3.38,2,5.13,3C20.05,106.5,20.13,106.39,20.05,106.34Z"/><path class="cls-6" d="M15.62,102.16a25.29,25.29,0,0,0-2.73-1.43c-.91-.47-1.8-1-2.74-1.41,0,0-.1,0-.06.07a17.59,17.59,0,0,0,5.45,3A.1.1,0,0,0,15.62,102.16Z"/><polygon class="cls-2" points="23.19 87.72 44.83 100.16 56.08 93.67 34.44 81.23 23.19 87.72"/><polygon class="cls-22" points="24.34 87.06 45.99 99.5 55.17 94.2 33.52 81.75 24.34 87.06"/><polygon class="cls-1" points="44.83 100.16 56.08 93.67 56.08 98.14 44.83 104.64 44.83 100.16"/><polygon class="cls-15" points="55.17 94.2 55.17 98.67 45.99 103.97 45.99 99.5 55.17 94.2"/><polygon class="cls-3" points="29.81 103.27 71.61 79.14 50.01 66.67 8.22 90.8 29.81 103.27"/><polygon class="cls-2" points="29.64 102.27 69.87 79.04 50.18 67.68 9.96 90.9 29.64 102.27"/><path class="cls-3" d="M16.41,89.5,47.75,71.4a8.44,8.44,0,0,0,7.59.32l1.08.62.85.49,5.6,3.24c-1.95,1.12-1.7,3.08.54,4.37L32.07,98.54c-2.24-1.3-5.64-1.44-7.58-.31L18.89,95,18,94.5,17,93.88C18.9,92.76,18.66,90.8,16.41,89.5Z"/><path class="cls-2" d="M31.35,97.31l.44-.26-1.57-.9-.38.22-.39-.23a.72.72,0,0,0,.26-.43l.35-.2,2.2,1.27.38-.22.51.3-1.29.74Z"/><path class="cls-2" d="M32.07,95.9c-.92-.53-1.1-1-.66-1.23a2.31,2.31,0,0,1,2.12.39c.92.53,1.13,1,.69,1.24A2.38,2.38,0,0,1,32.07,95.9Zm1-.58c-.74-.43-1-.46-1.19-.37s-.11.26.63.69,1.06.47,1.21.38S33.82,95.74,33.08,95.32Z"/><path class="cls-2" d="M33.77,94.92c-.93-.53-1.11-1-.67-1.22s1.2-.15,2.12.38,1.13,1,.69,1.24A2.36,2.36,0,0,1,33.77,94.92Zm1-.58c-.75-.43-1-.46-1.2-.36s-.11.26.63.68,1.06.47,1.22.38S35.51,94.77,34.78,94.34Z"/><path class="cls-2" d="M57,82.52l.45-.26-1.57-.9-.38.22-.39-.23a.8.8,0,0,0,.26-.43l.34-.2L58,82l.38-.22.51.29-1.3.75Z"/><path class="cls-2" d="M57.77,81.1c-.92-.53-1.1-1-.67-1.22a2.3,2.3,0,0,1,2.12.38c.93.54,1.13,1,.7,1.24A2.32,2.32,0,0,1,57.77,81.1Zm1-.58c-.74-.43-1-.45-1.19-.36s-.12.26.63.69,1.05.46,1.21.37S59.52,81,58.78,80.52Z"/><path class="cls-2" d="M59.46,80.13c-.92-.53-1.1-1-.67-1.23a2.33,2.33,0,0,1,2.13.39c.92.53,1.12,1,.69,1.24A2.38,2.38,0,0,1,59.46,80.13Zm1-.58c-.74-.43-1-.46-1.19-.37s-.12.26.63.69,1.05.47,1.21.38S61.21,80,60.47,79.55Z"/><path class="cls-18" d="M34.74,88c3.94,2.28,9.48,2.77,12.38,1.1s2-4.87-1.9-7.15-9.49-2.76-12.38-1.09S30.79,85.7,34.74,88Z"/><path class="cls-19" d="M35.39,87.6c3.49,2,8.41,2.46,11,1s1.81-4.32-1.69-6.34-8.41-2.45-11-1S31.89,85.58,35.39,87.6Z"/><path class="cls-2" d="M49.22,78.84a6.29,6.29,0,0,0,5.64.23c1.45-.83,1.27-2.29-.4-3.26a6.29,6.29,0,0,0-5.64-.23C47.37,76.41,47.55,77.87,49.22,78.84Z"/><path class="cls-1" d="M50,78.38a4.39,4.39,0,0,0,4,.17c1-.59.88-1.61-.29-2.28a4.37,4.37,0,0,0-3.94-.17C48.71,76.69,48.84,77.71,50,78.38Z"/><path class="cls-2" d="M23.72,93.56a6.26,6.26,0,0,0,5.64.23c1.45-.83,1.27-2.29-.4-3.25a6.27,6.27,0,0,0-5.64-.24C21.87,91.14,22.05,92.59,23.72,93.56Z"/><path class="cls-1" d="M24.51,93.11a4.4,4.4,0,0,0,3.94.16c1-.58.89-1.6-.28-2.28a4.39,4.39,0,0,0-4-.16C23.21,91.41,23.34,92.43,24.51,93.11Z"/><polygon class="cls-2" points="40.02 77.14 48.49 72.25 48.08 72.01 39.61 76.9 40.02 77.14"/><polygon class="cls-2" points="44.16 75.44 49.09 72.6 49.5 72.83 44.57 75.68 44.16 75.44"/><polygon class="cls-2" points="53.53 80.83 58.47 77.99 58.88 78.23 53.95 81.07 53.53 80.83"/><polygon class="cls-2" points="17.75 90 26.22 85.11 25.81 84.87 17.34 89.76 17.75 90"/><polygon class="cls-2" points="18.35 90.34 23.28 87.5 23.69 87.73 18.76 90.58 18.35 90.34"/><polygon class="cls-2" points="27.73 95.73 32.66 92.89 33.07 93.12 28.14 95.97 27.73 95.73"/><polygon class="cls-6" points="71.61 79.14 71.61 83.61 29.81 107.75 29.81 103.27 71.61 79.14"/><polygon class="cls-4" points="8.22 90.8 8.22 95.28 29.81 107.75 29.81 103.27 8.22 90.8"/><path class="cls-20" d="M31.66,104.73a36.35,36.35,0,0,1,4-2.19,29.37,29.37,0,0,1,3.68-1.73s0,0,0,0a43.35,43.35,0,0,1-4,2.17c-1.2.63-2.37,1.34-3.63,1.85C31.63,104.91,31.59,104.78,31.66,104.73Z"/><path class="cls-20" d="M34.32,102.39A53.26,53.26,0,0,1,44.87,96c.06,0,.1.06.05.09-3.48,2.14-6.91,4.52-10.49,6.49A.1.1,0,0,1,34.32,102.39Z"/><path class="cls-20" d="M60.27,88.54a60.51,60.51,0,0,1,5.27-3.24,49.22,49.22,0,0,1,5-2.68c.06,0,.1.07,0,.1-1.64,1.1-3.42,2-5.12,3s-3.38,2-5.13,3C60.27,88.7,60.19,88.59,60.27,88.54Z"/><path class="cls-21" d="M49.59,93.55c1.12-.8,2.33-1.47,3.52-2.16a23.26,23.26,0,0,1,3.18-1.72c.07,0,.11.07.06.12A26.32,26.32,0,0,1,52.85,92a35,35,0,0,1-3.17,1.76C49.57,93.79,49.5,93.62,49.59,93.55Z"/><path class="cls-20" d="M64.7,84.36a25.29,25.29,0,0,1,2.73-1.43c.91-.47,1.8-1,2.74-1.41,0,0,.1,0,0,.07a17.43,17.43,0,0,1-5.44,3A.1.1,0,0,1,64.7,84.36Z"/><path class="cls-6" d="M20.05,100.77c-1.68-1.19-3.48-2.21-5.27-3.23a49.22,49.22,0,0,0-5-2.68c-.06,0-.1.07,0,.1,1.63,1.1,3.41,2,5.12,3s3.38,2,5.13,3A.08.08,0,0,0,20.05,100.77Z"/><path class="cls-6" d="M15.62,96.6a23.63,23.63,0,0,0-2.73-1.43c-.91-.48-1.8-1-2.74-1.41,0,0-.1,0-.06.07a17.59,17.59,0,0,0,5.45,3A.1.1,0,0,0,15.62,96.6Z"/><polygon class="cls-2" points="23.19 82.16 44.83 94.6 56.08 88.11 34.44 75.67 23.19 82.16"/><polygon class="cls-22" points="24.34 81.49 45.99 93.93 55.17 88.63 33.52 76.19 24.34 81.49"/><polygon class="cls-1" points="44.83 94.6 56.08 88.11 56.08 92.58 44.83 99.08 44.83 94.6"/><polygon class="cls-15" points="55.17 88.63 55.17 93.11 45.99 98.41 45.99 93.93 55.17 88.63"/></g></g></svg>