<svg width="99" height="100" viewBox="0 0 99 100" fill="none" xmlns="http://www.w3.org/2000/svg">
<mask id="mask0_131_794" style="mask-type:luminance" maskUnits="userSpaceOnUse" x="0" y="0" width="99" height="100">
<path d="M0 0H99V99.8462H0V0Z" fill="white"/>
</mask>
<g mask="url(#mask0_131_794)">
<path d="M49.5771 0.356995C46.4085 0.356995 43.8436 2.94834 43.8436 6.14125C43.8436 9.33416 46.4085 11.9255 49.5771 11.9255C52.7436 11.9255 55.3085 9.33416 55.3085 6.14125C55.3085 2.94834 52.7436 0.356995 49.5771 0.356995ZM43.1715 12.5271C40.0579 14.6182 38.0086 18.1989 38.0086 22.2887V24.241C38.0086 27.4868 40.5911 30.1024 43.7929 30.1024H55.3592C58.5609 30.1024 61.1434 27.4868 61.1434 24.241V22.2887C61.1434 18.1989 59.0964 14.6182 55.9806 12.5271C54.3367 14.1885 52.0715 15.2308 49.5771 15.2308C47.0805 15.2308 44.8175 14.1885 43.1715 12.5271ZM29.6683 22.1851C29.4016 22.2005 29.1438 22.2799 28.9279 22.4165C16.1474 29.7939 8.26322 43.4359 8.26322 58.1951C8.21034 60.4427 11.6104 60.4427 11.5685 58.1951C11.5685 44.6148 18.8071 32.0745 30.5717 25.2833C32.1296 24.4393 31.4509 22.0727 29.6683 22.1851ZM69.3626 22.1851C67.6328 22.2711 67.126 24.4834 68.5803 25.2833C80.345 32.0745 87.5835 44.6148 87.5835 58.1951C87.5835 60.3987 90.8976 60.3987 90.8976 58.1951C90.8976 43.4359 83.0134 29.7939 70.233 22.4165C69.9928 22.2711 69.724 22.1939 69.3626 22.1851ZM53.982 33.8286C57.4085 36.4375 60.2047 39.7076 62.254 43.3919C63.8295 42.5479 65.3257 41.5409 66.747 40.3884C63.2258 36.9884 58.7857 34.7078 53.982 33.8286ZM45.1701 33.8374C40.3576 34.7166 35.9175 36.9884 32.405 40.3796C33.8263 41.5409 35.3225 42.5479 36.898 43.3919C38.9473 39.7076 41.7436 36.4375 45.1701 33.8374ZM51.221 35.9131V46.5517C53.9732 46.3776 56.6857 45.7937 59.2594 44.7955C57.2873 41.3271 54.5681 38.2797 51.221 35.9131ZM47.9157 35.9219C44.5751 38.2885 41.856 41.3271 39.8926 44.7955C42.4663 45.7937 45.1613 46.3776 47.9157 46.5517V35.9219ZM68.9924 42.8233C67.3331 44.1917 65.5593 45.3706 63.6907 46.3622C65.0437 49.5639 65.8524 52.997 66.0507 56.5425H74.3029C73.9679 51.5339 72.1082 46.7478 68.9924 42.8233ZM30.1927 42.841C27.0681 46.7654 25.2194 51.5427 24.8646 56.5425H33.1014C33.2997 52.997 34.1084 49.5639 35.4613 46.3622C33.6104 45.3794 31.8454 44.2005 30.1927 42.841ZM38.4471 47.7548C37.2947 50.5181 36.5962 53.4884 36.4067 56.5425H47.9157V49.8548C44.6611 49.6741 41.4682 48.969 38.4471 47.7548ZM60.7049 47.7636C57.6839 48.969 54.4822 49.6741 51.221 49.8548V56.5425H62.7454C62.5559 53.4884 61.8574 50.5269 60.7049 47.7636ZM24.8492 59.8478C25.1841 64.8586 27.0439 69.6513 30.1597 73.5846C31.8189 72.2074 33.5928 71.0285 35.4613 70.0303C34.1084 66.8374 33.2997 63.4021 33.1014 59.8478H24.8492ZM36.4067 59.8478C36.5962 62.9129 37.3035 65.8722 38.4471 68.6354C41.4682 67.4301 44.6611 66.725 47.9157 66.5355V59.8478H36.4067ZM51.221 59.8478V66.5355C54.4822 66.7162 57.6839 67.4301 60.7049 68.6354C61.8574 65.8722 62.5559 62.9129 62.7454 59.8478H51.221ZM66.0507 59.8478C65.8524 63.4021 65.0437 66.8374 63.6907 70.0303C65.5505 71.0197 67.3155 72.1897 68.9682 73.5581C72.0839 69.6336 73.9327 64.8586 74.2875 59.8478H66.0507ZM13.2212 66.4584C9.57212 66.4584 6.61058 69.4199 6.61058 73.0689C6.61058 76.718 9.57212 79.6795 13.2212 79.6795C16.8702 79.6795 19.8295 76.718 19.8295 73.0689C19.8295 69.4199 16.8702 66.4584 13.2212 66.4584ZM85.9397 66.4584C82.2907 66.4584 79.3313 69.4199 79.3313 73.0689C79.3313 76.718 82.2907 79.6795 85.9397 79.6795C89.5887 79.6795 92.5503 76.718 92.5503 73.0689C92.5503 69.4199 89.5887 66.4584 85.9397 66.4584ZM47.9157 69.8408C45.1613 70.0126 42.4663 70.6076 39.8926 71.6058C41.856 75.0741 44.5751 78.1216 47.9157 80.4794V69.8408ZM51.221 69.8408V80.4882C54.5681 78.1304 57.2961 75.0741 59.2594 71.6058C56.6857 70.5988 53.982 70.0126 51.221 69.8408ZM36.898 73.0006C35.3225 73.8512 33.8175 74.8494 32.405 76.0128C35.9175 79.4041 40.3576 81.6847 45.1613 82.5705C41.7348 79.9638 38.9385 76.6915 36.898 73.0006ZM62.254 73.0006C60.2135 76.6915 57.4173 79.9638 53.9996 82.5617C58.8033 81.6847 63.2346 79.4041 66.747 76.0128C65.3345 74.8494 63.8295 73.8512 62.254 73.0006ZM5.55068 79.3093C2.1859 81.7178 0 85.6599 0 90.1198V92.0479C0 96.1443 3.34716 99.509 7.44571 99.509H19.0032C23.1018 99.509 26.4313 96.1443 26.4313 92.0479V90.1198C26.4313 85.6687 24.2454 81.7178 20.8894 79.3093C19.0649 81.5459 16.3017 82.9848 13.2212 82.9848C10.1472 82.9848 7.3752 81.5459 5.55068 79.3093ZM78.2626 79.3093C74.9067 81.7178 72.7208 85.6599 72.7208 90.1198V92.0479C72.7208 96.1443 76.0679 99.509 80.1643 99.509H91.724C95.8203 99.509 99.152 96.1443 99.152 92.0479V90.1198C99.152 85.6687 96.9661 81.7178 93.6102 79.3093C91.7857 81.5459 89.0224 82.9848 85.9397 82.9848C82.8592 82.9848 80.0871 81.5459 78.2626 79.3093ZM64.8189 93.1915C64.5942 93.1827 64.3452 93.2268 64.0962 93.3304C54.7929 97.1689 44.2909 97.1513 35.0471 93.3304C34.7981 93.218 34.5491 93.1739 34.2736 93.2003C32.5769 93.3634 32.1649 95.6705 33.7911 96.3756C43.8964 100.551 55.2402 100.551 65.3522 96.3756C67.1348 95.6264 66.3944 93.2356 64.8189 93.1915Z" fill="#EFEFEF"/>
</g>
</svg>
