<svg xmlns="http://www.w3.org/2000/svg" xmlns:xlink="http://www.w3.org/1999/xlink" width="260" zoomAndPan="magnify" viewBox="0 0 194.87999 149.999998" height="200" preserveAspectRatio="xMidYMid meet" version="1.0"><defs><clipPath id="789e65e025"><path d="M 3.746094 0.046875 L 191.132812 0.046875 L 191.132812 149.953125 L 3.746094 149.953125 Z M 3.746094 0.046875 " clip-rule="nonzero"/></clipPath><clipPath id="7a04ecaca2"><path d="M 3.746094 18 L 191.132812 18 L 191.132812 149.953125 L 3.746094 149.953125 Z M 3.746094 18 " clip-rule="nonzero"/></clipPath></defs><g clip-path="url(#789e65e025)"><path fill="#ffa000" d="M 172.394531 18.785156 L 88.070312 18.785156 L 69.332031 0.046875 L 22.484375 0.046875 C 12.179688 0.046875 3.746094 8.476562 3.746094 18.785156 L 3.746094 131.214844 C 3.746094 141.523438 12.179688 149.953125 22.484375 149.953125 L 161.621094 149.953125 L 191.132812 98.421875 L 191.132812 37.523438 C 191.132812 27.21875 182.699219 18.785156 172.394531 18.785156 Z M 172.394531 18.785156 " fill-opacity="1" fill-rule="nonzero"/></g><g clip-path="url(#7a04ecaca2)"><path fill="#ffca28" d="M 172.394531 18.785156 L 22.484375 18.785156 C 12.179688 18.785156 3.746094 27.21875 3.746094 37.523438 L 3.746094 131.214844 C 3.746094 141.523438 12.179688 149.953125 22.484375 149.953125 L 172.394531 149.953125 C 182.699219 149.953125 191.132812 141.523438 191.132812 131.214844 L 191.132812 37.523438 C 191.132812 27.21875 182.699219 18.785156 172.394531 18.785156 Z M 172.394531 18.785156 " fill-opacity="1" fill-rule="nonzero"/></g></svg>