<svg width="107" height="119" viewBox="0 0 107 119" fill="none" xmlns="http://www.w3.org/2000/svg">
<mask id="mask0_130_2851" style="mask-type:luminance" maskUnits="userSpaceOnUse" x="0" y="0" width="107" height="119">
<path d="M0.13623 0.0720215H106.708V118.899H0.13623V0.0720215Z" fill="white"/>
</mask>
<g mask="url(#mask0_130_2851)">
<path d="M54.6365 63.1702C54.5743 62.4258 55.1189 61.7747 55.8633 61.7073C56.6 61.6399 57.2588 62.1819 57.321 62.9264C57.3755 63.4244 57.6738 63.8912 58.1407 64.2466C58.6776 64.6434 59.3986 64.8898 60.2105 64.8898C61.0638 64.8898 61.8134 64.6227 62.3503 64.1843C62.812 63.8082 63.1025 63.3102 63.1025 62.7811C63.1025 61.2456 61.5307 60.9395 59.9589 60.6335C57.2925 60.1173 54.6132 59.596 54.6132 55.8402C54.6132 54.4604 55.2823 53.2231 56.3536 52.3413C57.0357 51.781 57.8865 51.3764 58.8358 51.1663V50.0639C58.8358 49.3195 59.4349 48.7126 60.1871 48.7126H60.2546C60.999 48.7308 61.5878 49.3403 61.58 50.0847L61.5514 51.1585C62.5085 51.3582 63.3749 51.781 64.0648 52.3413C65.1386 53.2231 65.8 54.4578 65.8 55.8402C65.8 56.5898 65.1931 57.1968 64.4513 57.1968C63.7068 57.1968 63.0999 56.5898 63.0999 55.8402C63.0999 55.3085 62.8068 54.8105 62.3477 54.4344C61.8134 53.9961 61.0612 53.7211 60.2079 53.7211C59.3571 53.7211 58.5998 53.9961 58.0603 54.4344C57.6012 54.8105 57.3158 55.3085 57.3158 55.8402C57.3158 57.3731 58.8877 57.6792 60.4595 57.9775C63.1284 58.5014 65.7974 59.0228 65.7974 62.7811C65.7974 64.161 65.136 65.3956 64.0622 66.2775C63.3723 66.8377 62.5137 67.2527 61.5566 67.4602L61.5307 68.3577V68.5574C61.5307 69.3018 60.9263 69.9087 60.1819 69.9087C59.4298 69.9087 58.8306 69.3018 58.8306 68.5574V67.455C57.9591 67.2631 57.1602 66.9026 56.5092 66.4046C55.4561 65.6005 54.7584 64.4644 54.6365 63.1702ZM90.0542 68.9672L94.9148 65.8703C96.3777 64.9417 97.8069 64.2803 99.1608 63.8601C99.2775 63.1442 99.2464 62.418 99.07 61.7203C98.8314 60.8228 98.3645 59.985 97.6513 59.3133C96.6397 58.3536 95.3195 57.8945 94.0174 57.9334C92.705 57.9697 91.4159 58.5014 90.4588 59.513L89.2864 60.7554C89.6781 63.3076 89.9297 66.0363 90.0542 68.9672ZM49.5216 70.2615L60.3402 71.7347C62.6797 72.0564 64.721 72.5907 66.3966 73.3065C69.0344 72.1316 71.2832 70.2381 72.8835 67.8778C74.5409 65.4397 75.5058 62.4854 75.5058 59.3055C75.5058 55.088 73.7888 51.2597 71.0212 48.4921C68.2537 45.7246 64.4331 44.0153 60.2079 44.0153C55.9827 44.0153 52.1569 45.7246 49.3893 48.4921C46.6218 51.2597 44.9125 55.088 44.9125 59.3055C44.9125 61.4894 45.3638 63.567 46.1861 65.4397C46.9823 67.2579 48.1236 68.892 49.5216 70.2615ZM32.8127 70.3159C33.6012 69.8102 34.4597 69.4263 35.3727 69.1669C36.6929 68.7986 38.1195 68.7078 39.5902 68.9075L45.5247 69.7142C44.8192 68.7156 44.2044 67.6496 43.7168 66.5161C42.7416 64.3088 42.2073 61.8681 42.2073 59.3081C42.2073 54.3384 44.2252 49.8357 47.4804 46.5779C50.7407 43.3254 55.2408 41.31 60.2105 41.31C65.1801 41.31 69.6829 43.328 72.9406 46.5779C76.2009 49.8357 78.2085 54.3384 78.2085 59.3081C78.2085 63.0405 77.0724 66.5083 75.1193 69.3926C73.5942 71.6439 71.5763 73.5322 69.2082 74.8965C70.3209 75.7473 71.1094 76.7277 71.5478 77.8093C71.8953 78.6834 72.0069 79.5886 71.8772 80.5301L87.4215 70.6454C87.2581 63.8523 86.3866 58.0942 84.7292 53.3632C83.0588 48.5777 80.574 44.8583 77.1944 42.1997C76.3488 41.5409 75.6589 41.1051 75.1168 40.7576C72.4478 39.0794 72.0276 38.8097 74.03 34.5922C74.4035 33.7959 74.7718 33.0827 75.1479 32.3409C76.4448 29.8016 77.8947 26.9562 78.4549 24.0045C76.6237 24.1342 74.3516 23.9423 72.2429 23.4754C70.2198 23.0319 68.2848 22.3108 66.9361 21.3511C66.8142 21.4678 66.6819 21.582 66.56 21.6909C64.6873 23.2523 62.4515 24.0434 60.2105 24.0434C57.9799 24.0434 55.7388 23.2523 53.8713 21.6909C53.7494 21.582 53.6172 21.4678 53.4953 21.3511C52.1517 22.3108 50.2349 23.0319 48.2273 23.4832C46.1342 23.9527 43.888 24.1342 42.062 24.0045C42.6456 27.7784 44.303 31.3293 45.6984 34.3329L45.7374 34.4184C47.7138 38.6644 47.2547 38.9497 44.5624 40.6071C43.9866 40.9573 43.2577 41.4138 42.4459 42.0311C38.8665 44.7857 36.3895 48.71 34.8488 53.7938C33.4482 58.3717 32.8127 63.8834 32.8127 70.3159ZM68.0462 86.1664H68.0358C67.4678 86.5243 66.7026 86.4128 66.2721 85.8733C65.7974 85.2974 65.8882 84.4467 66.4666 83.9798L68.0462 86.1664ZM7.54697 89.4241L1.38163 94.871C1.2675 94.9799 1.143 95.1096 1.01331 95.2549C0.432314 95.924 0.13922 96.7255 0.147002 97.5166C0.147002 98.3129 0.453064 99.1169 1.04444 99.7939C1.15338 99.9158 1.28306 100.04 1.44388 100.178L21.8178 117.922C22.7204 118.71 23.9187 119.107 25.1248 119.107C26.3283 119.107 27.5137 118.715 28.3955 117.935L34.5609 112.488C34.6828 112.381 34.8073 112.259 34.937 112.104C35.518 111.437 35.8111 110.633 35.8033 109.842C35.7955 109.046 35.4972 108.242 34.8981 107.565C34.7969 107.448 34.6672 107.318 34.5038 107.181L14.1299 89.4397C13.9769 89.2996 13.8083 89.1803 13.6319 89.0636C13.6034 89.0454 13.5697 89.0247 13.5411 89.0091C12.7345 88.5033 11.7774 88.2491 10.8281 88.2491C9.62456 88.2517 8.43663 88.6434 7.54697 89.4241ZM16.4332 87.8627L35.2482 104.25L35.2949 104.242C35.3779 104.219 35.4791 104.203 35.5698 104.203L65.2242 103.368C66.0672 103.345 66.8505 103.2 67.5767 102.938C68.29 102.683 68.9488 102.31 69.5558 101.817L102.802 75.047C105.679 72.7411 106.859 70.5624 106.844 68.8998C106.836 68.2773 106.644 67.7404 106.309 67.2968V67.289C105.949 66.8377 105.42 66.4772 104.745 66.2489C103.671 65.8806 102.299 65.8339 100.72 66.2178C100.65 66.2412 100.582 66.2645 100.512 66.2723C99.2386 66.6095 97.8354 67.2242 96.3622 68.158L68.0462 86.1715C67.7998 86.3246 67.5145 86.3998 67.2084 86.379L41.8804 84.3404C41.1386 84.2859 40.5784 83.6349 40.6406 82.8904C40.6951 82.146 41.3461 81.5858 42.0905 81.648L66.8738 83.6426C67.9009 82.7426 68.5753 81.8789 68.9307 81.067C69.2886 80.2552 69.3068 79.503 69.037 78.8183C68.7387 78.0661 68.0721 77.3554 67.0995 76.7173C65.4654 75.6435 63.0351 74.8317 59.9822 74.4167L39.2296 71.5791C38.1351 71.4339 37.0742 71.5039 36.1016 71.771C35.1445 72.0408 34.2626 72.5232 33.4793 73.1898L16.4332 87.8627ZM95.1976 0.308036C89.1801 1.14582 83.4297 4.0975 80.1071 7.97776H80.0993C79.7155 8.42129 79.0722 8.58469 78.5042 8.32532L76.9765 7.60166L78.18 16.2129L87.367 12.5765L86.6538 12.2393C86.6071 12.2159 86.5682 12.1926 86.5241 12.1693C85.8886 11.7828 85.6889 10.9554 86.0728 10.3199C88.0907 6.99213 91.4392 4.13901 96.1106 2.48419C98.6006 1.6101 101.477 1.07319 104.719 0.987598C101.708 0.0330983 98.4164 -0.138089 95.1976 0.308036ZM43.1177 7.97516C39.7977 4.0975 34.0473 1.14322 28.0272 0.305442C24.798 -0.138089 21.5143 0.0305047 18.5004 0.987598C21.7452 1.07319 24.6113 1.6101 27.1038 2.48419C31.7726 4.13901 35.1315 6.99213 37.1468 10.3199C37.5307 10.9554 37.3232 11.7828 36.6878 12.1693C36.6488 12.1926 36.6048 12.2133 36.5658 12.2393L35.8526 12.5765L45.0293 16.2129L46.2431 7.60166L44.7076 8.32532C44.1526 8.5821 43.5015 8.42129 43.1177 7.97516Z" fill="#EFEFEF"/>
</g>
</svg>
