<svg xmlns="http://www.w3.org/2000/svg" xmlns:xlink="http://www.w3.org/1999/xlink" width="500" zoomAndPan="magnify" viewBox="0 0 375 374.999991" height="500" preserveAspectRatio="xMidYMid meet" version="1.0"><defs><clipPath id="f7cac28974"><path d="M 79.570312 78.863281 L 295.570312 78.863281 L 295.570312 296.363281 L 79.570312 296.363281 Z M 79.570312 78.863281 " clip-rule="nonzero"/></clipPath></defs><path fill="#000000" d="M 114.007812 204.769531 L 131.183594 204.769531 C 133.566406 204.769531 135.496094 202.835938 135.496094 200.453125 L 135.496094 183.269531 C 135.496094 180.886719 133.566406 178.953125 131.183594 178.953125 L 114.007812 178.953125 C 111.625 178.953125 109.695312 180.886719 109.695312 183.269531 L 109.695312 200.453125 C 109.695312 202.835938 111.625 204.769531 114.007812 204.769531 Z M 114.007812 204.769531 " fill-opacity="1" fill-rule="nonzero"/><path fill="#000000" d="M 114.007812 240.296875 L 131.183594 240.296875 C 133.566406 240.296875 135.496094 238.363281 135.496094 235.980469 L 135.496094 218.796875 C 135.496094 216.414062 133.566406 214.480469 131.183594 214.480469 L 114.007812 214.480469 C 111.625 214.480469 109.695312 216.414062 109.695312 218.796875 L 109.695312 235.980469 C 109.695312 238.363281 111.625 240.296875 114.007812 240.296875 Z M 114.007812 240.296875 " fill-opacity="1" fill-rule="nonzero"/><path fill="#000000" d="M 114.007812 275.824219 L 131.183594 275.824219 C 133.566406 275.824219 135.496094 273.890625 135.496094 271.507812 L 135.496094 254.324219 C 135.496094 251.941406 133.566406 250.007812 131.183594 250.007812 L 114.007812 250.007812 C 111.625 250.007812 109.695312 251.941406 109.695312 254.324219 L 109.695312 271.507812 C 109.695312 273.890625 111.625 275.824219 114.007812 275.824219 Z M 114.007812 275.824219 " fill-opacity="1" fill-rule="nonzero"/><path fill="#000000" d="M 157.324219 204.769531 L 174.5 204.769531 C 176.882812 204.769531 178.8125 202.835938 178.8125 200.453125 L 178.8125 183.269531 C 178.8125 180.886719 176.882812 178.953125 174.5 178.953125 L 157.324219 178.953125 C 154.941406 178.953125 153.007812 180.886719 153.007812 183.269531 L 153.007812 200.453125 C 153.011719 202.835938 154.941406 204.769531 157.324219 204.769531 Z M 157.324219 204.769531 " fill-opacity="1" fill-rule="nonzero"/><path fill="#000000" d="M 157.324219 240.296875 L 174.5 240.296875 C 176.882812 240.296875 178.8125 238.363281 178.8125 235.980469 L 178.8125 218.796875 C 178.8125 216.414062 176.882812 214.480469 174.5 214.480469 L 157.324219 214.480469 C 154.941406 214.480469 153.007812 216.414062 153.007812 218.796875 L 153.007812 235.980469 C 153.011719 238.363281 154.941406 240.296875 157.324219 240.296875 Z M 157.324219 240.296875 " fill-opacity="1" fill-rule="nonzero"/><path fill="#000000" d="M 157.324219 275.824219 L 174.5 275.824219 C 176.882812 275.824219 178.8125 273.890625 178.8125 271.507812 L 178.8125 254.324219 C 178.8125 251.941406 176.882812 250.007812 174.5 250.007812 L 157.324219 250.007812 C 154.941406 250.007812 153.007812 251.941406 153.007812 254.324219 L 153.007812 271.507812 C 153.011719 273.890625 154.941406 275.824219 157.324219 275.824219 Z M 157.324219 275.824219 " fill-opacity="1" fill-rule="nonzero"/><path fill="#000000" d="M 200.640625 204.769531 L 217.816406 204.769531 C 220.199219 204.769531 222.128906 202.835938 222.128906 200.453125 L 222.128906 183.269531 C 222.128906 180.886719 220.199219 178.953125 217.816406 178.953125 L 200.640625 178.953125 C 198.257812 178.953125 196.328125 180.886719 196.328125 183.269531 L 196.328125 200.453125 C 196.324219 202.835938 198.257812 204.769531 200.640625 204.769531 Z M 200.640625 204.769531 " fill-opacity="1" fill-rule="nonzero"/><path fill="#000000" d="M 217.816406 250.007812 L 200.640625 250.007812 C 198.257812 250.007812 196.328125 251.941406 196.328125 254.324219 L 196.328125 271.507812 C 196.328125 273.890625 198.257812 275.824219 200.640625 275.824219 L 217.816406 275.824219 C 220.199219 275.824219 222.128906 273.890625 222.128906 271.507812 L 222.128906 254.324219 C 222.128906 251.941406 220.199219 250.007812 217.816406 250.007812 Z M 217.816406 250.007812 " fill-opacity="1" fill-rule="nonzero"/><path fill="#000000" d="M 243.953125 204.769531 L 261.132812 204.769531 C 263.511719 204.769531 265.445312 202.835938 265.445312 200.453125 L 265.445312 183.269531 C 265.445312 180.886719 263.515625 178.953125 261.132812 178.953125 L 243.953125 178.953125 C 241.574219 178.953125 239.640625 180.886719 239.640625 183.269531 L 239.640625 200.453125 C 239.640625 202.835938 241.574219 204.769531 243.953125 204.769531 Z M 243.953125 204.769531 " fill-opacity="1" fill-rule="nonzero"/><path fill="#000000" d="M 243.953125 240.296875 L 261.132812 240.296875 C 263.511719 240.296875 265.445312 238.363281 265.445312 235.980469 L 265.445312 218.796875 C 265.445312 216.414062 263.515625 214.480469 261.132812 214.480469 L 243.953125 214.480469 C 241.574219 214.480469 239.640625 216.414062 239.640625 218.796875 L 239.640625 235.980469 C 239.640625 238.363281 241.574219 240.296875 243.953125 240.296875 Z M 243.953125 240.296875 " fill-opacity="1" fill-rule="nonzero"/><g clip-path="url(#f7cac28974)"><path fill="#000000" d="M 244.902344 78.871094 C 240.859375 78.871094 237.578125 82.152344 237.578125 86.199219 L 237.578125 100.925781 L 137.9375 100.925781 L 137.9375 86.199219 C 137.9375 82.152344 134.65625 78.871094 130.613281 78.871094 C 126.566406 78.871094 123.285156 82.152344 123.285156 86.199219 L 123.285156 100.925781 L 100.199219 100.925781 C 88.824219 100.925781 79.570312 110.183594 79.570312 121.5625 L 79.570312 275.714844 C 79.570312 287.097656 88.824219 296.355469 100.199219 296.355469 L 274.941406 296.355469 C 286.316406 296.355469 295.570312 287.097656 295.570312 275.714844 L 295.570312 121.5625 C 295.570312 110.183594 286.316406 100.925781 274.941406 100.925781 L 252.230469 100.925781 L 252.230469 86.199219 C 252.230469 82.152344 248.949219 78.871094 244.902344 78.871094 Z M 123.285156 111.441406 L 123.285156 120.539062 C 123.285156 124.585938 126.566406 127.867188 130.613281 127.867188 C 134.65625 127.867188 137.9375 124.585938 137.9375 120.539062 L 137.9375 111.441406 C 140.59375 113.582031 142.289062 116.859375 142.289062 120.539062 C 142.289062 126.992188 137.0625 132.222656 130.613281 132.222656 C 124.160156 132.222656 118.933594 126.992188 118.933594 120.539062 C 118.933594 116.859375 120.632812 113.582031 123.285156 111.441406 Z M 285.40625 275.714844 C 285.40625 281.488281 280.710938 286.1875 274.941406 286.1875 L 100.199219 286.1875 C 94.429688 286.1875 89.734375 281.488281 89.734375 275.714844 L 89.734375 168.59375 L 285.40625 168.59375 Z M 256.582031 120.539062 C 256.582031 126.992188 251.355469 132.222656 244.902344 132.222656 C 238.453125 132.222656 233.222656 126.992188 233.222656 120.539062 C 233.222656 116.859375 234.921875 113.582031 237.578125 111.441406 L 237.578125 120.539062 C 237.578125 124.585938 240.855469 127.867188 244.902344 127.867188 C 248.949219 127.867188 252.226562 124.585938 252.226562 120.539062 L 252.226562 111.4375 C 254.882812 113.582031 256.582031 116.859375 256.582031 120.539062 Z M 256.582031 120.539062 " fill-opacity="1" fill-rule="nonzero"/></g><path fill="#000000" d="M 207.867188 242.574219 L 228.335938 222.097656 C 230.320312 220.109375 230.320312 216.890625 228.335938 214.90625 C 226.351562 212.921875 223.136719 212.921875 221.148438 214.90625 L 207.867188 228.195312 L 202.535156 222.859375 C 200.550781 220.871094 197.332031 220.871094 195.347656 222.859375 C 193.363281 224.84375 193.363281 228.0625 195.347656 230.046875 Z M 207.867188 242.574219 " fill-opacity="1" fill-rule="nonzero"/></svg>